<mxfile host="app.diagrams.net" modified="2023-12-03T07:13:09.361Z" agent="Mozilla/5.0 (Windows NT 10.0; Win64; x64) AppleWebKit/537.36 (KHTML, like Gecko) Chrome/119.0.0.0 Safari/537.36" etag="XYB-eK-_sVbEoSHvUbx4" version="21.6.8" type="device">
  <diagram name="Page-1" id="5f0bae14-7c28-e335-631c-24af17079c00">
    <mxGraphModel dx="5880" dy="1610" grid="1" gridSize="10" guides="1" tooltips="1" connect="1" arrows="1" fold="1" page="1" pageScale="1" pageWidth="1100" pageHeight="850" background="none" math="0" shadow="0">
      <root>
        <mxCell id="0" />
        <mxCell id="1" parent="0" />
        <mxCell id="PHoNQdwAoVbEZFHkZa52-117" value="Private Network" style="swimlane;whiteSpace=wrap;html=1;" vertex="1" parent="1">
          <mxGeometry x="-970" y="1220" width="2740" height="2010" as="geometry" />
        </mxCell>
        <mxCell id="PHoNQdwAoVbEZFHkZa52-49" value="Docker Network" style="swimlane;horizontal=0;whiteSpace=wrap;html=1;" vertex="1" parent="PHoNQdwAoVbEZFHkZa52-117">
          <mxGeometry x="40" y="85" width="2030" height="1475" as="geometry" />
        </mxCell>
        <mxCell id="PHoNQdwAoVbEZFHkZa52-51" value="Docker Container" style="swimlane;whiteSpace=wrap;html=1;" vertex="1" parent="PHoNQdwAoVbEZFHkZa52-49">
          <mxGeometry x="40" y="175" width="1050" height="380" as="geometry" />
        </mxCell>
        <mxCell id="PHoNQdwAoVbEZFHkZa52-45" value="" style="group" vertex="1" connectable="0" parent="PHoNQdwAoVbEZFHkZa52-51">
          <mxGeometry x="160" y="50" width="730" height="310" as="geometry" />
        </mxCell>
        <mxCell id="PHoNQdwAoVbEZFHkZa52-17" value="" style="group" vertex="1" connectable="0" parent="PHoNQdwAoVbEZFHkZa52-45">
          <mxGeometry x="249.68000000000006" width="210.64" height="80" as="geometry" />
        </mxCell>
        <mxCell id="PHoNQdwAoVbEZFHkZa52-18" value="" style="shape=image;verticalLabelPosition=bottom;labelBackgroundColor=none;verticalAlign=top;aspect=fixed;imageAspect=0;image=data:image/svg+xml,PHN2ZyB4bWxuczp4bGluaz0iaHR0cDovL3d3dy53My5vcmcvMTk5OS94bGluayIgeG1sbnM9Imh0dHA6Ly93d3cudzMub3JnLzIwMDAvc3ZnIiB4bWw6c3BhY2U9InByZXNlcnZlIiBzdHlsZT0iZW5hYmxlLWJhY2tncm91bmQ6bmV3IDAgMCAxNTAwIDQ3MDsiIHZpZXdCb3g9IjAgMCAxNTAwIDQ3MCIgeT0iMHB4IiB4PSIwcHgiIGlkPSLroIjsnbTslrRfMSIgdmVyc2lvbj0iMS4xIj4mI3hhOzxnPiYjeGE7CTxwYXRoIGQ9Ik0xOTgsMTE5djc2SDgzdi03NkgxOTggTTI0OCw2OUg2M2MtMTYuNTY5LDAtMzAsMTMuNDMxLTMwLDMwdjExNmMwLDE2LjU2OSwxMy40MzEsMzAsMzAsMzBoMTg1VjY5TDI0OCw2OXoiLz4mI3hhOzwvZz4mI3hhOzxnPiYjeGE7CTxyZWN0IGhlaWdodD0iMzAzIiB3aWR0aD0iNTIuNSIgeT0iNjkiIHg9IjMyLjUiLz4mI3hhOzwvZz4mI3hhOzxnPiYjeGE7CSYjeGE7CQk8cmVjdCBoZWlnaHQ9IjE3Ni45MzkiIHdpZHRoPSI1Mi41IiB0cmFuc2Zvcm09Im1hdHJpeCgwLjc5MTQgLTAuNjExMyAwLjYxMTMgMC43OTE0IC0xMzYuNjIxNiAxNzEuMjY0NykiIHk9IjE5Ny4zMzciIHg9IjE1Ni4zNzIiLz4mI3hhOzwvZz4mI3hhOzxnPiYjeGE7CTxyZWN0IGhlaWdodD0iNTIuNSIgd2lkdGg9Ijc5Ljg0OCIgeT0iMzE5LjU1NyIgeD0iMjE2LjE1MiIvPiYjeGE7PC9nPiYjeGE7PGc+JiN4YTsJPHJlY3QgaGVpZ2h0PSIzMDMiIHdpZHRoPSI1Mi41IiB5PSI2OSIgeD0iMjk1LjUiLz4mI3hhOzwvZz4mI3hhOzxnPiYjeGE7CTxwYXRoIGQ9Ik01MzguMDc4LDM0My41NDFsLTQyLjM1MywyOC44NzJjLTAuMjgzLDAuMTkzLTAuNjcsMC4xMi0wLjg2My0wLjE2M0wzMDYuNDEzLDk1LjgwOWMtMC4xOTMtMC4yODMtMC4xMi0wLjY3LDAuMTYzLTAuODYzJiMxMDsmIzk7JiM5O2wzNS45MjYtMjQuNDkxYzMuODMzLTIuNjEzLDkuMDU4LTEuNjI0LDExLjY3MSwyLjIwOWwxODQuMDY3LDI3MC4wMTRDNTM4LjQzNCwzNDIuOTYyLDUzOC4zNjEsMzQzLjM0OCw1MzguMDc4LDM0My41NDF6Ii8+JiN4YTs8L2c+JiN4YTs8Zz4mI3hhOwk8cmVjdCBoZWlnaHQ9IjMwMC4xMTQiIHdpZHRoPSI1MiIgeT0iNzIuNDQzIiB4PSI0OTQiLz4mI3hhOzwvZz4mI3hhOzxnPiYjeGE7CTxwYXRoIGQ9Ik02MDMuOTM4LDE3OS43MnYzOC4zMDNoLTE1Ljg4M3YtOTEuODMzaDM1Ljc5M2M0LjI5NiwwLDguMjY3LDAuNzYyLDExLjkxMiwyLjI4NGMzLjY0NCwxLjUyMyw2Ljc5MSwzLjY3MSw5LjQzOCw2LjQ0MiYjMTA7JiM5OyYjOTtjMi42NDcsMi43NzMsNC42OTksNi4wNzMsNi4xNTcsOS44OThjMS40NTcsMy44MjcsMi4xODcsOC4wNDQsMi4xODcsMTIuNjVjMCw0LjE0LTAuNTk1LDcuOTA3LTEuNzg0LDExLjMwNCYjMTA7JiM5OyYjOTtjLTEuMTksMy4zOTctMi44NzcsNi4zODQtNS4wNjQsOC45NjFjLTIuMTg3LDIuNTc3LTQuNzk2LDQuNjg1LTcuODI2LDYuMzI1Yy0zLjAzMiwxLjY0LTYuMzg3LDIuNzM0LTEwLjA3LDMuMjhsMjUuODk2LDMwLjY4OSYjMTA7JiM5OyYjOTtoLTE5LjQ1TDYwMy45MzgsMTc5LjcyeiBNNjIyLjIzNywxNzQuNTY2YzQuODM0LDAsOC41NTQtMS42MiwxMS4xNjQtNC44NjFjMi42MDgtMy4yNCwzLjkxMy03LjMyMSwzLjkxMy0xMi4yNDEmIzEwOyYjOTsmIzk7YzAtNC45MTktMS4zMDUtOC45NzktMy45MTMtMTIuMTgyYy0yLjYwOS0zLjIwMS02LjMzLTQuODAzLTExLjE2NC00LjgwM2gtMTguMjk5djM0LjA4Nkg2MjIuMjM3eiIvPiYjeGE7CTxwYXRoIGQ9Ik03MzguNTkzLDEyNi4xODl2OTEuODMzSDcyMi43MXYtMzcuOTUyaC0zNi4wMjNsLTUuNzU0LTEwLjE5djQ4LjE0Mkg2NjUuMDV2LTkxLjgzM2gxNS44ODN2MzkuODI2aDQxLjc3OHYtMzkuODI2SDczOC41OTMmIzEwOyYjOTsmIzk7eiIvPiYjeGE7CTxwYXRoIGQ9Ik03ODMuNTkzLDE3MS44NzJoLTExLjM5NWwtMjQuOTc0LTQ1LjY4M2gxOC4xODRsMjEuNDA3LDM5LjU5MmwyMS40MDYtMzkuNTkyaDE4LjE4NWwtMzEuNjUsNTguMjE2djMzLjYxOGgtMTUuODgydi0zNy4zNjYmIzEwOyYjOTsmIzk7TDc4My41OTMsMTcxLjg3MnoiLz4mI3hhOwk8cGF0aCBkPSJNODc5LjkyNSwyMDAuMTAyaC0zMS42NWwtNS4xNzktOS4yNTRsLTguNjMyLDI3LjE3NWgtMTYuNjg4bDI5LjgwOS05MS44MzNoMjQuOTc1bDI5LjgwOSw5MS44MzNoLTE2LjY4OEw4NzkuOTI1LDIwMC4xMDJ6JiMxMDsmIzk7JiM5OyBNODQ0LjcwNywxODUuNTc3aDMwLjYxNGwtMTUuMTkyLTQ4LjI1OUw4NDQuNzA3LDE4NS41Nzd6Ii8+JiN4YTsJPHBhdGggZD0iTTkxMi4xNDksMjI0LjU4M3YtMTcuOTIxaDE3LjQ5NHYxNy45MjFIOTEyLjE0OXoiLz4mI3hhOwk8cGF0aCBkPSJNOTQ2LjkwNywxMjYuMTg5aDI3LjczNmwzMC4xNTQsODEuMTc0di04MS4xNzRoMTUuNjUydjkxLjgzM2gtMjcuNzM3bC0zMC4xNTMtODEuMTc0djgxLjE3NGgtMTUuNjUyVjEyNi4xODl6Ii8+JiN4YTsJPHBhdGggZD0iTTEwNDYuNTc0LDE4MC4zMDZjLTAuMDc3LDAuNjI2LTAuMTE1LDEuMjMtMC4xMTUsMS44MTVjMCwwLjU4NiwwLDEuMTkyLDAsMS44MTZjMCwzLjkwNiwwLjUzNiw3LjIwNCwxLjYxMSw5Ljg5OCYjMTA7JiM5OyYjOTtjMS4wNzMsMi42OTQsMi41MzIsNC45MDEsNC4zNzMsNi42MThjMS44NDIsMS43MTgsMy45MzIsMi45NjgsNi4yNzIsMy43NDhjMi4zNCwwLjc4Miw0Ljc3NiwxLjE3MSw3LjMwOSwxLjE3MSYjMTA7JiM5OyYjOTtjMy42MDUsMCw2LjYxOC0wLjY2Myw5LjAzNC0xLjk5MWMyLjQxNy0xLjMyNyw0LjM5Mi0zLjI0LDUuOTI4LTUuNzRoMTUuNjUyYy0xLjE1MSwzLjUxNC0yLjc2Myw2LjYxOC00LjgzNCw5LjMxMiYjMTA7JiM5OyYjOTtjLTIuMDcxLDIuNjk0LTQuNDUxLDQuOTU4LTcuMTM2LDYuNzkzYy0yLjY4NywxLjgzNC01LjYyMSwzLjIwMS04LjgwNSw0LjFjLTMuMTg1LDAuODk3LTYuNDY1LDEuMzQ3LTkuODQsMS4zNDcmIzEwOyYjOTsmIzk7Yy00LjM3MywwLTguNTk0LTAuNzQzLTEyLjY2LTIuMjI2Yy00LjA2Ny0xLjQ4NC03LjY5My0zLjY4OS0xMC44NzYtNi42MThjLTMuMTg1LTIuOTI4LTUuNzM2LTYuNTk4LTcuNjUzLTExLjAxJiMxMDsmIzk7JiM5O2MtMS45MTktNC40MTEtMi44NzctOS41NDctMi44NzctMTUuNDAzYzAtNS43NzgsMC45NzgtMTAuODc0LDIuOTM1LTE1LjI4NmMxLjk1Ni00LjQxMSw0LjUwNy04LjEyMSw3LjY1My0xMS4xMjgmIzEwOyYjOTsmIzk7YzMuMTQ2LTMuMDA1LDYuNzEzLTUuMjcxLDEwLjcwMy02Ljc5M2MzLjk4OS0xLjUyMyw4LjA1Ny0yLjI4NCwxMi4yLTIuMjg0YzQuMjk2LDAsOC40MDEsMC44NCwxMi4zMTQsMi41MTgmIzEwOyYjOTsmIzk7YzMuOTEzLDEuNjgsNy4zNDYsNC4xMiwxMC4zMDEsNy4zMjFjMi45NTIsMy4yMDMsNS4zMTIsNy4wODYsNy4wNzgsMTEuNjU1YzEuNzY0LDQuNTY4LDIuNjQ2LDkuNzQyLDIuNjQ2LDE1LjUydjQuNDUxaC00NC41NCYjMTA7JiM5OyYjOTtMMTA0Ni41NzQsMTgwLjMwNnogTTEwNjUuNDQ5LDE2Mi4wMzNjLTEuODQyLDAtMy43MjMsMC4yNzQtNS42NCwwLjgyYy0xLjkxOSwwLjU0Ny0zLjcwMywxLjQwNi01LjM1MiwyLjU3NyYjMTA7JiM5OyYjOTtjLTEuNjUxLDEuMTcxLTMuMTI3LDIuNzE0LTQuNDMyLDQuNjI3Yy0xLjMwNSwxLjkxNC0yLjI2NCw0LjIzNy0yLjg3Nyw2Ljk2OWgzNS4yMThjLTAuNjE1LTQuNTI4LTIuNDc1LTguMTU5LTUuNTgyLTEwLjg5NCYjMTA7JiM5OyYjOTtDMTA3My42NzgsMTYzLjQsMTA2OS44OTcsMTYyLjAzMywxMDY1LjQ0OSwxNjIuMDMzeiIvPiYjeGE7CTxwYXRoIGQ9Ik0xMTM4LjA3LDE2My42NzNoLTExLjE2NHY1NC4zNWgtMTUuMTkydi01NC4zNWgtMTIuNjU5di0xNC4wNTZoMTIuNjU5di0yMy40MjdoMTUuMTkydjIzLjQyN2gxNS43NjhMMTEzOC4wNywxNjMuNjczeiIvPiYjeGE7CTxwYXRoIGQ9Ik0xMTQ1LjU1MSwxNDkuNjE3aDE0LjczMWwxMS4xNjMsNTYuNDU4bDkuNjY4LTU2LjQ1OGgyMy4wMTlsOS42NjcsNTYuNDU4bDExLjE2NC01Ni40NThoMTQuNzMxbC0xNC41MDEsNjguNDA2aC0yMy4wMTkmIzEwOyYjOTsmIzk7bC05LjU1My01Ni45MjdsLTkuNTUyLDU2LjkyN2gtMjMuMDE5TDExNDUuNTUxLDE0OS42MTd6Ii8+JiN4YTsJPHBhdGggZD0iTTEzMTEuMTY2LDE4NC4wNTRjMCw1Ljg1Ni0wLjk3OSwxMC45NzItMi45MzYsMTUuMzQ1Yy0xLjk1Niw0LjM3NC00LjU0Niw4LjAyMy03Ljc2OSwxMC45NTImIzEwOyYjOTsmIzk7Yy0zLjIyMywyLjkyOS02Ljg2Nyw1LjEzNC0xMC45MzQsNi42MThjLTQuMDY3LDEuNDgyLTguMTcxLDIuMjI2LTEyLjMxNCwyLjIyNnMtOC4yNDktMC43NDMtMTIuMzE0LTIuMjI2JiMxMDsmIzk7JiM5O2MtNC4wNjgtMS40ODQtNy43MTEtMy42ODktMTAuOTM0LTYuNjE4Yy0zLjIyMy0yLjkyOC01LjgzMi02LjU3OC03LjgyNi0xMC45NTJjLTEuOTk2LTQuMzczLTIuOTkyLTkuNDg4LTIuOTkyLTE1LjM0NSYjMTA7JiM5OyYjOTtjMC01Ljc3OCwwLjk5Ni0xMC44OTQsMi45OTItMTUuMzQ1YzEuOTk0LTQuNDUxLDQuNjA0LTguMTc5LDcuODI2LTExLjE4N2MzLjIyMy0zLjAwNSw2Ljg2NS01LjI3MSwxMC45MzQtNi43OTMmIzEwOyYjOTsmIzk7YzQuMDY1LTEuNTIzLDguMTcxLTIuMjg0LDEyLjMxNC0yLjI4NHM4LjI0NywwLjc2MSwxMi4zMTQsMi4yODRjNC4wNjYsMS41MjIsNy43MTEsMy43ODksMTAuOTM0LDYuNzkzJiMxMDsmIzk7JiM5O2MzLjIyMywzLjAwNyw1LjgxMiw2LjczNSw3Ljc2OSwxMS4xODdDMTMxMC4xODgsMTczLjE2MSwxMzExLjE2NiwxNzguMjc2LDEzMTEuMTY2LDE4NC4wNTR6IE0xMjk1LjM5OCwxODQuMDU0JiMxMDsmIzk7JiM5O2MwLTMuMjgtMC40NDItNi4yNDctMS4zMjQtOC45MDJjLTAuODgzLTIuNjU0LTIuMTI5LTQuOTItMy43NC02Ljc5NHMtMy41My0zLjMxOC01Ljc1NC00LjMzNCYjMTA7JiM5OyYjOTtjLTIuMjI3LTEuMDE0LTQuNjgyLTEuNTIyLTcuMzY2LTEuNTIyYy0yLjY4NywwLTUuMTYxLDAuNTA5LTcuNDI0LDEuNTIyYy0yLjI2NCwxLjAxNi00LjIsMi40Ni01LjgxMiw0LjMzNCYjMTA7JiM5OyYjOTtzLTIuODU5LDQuMTQtMy43NCw2Ljc5NGMtMC44ODMsMi42NTYtMS4zMjQsNS42MjMtMS4zMjQsOC45MDJjMCw2LjYzOCwxLjY2OSwxMS44MTIsNS4wMDcsMTUuNTImIzEwOyYjOTsmIzk7YzMuMzM4LDMuNzEsNy43NjksNS41NjQsMTMuMjkzLDUuNTY0czkuOTM2LTEuODU0LDEzLjIzNS01LjU2NEMxMjkzLjc0NywxOTUuODY2LDEyOTUuMzk4LDE5MC42OTIsMTI5NS4zOTgsMTg0LjA1NHoiLz4mI3hhOwk8cGF0aCBkPSJNMTMyMS41MjEsMjE4LjAyM3YtNjguNDA2aDE0Ljk2MnYxMC4zMDhjMC42MTMtMS4zMjcsMS41MTUtMi42NTQsMi43MDUtMy45ODJjMS4xODgtMS4zMjcsMi42ODUtMi41MzcsNC40ODgtMy42MzEmIzEwOyYjOTsmIzk7YzEuODAyLTEuMDkzLDMuOTUtMS45NzEsNi40NDUtMi42MzVjMi40OTItMC42NjMsNS4zMTItMC45OTYsOC40NTktMC45OTZ2MTYuMzk5Yy00LjQ1MSwwLTguMDk2LDAuNDY5LTEwLjkzNCwxLjQwNiYjMTA7JiM5OyYjOTtjLTIuODQsMC45MzctNS4wNjQsMi4yMDctNi42NzYsMy44MDdjLTEuNjExLDEuNjAyLTIuNzI1LDMuNTE0LTMuMzM3LDUuNzRjLTAuNjE1LDIuMjI2LTAuOTIxLDQuNjI3LTAuOTIxLDcuMjA0djM0Ljc4OUgxMzIxLjUyMXoiLz4mI3hhOwk8cGF0aCBkPSJNMTM5Ni4wOTksMTgyLjg4M2gxMS44NTRsMTkuNDUsMzUuMTRoLTE3LjAzM2wtMTcuMzc5LTMxLjM5MmwtMTAuNTg4LDEyLjUzNHYxOC44NThoLTE1LjE5MnYtOTUuNTgyaDE1LjE5MnY1NS4wNTMmIzEwOyYjOTsmIzk7bDIzLjQ3OS0yNy44NzhoMTguNDE0TDEzOTYuMDk5LDE4Mi44ODN6Ii8+JiN4YTs8L2c+JiN4YTs8Zz4mI3hhOwk8cGF0aCBkPSJNNjAwLjA0NCwyODMuNTY2Yy01LjA3Ny0xLjE4OC04Ljk1OC0zLjQ0NC0xMS42NDItNi43NzFjLTIuNjg1LTMuMzI2LTQuMDI2LTcuMzk1LTQuMDI2LTEyLjIwNiYjMTA7JiM5OyYjOTtjMC0yLjc5MSwwLjQ4MS01LjM3NCwxLjQ0NC03Ljc1YzAuOTYyLTIuMzc1LDIuMzYzLTQuNDI0LDQuMjAyLTYuMTQ3YzEuODM4LTEuNzIyLDQuMTE0LTMuMDczLDYuODI4LTQuMDU0JiMxMDsmIzk7JiM5O2MyLjcxMy0wLjk3OSw1Ljg1LTEuNDcsOS40MS0xLjQ3aDI0LjY4NWwtMy41ODksMTAuODY5aC0yMC45MmMtMy4yMSwwLTUuNjc2LDAuNzEyLTcuMzk3LDIuMTM4JiMxMDsmIzk7JiM5O2MtMS43MjIsMS40MjYtMi41ODIsMy4zMjctMi41ODIsNS43MDJjMCwyLjEzOCwwLjY4NSwzLjk3OSwyLjA1Nyw1LjUyM2MxLjM3LDEuNTQ1LDMuODA4LDIuNzMyLDcuMzA5LDMuNTYzbDEwLjY3OSwyLjU4MyYjMTA7JiM5OyYjOTtjNS4xOTMsMS4yNDgsOS4wNDUsMy41MDYsMTEuNTU1LDYuNzcxYzIuNTA4LDMuMjY3LDMuNzY0LDcuNDI1LDMuNzY0LDEyLjQ3MmMwLDYuMjk3LTEuOTU2LDExLjI0MS01Ljg2NSwxNC44MzQmIzEwOyYjOTsmIzk7Yy0zLjkxLDMuNTkzLTkuNjI5LDUuMzktMTcuMTU3LDUuMzloLTI2LjE3M2wzLjU4OS0xMC44NjloMjEuODg0YzMuOTA5LDAsNi44MjgtMC44MTUsOC43NTMtMi40NDkmIzEwOyYjOTsmIzk7YzEuOTI2LTEuNjMzLDIuODg5LTMuNzI3LDIuODg5LTYuMjgxYzAtMi4wNzgtMC42NDMtMy45MzQtMS45MjYtNS41NjhjLTEuMjg0LTEuNjMzLTMuNjQ4LTIuODY0LTcuMDktMy42OTdMNjAwLjA0NCwyODMuNTY2eiIvPiYjeGE7CTxwYXRoIGQ9Ik02ODcuMTQxLDI4Ni4xNDloLTMwLjExMmwtNC4zNzctNy43NXYyNS45MjVoMzcuMTE1djEwLjY5aC00OS4xOTR2LTY5Ljg0Nmg0OC4zMTl2MTAuNjloLTM2LjIzOXYxOS42aDM0LjQ4OVYyODYuMTQ5eiIvPiYjeGE7CTxwYXRoIGQ9Ik03MTAuMTYyLDI4NS44ODN2MjkuMTMyaC0xMi4wOHYtNjkuODQ2aDI3LjIyM2MzLjI2OCwwLDYuMjg4LDAuNTc5LDkuMDYsMS43MzdjMi43NzEsMS4xNTgsNS4xNjUsMi43OTIsNy4xNzgsNC44OTkmIzEwOyYjOTsmIzk7YzIuMDEzLDIuMTA5LDMuNTc0LDQuNjE5LDQuNjgzLDcuNTI4YzEuMTA4LDIuOTExLDEuNjYzLDYuMTE4LDEuNjYzLDkuNjIyYzAsMy4xNDgtMC40NTMsNi4wMTMtMS4zNTcsOC41OTcmIzEwOyYjOTsmIzk7Yy0wLjkwNSwyLjU4NC0yLjE4OCw0Ljg1NS0zLjg1Miw2LjgxNWMtMS42NjMsMS45Ni0zLjY0NywzLjU2My01Ljk1Miw0LjgxMWMtMi4zMDYsMS4yNDctNC44NTgsMi4wOC03LjY1OSwyLjQ5NWwxOS42OTUsMjMuMzQxJiMxMDsmIzk7JiM5O2gtMTQuNzkzTDcxMC4xNjIsMjg1Ljg4M3ogTTcyNC4wOCwyODEuOTYzYzMuNjc3LDAsNi41MDYtMS4yMzIsOC40OTEtMy42OTdjMS45ODMtMi40NjQsMi45NzYtNS41NjgsMi45NzYtOS4zMSYjMTA7JiM5OyYjOTtjMC0zLjc0Mi0wLjk5My02LjgzLTIuOTc2LTkuMjY2Yy0xLjk4NS0yLjQzNS00LjgxNC0zLjY1Mi04LjQ5MS0zLjY1MmgtMTMuOTE4djI1LjkyNUg3MjQuMDh6Ii8+JiN4YTsJPHBhdGggZD0iTTc4MS40MTYsMzA1LjY2bDE5LjQzMi02MC40OTFoMTIuNjkzbC0yMi42NzIsNjkuODQ2aC0xOC45OTRsLTIyLjY3Mi02OS44NDZoMTIuNjkyTDc4MS40MTYsMzA1LjY2eiIvPiYjeGE7CTxwYXRoIGQ9Ik04MzIuNjIyLDI0NS4xNjl2NjkuODQ2aC0xMi4wNzl2LTY5Ljg0Nkg4MzIuNjIyeiIvPiYjeGE7CTxwYXRoIGQ9Ik04NDEuODEyLDI4MC4wOTJjMC01LjI4NSwwLjgzMi0xMC4xNDEsMi40OTUtMTQuNTY2YzEuNjYzLTQuNDI0LDMuOTgyLTguMjI2LDYuOTU5LTExLjQwMyYjMTA7JiM5OyYjOTtjMi45NzYtMy4xNzcsNi41MjEtNS42NDIsMTAuNjM1LTcuMzk1YzQuMTE0LTEuNzUxLDguNTkzLTIuNjI4LDEzLjQzNy0yLjYyOGMzLjk2OCwwLDcuNjE2LDAuNjEsMTAuOTQyLDEuODI2JiMxMDsmIzk7JiM5O2MzLjMyNiwxLjIxOSw2LjI4NywyLjg5Niw4Ljg4NSw1LjAzNGMyLjU5NiwyLjEzOCw0LjgyOCw0LjY0Nyw2LjY5Niw3LjUyN2MxLjg2NywyLjg4MiwzLjMyNiw1Ljk4NCw0LjM3Nyw5LjMxMWgtMTIuNDMxJiMxMDsmIzk7JiM5O2MtMC41MjQtMS42NjItMS4zMjctMy4yODEtMi40MDYtNC44NTVjLTEuMDgxLTEuNTczLTIuNDA3LTIuOTQtMy45ODMtNC4wOTljLTEuNTc1LTEuMTU4LTMuMzctMi4wOTQtNS4zODMtMi44MDYmIzEwOyYjOTsmIzk7Yy0yLjAxNC0wLjcxMy00LjI0Ni0xLjA2OS02LjY5Ny0xLjA2OWMtMy4wOTQsMC01LjkzOCwwLjYwOS04LjUzNCwxLjgyNmMtMi41OTgsMS4yMTgtNC44NDUsMi45NC02Ljc0LDUuMTY3JiMxMDsmIzk7JiM5O2MtMS44OTcsMi4yMjgtMy4zNyw0Ljg4Ni00LjQyMSw3Ljk3NGMtMS4wNSwzLjA4OS0xLjU3NSw2LjQ3NS0xLjU3NSwxMC4xNTZjMCwzLjY4NCwwLjUyNSw3LjA2OCwxLjU3NSwxMC4xNTYmIzEwOyYjOTsmIzk7YzEuMDUxLDMuMDg5LDIuNTIzLDUuNzQ2LDQuNDIxLDcuOTc0YzEuODk2LDIuMjI3LDQuMTQzLDMuOTUsNi43NCw1LjE2N2MyLjU5NiwxLjIxOCw1LjQ0LDEuODI2LDguNTM0LDEuODI2JiMxMDsmIzk7JiM5O2M0LjMxOCwwLDguMTU1LTAuOTM2LDExLjUxMS0yLjgwN2MzLjM1NS0xLjg3LDUuNzkxLTQuNjc3LDcuMzEtOC40MTloMTIuNDNjLTEuMDUsMy42MjQtMi42MTIsNi44MTUtNC42ODMsOS41NzcmIzEwOyYjOTsmIzk7Yy0yLjA3MiwyLjc2Mi00LjQ5NCw1LjA2NC03LjI2Niw2LjkwNWMtMi43NzIsMS44NC01LjgwOCwzLjIzNi05LjEwNCw0LjE4N2MtMy4yOTgsMC45NDktNi42OTYsMS40MjYtMTAuMTk4LDEuNDI2JiMxMDsmIzk7JiM5O2MtNC44NDQsMC05LjMyMi0wLjg3Ny0xMy40MzctMi42MjhjLTQuMTEzLTEuNzUzLTcuNjU5LTQuMjE3LTEwLjYzNS03LjM5NWMtMi45NzctMy4xNzctNS4yOTYtNi45NzktNi45NTktMTEuNDAzJiMxMDsmIzk7JiM5O0M4NDIuNjQ1LDI5MC4yMzQsODQxLjgxMiwyODUuMzc5LDg0MS44MTIsMjgwLjA5MnoiLz4mI3hhOwk8cGF0aCBkPSJNOTYxLjQ3MiwyODYuMTQ5SDkzMS4zNmwtNC4zNzctNy43NXYyNS45MjVoMzcuMTE1djEwLjY5aC00OS4xOTV2LTY5Ljg0Nmg0OC4zMTl2MTAuNjloLTM2LjIzOXYxOS42aDM0LjQ4OFYyODYuMTQ5eiIvPiYjeGE7PC9nPiYjeGE7PGc+JiN4YTsJPHBhdGggZD0iTTE0MzEuMTMyLDk4LjM1aC0xMC42NDd2LTQuMjYzaDI2LjM1NHY0LjI2M2gtMTAuNjQ4djI4LjcyM2gtNS4wNTlWOTguMzV6Ii8+JiN4YTsJPHBhdGggZD0iTTE0NTIuMjA3LDk0LjA4N2g1LjgyNGw0LjI2OCwxMy40NjRsMS40NzksNS4xMzJoMC4yMDJsMS40MzgtNS4xMzJsNC4zMDktMTMuNDY0aDUuODI0djMyLjk4NWgtNC42MTJ2LTE0Ljg3NiYjMTA7JiM5OyYjOTtjMC0zLjM0NiwwLjU0MS05LjU5OCwwLjc4LTEyLjYwNmgtMC4xNTFsLTIuMDMzLDcuMDU5bC00LjE3LDExLjY3OWgtMy4xNzNsLTQuMTA3LTExLjY3OWwtMi4wMjctNy4wNTloLTAuMTE5JiMxMDsmIzk7JiM5O2MwLjMyMSwzLjAwOSwwLjc4LDkuMjYxLDAuNzgsMTIuNjA2djE0Ljg3NmgtNC41MTJWOTQuMDg3eiIvPiYjeGE7PC9nPiYjeGE7PGc+JiN4YTs8L2c+JiN4YTs8Zz4mI3hhOzwvZz4mI3hhOzxnPiYjeGE7PC9nPiYjeGE7PGc+JiN4YTs8L2c+JiN4YTs8Zz4mI3hhOzwvZz4mI3hhOzxnPiYjeGE7PC9nPiYjeGE7PGc+JiN4YTs8L2c+JiN4YTs8Zz4mI3hhOzwvZz4mI3hhOzxnPiYjeGE7PC9nPiYjeGE7PGc+JiN4YTs8L2c+JiN4YTs8Zz4mI3hhOzwvZz4mI3hhOzxnPiYjeGE7PC9nPiYjeGE7PGc+JiN4YTs8L2c+JiN4YTs8Zz4mI3hhOzwvZz4mI3hhOzxnPiYjeGE7PC9nPiYjeGE7PC9zdmc+;rounded=0;sketch=1;curveFitting=1;jiggle=2;" vertex="1" parent="PHoNQdwAoVbEZFHkZa52-17">
          <mxGeometry width="210.64" height="66" as="geometry" />
        </mxCell>
        <mxCell id="PHoNQdwAoVbEZFHkZa52-19" value="WebtoonBoard Server" style="text;html=1;strokeColor=none;fillColor=none;align=center;verticalAlign=middle;whiteSpace=wrap;rounded=0;" vertex="1" parent="PHoNQdwAoVbEZFHkZa52-17">
          <mxGeometry y="50" width="210" height="30" as="geometry" />
        </mxCell>
        <mxCell id="PHoNQdwAoVbEZFHkZa52-44" value="Webtoon Board Service" style="swimlane;whiteSpace=wrap;html=1;" vertex="1" parent="PHoNQdwAoVbEZFHkZa52-45">
          <mxGeometry y="100" width="730" height="210" as="geometry" />
        </mxCell>
        <mxCell id="PHoNQdwAoVbEZFHkZa52-29" value="" style="group" vertex="1" connectable="0" parent="PHoNQdwAoVbEZFHkZa52-44">
          <mxGeometry x="20" y="60" width="210" height="100" as="geometry" />
        </mxCell>
        <mxCell id="PHoNQdwAoVbEZFHkZa52-26" value="" style="shape=image;verticalLabelPosition=bottom;labelBackgroundColor=default;verticalAlign=top;aspect=fixed;imageAspect=0;image=data:image/svg+xml,PHN2ZyB4bWxucz0iaHR0cDovL3d3dy53My5vcmcvMjAwMC9zdmciIGZpbGw9Im5vbmUiIHZpZXdCb3g9IjAgMCAzMiAzMiIgaGVpZ2h0PSIzMiIgd2lkdGg9IjMyIj4mI3hhOzxwYXRoIGZpbGw9IiM1RDg3RkYiIGQ9Ik0xOCAyOEMyMC43NjE0IDI4IDIzLjA1MDcgMjUuNzM5NiAyMi41MDIxIDIzLjAzMzJDMjIuMjEwMyAyMS41OTM2IDIxLjc5MTUgMjAuMTgxNiAyMS4yNDkyIDE4LjgxNTZDMjAuMDkzNCAxNS45MDM4IDE4LjM5OTIgMTMuMjU4IDE2LjI2MzUgMTEuMDI5NEMxNC4xMjc3IDguODAwODMgMTEuNTkyMiA3LjAzMyA4LjgwMTcyIDUuODI2ODlDNy41NTUxNyA1LjI4ODEgNi4yNjg2NCA0Ljg2NjEyIDQuOTU3MzYgNC41NjQxMUMyLjI2NjM5IDMuOTQ0MzIgMCA2LjIzODU4IDAgOVYyM0MwIDI1Ljc2MTQgMi4yMzg1OCAyOCA1IDI4SDE4WiIvPiYjeGE7PGcgc3R5bGU9Im1peC1ibGVuZC1tb2RlOm11bHRpcGx5Ij4mI3hhOzxwYXRoIGZpbGw9IiM0OUJFRkYiIGQ9Ik0xNCAyOEMxMS4yMzg2IDI4IDguOTQ5MjkgMjUuNzM5NiA5LjQ5NzkyIDIzLjAzMzJDOS43ODk3NSAyMS41OTM2IDEwLjIwODUgMjAuMTgxNiAxMC43NTA4IDE4LjgxNTZDMTEuOTA2NiAxNS45MDM4IDEzLjYwMDggMTMuMjU4IDE1LjczNjUgMTEuMDI5NEMxNy44NzIzIDguODAwODMgMjAuNDA3OCA3LjAzMyAyMy4xOTgzIDUuODI2ODlDMjQuNDQ0OCA1LjI4ODEgMjUuNzMxNCA0Ljg2NjEyIDI3LjA0MjYgNC41NjQxMUMyOS43MzM2IDMuOTQ0MzIgMzIgNi4yMzg1OCAzMiA5VjIzQzMyIDI1Ljc2MTQgMjkuNzYxNCAyOCAyNyAyOEgxNFoiLz4mI3hhOzwvZz4mI3hhOzwvc3ZnPg==;" vertex="1" parent="PHoNQdwAoVbEZFHkZa52-29">
          <mxGeometry x="70" width="70" height="70" as="geometry" />
        </mxCell>
        <mxCell id="PHoNQdwAoVbEZFHkZa52-27" value="WebtoonBoard BE Server" style="text;html=1;strokeColor=none;fillColor=none;align=center;verticalAlign=middle;whiteSpace=wrap;rounded=0;" vertex="1" parent="PHoNQdwAoVbEZFHkZa52-29">
          <mxGeometry y="70" width="210" height="30" as="geometry" />
        </mxCell>
        <mxCell id="PHoNQdwAoVbEZFHkZa52-43" value="" style="group" vertex="1" connectable="0" parent="PHoNQdwAoVbEZFHkZa52-44">
          <mxGeometry x="240" y="60.00000000000006" width="210" height="100" as="geometry" />
        </mxCell>
        <mxCell id="PHoNQdwAoVbEZFHkZa52-31" value="" style="shape=image;verticalLabelPosition=bottom;labelBackgroundColor=default;verticalAlign=top;aspect=fixed;imageAspect=0;image=data:image/svg+xml,PHN2ZyB4bWxucz0iaHR0cDovL3d3dy53My5vcmcvMjAwMC9zdmciIGZpbGw9Im5vbmUiIHZpZXdCb3g9IjAgMCAzMiAzMiIgaGVpZ2h0PSIzMiIgd2lkdGg9IjMyIj4mI3hhOzxwYXRoIGZpbGw9IiM1RDg3RkYiIGQ9Ik0xOCAyOEMyMC43NjE0IDI4IDIzLjA1MDcgMjUuNzM5NiAyMi41MDIxIDIzLjAzMzJDMjIuMjEwMyAyMS41OTM2IDIxLjc5MTUgMjAuMTgxNiAyMS4yNDkyIDE4LjgxNTZDMjAuMDkzNCAxNS45MDM4IDE4LjM5OTIgMTMuMjU4IDE2LjI2MzUgMTEuMDI5NEMxNC4xMjc3IDguODAwODMgMTEuNTkyMiA3LjAzMyA4LjgwMTcyIDUuODI2ODlDNy41NTUxNyA1LjI4ODEgNi4yNjg2NCA0Ljg2NjEyIDQuOTU3MzYgNC41NjQxMUMyLjI2NjM5IDMuOTQ0MzIgMCA2LjIzODU4IDAgOVYyM0MwIDI1Ljc2MTQgMi4yMzg1OCAyOCA1IDI4SDE4WiIvPiYjeGE7PGcgc3R5bGU9Im1peC1ibGVuZC1tb2RlOm11bHRpcGx5Ij4mI3hhOzxwYXRoIGZpbGw9IiM0OUJFRkYiIGQ9Ik0xNCAyOEMxMS4yMzg2IDI4IDguOTQ5MjkgMjUuNzM5NiA5LjQ5NzkyIDIzLjAzMzJDOS43ODk3NSAyMS41OTM2IDEwLjIwODUgMjAuMTgxNiAxMC43NTA4IDE4LjgxNTZDMTEuOTA2NiAxNS45MDM4IDEzLjYwMDggMTMuMjU4IDE1LjczNjUgMTEuMDI5NEMxNy44NzIzIDguODAwODMgMjAuNDA3OCA3LjAzMyAyMy4xOTgzIDUuODI2ODlDMjQuNDQ0OCA1LjI4ODEgMjUuNzMxNCA0Ljg2NjEyIDI3LjA0MjYgNC41NjQxMUMyOS43MzM2IDMuOTQ0MzIgMzIgNi4yMzg1OCAzMiA5VjIzQzMyIDI1Ljc2MTQgMjkuNzYxNCAyOCAyNyAyOEgxNFoiLz4mI3hhOzwvZz4mI3hhOzwvc3ZnPg==;" vertex="1" parent="PHoNQdwAoVbEZFHkZa52-43">
          <mxGeometry x="70" width="70" height="70" as="geometry" />
        </mxCell>
        <mxCell id="PHoNQdwAoVbEZFHkZa52-32" value="WebtoonBoard FE Server" style="text;html=1;strokeColor=none;fillColor=none;align=center;verticalAlign=middle;whiteSpace=wrap;rounded=0;" vertex="1" parent="PHoNQdwAoVbEZFHkZa52-43">
          <mxGeometry y="70" width="210" height="30" as="geometry" />
        </mxCell>
        <mxCell id="PHoNQdwAoVbEZFHkZa52-33" value="" style="group" vertex="1" connectable="0" parent="PHoNQdwAoVbEZFHkZa52-44">
          <mxGeometry x="480" y="60.00000000000006" width="210" height="100" as="geometry" />
        </mxCell>
        <mxCell id="PHoNQdwAoVbEZFHkZa52-34" value="" style="shape=image;verticalLabelPosition=bottom;labelBackgroundColor=default;verticalAlign=top;aspect=fixed;imageAspect=0;image=data:image/svg+xml,PHN2ZyB4bWxucz0iaHR0cDovL3d3dy53My5vcmcvMjAwMC9zdmciIGZpbGw9Im5vbmUiIHZpZXdCb3g9IjAgMCAzMiAzMiIgaGVpZ2h0PSIzMiIgd2lkdGg9IjMyIj4mI3hhOzxwYXRoIGZpbGw9IiM1RDg3RkYiIGQ9Ik0xOCAyOEMyMC43NjE0IDI4IDIzLjA1MDcgMjUuNzM5NiAyMi41MDIxIDIzLjAzMzJDMjIuMjEwMyAyMS41OTM2IDIxLjc5MTUgMjAuMTgxNiAyMS4yNDkyIDE4LjgxNTZDMjAuMDkzNCAxNS45MDM4IDE4LjM5OTIgMTMuMjU4IDE2LjI2MzUgMTEuMDI5NEMxNC4xMjc3IDguODAwODMgMTEuNTkyMiA3LjAzMyA4LjgwMTcyIDUuODI2ODlDNy41NTUxNyA1LjI4ODEgNi4yNjg2NCA0Ljg2NjEyIDQuOTU3MzYgNC41NjQxMUMyLjI2NjM5IDMuOTQ0MzIgMCA2LjIzODU4IDAgOVYyM0MwIDI1Ljc2MTQgMi4yMzg1OCAyOCA1IDI4SDE4WiIvPiYjeGE7PGcgc3R5bGU9Im1peC1ibGVuZC1tb2RlOm11bHRpcGx5Ij4mI3hhOzxwYXRoIGZpbGw9IiM0OUJFRkYiIGQ9Ik0xNCAyOEMxMS4yMzg2IDI4IDguOTQ5MjkgMjUuNzM5NiA5LjQ5NzkyIDIzLjAzMzJDOS43ODk3NSAyMS41OTM2IDEwLjIwODUgMjAuMTgxNiAxMC43NTA4IDE4LjgxNTZDMTEuOTA2NiAxNS45MDM4IDEzLjYwMDggMTMuMjU4IDE1LjczNjUgMTEuMDI5NEMxNy44NzIzIDguODAwODMgMjAuNDA3OCA3LjAzMyAyMy4xOTgzIDUuODI2ODlDMjQuNDQ0OCA1LjI4ODEgMjUuNzMxNCA0Ljg2NjEyIDI3LjA0MjYgNC41NjQxMUMyOS43MzM2IDMuOTQ0MzIgMzIgNi4yMzg1OCAzMiA5VjIzQzMyIDI1Ljc2MTQgMjkuNzYxNCAyOCAyNyAyOEgxNFoiLz4mI3hhOzwvZz4mI3hhOzwvc3ZnPg==;" vertex="1" parent="PHoNQdwAoVbEZFHkZa52-33">
          <mxGeometry x="70" width="70" height="70" as="geometry" />
        </mxCell>
        <mxCell id="PHoNQdwAoVbEZFHkZa52-35" value="WebtoonBoard CL/CD Server" style="text;html=1;strokeColor=none;fillColor=none;align=center;verticalAlign=middle;whiteSpace=wrap;rounded=0;" vertex="1" parent="PHoNQdwAoVbEZFHkZa52-33">
          <mxGeometry y="70" width="210" height="30" as="geometry" />
        </mxCell>
        <mxCell id="PHoNQdwAoVbEZFHkZa52-52" value="Docker Container" style="swimlane;whiteSpace=wrap;html=1;" vertex="1" parent="PHoNQdwAoVbEZFHkZa52-49">
          <mxGeometry x="40" y="575" width="1050" height="130" as="geometry" />
        </mxCell>
        <mxCell id="PHoNQdwAoVbEZFHkZa52-7" value="" style="group" vertex="1" connectable="0" parent="PHoNQdwAoVbEZFHkZa52-52">
          <mxGeometry x="419.68000000000006" y="40" width="210.64" height="80" as="geometry" />
        </mxCell>
        <mxCell id="PHoNQdwAoVbEZFHkZa52-3" value="" style="shape=image;verticalLabelPosition=bottom;labelBackgroundColor=none;verticalAlign=top;aspect=fixed;imageAspect=0;image=data:image/svg+xml,PHN2ZyB4bWxuczp4bGluaz0iaHR0cDovL3d3dy53My5vcmcvMTk5OS94bGluayIgeG1sbnM9Imh0dHA6Ly93d3cudzMub3JnLzIwMDAvc3ZnIiB4bWw6c3BhY2U9InByZXNlcnZlIiBzdHlsZT0iZW5hYmxlLWJhY2tncm91bmQ6bmV3IDAgMCAxNTAwIDQ3MDsiIHZpZXdCb3g9IjAgMCAxNTAwIDQ3MCIgeT0iMHB4IiB4PSIwcHgiIGlkPSLroIjsnbTslrRfMSIgdmVyc2lvbj0iMS4xIj4mI3hhOzxnPiYjeGE7CTxwYXRoIGQ9Ik0xOTgsMTE5djc2SDgzdi03NkgxOTggTTI0OCw2OUg2M2MtMTYuNTY5LDAtMzAsMTMuNDMxLTMwLDMwdjExNmMwLDE2LjU2OSwxMy40MzEsMzAsMzAsMzBoMTg1VjY5TDI0OCw2OXoiLz4mI3hhOzwvZz4mI3hhOzxnPiYjeGE7CTxyZWN0IGhlaWdodD0iMzAzIiB3aWR0aD0iNTIuNSIgeT0iNjkiIHg9IjMyLjUiLz4mI3hhOzwvZz4mI3hhOzxnPiYjeGE7CSYjeGE7CQk8cmVjdCBoZWlnaHQ9IjE3Ni45MzkiIHdpZHRoPSI1Mi41IiB0cmFuc2Zvcm09Im1hdHJpeCgwLjc5MTQgLTAuNjExMyAwLjYxMTMgMC43OTE0IC0xMzYuNjIxNiAxNzEuMjY0NykiIHk9IjE5Ny4zMzciIHg9IjE1Ni4zNzIiLz4mI3hhOzwvZz4mI3hhOzxnPiYjeGE7CTxyZWN0IGhlaWdodD0iNTIuNSIgd2lkdGg9Ijc5Ljg0OCIgeT0iMzE5LjU1NyIgeD0iMjE2LjE1MiIvPiYjeGE7PC9nPiYjeGE7PGc+JiN4YTsJPHJlY3QgaGVpZ2h0PSIzMDMiIHdpZHRoPSI1Mi41IiB5PSI2OSIgeD0iMjk1LjUiLz4mI3hhOzwvZz4mI3hhOzxnPiYjeGE7CTxwYXRoIGQ9Ik01MzguMDc4LDM0My41NDFsLTQyLjM1MywyOC44NzJjLTAuMjgzLDAuMTkzLTAuNjcsMC4xMi0wLjg2My0wLjE2M0wzMDYuNDEzLDk1LjgwOWMtMC4xOTMtMC4yODMtMC4xMi0wLjY3LDAuMTYzLTAuODYzJiMxMDsmIzk7JiM5O2wzNS45MjYtMjQuNDkxYzMuODMzLTIuNjEzLDkuMDU4LTEuNjI0LDExLjY3MSwyLjIwOWwxODQuMDY3LDI3MC4wMTRDNTM4LjQzNCwzNDIuOTYyLDUzOC4zNjEsMzQzLjM0OCw1MzguMDc4LDM0My41NDF6Ii8+JiN4YTs8L2c+JiN4YTs8Zz4mI3hhOwk8cmVjdCBoZWlnaHQ9IjMwMC4xMTQiIHdpZHRoPSI1MiIgeT0iNzIuNDQzIiB4PSI0OTQiLz4mI3hhOzwvZz4mI3hhOzxnPiYjeGE7CTxwYXRoIGQ9Ik02MDMuOTM4LDE3OS43MnYzOC4zMDNoLTE1Ljg4M3YtOTEuODMzaDM1Ljc5M2M0LjI5NiwwLDguMjY3LDAuNzYyLDExLjkxMiwyLjI4NGMzLjY0NCwxLjUyMyw2Ljc5MSwzLjY3MSw5LjQzOCw2LjQ0MiYjMTA7JiM5OyYjOTtjMi42NDcsMi43NzMsNC42OTksNi4wNzMsNi4xNTcsOS44OThjMS40NTcsMy44MjcsMi4xODcsOC4wNDQsMi4xODcsMTIuNjVjMCw0LjE0LTAuNTk1LDcuOTA3LTEuNzg0LDExLjMwNCYjMTA7JiM5OyYjOTtjLTEuMTksMy4zOTctMi44NzcsNi4zODQtNS4wNjQsOC45NjFjLTIuMTg3LDIuNTc3LTQuNzk2LDQuNjg1LTcuODI2LDYuMzI1Yy0zLjAzMiwxLjY0LTYuMzg3LDIuNzM0LTEwLjA3LDMuMjhsMjUuODk2LDMwLjY4OSYjMTA7JiM5OyYjOTtoLTE5LjQ1TDYwMy45MzgsMTc5LjcyeiBNNjIyLjIzNywxNzQuNTY2YzQuODM0LDAsOC41NTQtMS42MiwxMS4xNjQtNC44NjFjMi42MDgtMy4yNCwzLjkxMy03LjMyMSwzLjkxMy0xMi4yNDEmIzEwOyYjOTsmIzk7YzAtNC45MTktMS4zMDUtOC45NzktMy45MTMtMTIuMTgyYy0yLjYwOS0zLjIwMS02LjMzLTQuODAzLTExLjE2NC00LjgwM2gtMTguMjk5djM0LjA4Nkg2MjIuMjM3eiIvPiYjeGE7CTxwYXRoIGQ9Ik03MzguNTkzLDEyNi4xODl2OTEuODMzSDcyMi43MXYtMzcuOTUyaC0zNi4wMjNsLTUuNzU0LTEwLjE5djQ4LjE0Mkg2NjUuMDV2LTkxLjgzM2gxNS44ODN2MzkuODI2aDQxLjc3OHYtMzkuODI2SDczOC41OTMmIzEwOyYjOTsmIzk7eiIvPiYjeGE7CTxwYXRoIGQ9Ik03ODMuNTkzLDE3MS44NzJoLTExLjM5NWwtMjQuOTc0LTQ1LjY4M2gxOC4xODRsMjEuNDA3LDM5LjU5MmwyMS40MDYtMzkuNTkyaDE4LjE4NWwtMzEuNjUsNTguMjE2djMzLjYxOGgtMTUuODgydi0zNy4zNjYmIzEwOyYjOTsmIzk7TDc4My41OTMsMTcxLjg3MnoiLz4mI3hhOwk8cGF0aCBkPSJNODc5LjkyNSwyMDAuMTAyaC0zMS42NWwtNS4xNzktOS4yNTRsLTguNjMyLDI3LjE3NWgtMTYuNjg4bDI5LjgwOS05MS44MzNoMjQuOTc1bDI5LjgwOSw5MS44MzNoLTE2LjY4OEw4NzkuOTI1LDIwMC4xMDJ6JiMxMDsmIzk7JiM5OyBNODQ0LjcwNywxODUuNTc3aDMwLjYxNGwtMTUuMTkyLTQ4LjI1OUw4NDQuNzA3LDE4NS41Nzd6Ii8+JiN4YTsJPHBhdGggZD0iTTkxMi4xNDksMjI0LjU4M3YtMTcuOTIxaDE3LjQ5NHYxNy45MjFIOTEyLjE0OXoiLz4mI3hhOwk8cGF0aCBkPSJNOTQ2LjkwNywxMjYuMTg5aDI3LjczNmwzMC4xNTQsODEuMTc0di04MS4xNzRoMTUuNjUydjkxLjgzM2gtMjcuNzM3bC0zMC4xNTMtODEuMTc0djgxLjE3NGgtMTUuNjUyVjEyNi4xODl6Ii8+JiN4YTsJPHBhdGggZD0iTTEwNDYuNTc0LDE4MC4zMDZjLTAuMDc3LDAuNjI2LTAuMTE1LDEuMjMtMC4xMTUsMS44MTVjMCwwLjU4NiwwLDEuMTkyLDAsMS44MTZjMCwzLjkwNiwwLjUzNiw3LjIwNCwxLjYxMSw5Ljg5OCYjMTA7JiM5OyYjOTtjMS4wNzMsMi42OTQsMi41MzIsNC45MDEsNC4zNzMsNi42MThjMS44NDIsMS43MTgsMy45MzIsMi45NjgsNi4yNzIsMy43NDhjMi4zNCwwLjc4Miw0Ljc3NiwxLjE3MSw3LjMwOSwxLjE3MSYjMTA7JiM5OyYjOTtjMy42MDUsMCw2LjYxOC0wLjY2Myw5LjAzNC0xLjk5MWMyLjQxNy0xLjMyNyw0LjM5Mi0zLjI0LDUuOTI4LTUuNzRoMTUuNjUyYy0xLjE1MSwzLjUxNC0yLjc2Myw2LjYxOC00LjgzNCw5LjMxMiYjMTA7JiM5OyYjOTtjLTIuMDcxLDIuNjk0LTQuNDUxLDQuOTU4LTcuMTM2LDYuNzkzYy0yLjY4NywxLjgzNC01LjYyMSwzLjIwMS04LjgwNSw0LjFjLTMuMTg1LDAuODk3LTYuNDY1LDEuMzQ3LTkuODQsMS4zNDcmIzEwOyYjOTsmIzk7Yy00LjM3MywwLTguNTk0LTAuNzQzLTEyLjY2LTIuMjI2Yy00LjA2Ny0xLjQ4NC03LjY5My0zLjY4OS0xMC44NzYtNi42MThjLTMuMTg1LTIuOTI4LTUuNzM2LTYuNTk4LTcuNjUzLTExLjAxJiMxMDsmIzk7JiM5O2MtMS45MTktNC40MTEtMi44NzctOS41NDctMi44NzctMTUuNDAzYzAtNS43NzgsMC45NzgtMTAuODc0LDIuOTM1LTE1LjI4NmMxLjk1Ni00LjQxMSw0LjUwNy04LjEyMSw3LjY1My0xMS4xMjgmIzEwOyYjOTsmIzk7YzMuMTQ2LTMuMDA1LDYuNzEzLTUuMjcxLDEwLjcwMy02Ljc5M2MzLjk4OS0xLjUyMyw4LjA1Ny0yLjI4NCwxMi4yLTIuMjg0YzQuMjk2LDAsOC40MDEsMC44NCwxMi4zMTQsMi41MTgmIzEwOyYjOTsmIzk7YzMuOTEzLDEuNjgsNy4zNDYsNC4xMiwxMC4zMDEsNy4zMjFjMi45NTIsMy4yMDMsNS4zMTIsNy4wODYsNy4wNzgsMTEuNjU1YzEuNzY0LDQuNTY4LDIuNjQ2LDkuNzQyLDIuNjQ2LDE1LjUydjQuNDUxaC00NC41NCYjMTA7JiM5OyYjOTtMMTA0Ni41NzQsMTgwLjMwNnogTTEwNjUuNDQ5LDE2Mi4wMzNjLTEuODQyLDAtMy43MjMsMC4yNzQtNS42NCwwLjgyYy0xLjkxOSwwLjU0Ny0zLjcwMywxLjQwNi01LjM1MiwyLjU3NyYjMTA7JiM5OyYjOTtjLTEuNjUxLDEuMTcxLTMuMTI3LDIuNzE0LTQuNDMyLDQuNjI3Yy0xLjMwNSwxLjkxNC0yLjI2NCw0LjIzNy0yLjg3Nyw2Ljk2OWgzNS4yMThjLTAuNjE1LTQuNTI4LTIuNDc1LTguMTU5LTUuNTgyLTEwLjg5NCYjMTA7JiM5OyYjOTtDMTA3My42NzgsMTYzLjQsMTA2OS44OTcsMTYyLjAzMywxMDY1LjQ0OSwxNjIuMDMzeiIvPiYjeGE7CTxwYXRoIGQ9Ik0xMTM4LjA3LDE2My42NzNoLTExLjE2NHY1NC4zNWgtMTUuMTkydi01NC4zNWgtMTIuNjU5di0xNC4wNTZoMTIuNjU5di0yMy40MjdoMTUuMTkydjIzLjQyN2gxNS43NjhMMTEzOC4wNywxNjMuNjczeiIvPiYjeGE7CTxwYXRoIGQ9Ik0xMTQ1LjU1MSwxNDkuNjE3aDE0LjczMWwxMS4xNjMsNTYuNDU4bDkuNjY4LTU2LjQ1OGgyMy4wMTlsOS42NjcsNTYuNDU4bDExLjE2NC01Ni40NThoMTQuNzMxbC0xNC41MDEsNjguNDA2aC0yMy4wMTkmIzEwOyYjOTsmIzk7bC05LjU1My01Ni45MjdsLTkuNTUyLDU2LjkyN2gtMjMuMDE5TDExNDUuNTUxLDE0OS42MTd6Ii8+JiN4YTsJPHBhdGggZD0iTTEzMTEuMTY2LDE4NC4wNTRjMCw1Ljg1Ni0wLjk3OSwxMC45NzItMi45MzYsMTUuMzQ1Yy0xLjk1Niw0LjM3NC00LjU0Niw4LjAyMy03Ljc2OSwxMC45NTImIzEwOyYjOTsmIzk7Yy0zLjIyMywyLjkyOS02Ljg2Nyw1LjEzNC0xMC45MzQsNi42MThjLTQuMDY3LDEuNDgyLTguMTcxLDIuMjI2LTEyLjMxNCwyLjIyNnMtOC4yNDktMC43NDMtMTIuMzE0LTIuMjI2JiMxMDsmIzk7JiM5O2MtNC4wNjgtMS40ODQtNy43MTEtMy42ODktMTAuOTM0LTYuNjE4Yy0zLjIyMy0yLjkyOC01LjgzMi02LjU3OC03LjgyNi0xMC45NTJjLTEuOTk2LTQuMzczLTIuOTkyLTkuNDg4LTIuOTkyLTE1LjM0NSYjMTA7JiM5OyYjOTtjMC01Ljc3OCwwLjk5Ni0xMC44OTQsMi45OTItMTUuMzQ1YzEuOTk0LTQuNDUxLDQuNjA0LTguMTc5LDcuODI2LTExLjE4N2MzLjIyMy0zLjAwNSw2Ljg2NS01LjI3MSwxMC45MzQtNi43OTMmIzEwOyYjOTsmIzk7YzQuMDY1LTEuNTIzLDguMTcxLTIuMjg0LDEyLjMxNC0yLjI4NHM4LjI0NywwLjc2MSwxMi4zMTQsMi4yODRjNC4wNjYsMS41MjIsNy43MTEsMy43ODksMTAuOTM0LDYuNzkzJiMxMDsmIzk7JiM5O2MzLjIyMywzLjAwNyw1LjgxMiw2LjczNSw3Ljc2OSwxMS4xODdDMTMxMC4xODgsMTczLjE2MSwxMzExLjE2NiwxNzguMjc2LDEzMTEuMTY2LDE4NC4wNTR6IE0xMjk1LjM5OCwxODQuMDU0JiMxMDsmIzk7JiM5O2MwLTMuMjgtMC40NDItNi4yNDctMS4zMjQtOC45MDJjLTAuODgzLTIuNjU0LTIuMTI5LTQuOTItMy43NC02Ljc5NHMtMy41My0zLjMxOC01Ljc1NC00LjMzNCYjMTA7JiM5OyYjOTtjLTIuMjI3LTEuMDE0LTQuNjgyLTEuNTIyLTcuMzY2LTEuNTIyYy0yLjY4NywwLTUuMTYxLDAuNTA5LTcuNDI0LDEuNTIyYy0yLjI2NCwxLjAxNi00LjIsMi40Ni01LjgxMiw0LjMzNCYjMTA7JiM5OyYjOTtzLTIuODU5LDQuMTQtMy43NCw2Ljc5NGMtMC44ODMsMi42NTYtMS4zMjQsNS42MjMtMS4zMjQsOC45MDJjMCw2LjYzOCwxLjY2OSwxMS44MTIsNS4wMDcsMTUuNTImIzEwOyYjOTsmIzk7YzMuMzM4LDMuNzEsNy43NjksNS41NjQsMTMuMjkzLDUuNTY0czkuOTM2LTEuODU0LDEzLjIzNS01LjU2NEMxMjkzLjc0NywxOTUuODY2LDEyOTUuMzk4LDE5MC42OTIsMTI5NS4zOTgsMTg0LjA1NHoiLz4mI3hhOwk8cGF0aCBkPSJNMTMyMS41MjEsMjE4LjAyM3YtNjguNDA2aDE0Ljk2MnYxMC4zMDhjMC42MTMtMS4zMjcsMS41MTUtMi42NTQsMi43MDUtMy45ODJjMS4xODgtMS4zMjcsMi42ODUtMi41MzcsNC40ODgtMy42MzEmIzEwOyYjOTsmIzk7YzEuODAyLTEuMDkzLDMuOTUtMS45NzEsNi40NDUtMi42MzVjMi40OTItMC42NjMsNS4zMTItMC45OTYsOC40NTktMC45OTZ2MTYuMzk5Yy00LjQ1MSwwLTguMDk2LDAuNDY5LTEwLjkzNCwxLjQwNiYjMTA7JiM5OyYjOTtjLTIuODQsMC45MzctNS4wNjQsMi4yMDctNi42NzYsMy44MDdjLTEuNjExLDEuNjAyLTIuNzI1LDMuNTE0LTMuMzM3LDUuNzRjLTAuNjE1LDIuMjI2LTAuOTIxLDQuNjI3LTAuOTIxLDcuMjA0djM0Ljc4OUgxMzIxLjUyMXoiLz4mI3hhOwk8cGF0aCBkPSJNMTM5Ni4wOTksMTgyLjg4M2gxMS44NTRsMTkuNDUsMzUuMTRoLTE3LjAzM2wtMTcuMzc5LTMxLjM5MmwtMTAuNTg4LDEyLjUzNHYxOC44NThoLTE1LjE5MnYtOTUuNTgyaDE1LjE5MnY1NS4wNTMmIzEwOyYjOTsmIzk7bDIzLjQ3OS0yNy44NzhoMTguNDE0TDEzOTYuMDk5LDE4Mi44ODN6Ii8+JiN4YTs8L2c+JiN4YTs8Zz4mI3hhOwk8cGF0aCBkPSJNNjAwLjA0NCwyODMuNTY2Yy01LjA3Ny0xLjE4OC04Ljk1OC0zLjQ0NC0xMS42NDItNi43NzFjLTIuNjg1LTMuMzI2LTQuMDI2LTcuMzk1LTQuMDI2LTEyLjIwNiYjMTA7JiM5OyYjOTtjMC0yLjc5MSwwLjQ4MS01LjM3NCwxLjQ0NC03Ljc1YzAuOTYyLTIuMzc1LDIuMzYzLTQuNDI0LDQuMjAyLTYuMTQ3YzEuODM4LTEuNzIyLDQuMTE0LTMuMDczLDYuODI4LTQuMDU0JiMxMDsmIzk7JiM5O2MyLjcxMy0wLjk3OSw1Ljg1LTEuNDcsOS40MS0xLjQ3aDI0LjY4NWwtMy41ODksMTAuODY5aC0yMC45MmMtMy4yMSwwLTUuNjc2LDAuNzEyLTcuMzk3LDIuMTM4JiMxMDsmIzk7JiM5O2MtMS43MjIsMS40MjYtMi41ODIsMy4zMjctMi41ODIsNS43MDJjMCwyLjEzOCwwLjY4NSwzLjk3OSwyLjA1Nyw1LjUyM2MxLjM3LDEuNTQ1LDMuODA4LDIuNzMyLDcuMzA5LDMuNTYzbDEwLjY3OSwyLjU4MyYjMTA7JiM5OyYjOTtjNS4xOTMsMS4yNDgsOS4wNDUsMy41MDYsMTEuNTU1LDYuNzcxYzIuNTA4LDMuMjY3LDMuNzY0LDcuNDI1LDMuNzY0LDEyLjQ3MmMwLDYuMjk3LTEuOTU2LDExLjI0MS01Ljg2NSwxNC44MzQmIzEwOyYjOTsmIzk7Yy0zLjkxLDMuNTkzLTkuNjI5LDUuMzktMTcuMTU3LDUuMzloLTI2LjE3M2wzLjU4OS0xMC44NjloMjEuODg0YzMuOTA5LDAsNi44MjgtMC44MTUsOC43NTMtMi40NDkmIzEwOyYjOTsmIzk7YzEuOTI2LTEuNjMzLDIuODg5LTMuNzI3LDIuODg5LTYuMjgxYzAtMi4wNzgtMC42NDMtMy45MzQtMS45MjYtNS41NjhjLTEuMjg0LTEuNjMzLTMuNjQ4LTIuODY0LTcuMDktMy42OTdMNjAwLjA0NCwyODMuNTY2eiIvPiYjeGE7CTxwYXRoIGQ9Ik02ODcuMTQxLDI4Ni4xNDloLTMwLjExMmwtNC4zNzctNy43NXYyNS45MjVoMzcuMTE1djEwLjY5aC00OS4xOTR2LTY5Ljg0Nmg0OC4zMTl2MTAuNjloLTM2LjIzOXYxOS42aDM0LjQ4OVYyODYuMTQ5eiIvPiYjeGE7CTxwYXRoIGQ9Ik03MTAuMTYyLDI4NS44ODN2MjkuMTMyaC0xMi4wOHYtNjkuODQ2aDI3LjIyM2MzLjI2OCwwLDYuMjg4LDAuNTc5LDkuMDYsMS43MzdjMi43NzEsMS4xNTgsNS4xNjUsMi43OTIsNy4xNzgsNC44OTkmIzEwOyYjOTsmIzk7YzIuMDEzLDIuMTA5LDMuNTc0LDQuNjE5LDQuNjgzLDcuNTI4YzEuMTA4LDIuOTExLDEuNjYzLDYuMTE4LDEuNjYzLDkuNjIyYzAsMy4xNDgtMC40NTMsNi4wMTMtMS4zNTcsOC41OTcmIzEwOyYjOTsmIzk7Yy0wLjkwNSwyLjU4NC0yLjE4OCw0Ljg1NS0zLjg1Miw2LjgxNWMtMS42NjMsMS45Ni0zLjY0NywzLjU2My01Ljk1Miw0LjgxMWMtMi4zMDYsMS4yNDctNC44NTgsMi4wOC03LjY1OSwyLjQ5NWwxOS42OTUsMjMuMzQxJiMxMDsmIzk7JiM5O2gtMTQuNzkzTDcxMC4xNjIsMjg1Ljg4M3ogTTcyNC4wOCwyODEuOTYzYzMuNjc3LDAsNi41MDYtMS4yMzIsOC40OTEtMy42OTdjMS45ODMtMi40NjQsMi45NzYtNS41NjgsMi45NzYtOS4zMSYjMTA7JiM5OyYjOTtjMC0zLjc0Mi0wLjk5My02LjgzLTIuOTc2LTkuMjY2Yy0xLjk4NS0yLjQzNS00LjgxNC0zLjY1Mi04LjQ5MS0zLjY1MmgtMTMuOTE4djI1LjkyNUg3MjQuMDh6Ii8+JiN4YTsJPHBhdGggZD0iTTc4MS40MTYsMzA1LjY2bDE5LjQzMi02MC40OTFoMTIuNjkzbC0yMi42NzIsNjkuODQ2aC0xOC45OTRsLTIyLjY3Mi02OS44NDZoMTIuNjkyTDc4MS40MTYsMzA1LjY2eiIvPiYjeGE7CTxwYXRoIGQ9Ik04MzIuNjIyLDI0NS4xNjl2NjkuODQ2aC0xMi4wNzl2LTY5Ljg0Nkg4MzIuNjIyeiIvPiYjeGE7CTxwYXRoIGQ9Ik04NDEuODEyLDI4MC4wOTJjMC01LjI4NSwwLjgzMi0xMC4xNDEsMi40OTUtMTQuNTY2YzEuNjYzLTQuNDI0LDMuOTgyLTguMjI2LDYuOTU5LTExLjQwMyYjMTA7JiM5OyYjOTtjMi45NzYtMy4xNzcsNi41MjEtNS42NDIsMTAuNjM1LTcuMzk1YzQuMTE0LTEuNzUxLDguNTkzLTIuNjI4LDEzLjQzNy0yLjYyOGMzLjk2OCwwLDcuNjE2LDAuNjEsMTAuOTQyLDEuODI2JiMxMDsmIzk7JiM5O2MzLjMyNiwxLjIxOSw2LjI4NywyLjg5Niw4Ljg4NSw1LjAzNGMyLjU5NiwyLjEzOCw0LjgyOCw0LjY0Nyw2LjY5Niw3LjUyN2MxLjg2NywyLjg4MiwzLjMyNiw1Ljk4NCw0LjM3Nyw5LjMxMWgtMTIuNDMxJiMxMDsmIzk7JiM5O2MtMC41MjQtMS42NjItMS4zMjctMy4yODEtMi40MDYtNC44NTVjLTEuMDgxLTEuNTczLTIuNDA3LTIuOTQtMy45ODMtNC4wOTljLTEuNTc1LTEuMTU4LTMuMzctMi4wOTQtNS4zODMtMi44MDYmIzEwOyYjOTsmIzk7Yy0yLjAxNC0wLjcxMy00LjI0Ni0xLjA2OS02LjY5Ny0xLjA2OWMtMy4wOTQsMC01LjkzOCwwLjYwOS04LjUzNCwxLjgyNmMtMi41OTgsMS4yMTgtNC44NDUsMi45NC02Ljc0LDUuMTY3JiMxMDsmIzk7JiM5O2MtMS44OTcsMi4yMjgtMy4zNyw0Ljg4Ni00LjQyMSw3Ljk3NGMtMS4wNSwzLjA4OS0xLjU3NSw2LjQ3NS0xLjU3NSwxMC4xNTZjMCwzLjY4NCwwLjUyNSw3LjA2OCwxLjU3NSwxMC4xNTYmIzEwOyYjOTsmIzk7YzEuMDUxLDMuMDg5LDIuNTIzLDUuNzQ2LDQuNDIxLDcuOTc0YzEuODk2LDIuMjI3LDQuMTQzLDMuOTUsNi43NCw1LjE2N2MyLjU5NiwxLjIxOCw1LjQ0LDEuODI2LDguNTM0LDEuODI2JiMxMDsmIzk7JiM5O2M0LjMxOCwwLDguMTU1LTAuOTM2LDExLjUxMS0yLjgwN2MzLjM1NS0xLjg3LDUuNzkxLTQuNjc3LDcuMzEtOC40MTloMTIuNDNjLTEuMDUsMy42MjQtMi42MTIsNi44MTUtNC42ODMsOS41NzcmIzEwOyYjOTsmIzk7Yy0yLjA3MiwyLjc2Mi00LjQ5NCw1LjA2NC03LjI2Niw2LjkwNWMtMi43NzIsMS44NC01LjgwOCwzLjIzNi05LjEwNCw0LjE4N2MtMy4yOTgsMC45NDktNi42OTYsMS40MjYtMTAuMTk4LDEuNDI2JiMxMDsmIzk7JiM5O2MtNC44NDQsMC05LjMyMi0wLjg3Ny0xMy40MzctMi42MjhjLTQuMTEzLTEuNzUzLTcuNjU5LTQuMjE3LTEwLjYzNS03LjM5NWMtMi45NzctMy4xNzctNS4yOTYtNi45NzktNi45NTktMTEuNDAzJiMxMDsmIzk7JiM5O0M4NDIuNjQ1LDI5MC4yMzQsODQxLjgxMiwyODUuMzc5LDg0MS44MTIsMjgwLjA5MnoiLz4mI3hhOwk8cGF0aCBkPSJNOTYxLjQ3MiwyODYuMTQ5SDkzMS4zNmwtNC4zNzctNy43NXYyNS45MjVoMzcuMTE1djEwLjY5aC00OS4xOTV2LTY5Ljg0Nmg0OC4zMTl2MTAuNjloLTM2LjIzOXYxOS42aDM0LjQ4OFYyODYuMTQ5eiIvPiYjeGE7PC9nPiYjeGE7PGc+JiN4YTsJPHBhdGggZD0iTTE0MzEuMTMyLDk4LjM1aC0xMC42NDd2LTQuMjYzaDI2LjM1NHY0LjI2M2gtMTAuNjQ4djI4LjcyM2gtNS4wNTlWOTguMzV6Ii8+JiN4YTsJPHBhdGggZD0iTTE0NTIuMjA3LDk0LjA4N2g1LjgyNGw0LjI2OCwxMy40NjRsMS40NzksNS4xMzJoMC4yMDJsMS40MzgtNS4xMzJsNC4zMDktMTMuNDY0aDUuODI0djMyLjk4NWgtNC42MTJ2LTE0Ljg3NiYjMTA7JiM5OyYjOTtjMC0zLjM0NiwwLjU0MS05LjU5OCwwLjc4LTEyLjYwNmgtMC4xNTFsLTIuMDMzLDcuMDU5bC00LjE3LDExLjY3OWgtMy4xNzNsLTQuMTA3LTExLjY3OWwtMi4wMjctNy4wNTloLTAuMTE5JiMxMDsmIzk7JiM5O2MwLjMyMSwzLjAwOSwwLjc4LDkuMjYxLDAuNzgsMTIuNjA2djE0Ljg3NmgtNC41MTJWOTQuMDg3eiIvPiYjeGE7PC9nPiYjeGE7PGc+JiN4YTs8L2c+JiN4YTs8Zz4mI3hhOzwvZz4mI3hhOzxnPiYjeGE7PC9nPiYjeGE7PGc+JiN4YTs8L2c+JiN4YTs8Zz4mI3hhOzwvZz4mI3hhOzxnPiYjeGE7PC9nPiYjeGE7PGc+JiN4YTs8L2c+JiN4YTs8Zz4mI3hhOzwvZz4mI3hhOzxnPiYjeGE7PC9nPiYjeGE7PGc+JiN4YTs8L2c+JiN4YTs8Zz4mI3hhOzwvZz4mI3hhOzxnPiYjeGE7PC9nPiYjeGE7PGc+JiN4YTs8L2c+JiN4YTs8Zz4mI3hhOzwvZz4mI3hhOzxnPiYjeGE7PC9nPiYjeGE7PC9zdmc+;rounded=0;sketch=1;curveFitting=1;jiggle=2;" vertex="1" parent="PHoNQdwAoVbEZFHkZa52-7">
          <mxGeometry width="210.64" height="66" as="geometry" />
        </mxCell>
        <mxCell id="PHoNQdwAoVbEZFHkZa52-6" value="Python Flask Server" style="text;html=1;strokeColor=none;fillColor=none;align=center;verticalAlign=middle;whiteSpace=wrap;rounded=0;" vertex="1" parent="PHoNQdwAoVbEZFHkZa52-7">
          <mxGeometry y="50" width="210" height="30" as="geometry" />
        </mxCell>
        <mxCell id="PHoNQdwAoVbEZFHkZa52-67" value="Docker Container" style="swimlane;whiteSpace=wrap;html=1;" vertex="1" parent="PHoNQdwAoVbEZFHkZa52-49">
          <mxGeometry x="40" y="725" width="1050" height="130" as="geometry" />
        </mxCell>
        <mxCell id="PHoNQdwAoVbEZFHkZa52-8" value="" style="group" vertex="1" connectable="0" parent="PHoNQdwAoVbEZFHkZa52-67">
          <mxGeometry x="409.68000000000006" y="40" width="210.64" height="80" as="geometry" />
        </mxCell>
        <mxCell id="PHoNQdwAoVbEZFHkZa52-9" value="" style="shape=image;verticalLabelPosition=bottom;labelBackgroundColor=none;verticalAlign=top;aspect=fixed;imageAspect=0;image=data:image/svg+xml,PHN2ZyB4bWxuczp4bGluaz0iaHR0cDovL3d3dy53My5vcmcvMTk5OS94bGluayIgeG1sbnM9Imh0dHA6Ly93d3cudzMub3JnLzIwMDAvc3ZnIiB4bWw6c3BhY2U9InByZXNlcnZlIiBzdHlsZT0iZW5hYmxlLWJhY2tncm91bmQ6bmV3IDAgMCAxNTAwIDQ3MDsiIHZpZXdCb3g9IjAgMCAxNTAwIDQ3MCIgeT0iMHB4IiB4PSIwcHgiIGlkPSLroIjsnbTslrRfMSIgdmVyc2lvbj0iMS4xIj4mI3hhOzxnPiYjeGE7CTxwYXRoIGQ9Ik0xOTgsMTE5djc2SDgzdi03NkgxOTggTTI0OCw2OUg2M2MtMTYuNTY5LDAtMzAsMTMuNDMxLTMwLDMwdjExNmMwLDE2LjU2OSwxMy40MzEsMzAsMzAsMzBoMTg1VjY5TDI0OCw2OXoiLz4mI3hhOzwvZz4mI3hhOzxnPiYjeGE7CTxyZWN0IGhlaWdodD0iMzAzIiB3aWR0aD0iNTIuNSIgeT0iNjkiIHg9IjMyLjUiLz4mI3hhOzwvZz4mI3hhOzxnPiYjeGE7CSYjeGE7CQk8cmVjdCBoZWlnaHQ9IjE3Ni45MzkiIHdpZHRoPSI1Mi41IiB0cmFuc2Zvcm09Im1hdHJpeCgwLjc5MTQgLTAuNjExMyAwLjYxMTMgMC43OTE0IC0xMzYuNjIxNiAxNzEuMjY0NykiIHk9IjE5Ny4zMzciIHg9IjE1Ni4zNzIiLz4mI3hhOzwvZz4mI3hhOzxnPiYjeGE7CTxyZWN0IGhlaWdodD0iNTIuNSIgd2lkdGg9Ijc5Ljg0OCIgeT0iMzE5LjU1NyIgeD0iMjE2LjE1MiIvPiYjeGE7PC9nPiYjeGE7PGc+JiN4YTsJPHJlY3QgaGVpZ2h0PSIzMDMiIHdpZHRoPSI1Mi41IiB5PSI2OSIgeD0iMjk1LjUiLz4mI3hhOzwvZz4mI3hhOzxnPiYjeGE7CTxwYXRoIGQ9Ik01MzguMDc4LDM0My41NDFsLTQyLjM1MywyOC44NzJjLTAuMjgzLDAuMTkzLTAuNjcsMC4xMi0wLjg2My0wLjE2M0wzMDYuNDEzLDk1LjgwOWMtMC4xOTMtMC4yODMtMC4xMi0wLjY3LDAuMTYzLTAuODYzJiMxMDsmIzk7JiM5O2wzNS45MjYtMjQuNDkxYzMuODMzLTIuNjEzLDkuMDU4LTEuNjI0LDExLjY3MSwyLjIwOWwxODQuMDY3LDI3MC4wMTRDNTM4LjQzNCwzNDIuOTYyLDUzOC4zNjEsMzQzLjM0OCw1MzguMDc4LDM0My41NDF6Ii8+JiN4YTs8L2c+JiN4YTs8Zz4mI3hhOwk8cmVjdCBoZWlnaHQ9IjMwMC4xMTQiIHdpZHRoPSI1MiIgeT0iNzIuNDQzIiB4PSI0OTQiLz4mI3hhOzwvZz4mI3hhOzxnPiYjeGE7CTxwYXRoIGQ9Ik02MDMuOTM4LDE3OS43MnYzOC4zMDNoLTE1Ljg4M3YtOTEuODMzaDM1Ljc5M2M0LjI5NiwwLDguMjY3LDAuNzYyLDExLjkxMiwyLjI4NGMzLjY0NCwxLjUyMyw2Ljc5MSwzLjY3MSw5LjQzOCw2LjQ0MiYjMTA7JiM5OyYjOTtjMi42NDcsMi43NzMsNC42OTksNi4wNzMsNi4xNTcsOS44OThjMS40NTcsMy44MjcsMi4xODcsOC4wNDQsMi4xODcsMTIuNjVjMCw0LjE0LTAuNTk1LDcuOTA3LTEuNzg0LDExLjMwNCYjMTA7JiM5OyYjOTtjLTEuMTksMy4zOTctMi44NzcsNi4zODQtNS4wNjQsOC45NjFjLTIuMTg3LDIuNTc3LTQuNzk2LDQuNjg1LTcuODI2LDYuMzI1Yy0zLjAzMiwxLjY0LTYuMzg3LDIuNzM0LTEwLjA3LDMuMjhsMjUuODk2LDMwLjY4OSYjMTA7JiM5OyYjOTtoLTE5LjQ1TDYwMy45MzgsMTc5LjcyeiBNNjIyLjIzNywxNzQuNTY2YzQuODM0LDAsOC41NTQtMS42MiwxMS4xNjQtNC44NjFjMi42MDgtMy4yNCwzLjkxMy03LjMyMSwzLjkxMy0xMi4yNDEmIzEwOyYjOTsmIzk7YzAtNC45MTktMS4zMDUtOC45NzktMy45MTMtMTIuMTgyYy0yLjYwOS0zLjIwMS02LjMzLTQuODAzLTExLjE2NC00LjgwM2gtMTguMjk5djM0LjA4Nkg2MjIuMjM3eiIvPiYjeGE7CTxwYXRoIGQ9Ik03MzguNTkzLDEyNi4xODl2OTEuODMzSDcyMi43MXYtMzcuOTUyaC0zNi4wMjNsLTUuNzU0LTEwLjE5djQ4LjE0Mkg2NjUuMDV2LTkxLjgzM2gxNS44ODN2MzkuODI2aDQxLjc3OHYtMzkuODI2SDczOC41OTMmIzEwOyYjOTsmIzk7eiIvPiYjeGE7CTxwYXRoIGQ9Ik03ODMuNTkzLDE3MS44NzJoLTExLjM5NWwtMjQuOTc0LTQ1LjY4M2gxOC4xODRsMjEuNDA3LDM5LjU5MmwyMS40MDYtMzkuNTkyaDE4LjE4NWwtMzEuNjUsNTguMjE2djMzLjYxOGgtMTUuODgydi0zNy4zNjYmIzEwOyYjOTsmIzk7TDc4My41OTMsMTcxLjg3MnoiLz4mI3hhOwk8cGF0aCBkPSJNODc5LjkyNSwyMDAuMTAyaC0zMS42NWwtNS4xNzktOS4yNTRsLTguNjMyLDI3LjE3NWgtMTYuNjg4bDI5LjgwOS05MS44MzNoMjQuOTc1bDI5LjgwOSw5MS44MzNoLTE2LjY4OEw4NzkuOTI1LDIwMC4xMDJ6JiMxMDsmIzk7JiM5OyBNODQ0LjcwNywxODUuNTc3aDMwLjYxNGwtMTUuMTkyLTQ4LjI1OUw4NDQuNzA3LDE4NS41Nzd6Ii8+JiN4YTsJPHBhdGggZD0iTTkxMi4xNDksMjI0LjU4M3YtMTcuOTIxaDE3LjQ5NHYxNy45MjFIOTEyLjE0OXoiLz4mI3hhOwk8cGF0aCBkPSJNOTQ2LjkwNywxMjYuMTg5aDI3LjczNmwzMC4xNTQsODEuMTc0di04MS4xNzRoMTUuNjUydjkxLjgzM2gtMjcuNzM3bC0zMC4xNTMtODEuMTc0djgxLjE3NGgtMTUuNjUyVjEyNi4xODl6Ii8+JiN4YTsJPHBhdGggZD0iTTEwNDYuNTc0LDE4MC4zMDZjLTAuMDc3LDAuNjI2LTAuMTE1LDEuMjMtMC4xMTUsMS44MTVjMCwwLjU4NiwwLDEuMTkyLDAsMS44MTZjMCwzLjkwNiwwLjUzNiw3LjIwNCwxLjYxMSw5Ljg5OCYjMTA7JiM5OyYjOTtjMS4wNzMsMi42OTQsMi41MzIsNC45MDEsNC4zNzMsNi42MThjMS44NDIsMS43MTgsMy45MzIsMi45NjgsNi4yNzIsMy43NDhjMi4zNCwwLjc4Miw0Ljc3NiwxLjE3MSw3LjMwOSwxLjE3MSYjMTA7JiM5OyYjOTtjMy42MDUsMCw2LjYxOC0wLjY2Myw5LjAzNC0xLjk5MWMyLjQxNy0xLjMyNyw0LjM5Mi0zLjI0LDUuOTI4LTUuNzRoMTUuNjUyYy0xLjE1MSwzLjUxNC0yLjc2Myw2LjYxOC00LjgzNCw5LjMxMiYjMTA7JiM5OyYjOTtjLTIuMDcxLDIuNjk0LTQuNDUxLDQuOTU4LTcuMTM2LDYuNzkzYy0yLjY4NywxLjgzNC01LjYyMSwzLjIwMS04LjgwNSw0LjFjLTMuMTg1LDAuODk3LTYuNDY1LDEuMzQ3LTkuODQsMS4zNDcmIzEwOyYjOTsmIzk7Yy00LjM3MywwLTguNTk0LTAuNzQzLTEyLjY2LTIuMjI2Yy00LjA2Ny0xLjQ4NC03LjY5My0zLjY4OS0xMC44NzYtNi42MThjLTMuMTg1LTIuOTI4LTUuNzM2LTYuNTk4LTcuNjUzLTExLjAxJiMxMDsmIzk7JiM5O2MtMS45MTktNC40MTEtMi44NzctOS41NDctMi44NzctMTUuNDAzYzAtNS43NzgsMC45NzgtMTAuODc0LDIuOTM1LTE1LjI4NmMxLjk1Ni00LjQxMSw0LjUwNy04LjEyMSw3LjY1My0xMS4xMjgmIzEwOyYjOTsmIzk7YzMuMTQ2LTMuMDA1LDYuNzEzLTUuMjcxLDEwLjcwMy02Ljc5M2MzLjk4OS0xLjUyMyw4LjA1Ny0yLjI4NCwxMi4yLTIuMjg0YzQuMjk2LDAsOC40MDEsMC44NCwxMi4zMTQsMi41MTgmIzEwOyYjOTsmIzk7YzMuOTEzLDEuNjgsNy4zNDYsNC4xMiwxMC4zMDEsNy4zMjFjMi45NTIsMy4yMDMsNS4zMTIsNy4wODYsNy4wNzgsMTEuNjU1YzEuNzY0LDQuNTY4LDIuNjQ2LDkuNzQyLDIuNjQ2LDE1LjUydjQuNDUxaC00NC41NCYjMTA7JiM5OyYjOTtMMTA0Ni41NzQsMTgwLjMwNnogTTEwNjUuNDQ5LDE2Mi4wMzNjLTEuODQyLDAtMy43MjMsMC4yNzQtNS42NCwwLjgyYy0xLjkxOSwwLjU0Ny0zLjcwMywxLjQwNi01LjM1MiwyLjU3NyYjMTA7JiM5OyYjOTtjLTEuNjUxLDEuMTcxLTMuMTI3LDIuNzE0LTQuNDMyLDQuNjI3Yy0xLjMwNSwxLjkxNC0yLjI2NCw0LjIzNy0yLjg3Nyw2Ljk2OWgzNS4yMThjLTAuNjE1LTQuNTI4LTIuNDc1LTguMTU5LTUuNTgyLTEwLjg5NCYjMTA7JiM5OyYjOTtDMTA3My42NzgsMTYzLjQsMTA2OS44OTcsMTYyLjAzMywxMDY1LjQ0OSwxNjIuMDMzeiIvPiYjeGE7CTxwYXRoIGQ9Ik0xMTM4LjA3LDE2My42NzNoLTExLjE2NHY1NC4zNWgtMTUuMTkydi01NC4zNWgtMTIuNjU5di0xNC4wNTZoMTIuNjU5di0yMy40MjdoMTUuMTkydjIzLjQyN2gxNS43NjhMMTEzOC4wNywxNjMuNjczeiIvPiYjeGE7CTxwYXRoIGQ9Ik0xMTQ1LjU1MSwxNDkuNjE3aDE0LjczMWwxMS4xNjMsNTYuNDU4bDkuNjY4LTU2LjQ1OGgyMy4wMTlsOS42NjcsNTYuNDU4bDExLjE2NC01Ni40NThoMTQuNzMxbC0xNC41MDEsNjguNDA2aC0yMy4wMTkmIzEwOyYjOTsmIzk7bC05LjU1My01Ni45MjdsLTkuNTUyLDU2LjkyN2gtMjMuMDE5TDExNDUuNTUxLDE0OS42MTd6Ii8+JiN4YTsJPHBhdGggZD0iTTEzMTEuMTY2LDE4NC4wNTRjMCw1Ljg1Ni0wLjk3OSwxMC45NzItMi45MzYsMTUuMzQ1Yy0xLjk1Niw0LjM3NC00LjU0Niw4LjAyMy03Ljc2OSwxMC45NTImIzEwOyYjOTsmIzk7Yy0zLjIyMywyLjkyOS02Ljg2Nyw1LjEzNC0xMC45MzQsNi42MThjLTQuMDY3LDEuNDgyLTguMTcxLDIuMjI2LTEyLjMxNCwyLjIyNnMtOC4yNDktMC43NDMtMTIuMzE0LTIuMjI2JiMxMDsmIzk7JiM5O2MtNC4wNjgtMS40ODQtNy43MTEtMy42ODktMTAuOTM0LTYuNjE4Yy0zLjIyMy0yLjkyOC01LjgzMi02LjU3OC03LjgyNi0xMC45NTJjLTEuOTk2LTQuMzczLTIuOTkyLTkuNDg4LTIuOTkyLTE1LjM0NSYjMTA7JiM5OyYjOTtjMC01Ljc3OCwwLjk5Ni0xMC44OTQsMi45OTItMTUuMzQ1YzEuOTk0LTQuNDUxLDQuNjA0LTguMTc5LDcuODI2LTExLjE4N2MzLjIyMy0zLjAwNSw2Ljg2NS01LjI3MSwxMC45MzQtNi43OTMmIzEwOyYjOTsmIzk7YzQuMDY1LTEuNTIzLDguMTcxLTIuMjg0LDEyLjMxNC0yLjI4NHM4LjI0NywwLjc2MSwxMi4zMTQsMi4yODRjNC4wNjYsMS41MjIsNy43MTEsMy43ODksMTAuOTM0LDYuNzkzJiMxMDsmIzk7JiM5O2MzLjIyMywzLjAwNyw1LjgxMiw2LjczNSw3Ljc2OSwxMS4xODdDMTMxMC4xODgsMTczLjE2MSwxMzExLjE2NiwxNzguMjc2LDEzMTEuMTY2LDE4NC4wNTR6IE0xMjk1LjM5OCwxODQuMDU0JiMxMDsmIzk7JiM5O2MwLTMuMjgtMC40NDItNi4yNDctMS4zMjQtOC45MDJjLTAuODgzLTIuNjU0LTIuMTI5LTQuOTItMy43NC02Ljc5NHMtMy41My0zLjMxOC01Ljc1NC00LjMzNCYjMTA7JiM5OyYjOTtjLTIuMjI3LTEuMDE0LTQuNjgyLTEuNTIyLTcuMzY2LTEuNTIyYy0yLjY4NywwLTUuMTYxLDAuNTA5LTcuNDI0LDEuNTIyYy0yLjI2NCwxLjAxNi00LjIsMi40Ni01LjgxMiw0LjMzNCYjMTA7JiM5OyYjOTtzLTIuODU5LDQuMTQtMy43NCw2Ljc5NGMtMC44ODMsMi42NTYtMS4zMjQsNS42MjMtMS4zMjQsOC45MDJjMCw2LjYzOCwxLjY2OSwxMS44MTIsNS4wMDcsMTUuNTImIzEwOyYjOTsmIzk7YzMuMzM4LDMuNzEsNy43NjksNS41NjQsMTMuMjkzLDUuNTY0czkuOTM2LTEuODU0LDEzLjIzNS01LjU2NEMxMjkzLjc0NywxOTUuODY2LDEyOTUuMzk4LDE5MC42OTIsMTI5NS4zOTgsMTg0LjA1NHoiLz4mI3hhOwk8cGF0aCBkPSJNMTMyMS41MjEsMjE4LjAyM3YtNjguNDA2aDE0Ljk2MnYxMC4zMDhjMC42MTMtMS4zMjcsMS41MTUtMi42NTQsMi43MDUtMy45ODJjMS4xODgtMS4zMjcsMi42ODUtMi41MzcsNC40ODgtMy42MzEmIzEwOyYjOTsmIzk7YzEuODAyLTEuMDkzLDMuOTUtMS45NzEsNi40NDUtMi42MzVjMi40OTItMC42NjMsNS4zMTItMC45OTYsOC40NTktMC45OTZ2MTYuMzk5Yy00LjQ1MSwwLTguMDk2LDAuNDY5LTEwLjkzNCwxLjQwNiYjMTA7JiM5OyYjOTtjLTIuODQsMC45MzctNS4wNjQsMi4yMDctNi42NzYsMy44MDdjLTEuNjExLDEuNjAyLTIuNzI1LDMuNTE0LTMuMzM3LDUuNzRjLTAuNjE1LDIuMjI2LTAuOTIxLDQuNjI3LTAuOTIxLDcuMjA0djM0Ljc4OUgxMzIxLjUyMXoiLz4mI3hhOwk8cGF0aCBkPSJNMTM5Ni4wOTksMTgyLjg4M2gxMS44NTRsMTkuNDUsMzUuMTRoLTE3LjAzM2wtMTcuMzc5LTMxLjM5MmwtMTAuNTg4LDEyLjUzNHYxOC44NThoLTE1LjE5MnYtOTUuNTgyaDE1LjE5MnY1NS4wNTMmIzEwOyYjOTsmIzk7bDIzLjQ3OS0yNy44NzhoMTguNDE0TDEzOTYuMDk5LDE4Mi44ODN6Ii8+JiN4YTs8L2c+JiN4YTs8Zz4mI3hhOwk8cGF0aCBkPSJNNjAwLjA0NCwyODMuNTY2Yy01LjA3Ny0xLjE4OC04Ljk1OC0zLjQ0NC0xMS42NDItNi43NzFjLTIuNjg1LTMuMzI2LTQuMDI2LTcuMzk1LTQuMDI2LTEyLjIwNiYjMTA7JiM5OyYjOTtjMC0yLjc5MSwwLjQ4MS01LjM3NCwxLjQ0NC03Ljc1YzAuOTYyLTIuMzc1LDIuMzYzLTQuNDI0LDQuMjAyLTYuMTQ3YzEuODM4LTEuNzIyLDQuMTE0LTMuMDczLDYuODI4LTQuMDU0JiMxMDsmIzk7JiM5O2MyLjcxMy0wLjk3OSw1Ljg1LTEuNDcsOS40MS0xLjQ3aDI0LjY4NWwtMy41ODksMTAuODY5aC0yMC45MmMtMy4yMSwwLTUuNjc2LDAuNzEyLTcuMzk3LDIuMTM4JiMxMDsmIzk7JiM5O2MtMS43MjIsMS40MjYtMi41ODIsMy4zMjctMi41ODIsNS43MDJjMCwyLjEzOCwwLjY4NSwzLjk3OSwyLjA1Nyw1LjUyM2MxLjM3LDEuNTQ1LDMuODA4LDIuNzMyLDcuMzA5LDMuNTYzbDEwLjY3OSwyLjU4MyYjMTA7JiM5OyYjOTtjNS4xOTMsMS4yNDgsOS4wNDUsMy41MDYsMTEuNTU1LDYuNzcxYzIuNTA4LDMuMjY3LDMuNzY0LDcuNDI1LDMuNzY0LDEyLjQ3MmMwLDYuMjk3LTEuOTU2LDExLjI0MS01Ljg2NSwxNC44MzQmIzEwOyYjOTsmIzk7Yy0zLjkxLDMuNTkzLTkuNjI5LDUuMzktMTcuMTU3LDUuMzloLTI2LjE3M2wzLjU4OS0xMC44NjloMjEuODg0YzMuOTA5LDAsNi44MjgtMC44MTUsOC43NTMtMi40NDkmIzEwOyYjOTsmIzk7YzEuOTI2LTEuNjMzLDIuODg5LTMuNzI3LDIuODg5LTYuMjgxYzAtMi4wNzgtMC42NDMtMy45MzQtMS45MjYtNS41NjhjLTEuMjg0LTEuNjMzLTMuNjQ4LTIuODY0LTcuMDktMy42OTdMNjAwLjA0NCwyODMuNTY2eiIvPiYjeGE7CTxwYXRoIGQ9Ik02ODcuMTQxLDI4Ni4xNDloLTMwLjExMmwtNC4zNzctNy43NXYyNS45MjVoMzcuMTE1djEwLjY5aC00OS4xOTR2LTY5Ljg0Nmg0OC4zMTl2MTAuNjloLTM2LjIzOXYxOS42aDM0LjQ4OVYyODYuMTQ5eiIvPiYjeGE7CTxwYXRoIGQ9Ik03MTAuMTYyLDI4NS44ODN2MjkuMTMyaC0xMi4wOHYtNjkuODQ2aDI3LjIyM2MzLjI2OCwwLDYuMjg4LDAuNTc5LDkuMDYsMS43MzdjMi43NzEsMS4xNTgsNS4xNjUsMi43OTIsNy4xNzgsNC44OTkmIzEwOyYjOTsmIzk7YzIuMDEzLDIuMTA5LDMuNTc0LDQuNjE5LDQuNjgzLDcuNTI4YzEuMTA4LDIuOTExLDEuNjYzLDYuMTE4LDEuNjYzLDkuNjIyYzAsMy4xNDgtMC40NTMsNi4wMTMtMS4zNTcsOC41OTcmIzEwOyYjOTsmIzk7Yy0wLjkwNSwyLjU4NC0yLjE4OCw0Ljg1NS0zLjg1Miw2LjgxNWMtMS42NjMsMS45Ni0zLjY0NywzLjU2My01Ljk1Miw0LjgxMWMtMi4zMDYsMS4yNDctNC44NTgsMi4wOC03LjY1OSwyLjQ5NWwxOS42OTUsMjMuMzQxJiMxMDsmIzk7JiM5O2gtMTQuNzkzTDcxMC4xNjIsMjg1Ljg4M3ogTTcyNC4wOCwyODEuOTYzYzMuNjc3LDAsNi41MDYtMS4yMzIsOC40OTEtMy42OTdjMS45ODMtMi40NjQsMi45NzYtNS41NjgsMi45NzYtOS4zMSYjMTA7JiM5OyYjOTtjMC0zLjc0Mi0wLjk5My02LjgzLTIuOTc2LTkuMjY2Yy0xLjk4NS0yLjQzNS00LjgxNC0zLjY1Mi04LjQ5MS0zLjY1MmgtMTMuOTE4djI1LjkyNUg3MjQuMDh6Ii8+JiN4YTsJPHBhdGggZD0iTTc4MS40MTYsMzA1LjY2bDE5LjQzMi02MC40OTFoMTIuNjkzbC0yMi42NzIsNjkuODQ2aC0xOC45OTRsLTIyLjY3Mi02OS44NDZoMTIuNjkyTDc4MS40MTYsMzA1LjY2eiIvPiYjeGE7CTxwYXRoIGQ9Ik04MzIuNjIyLDI0NS4xNjl2NjkuODQ2aC0xMi4wNzl2LTY5Ljg0Nkg4MzIuNjIyeiIvPiYjeGE7CTxwYXRoIGQ9Ik04NDEuODEyLDI4MC4wOTJjMC01LjI4NSwwLjgzMi0xMC4xNDEsMi40OTUtMTQuNTY2YzEuNjYzLTQuNDI0LDMuOTgyLTguMjI2LDYuOTU5LTExLjQwMyYjMTA7JiM5OyYjOTtjMi45NzYtMy4xNzcsNi41MjEtNS42NDIsMTAuNjM1LTcuMzk1YzQuMTE0LTEuNzUxLDguNTkzLTIuNjI4LDEzLjQzNy0yLjYyOGMzLjk2OCwwLDcuNjE2LDAuNjEsMTAuOTQyLDEuODI2JiMxMDsmIzk7JiM5O2MzLjMyNiwxLjIxOSw2LjI4NywyLjg5Niw4Ljg4NSw1LjAzNGMyLjU5NiwyLjEzOCw0LjgyOCw0LjY0Nyw2LjY5Niw3LjUyN2MxLjg2NywyLjg4MiwzLjMyNiw1Ljk4NCw0LjM3Nyw5LjMxMWgtMTIuNDMxJiMxMDsmIzk7JiM5O2MtMC41MjQtMS42NjItMS4zMjctMy4yODEtMi40MDYtNC44NTVjLTEuMDgxLTEuNTczLTIuNDA3LTIuOTQtMy45ODMtNC4wOTljLTEuNTc1LTEuMTU4LTMuMzctMi4wOTQtNS4zODMtMi44MDYmIzEwOyYjOTsmIzk7Yy0yLjAxNC0wLjcxMy00LjI0Ni0xLjA2OS02LjY5Ny0xLjA2OWMtMy4wOTQsMC01LjkzOCwwLjYwOS04LjUzNCwxLjgyNmMtMi41OTgsMS4yMTgtNC44NDUsMi45NC02Ljc0LDUuMTY3JiMxMDsmIzk7JiM5O2MtMS44OTcsMi4yMjgtMy4zNyw0Ljg4Ni00LjQyMSw3Ljk3NGMtMS4wNSwzLjA4OS0xLjU3NSw2LjQ3NS0xLjU3NSwxMC4xNTZjMCwzLjY4NCwwLjUyNSw3LjA2OCwxLjU3NSwxMC4xNTYmIzEwOyYjOTsmIzk7YzEuMDUxLDMuMDg5LDIuNTIzLDUuNzQ2LDQuNDIxLDcuOTc0YzEuODk2LDIuMjI3LDQuMTQzLDMuOTUsNi43NCw1LjE2N2MyLjU5NiwxLjIxOCw1LjQ0LDEuODI2LDguNTM0LDEuODI2JiMxMDsmIzk7JiM5O2M0LjMxOCwwLDguMTU1LTAuOTM2LDExLjUxMS0yLjgwN2MzLjM1NS0xLjg3LDUuNzkxLTQuNjc3LDcuMzEtOC40MTloMTIuNDNjLTEuMDUsMy42MjQtMi42MTIsNi44MTUtNC42ODMsOS41NzcmIzEwOyYjOTsmIzk7Yy0yLjA3MiwyLjc2Mi00LjQ5NCw1LjA2NC03LjI2Niw2LjkwNWMtMi43NzIsMS44NC01LjgwOCwzLjIzNi05LjEwNCw0LjE4N2MtMy4yOTgsMC45NDktNi42OTYsMS40MjYtMTAuMTk4LDEuNDI2JiMxMDsmIzk7JiM5O2MtNC44NDQsMC05LjMyMi0wLjg3Ny0xMy40MzctMi42MjhjLTQuMTEzLTEuNzUzLTcuNjU5LTQuMjE3LTEwLjYzNS03LjM5NWMtMi45NzctMy4xNzctNS4yOTYtNi45NzktNi45NTktMTEuNDAzJiMxMDsmIzk7JiM5O0M4NDIuNjQ1LDI5MC4yMzQsODQxLjgxMiwyODUuMzc5LDg0MS44MTIsMjgwLjA5MnoiLz4mI3hhOwk8cGF0aCBkPSJNOTYxLjQ3MiwyODYuMTQ5SDkzMS4zNmwtNC4zNzctNy43NXYyNS45MjVoMzcuMTE1djEwLjY5aC00OS4xOTV2LTY5Ljg0Nmg0OC4zMTl2MTAuNjloLTM2LjIzOXYxOS42aDM0LjQ4OFYyODYuMTQ5eiIvPiYjeGE7PC9nPiYjeGE7PGc+JiN4YTsJPHBhdGggZD0iTTE0MzEuMTMyLDk4LjM1aC0xMC42NDd2LTQuMjYzaDI2LjM1NHY0LjI2M2gtMTAuNjQ4djI4LjcyM2gtNS4wNTlWOTguMzV6Ii8+JiN4YTsJPHBhdGggZD0iTTE0NTIuMjA3LDk0LjA4N2g1LjgyNGw0LjI2OCwxMy40NjRsMS40NzksNS4xMzJoMC4yMDJsMS40MzgtNS4xMzJsNC4zMDktMTMuNDY0aDUuODI0djMyLjk4NWgtNC42MTJ2LTE0Ljg3NiYjMTA7JiM5OyYjOTtjMC0zLjM0NiwwLjU0MS05LjU5OCwwLjc4LTEyLjYwNmgtMC4xNTFsLTIuMDMzLDcuMDU5bC00LjE3LDExLjY3OWgtMy4xNzNsLTQuMTA3LTExLjY3OWwtMi4wMjctNy4wNTloLTAuMTE5JiMxMDsmIzk7JiM5O2MwLjMyMSwzLjAwOSwwLjc4LDkuMjYxLDAuNzgsMTIuNjA2djE0Ljg3NmgtNC41MTJWOTQuMDg3eiIvPiYjeGE7PC9nPiYjeGE7PGc+JiN4YTs8L2c+JiN4YTs8Zz4mI3hhOzwvZz4mI3hhOzxnPiYjeGE7PC9nPiYjeGE7PGc+JiN4YTs8L2c+JiN4YTs8Zz4mI3hhOzwvZz4mI3hhOzxnPiYjeGE7PC9nPiYjeGE7PGc+JiN4YTs8L2c+JiN4YTs8Zz4mI3hhOzwvZz4mI3hhOzxnPiYjeGE7PC9nPiYjeGE7PGc+JiN4YTs8L2c+JiN4YTs8Zz4mI3hhOzwvZz4mI3hhOzxnPiYjeGE7PC9nPiYjeGE7PGc+JiN4YTs8L2c+JiN4YTs8Zz4mI3hhOzwvZz4mI3hhOzxnPiYjeGE7PC9nPiYjeGE7PC9zdmc+;rounded=0;sketch=1;curveFitting=1;jiggle=2;" vertex="1" parent="PHoNQdwAoVbEZFHkZa52-8">
          <mxGeometry width="210.64" height="66" as="geometry" />
        </mxCell>
        <mxCell id="PHoNQdwAoVbEZFHkZa52-10" value="Java SpringBoot-v1 Server" style="text;html=1;strokeColor=none;fillColor=none;align=center;verticalAlign=middle;whiteSpace=wrap;rounded=0;" vertex="1" parent="PHoNQdwAoVbEZFHkZa52-8">
          <mxGeometry y="50" width="210" height="30" as="geometry" />
        </mxCell>
        <mxCell id="PHoNQdwAoVbEZFHkZa52-71" value="Docker Container" style="swimlane;whiteSpace=wrap;html=1;" vertex="1" parent="PHoNQdwAoVbEZFHkZa52-49">
          <mxGeometry x="40" y="875" width="1050" height="130" as="geometry" />
        </mxCell>
        <mxCell id="PHoNQdwAoVbEZFHkZa52-11" value="" style="group" vertex="1" connectable="0" parent="PHoNQdwAoVbEZFHkZa52-71">
          <mxGeometry x="409.68000000000006" y="35.64" width="210.64" height="80" as="geometry" />
        </mxCell>
        <mxCell id="PHoNQdwAoVbEZFHkZa52-12" value="" style="shape=image;verticalLabelPosition=bottom;labelBackgroundColor=none;verticalAlign=top;aspect=fixed;imageAspect=0;image=data:image/svg+xml,PHN2ZyB4bWxuczp4bGluaz0iaHR0cDovL3d3dy53My5vcmcvMTk5OS94bGluayIgeG1sbnM9Imh0dHA6Ly93d3cudzMub3JnLzIwMDAvc3ZnIiB4bWw6c3BhY2U9InByZXNlcnZlIiBzdHlsZT0iZW5hYmxlLWJhY2tncm91bmQ6bmV3IDAgMCAxNTAwIDQ3MDsiIHZpZXdCb3g9IjAgMCAxNTAwIDQ3MCIgeT0iMHB4IiB4PSIwcHgiIGlkPSLroIjsnbTslrRfMSIgdmVyc2lvbj0iMS4xIj4mI3hhOzxnPiYjeGE7CTxwYXRoIGQ9Ik0xOTgsMTE5djc2SDgzdi03NkgxOTggTTI0OCw2OUg2M2MtMTYuNTY5LDAtMzAsMTMuNDMxLTMwLDMwdjExNmMwLDE2LjU2OSwxMy40MzEsMzAsMzAsMzBoMTg1VjY5TDI0OCw2OXoiLz4mI3hhOzwvZz4mI3hhOzxnPiYjeGE7CTxyZWN0IGhlaWdodD0iMzAzIiB3aWR0aD0iNTIuNSIgeT0iNjkiIHg9IjMyLjUiLz4mI3hhOzwvZz4mI3hhOzxnPiYjeGE7CSYjeGE7CQk8cmVjdCBoZWlnaHQ9IjE3Ni45MzkiIHdpZHRoPSI1Mi41IiB0cmFuc2Zvcm09Im1hdHJpeCgwLjc5MTQgLTAuNjExMyAwLjYxMTMgMC43OTE0IC0xMzYuNjIxNiAxNzEuMjY0NykiIHk9IjE5Ny4zMzciIHg9IjE1Ni4zNzIiLz4mI3hhOzwvZz4mI3hhOzxnPiYjeGE7CTxyZWN0IGhlaWdodD0iNTIuNSIgd2lkdGg9Ijc5Ljg0OCIgeT0iMzE5LjU1NyIgeD0iMjE2LjE1MiIvPiYjeGE7PC9nPiYjeGE7PGc+JiN4YTsJPHJlY3QgaGVpZ2h0PSIzMDMiIHdpZHRoPSI1Mi41IiB5PSI2OSIgeD0iMjk1LjUiLz4mI3hhOzwvZz4mI3hhOzxnPiYjeGE7CTxwYXRoIGQ9Ik01MzguMDc4LDM0My41NDFsLTQyLjM1MywyOC44NzJjLTAuMjgzLDAuMTkzLTAuNjcsMC4xMi0wLjg2My0wLjE2M0wzMDYuNDEzLDk1LjgwOWMtMC4xOTMtMC4yODMtMC4xMi0wLjY3LDAuMTYzLTAuODYzJiMxMDsmIzk7JiM5O2wzNS45MjYtMjQuNDkxYzMuODMzLTIuNjEzLDkuMDU4LTEuNjI0LDExLjY3MSwyLjIwOWwxODQuMDY3LDI3MC4wMTRDNTM4LjQzNCwzNDIuOTYyLDUzOC4zNjEsMzQzLjM0OCw1MzguMDc4LDM0My41NDF6Ii8+JiN4YTs8L2c+JiN4YTs8Zz4mI3hhOwk8cmVjdCBoZWlnaHQ9IjMwMC4xMTQiIHdpZHRoPSI1MiIgeT0iNzIuNDQzIiB4PSI0OTQiLz4mI3hhOzwvZz4mI3hhOzxnPiYjeGE7CTxwYXRoIGQ9Ik02MDMuOTM4LDE3OS43MnYzOC4zMDNoLTE1Ljg4M3YtOTEuODMzaDM1Ljc5M2M0LjI5NiwwLDguMjY3LDAuNzYyLDExLjkxMiwyLjI4NGMzLjY0NCwxLjUyMyw2Ljc5MSwzLjY3MSw5LjQzOCw2LjQ0MiYjMTA7JiM5OyYjOTtjMi42NDcsMi43NzMsNC42OTksNi4wNzMsNi4xNTcsOS44OThjMS40NTcsMy44MjcsMi4xODcsOC4wNDQsMi4xODcsMTIuNjVjMCw0LjE0LTAuNTk1LDcuOTA3LTEuNzg0LDExLjMwNCYjMTA7JiM5OyYjOTtjLTEuMTksMy4zOTctMi44NzcsNi4zODQtNS4wNjQsOC45NjFjLTIuMTg3LDIuNTc3LTQuNzk2LDQuNjg1LTcuODI2LDYuMzI1Yy0zLjAzMiwxLjY0LTYuMzg3LDIuNzM0LTEwLjA3LDMuMjhsMjUuODk2LDMwLjY4OSYjMTA7JiM5OyYjOTtoLTE5LjQ1TDYwMy45MzgsMTc5LjcyeiBNNjIyLjIzNywxNzQuNTY2YzQuODM0LDAsOC41NTQtMS42MiwxMS4xNjQtNC44NjFjMi42MDgtMy4yNCwzLjkxMy03LjMyMSwzLjkxMy0xMi4yNDEmIzEwOyYjOTsmIzk7YzAtNC45MTktMS4zMDUtOC45NzktMy45MTMtMTIuMTgyYy0yLjYwOS0zLjIwMS02LjMzLTQuODAzLTExLjE2NC00LjgwM2gtMTguMjk5djM0LjA4Nkg2MjIuMjM3eiIvPiYjeGE7CTxwYXRoIGQ9Ik03MzguNTkzLDEyNi4xODl2OTEuODMzSDcyMi43MXYtMzcuOTUyaC0zNi4wMjNsLTUuNzU0LTEwLjE5djQ4LjE0Mkg2NjUuMDV2LTkxLjgzM2gxNS44ODN2MzkuODI2aDQxLjc3OHYtMzkuODI2SDczOC41OTMmIzEwOyYjOTsmIzk7eiIvPiYjeGE7CTxwYXRoIGQ9Ik03ODMuNTkzLDE3MS44NzJoLTExLjM5NWwtMjQuOTc0LTQ1LjY4M2gxOC4xODRsMjEuNDA3LDM5LjU5MmwyMS40MDYtMzkuNTkyaDE4LjE4NWwtMzEuNjUsNTguMjE2djMzLjYxOGgtMTUuODgydi0zNy4zNjYmIzEwOyYjOTsmIzk7TDc4My41OTMsMTcxLjg3MnoiLz4mI3hhOwk8cGF0aCBkPSJNODc5LjkyNSwyMDAuMTAyaC0zMS42NWwtNS4xNzktOS4yNTRsLTguNjMyLDI3LjE3NWgtMTYuNjg4bDI5LjgwOS05MS44MzNoMjQuOTc1bDI5LjgwOSw5MS44MzNoLTE2LjY4OEw4NzkuOTI1LDIwMC4xMDJ6JiMxMDsmIzk7JiM5OyBNODQ0LjcwNywxODUuNTc3aDMwLjYxNGwtMTUuMTkyLTQ4LjI1OUw4NDQuNzA3LDE4NS41Nzd6Ii8+JiN4YTsJPHBhdGggZD0iTTkxMi4xNDksMjI0LjU4M3YtMTcuOTIxaDE3LjQ5NHYxNy45MjFIOTEyLjE0OXoiLz4mI3hhOwk8cGF0aCBkPSJNOTQ2LjkwNywxMjYuMTg5aDI3LjczNmwzMC4xNTQsODEuMTc0di04MS4xNzRoMTUuNjUydjkxLjgzM2gtMjcuNzM3bC0zMC4xNTMtODEuMTc0djgxLjE3NGgtMTUuNjUyVjEyNi4xODl6Ii8+JiN4YTsJPHBhdGggZD0iTTEwNDYuNTc0LDE4MC4zMDZjLTAuMDc3LDAuNjI2LTAuMTE1LDEuMjMtMC4xMTUsMS44MTVjMCwwLjU4NiwwLDEuMTkyLDAsMS44MTZjMCwzLjkwNiwwLjUzNiw3LjIwNCwxLjYxMSw5Ljg5OCYjMTA7JiM5OyYjOTtjMS4wNzMsMi42OTQsMi41MzIsNC45MDEsNC4zNzMsNi42MThjMS44NDIsMS43MTgsMy45MzIsMi45NjgsNi4yNzIsMy43NDhjMi4zNCwwLjc4Miw0Ljc3NiwxLjE3MSw3LjMwOSwxLjE3MSYjMTA7JiM5OyYjOTtjMy42MDUsMCw2LjYxOC0wLjY2Myw5LjAzNC0xLjk5MWMyLjQxNy0xLjMyNyw0LjM5Mi0zLjI0LDUuOTI4LTUuNzRoMTUuNjUyYy0xLjE1MSwzLjUxNC0yLjc2Myw2LjYxOC00LjgzNCw5LjMxMiYjMTA7JiM5OyYjOTtjLTIuMDcxLDIuNjk0LTQuNDUxLDQuOTU4LTcuMTM2LDYuNzkzYy0yLjY4NywxLjgzNC01LjYyMSwzLjIwMS04LjgwNSw0LjFjLTMuMTg1LDAuODk3LTYuNDY1LDEuMzQ3LTkuODQsMS4zNDcmIzEwOyYjOTsmIzk7Yy00LjM3MywwLTguNTk0LTAuNzQzLTEyLjY2LTIuMjI2Yy00LjA2Ny0xLjQ4NC03LjY5My0zLjY4OS0xMC44NzYtNi42MThjLTMuMTg1LTIuOTI4LTUuNzM2LTYuNTk4LTcuNjUzLTExLjAxJiMxMDsmIzk7JiM5O2MtMS45MTktNC40MTEtMi44NzctOS41NDctMi44NzctMTUuNDAzYzAtNS43NzgsMC45NzgtMTAuODc0LDIuOTM1LTE1LjI4NmMxLjk1Ni00LjQxMSw0LjUwNy04LjEyMSw3LjY1My0xMS4xMjgmIzEwOyYjOTsmIzk7YzMuMTQ2LTMuMDA1LDYuNzEzLTUuMjcxLDEwLjcwMy02Ljc5M2MzLjk4OS0xLjUyMyw4LjA1Ny0yLjI4NCwxMi4yLTIuMjg0YzQuMjk2LDAsOC40MDEsMC44NCwxMi4zMTQsMi41MTgmIzEwOyYjOTsmIzk7YzMuOTEzLDEuNjgsNy4zNDYsNC4xMiwxMC4zMDEsNy4zMjFjMi45NTIsMy4yMDMsNS4zMTIsNy4wODYsNy4wNzgsMTEuNjU1YzEuNzY0LDQuNTY4LDIuNjQ2LDkuNzQyLDIuNjQ2LDE1LjUydjQuNDUxaC00NC41NCYjMTA7JiM5OyYjOTtMMTA0Ni41NzQsMTgwLjMwNnogTTEwNjUuNDQ5LDE2Mi4wMzNjLTEuODQyLDAtMy43MjMsMC4yNzQtNS42NCwwLjgyYy0xLjkxOSwwLjU0Ny0zLjcwMywxLjQwNi01LjM1MiwyLjU3NyYjMTA7JiM5OyYjOTtjLTEuNjUxLDEuMTcxLTMuMTI3LDIuNzE0LTQuNDMyLDQuNjI3Yy0xLjMwNSwxLjkxNC0yLjI2NCw0LjIzNy0yLjg3Nyw2Ljk2OWgzNS4yMThjLTAuNjE1LTQuNTI4LTIuNDc1LTguMTU5LTUuNTgyLTEwLjg5NCYjMTA7JiM5OyYjOTtDMTA3My42NzgsMTYzLjQsMTA2OS44OTcsMTYyLjAzMywxMDY1LjQ0OSwxNjIuMDMzeiIvPiYjeGE7CTxwYXRoIGQ9Ik0xMTM4LjA3LDE2My42NzNoLTExLjE2NHY1NC4zNWgtMTUuMTkydi01NC4zNWgtMTIuNjU5di0xNC4wNTZoMTIuNjU5di0yMy40MjdoMTUuMTkydjIzLjQyN2gxNS43NjhMMTEzOC4wNywxNjMuNjczeiIvPiYjeGE7CTxwYXRoIGQ9Ik0xMTQ1LjU1MSwxNDkuNjE3aDE0LjczMWwxMS4xNjMsNTYuNDU4bDkuNjY4LTU2LjQ1OGgyMy4wMTlsOS42NjcsNTYuNDU4bDExLjE2NC01Ni40NThoMTQuNzMxbC0xNC41MDEsNjguNDA2aC0yMy4wMTkmIzEwOyYjOTsmIzk7bC05LjU1My01Ni45MjdsLTkuNTUyLDU2LjkyN2gtMjMuMDE5TDExNDUuNTUxLDE0OS42MTd6Ii8+JiN4YTsJPHBhdGggZD0iTTEzMTEuMTY2LDE4NC4wNTRjMCw1Ljg1Ni0wLjk3OSwxMC45NzItMi45MzYsMTUuMzQ1Yy0xLjk1Niw0LjM3NC00LjU0Niw4LjAyMy03Ljc2OSwxMC45NTImIzEwOyYjOTsmIzk7Yy0zLjIyMywyLjkyOS02Ljg2Nyw1LjEzNC0xMC45MzQsNi42MThjLTQuMDY3LDEuNDgyLTguMTcxLDIuMjI2LTEyLjMxNCwyLjIyNnMtOC4yNDktMC43NDMtMTIuMzE0LTIuMjI2JiMxMDsmIzk7JiM5O2MtNC4wNjgtMS40ODQtNy43MTEtMy42ODktMTAuOTM0LTYuNjE4Yy0zLjIyMy0yLjkyOC01LjgzMi02LjU3OC03LjgyNi0xMC45NTJjLTEuOTk2LTQuMzczLTIuOTkyLTkuNDg4LTIuOTkyLTE1LjM0NSYjMTA7JiM5OyYjOTtjMC01Ljc3OCwwLjk5Ni0xMC44OTQsMi45OTItMTUuMzQ1YzEuOTk0LTQuNDUxLDQuNjA0LTguMTc5LDcuODI2LTExLjE4N2MzLjIyMy0zLjAwNSw2Ljg2NS01LjI3MSwxMC45MzQtNi43OTMmIzEwOyYjOTsmIzk7YzQuMDY1LTEuNTIzLDguMTcxLTIuMjg0LDEyLjMxNC0yLjI4NHM4LjI0NywwLjc2MSwxMi4zMTQsMi4yODRjNC4wNjYsMS41MjIsNy43MTEsMy43ODksMTAuOTM0LDYuNzkzJiMxMDsmIzk7JiM5O2MzLjIyMywzLjAwNyw1LjgxMiw2LjczNSw3Ljc2OSwxMS4xODdDMTMxMC4xODgsMTczLjE2MSwxMzExLjE2NiwxNzguMjc2LDEzMTEuMTY2LDE4NC4wNTR6IE0xMjk1LjM5OCwxODQuMDU0JiMxMDsmIzk7JiM5O2MwLTMuMjgtMC40NDItNi4yNDctMS4zMjQtOC45MDJjLTAuODgzLTIuNjU0LTIuMTI5LTQuOTItMy43NC02Ljc5NHMtMy41My0zLjMxOC01Ljc1NC00LjMzNCYjMTA7JiM5OyYjOTtjLTIuMjI3LTEuMDE0LTQuNjgyLTEuNTIyLTcuMzY2LTEuNTIyYy0yLjY4NywwLTUuMTYxLDAuNTA5LTcuNDI0LDEuNTIyYy0yLjI2NCwxLjAxNi00LjIsMi40Ni01LjgxMiw0LjMzNCYjMTA7JiM5OyYjOTtzLTIuODU5LDQuMTQtMy43NCw2Ljc5NGMtMC44ODMsMi42NTYtMS4zMjQsNS42MjMtMS4zMjQsOC45MDJjMCw2LjYzOCwxLjY2OSwxMS44MTIsNS4wMDcsMTUuNTImIzEwOyYjOTsmIzk7YzMuMzM4LDMuNzEsNy43NjksNS41NjQsMTMuMjkzLDUuNTY0czkuOTM2LTEuODU0LDEzLjIzNS01LjU2NEMxMjkzLjc0NywxOTUuODY2LDEyOTUuMzk4LDE5MC42OTIsMTI5NS4zOTgsMTg0LjA1NHoiLz4mI3hhOwk8cGF0aCBkPSJNMTMyMS41MjEsMjE4LjAyM3YtNjguNDA2aDE0Ljk2MnYxMC4zMDhjMC42MTMtMS4zMjcsMS41MTUtMi42NTQsMi43MDUtMy45ODJjMS4xODgtMS4zMjcsMi42ODUtMi41MzcsNC40ODgtMy42MzEmIzEwOyYjOTsmIzk7YzEuODAyLTEuMDkzLDMuOTUtMS45NzEsNi40NDUtMi42MzVjMi40OTItMC42NjMsNS4zMTItMC45OTYsOC40NTktMC45OTZ2MTYuMzk5Yy00LjQ1MSwwLTguMDk2LDAuNDY5LTEwLjkzNCwxLjQwNiYjMTA7JiM5OyYjOTtjLTIuODQsMC45MzctNS4wNjQsMi4yMDctNi42NzYsMy44MDdjLTEuNjExLDEuNjAyLTIuNzI1LDMuNTE0LTMuMzM3LDUuNzRjLTAuNjE1LDIuMjI2LTAuOTIxLDQuNjI3LTAuOTIxLDcuMjA0djM0Ljc4OUgxMzIxLjUyMXoiLz4mI3hhOwk8cGF0aCBkPSJNMTM5Ni4wOTksMTgyLjg4M2gxMS44NTRsMTkuNDUsMzUuMTRoLTE3LjAzM2wtMTcuMzc5LTMxLjM5MmwtMTAuNTg4LDEyLjUzNHYxOC44NThoLTE1LjE5MnYtOTUuNTgyaDE1LjE5MnY1NS4wNTMmIzEwOyYjOTsmIzk7bDIzLjQ3OS0yNy44NzhoMTguNDE0TDEzOTYuMDk5LDE4Mi44ODN6Ii8+JiN4YTs8L2c+JiN4YTs8Zz4mI3hhOwk8cGF0aCBkPSJNNjAwLjA0NCwyODMuNTY2Yy01LjA3Ny0xLjE4OC04Ljk1OC0zLjQ0NC0xMS42NDItNi43NzFjLTIuNjg1LTMuMzI2LTQuMDI2LTcuMzk1LTQuMDI2LTEyLjIwNiYjMTA7JiM5OyYjOTtjMC0yLjc5MSwwLjQ4MS01LjM3NCwxLjQ0NC03Ljc1YzAuOTYyLTIuMzc1LDIuMzYzLTQuNDI0LDQuMjAyLTYuMTQ3YzEuODM4LTEuNzIyLDQuMTE0LTMuMDczLDYuODI4LTQuMDU0JiMxMDsmIzk7JiM5O2MyLjcxMy0wLjk3OSw1Ljg1LTEuNDcsOS40MS0xLjQ3aDI0LjY4NWwtMy41ODksMTAuODY5aC0yMC45MmMtMy4yMSwwLTUuNjc2LDAuNzEyLTcuMzk3LDIuMTM4JiMxMDsmIzk7JiM5O2MtMS43MjIsMS40MjYtMi41ODIsMy4zMjctMi41ODIsNS43MDJjMCwyLjEzOCwwLjY4NSwzLjk3OSwyLjA1Nyw1LjUyM2MxLjM3LDEuNTQ1LDMuODA4LDIuNzMyLDcuMzA5LDMuNTYzbDEwLjY3OSwyLjU4MyYjMTA7JiM5OyYjOTtjNS4xOTMsMS4yNDgsOS4wNDUsMy41MDYsMTEuNTU1LDYuNzcxYzIuNTA4LDMuMjY3LDMuNzY0LDcuNDI1LDMuNzY0LDEyLjQ3MmMwLDYuMjk3LTEuOTU2LDExLjI0MS01Ljg2NSwxNC44MzQmIzEwOyYjOTsmIzk7Yy0zLjkxLDMuNTkzLTkuNjI5LDUuMzktMTcuMTU3LDUuMzloLTI2LjE3M2wzLjU4OS0xMC44NjloMjEuODg0YzMuOTA5LDAsNi44MjgtMC44MTUsOC43NTMtMi40NDkmIzEwOyYjOTsmIzk7YzEuOTI2LTEuNjMzLDIuODg5LTMuNzI3LDIuODg5LTYuMjgxYzAtMi4wNzgtMC42NDMtMy45MzQtMS45MjYtNS41NjhjLTEuMjg0LTEuNjMzLTMuNjQ4LTIuODY0LTcuMDktMy42OTdMNjAwLjA0NCwyODMuNTY2eiIvPiYjeGE7CTxwYXRoIGQ9Ik02ODcuMTQxLDI4Ni4xNDloLTMwLjExMmwtNC4zNzctNy43NXYyNS45MjVoMzcuMTE1djEwLjY5aC00OS4xOTR2LTY5Ljg0Nmg0OC4zMTl2MTAuNjloLTM2LjIzOXYxOS42aDM0LjQ4OVYyODYuMTQ5eiIvPiYjeGE7CTxwYXRoIGQ9Ik03MTAuMTYyLDI4NS44ODN2MjkuMTMyaC0xMi4wOHYtNjkuODQ2aDI3LjIyM2MzLjI2OCwwLDYuMjg4LDAuNTc5LDkuMDYsMS43MzdjMi43NzEsMS4xNTgsNS4xNjUsMi43OTIsNy4xNzgsNC44OTkmIzEwOyYjOTsmIzk7YzIuMDEzLDIuMTA5LDMuNTc0LDQuNjE5LDQuNjgzLDcuNTI4YzEuMTA4LDIuOTExLDEuNjYzLDYuMTE4LDEuNjYzLDkuNjIyYzAsMy4xNDgtMC40NTMsNi4wMTMtMS4zNTcsOC41OTcmIzEwOyYjOTsmIzk7Yy0wLjkwNSwyLjU4NC0yLjE4OCw0Ljg1NS0zLjg1Miw2LjgxNWMtMS42NjMsMS45Ni0zLjY0NywzLjU2My01Ljk1Miw0LjgxMWMtMi4zMDYsMS4yNDctNC44NTgsMi4wOC03LjY1OSwyLjQ5NWwxOS42OTUsMjMuMzQxJiMxMDsmIzk7JiM5O2gtMTQuNzkzTDcxMC4xNjIsMjg1Ljg4M3ogTTcyNC4wOCwyODEuOTYzYzMuNjc3LDAsNi41MDYtMS4yMzIsOC40OTEtMy42OTdjMS45ODMtMi40NjQsMi45NzYtNS41NjgsMi45NzYtOS4zMSYjMTA7JiM5OyYjOTtjMC0zLjc0Mi0wLjk5My02LjgzLTIuOTc2LTkuMjY2Yy0xLjk4NS0yLjQzNS00LjgxNC0zLjY1Mi04LjQ5MS0zLjY1MmgtMTMuOTE4djI1LjkyNUg3MjQuMDh6Ii8+JiN4YTsJPHBhdGggZD0iTTc4MS40MTYsMzA1LjY2bDE5LjQzMi02MC40OTFoMTIuNjkzbC0yMi42NzIsNjkuODQ2aC0xOC45OTRsLTIyLjY3Mi02OS44NDZoMTIuNjkyTDc4MS40MTYsMzA1LjY2eiIvPiYjeGE7CTxwYXRoIGQ9Ik04MzIuNjIyLDI0NS4xNjl2NjkuODQ2aC0xMi4wNzl2LTY5Ljg0Nkg4MzIuNjIyeiIvPiYjeGE7CTxwYXRoIGQ9Ik04NDEuODEyLDI4MC4wOTJjMC01LjI4NSwwLjgzMi0xMC4xNDEsMi40OTUtMTQuNTY2YzEuNjYzLTQuNDI0LDMuOTgyLTguMjI2LDYuOTU5LTExLjQwMyYjMTA7JiM5OyYjOTtjMi45NzYtMy4xNzcsNi41MjEtNS42NDIsMTAuNjM1LTcuMzk1YzQuMTE0LTEuNzUxLDguNTkzLTIuNjI4LDEzLjQzNy0yLjYyOGMzLjk2OCwwLDcuNjE2LDAuNjEsMTAuOTQyLDEuODI2JiMxMDsmIzk7JiM5O2MzLjMyNiwxLjIxOSw2LjI4NywyLjg5Niw4Ljg4NSw1LjAzNGMyLjU5NiwyLjEzOCw0LjgyOCw0LjY0Nyw2LjY5Niw3LjUyN2MxLjg2NywyLjg4MiwzLjMyNiw1Ljk4NCw0LjM3Nyw5LjMxMWgtMTIuNDMxJiMxMDsmIzk7JiM5O2MtMC41MjQtMS42NjItMS4zMjctMy4yODEtMi40MDYtNC44NTVjLTEuMDgxLTEuNTczLTIuNDA3LTIuOTQtMy45ODMtNC4wOTljLTEuNTc1LTEuMTU4LTMuMzctMi4wOTQtNS4zODMtMi44MDYmIzEwOyYjOTsmIzk7Yy0yLjAxNC0wLjcxMy00LjI0Ni0xLjA2OS02LjY5Ny0xLjA2OWMtMy4wOTQsMC01LjkzOCwwLjYwOS04LjUzNCwxLjgyNmMtMi41OTgsMS4yMTgtNC44NDUsMi45NC02Ljc0LDUuMTY3JiMxMDsmIzk7JiM5O2MtMS44OTcsMi4yMjgtMy4zNyw0Ljg4Ni00LjQyMSw3Ljk3NGMtMS4wNSwzLjA4OS0xLjU3NSw2LjQ3NS0xLjU3NSwxMC4xNTZjMCwzLjY4NCwwLjUyNSw3LjA2OCwxLjU3NSwxMC4xNTYmIzEwOyYjOTsmIzk7YzEuMDUxLDMuMDg5LDIuNTIzLDUuNzQ2LDQuNDIxLDcuOTc0YzEuODk2LDIuMjI3LDQuMTQzLDMuOTUsNi43NCw1LjE2N2MyLjU5NiwxLjIxOCw1LjQ0LDEuODI2LDguNTM0LDEuODI2JiMxMDsmIzk7JiM5O2M0LjMxOCwwLDguMTU1LTAuOTM2LDExLjUxMS0yLjgwN2MzLjM1NS0xLjg3LDUuNzkxLTQuNjc3LDcuMzEtOC40MTloMTIuNDNjLTEuMDUsMy42MjQtMi42MTIsNi44MTUtNC42ODMsOS41NzcmIzEwOyYjOTsmIzk7Yy0yLjA3MiwyLjc2Mi00LjQ5NCw1LjA2NC03LjI2Niw2LjkwNWMtMi43NzIsMS44NC01LjgwOCwzLjIzNi05LjEwNCw0LjE4N2MtMy4yOTgsMC45NDktNi42OTYsMS40MjYtMTAuMTk4LDEuNDI2JiMxMDsmIzk7JiM5O2MtNC44NDQsMC05LjMyMi0wLjg3Ny0xMy40MzctMi42MjhjLTQuMTEzLTEuNzUzLTcuNjU5LTQuMjE3LTEwLjYzNS03LjM5NWMtMi45NzctMy4xNzctNS4yOTYtNi45NzktNi45NTktMTEuNDAzJiMxMDsmIzk7JiM5O0M4NDIuNjQ1LDI5MC4yMzQsODQxLjgxMiwyODUuMzc5LDg0MS44MTIsMjgwLjA5MnoiLz4mI3hhOwk8cGF0aCBkPSJNOTYxLjQ3MiwyODYuMTQ5SDkzMS4zNmwtNC4zNzctNy43NXYyNS45MjVoMzcuMTE1djEwLjY5aC00OS4xOTV2LTY5Ljg0Nmg0OC4zMTl2MTAuNjloLTM2LjIzOXYxOS42aDM0LjQ4OFYyODYuMTQ5eiIvPiYjeGE7PC9nPiYjeGE7PGc+JiN4YTsJPHBhdGggZD0iTTE0MzEuMTMyLDk4LjM1aC0xMC42NDd2LTQuMjYzaDI2LjM1NHY0LjI2M2gtMTAuNjQ4djI4LjcyM2gtNS4wNTlWOTguMzV6Ii8+JiN4YTsJPHBhdGggZD0iTTE0NTIuMjA3LDk0LjA4N2g1LjgyNGw0LjI2OCwxMy40NjRsMS40NzksNS4xMzJoMC4yMDJsMS40MzgtNS4xMzJsNC4zMDktMTMuNDY0aDUuODI0djMyLjk4NWgtNC42MTJ2LTE0Ljg3NiYjMTA7JiM5OyYjOTtjMC0zLjM0NiwwLjU0MS05LjU5OCwwLjc4LTEyLjYwNmgtMC4xNTFsLTIuMDMzLDcuMDU5bC00LjE3LDExLjY3OWgtMy4xNzNsLTQuMTA3LTExLjY3OWwtMi4wMjctNy4wNTloLTAuMTE5JiMxMDsmIzk7JiM5O2MwLjMyMSwzLjAwOSwwLjc4LDkuMjYxLDAuNzgsMTIuNjA2djE0Ljg3NmgtNC41MTJWOTQuMDg3eiIvPiYjeGE7PC9nPiYjeGE7PGc+JiN4YTs8L2c+JiN4YTs8Zz4mI3hhOzwvZz4mI3hhOzxnPiYjeGE7PC9nPiYjeGE7PGc+JiN4YTs8L2c+JiN4YTs8Zz4mI3hhOzwvZz4mI3hhOzxnPiYjeGE7PC9nPiYjeGE7PGc+JiN4YTs8L2c+JiN4YTs8Zz4mI3hhOzwvZz4mI3hhOzxnPiYjeGE7PC9nPiYjeGE7PGc+JiN4YTs8L2c+JiN4YTs8Zz4mI3hhOzwvZz4mI3hhOzxnPiYjeGE7PC9nPiYjeGE7PGc+JiN4YTs8L2c+JiN4YTs8Zz4mI3hhOzwvZz4mI3hhOzxnPiYjeGE7PC9nPiYjeGE7PC9zdmc+;rounded=0;sketch=1;curveFitting=1;jiggle=2;" vertex="1" parent="PHoNQdwAoVbEZFHkZa52-11">
          <mxGeometry width="210.64" height="66" as="geometry" />
        </mxCell>
        <mxCell id="PHoNQdwAoVbEZFHkZa52-13" value="Main Java JSP Server" style="text;html=1;strokeColor=none;fillColor=none;align=center;verticalAlign=middle;whiteSpace=wrap;rounded=0;" vertex="1" parent="PHoNQdwAoVbEZFHkZa52-11">
          <mxGeometry y="50" width="210" height="30" as="geometry" />
        </mxCell>
        <mxCell id="PHoNQdwAoVbEZFHkZa52-75" value="Docker Container" style="swimlane;whiteSpace=wrap;html=1;" vertex="1" parent="PHoNQdwAoVbEZFHkZa52-49">
          <mxGeometry x="40" y="1025" width="1050" height="130" as="geometry" />
        </mxCell>
        <mxCell id="PHoNQdwAoVbEZFHkZa52-79" value="Docker Container" style="swimlane;whiteSpace=wrap;html=1;" vertex="1" parent="PHoNQdwAoVbEZFHkZa52-49">
          <mxGeometry x="40" y="26" width="1050" height="130" as="geometry" />
        </mxCell>
        <mxCell id="PHoNQdwAoVbEZFHkZa52-42" value="" style="group" vertex="1" connectable="0" parent="PHoNQdwAoVbEZFHkZa52-79">
          <mxGeometry x="429.52" y="30" width="170.32" height="90" as="geometry" />
        </mxCell>
        <mxCell id="PHoNQdwAoVbEZFHkZa52-37" value="" style="shape=image;verticalLabelPosition=bottom;labelBackgroundColor=default;verticalAlign=top;aspect=fixed;imageAspect=0;image=data:image/svg+xml,PHN2ZyB4bWxuczp4bGluaz0iaHR0cDovL3d3dy53My5vcmcvMTk5OS94bGluayIgeG1sbnM9Imh0dHA6Ly93d3cudzMub3JnLzIwMDAvc3ZnIiBoZWlnaHQ9IjQwMCIgd2lkdGg9IjQwMCIgdmlld0JveD0iMTIwIDEyMCA0MDAgNDAwIiBwcmVzZXJ2ZUFzcGVjdFJhdGlvPSJ4TWlkWU1pZCBtZWV0IiB2ZXJzaW9uPSIxLjEiPjxkZWZzPjxwYXRoIGlkPSJkMlJYVm5tSzlrIiBkPSJNNTIwIDEyMEM1MjAgMTIwIDUyMCAxMjAgNTIwIDEyMEM1MjAgMzYwIDUyMCA0OTMuMzMgNTIwIDUyMEM1MjAgNTIwIDUyMCA1MjAgNTIwIDUyMEMyODAgNTIwIDE0Ni42NyA1MjAgMTIwIDUyMEMxMjAgNTIwIDEyMCA1MjAgMTIwIDUyMEMxMjAgMjgwIDEyMCAxNDYuNjcgMTIwIDEyMEMxMjAgMTIwIDEyMCAxMjAgMTIwIDEyMEMzNjAgMTIwIDQ5My4zMyAxMjAgNTIwIDEyMFoiLz48cGF0aCBpZD0iZDJEbmRubktpUCIgZD0iTTQ2OC4yOCAyMTEuOTJDNDY4LjI5IDIxMS45IDQ2OC4zIDIxMS44OSA0NjguMyAyMTEuODhDNDM3LjM0IDE3NC44MyAzOTAuOCAxNTEuMjUgMzM4Ljc1IDE1MS4yNUMyNzIuNSAxNTEuMjUgMjE1LjIgMTg5LjQ1IDE4Ny41OSAyNDVDMjA5LjU4IDI0NSAzODUuNTQgMjQ1IDQwNy41NCAyNDVDNDIzLjMyIDI0NSA0MzguNjggMjM5LjU2IDQ1MC43NSAyMjkuNEM0NTcuMDMgMjI0LjEyIDQ2Mi45IDIxOC4zNyA0NjguMjggMjExLjkyIi8+PHBhdGggaWQ9ImEzTU9RNmRrSVMiIGQ9Ik0xNzAgMzIwQzE3MCAzMzUuMTQgMTcyLjAzIDM0OS43OSAxNzUuNzYgMzYzLjc1QzE5Ni40NCAzNjMuNzUgMzYxLjgzIDM2My43NSAzODIuNSAzNjMuNzVDNDA2LjY2IDM2My43NSA0MjYuMjUgMzQ0LjE2IDQyNi4yNSAzMjBDNDI2LjI1IDI5NS44NCA0MDYuNjYgMjc2LjI1IDM4Mi41IDI3Ni4yNUMzNjEuODMgMjc2LjI1IDE5Ni40NCAyNzYuMjUgMTc1Ljc2IDI3Ni4yNUMxNzIuMDMgMjkwLjIxIDE3MCAzMDQuODYgMTcwIDMyMCIvPjxwYXRoIGlkPSJiMzVkYXB1U1V2IiBkPSJNNDY4LjI4IDQyOC4wOEM0NjguMjkgNDI4LjEgNDY4LjMgNDI4LjExIDQ2OC4zIDQyOC4xMkM0MzcuMzQgNDY1LjE3IDM5MC44IDQ4OC43NSAzMzguNzUgNDg4Ljc1QzI3Mi41IDQ4OC43NSAyMTUuMiA0NTAuNTUgMTg3LjU5IDM5NUMyMDkuNTggMzk1IDM4NS41NCAzOTUgNDA3LjU0IDM5NUM0MjMuMzIgMzk1IDQzOC42OCA0MDAuNDQgNDUwLjc1IDQxMC42QzQ1Ny4wMyA0MTUuODggNDYyLjkgNDIxLjYzIDQ2OC4yOCA0MjguMDgiLz48L2RlZnM+PGc+PGc+PGc+PHVzZSBmaWxsLW9wYWNpdHk9IjAiIGZpbGw9IiMwMDAwMDAiIG9wYWNpdHk9IjEiIHhsaW5rOmhyZWY9IiNkMlJYVm5tSzlrIi8+PGc+PHVzZSBzdHJva2Utb3BhY2l0eT0iMCIgc3Ryb2tlLXdpZHRoPSIxIiBzdHJva2U9IiMwMDAwMDAiIGZpbGwtb3BhY2l0eT0iMCIgb3BhY2l0eT0iMSIgeGxpbms6aHJlZj0iI2QyUlhWbm1LOWsiLz48L2c+PC9nPjxnPjx1c2UgZmlsbC1vcGFjaXR5PSIxIiBmaWxsPSIjZmVjNTE0IiBvcGFjaXR5PSIxIiB4bGluazpocmVmPSIjZDJEbmRubktpUCIvPjxnPjx1c2Ugc3Ryb2tlLW9wYWNpdHk9IjAiIHN0cm9rZS13aWR0aD0iMSIgc3Ryb2tlPSIjMDAwMDAwIiBmaWxsLW9wYWNpdHk9IjAiIG9wYWNpdHk9IjEiIHhsaW5rOmhyZWY9IiNkMkRuZG5uS2lQIi8+PC9nPjwvZz48Zz48dXNlIGZpbGwtb3BhY2l0eT0iMSIgZmlsbD0iIzM0Mzc0MSIgb3BhY2l0eT0iMSIgeGxpbms6aHJlZj0iI2EzTU9RNmRrSVMiLz48Zz48dXNlIHN0cm9rZS1vcGFjaXR5PSIwIiBzdHJva2Utd2lkdGg9IjEiIHN0cm9rZT0iIzAwMDAwMCIgZmlsbC1vcGFjaXR5PSIwIiBvcGFjaXR5PSIxIiB4bGluazpocmVmPSIjYTNNT1E2ZGtJUyIvPjwvZz48L2c+PGc+PHVzZSBmaWxsLW9wYWNpdHk9IjEiIGZpbGw9IiMwMGJmYjMiIG9wYWNpdHk9IjEiIHhsaW5rOmhyZWY9IiNiMzVkYXB1U1V2Ii8+PGc+PHVzZSBzdHJva2Utb3BhY2l0eT0iMCIgc3Ryb2tlLXdpZHRoPSIxIiBzdHJva2U9IiMwMDAwMDAiIGZpbGwtb3BhY2l0eT0iMCIgb3BhY2l0eT0iMSIgeGxpbms6aHJlZj0iI2IzNWRhcHVTVXYiLz48L2c+PC9nPjwvZz48L2c+PC9zdmc+;" vertex="1" parent="PHoNQdwAoVbEZFHkZa52-42">
          <mxGeometry x="52.45856" width="65.22582357012143" height="65.22582357012143" as="geometry" />
        </mxCell>
        <mxCell id="PHoNQdwAoVbEZFHkZa52-38" value="Elasticsearch&amp;nbsp;Server" style="text;html=1;strokeColor=none;fillColor=none;align=center;verticalAlign=middle;whiteSpace=wrap;rounded=0;" vertex="1" parent="PHoNQdwAoVbEZFHkZa52-42">
          <mxGeometry y="65.59652928416486" width="170.32" height="24.403470715835144" as="geometry" />
        </mxCell>
        <mxCell id="PHoNQdwAoVbEZFHkZa52-83" value="Docker Container" style="swimlane;whiteSpace=wrap;html=1;" vertex="1" parent="PHoNQdwAoVbEZFHkZa52-49">
          <mxGeometry x="1530" width="320" height="1320" as="geometry" />
        </mxCell>
        <mxCell id="PHoNQdwAoVbEZFHkZa52-89" value="" style="group" vertex="1" connectable="0" parent="PHoNQdwAoVbEZFHkZa52-83">
          <mxGeometry x="65" y="480" width="190" height="220" as="geometry" />
        </mxCell>
        <mxCell id="PHoNQdwAoVbEZFHkZa52-87" value="" style="shape=image;verticalLabelPosition=bottom;labelBackgroundColor=default;verticalAlign=top;aspect=fixed;imageAspect=0;image=data:image/svg+xml,PHN2ZyB4bWxucz0iaHR0cDovL3d3dy53My5vcmcvMjAwMC9zdmciIHZpZXdCb3g9IjAgMCAzMiAzMiIgaGVpZ2h0PSI4MDBweCIgd2lkdGg9IjgwMHB4Ij48dGl0bGU+ZmlsZV90eXBlX25naW54PC90aXRsZT48cGF0aCBzdHlsZT0iZmlsbDojMDE5NjM5IiBkPSJNMTUuOTQ4LDJoLjA2NWExMC40MTgsMTAuNDE4LDAsMCwxLC45NzIuNTI4UTIyLjQxNCw1LjY1LDI3Ljg0Myw4Ljc3NGEuNzkyLjc5MiwwLDAsMSwuNDE0Ljc4OGMtLjAwOCw0LjM4OSwwLDguNzc3LS4wMDUsMTMuMTY0YS44MTMuODEzLDAsMCwxLS4zNTYuNTA3cS01Ljc3MywzLjMyNC0xMS41NDcsNi42NDRhLjU4Ny41ODcsMCwwLDEtLjY1Ny4wMzdROS45MTIsMjYuNiw0LjE0MywyMy4yNzRhLjcuNywwLDAsMS0uNC0uNjY2cTAtNi41ODIsMC0xMy4xNjNhLjY5My42OTMsMCwwLDEsLjM4Ny0uNjdROS41NTIsNS42NTcsMTQuOTc0LDIuNTM1Yy4zMjItLjE4NC42MzgtLjM3OS45NzQtLjUzNSIvPjxwYXRoIHN0eWxlPSJmaWxsOiNmZmYiIGQ9Ik04Ljc2NywxMC41MzhxMCw1LjQyOSwwLDEwLjg1OWExLjUwOSwxLjUwOSwwLDAsMCwuNDI3LDEuMDg3LDEuNjQ3LDEuNjQ3LDAsMCwwLDIuMDYuMjA2LDEuNTY0LDEuNTY0LDAsMCwwLC42ODUtMS4yOTNjMC0yLjYyLS4wMDUtNS4yNCwwLTcuODZxMy41ODMsNC4yOSw3LjE4MSw4LjU2OGEyLjgzMywyLjgzMywwLDAsMCwyLjYuNzgyLDEuNTYxLDEuNTYxLDAsMCwwLDEuMjUxLTEuMzcxcS4wMDgtNS41NDEsMC0xMS4wODFhMS41ODIsMS41ODIsMCwwLDAtMy4xNTIsMGMwLDIuNjYyLS4wMTYsNS4zMjEsMCw3Ljk4Mi0yLjM0Ni0yLjc2Ni00LjY2My01LjU1Ni03LTguMzMyQTIuODE3LDIuODE3LDAsMCwwLDEwLjE3LDkuMDMzLDEuNTc5LDEuNTc5LDAsMCwwLDguNzY3LDEwLjUzOFoiLz48L3N2Zz4=;" vertex="1" parent="PHoNQdwAoVbEZFHkZa52-89">
          <mxGeometry width="190" height="190" as="geometry" />
        </mxCell>
        <mxCell id="PHoNQdwAoVbEZFHkZa52-88" value="NGINX Server" style="text;html=1;strokeColor=none;fillColor=none;align=center;verticalAlign=middle;whiteSpace=wrap;rounded=0;" vertex="1" parent="PHoNQdwAoVbEZFHkZa52-89">
          <mxGeometry x="5" y="190" width="180" height="30" as="geometry" />
        </mxCell>
        <mxCell id="PHoNQdwAoVbEZFHkZa52-90" value="" style="endArrow=none;html=1;rounded=0;entryX=1;entryY=0.5;entryDx=0;entryDy=0;exitX=0;exitY=0.5;exitDx=0;exitDy=0;" edge="1" parent="PHoNQdwAoVbEZFHkZa52-49" source="PHoNQdwAoVbEZFHkZa52-83" target="PHoNQdwAoVbEZFHkZa52-79">
          <mxGeometry width="50" height="50" relative="1" as="geometry">
            <mxPoint x="1100" y="560" as="sourcePoint" />
            <mxPoint x="1150" y="510" as="targetPoint" />
          </mxGeometry>
        </mxCell>
        <mxCell id="PHoNQdwAoVbEZFHkZa52-92" value="" style="endArrow=none;html=1;rounded=0;entryX=1;entryY=0.5;entryDx=0;entryDy=0;exitX=0;exitY=0.5;exitDx=0;exitDy=0;" edge="1" parent="PHoNQdwAoVbEZFHkZa52-49" source="PHoNQdwAoVbEZFHkZa52-83" target="PHoNQdwAoVbEZFHkZa52-51">
          <mxGeometry width="50" height="50" relative="1" as="geometry">
            <mxPoint x="1200" y="490" as="sourcePoint" />
            <mxPoint x="1250" y="440" as="targetPoint" />
          </mxGeometry>
        </mxCell>
        <mxCell id="PHoNQdwAoVbEZFHkZa52-93" value="" style="endArrow=none;html=1;rounded=0;entryX=1;entryY=0.5;entryDx=0;entryDy=0;exitX=0;exitY=0.5;exitDx=0;exitDy=0;" edge="1" parent="PHoNQdwAoVbEZFHkZa52-49" source="PHoNQdwAoVbEZFHkZa52-83" target="PHoNQdwAoVbEZFHkZa52-52">
          <mxGeometry width="50" height="50" relative="1" as="geometry">
            <mxPoint x="1200" y="680" as="sourcePoint" />
            <mxPoint x="1250" y="630" as="targetPoint" />
          </mxGeometry>
        </mxCell>
        <mxCell id="PHoNQdwAoVbEZFHkZa52-94" value="" style="endArrow=none;html=1;rounded=0;entryX=1;entryY=0.5;entryDx=0;entryDy=0;exitX=0;exitY=0.5;exitDx=0;exitDy=0;" edge="1" parent="PHoNQdwAoVbEZFHkZa52-49" source="PHoNQdwAoVbEZFHkZa52-83" target="PHoNQdwAoVbEZFHkZa52-67">
          <mxGeometry width="50" height="50" relative="1" as="geometry">
            <mxPoint x="1530" y="600" as="sourcePoint" />
            <mxPoint x="1250" y="630" as="targetPoint" />
          </mxGeometry>
        </mxCell>
        <mxCell id="PHoNQdwAoVbEZFHkZa52-95" value="" style="endArrow=none;html=1;rounded=0;entryX=1;entryY=0.5;entryDx=0;entryDy=0;exitX=0;exitY=0.5;exitDx=0;exitDy=0;" edge="1" parent="PHoNQdwAoVbEZFHkZa52-49" source="PHoNQdwAoVbEZFHkZa52-83" target="PHoNQdwAoVbEZFHkZa52-71">
          <mxGeometry width="50" height="50" relative="1" as="geometry">
            <mxPoint x="1200" y="680" as="sourcePoint" />
            <mxPoint x="1250" y="630" as="targetPoint" />
          </mxGeometry>
        </mxCell>
        <mxCell id="PHoNQdwAoVbEZFHkZa52-96" value="" style="endArrow=none;html=1;rounded=0;entryX=1;entryY=0.5;entryDx=0;entryDy=0;exitX=0;exitY=0.5;exitDx=0;exitDy=0;" edge="1" parent="PHoNQdwAoVbEZFHkZa52-49" source="PHoNQdwAoVbEZFHkZa52-83" target="PHoNQdwAoVbEZFHkZa52-75">
          <mxGeometry width="50" height="50" relative="1" as="geometry">
            <mxPoint x="1200" y="1060" as="sourcePoint" />
            <mxPoint x="1250" y="1010" as="targetPoint" />
          </mxGeometry>
        </mxCell>
        <mxCell id="PHoNQdwAoVbEZFHkZa52-108" value="" style="endArrow=none;html=1;rounded=0;entryX=1;entryY=0.5;entryDx=0;entryDy=0;exitX=1;exitY=0.5;exitDx=0;exitDy=0;" edge="1" parent="PHoNQdwAoVbEZFHkZa52-49" source="PHoNQdwAoVbEZFHkZa52-49" target="PHoNQdwAoVbEZFHkZa52-83">
          <mxGeometry width="50" height="50" relative="1" as="geometry">
            <mxPoint x="1950" y="500" as="sourcePoint" />
            <mxPoint x="1430" y="820" as="targetPoint" />
          </mxGeometry>
        </mxCell>
        <mxCell id="PHoNQdwAoVbEZFHkZa52-109" value="Docker Container" style="swimlane;whiteSpace=wrap;html=1;" vertex="1" parent="PHoNQdwAoVbEZFHkZa52-49">
          <mxGeometry x="40" y="1165" width="1050" height="130" as="geometry" />
        </mxCell>
        <mxCell id="PHoNQdwAoVbEZFHkZa52-261" value="" style="group" vertex="1" connectable="0" parent="PHoNQdwAoVbEZFHkZa52-109">
          <mxGeometry x="389.99999999999994" y="35" width="210.64" height="80" as="geometry" />
        </mxCell>
        <mxCell id="PHoNQdwAoVbEZFHkZa52-262" value="" style="shape=image;verticalLabelPosition=bottom;labelBackgroundColor=none;verticalAlign=top;aspect=fixed;imageAspect=0;image=data:image/svg+xml,PHN2ZyB4bWxuczp4bGluaz0iaHR0cDovL3d3dy53My5vcmcvMTk5OS94bGluayIgeG1sbnM9Imh0dHA6Ly93d3cudzMub3JnLzIwMDAvc3ZnIiB4bWw6c3BhY2U9InByZXNlcnZlIiBzdHlsZT0iZW5hYmxlLWJhY2tncm91bmQ6bmV3IDAgMCAxNTAwIDQ3MDsiIHZpZXdCb3g9IjAgMCAxNTAwIDQ3MCIgeT0iMHB4IiB4PSIwcHgiIGlkPSLroIjsnbTslrRfMSIgdmVyc2lvbj0iMS4xIj4mI3hhOzxnPiYjeGE7CTxwYXRoIGQ9Ik0xOTgsMTE5djc2SDgzdi03NkgxOTggTTI0OCw2OUg2M2MtMTYuNTY5LDAtMzAsMTMuNDMxLTMwLDMwdjExNmMwLDE2LjU2OSwxMy40MzEsMzAsMzAsMzBoMTg1VjY5TDI0OCw2OXoiLz4mI3hhOzwvZz4mI3hhOzxnPiYjeGE7CTxyZWN0IGhlaWdodD0iMzAzIiB3aWR0aD0iNTIuNSIgeT0iNjkiIHg9IjMyLjUiLz4mI3hhOzwvZz4mI3hhOzxnPiYjeGE7CSYjeGE7CQk8cmVjdCBoZWlnaHQ9IjE3Ni45MzkiIHdpZHRoPSI1Mi41IiB0cmFuc2Zvcm09Im1hdHJpeCgwLjc5MTQgLTAuNjExMyAwLjYxMTMgMC43OTE0IC0xMzYuNjIxNiAxNzEuMjY0NykiIHk9IjE5Ny4zMzciIHg9IjE1Ni4zNzIiLz4mI3hhOzwvZz4mI3hhOzxnPiYjeGE7CTxyZWN0IGhlaWdodD0iNTIuNSIgd2lkdGg9Ijc5Ljg0OCIgeT0iMzE5LjU1NyIgeD0iMjE2LjE1MiIvPiYjeGE7PC9nPiYjeGE7PGc+JiN4YTsJPHJlY3QgaGVpZ2h0PSIzMDMiIHdpZHRoPSI1Mi41IiB5PSI2OSIgeD0iMjk1LjUiLz4mI3hhOzwvZz4mI3hhOzxnPiYjeGE7CTxwYXRoIGQ9Ik01MzguMDc4LDM0My41NDFsLTQyLjM1MywyOC44NzJjLTAuMjgzLDAuMTkzLTAuNjcsMC4xMi0wLjg2My0wLjE2M0wzMDYuNDEzLDk1LjgwOWMtMC4xOTMtMC4yODMtMC4xMi0wLjY3LDAuMTYzLTAuODYzJiMxMDsmIzk7JiM5O2wzNS45MjYtMjQuNDkxYzMuODMzLTIuNjEzLDkuMDU4LTEuNjI0LDExLjY3MSwyLjIwOWwxODQuMDY3LDI3MC4wMTRDNTM4LjQzNCwzNDIuOTYyLDUzOC4zNjEsMzQzLjM0OCw1MzguMDc4LDM0My41NDF6Ii8+JiN4YTs8L2c+JiN4YTs8Zz4mI3hhOwk8cmVjdCBoZWlnaHQ9IjMwMC4xMTQiIHdpZHRoPSI1MiIgeT0iNzIuNDQzIiB4PSI0OTQiLz4mI3hhOzwvZz4mI3hhOzxnPiYjeGE7CTxwYXRoIGQ9Ik02MDMuOTM4LDE3OS43MnYzOC4zMDNoLTE1Ljg4M3YtOTEuODMzaDM1Ljc5M2M0LjI5NiwwLDguMjY3LDAuNzYyLDExLjkxMiwyLjI4NGMzLjY0NCwxLjUyMyw2Ljc5MSwzLjY3MSw5LjQzOCw2LjQ0MiYjMTA7JiM5OyYjOTtjMi42NDcsMi43NzMsNC42OTksNi4wNzMsNi4xNTcsOS44OThjMS40NTcsMy44MjcsMi4xODcsOC4wNDQsMi4xODcsMTIuNjVjMCw0LjE0LTAuNTk1LDcuOTA3LTEuNzg0LDExLjMwNCYjMTA7JiM5OyYjOTtjLTEuMTksMy4zOTctMi44NzcsNi4zODQtNS4wNjQsOC45NjFjLTIuMTg3LDIuNTc3LTQuNzk2LDQuNjg1LTcuODI2LDYuMzI1Yy0zLjAzMiwxLjY0LTYuMzg3LDIuNzM0LTEwLjA3LDMuMjhsMjUuODk2LDMwLjY4OSYjMTA7JiM5OyYjOTtoLTE5LjQ1TDYwMy45MzgsMTc5LjcyeiBNNjIyLjIzNywxNzQuNTY2YzQuODM0LDAsOC41NTQtMS42MiwxMS4xNjQtNC44NjFjMi42MDgtMy4yNCwzLjkxMy03LjMyMSwzLjkxMy0xMi4yNDEmIzEwOyYjOTsmIzk7YzAtNC45MTktMS4zMDUtOC45NzktMy45MTMtMTIuMTgyYy0yLjYwOS0zLjIwMS02LjMzLTQuODAzLTExLjE2NC00LjgwM2gtMTguMjk5djM0LjA4Nkg2MjIuMjM3eiIvPiYjeGE7CTxwYXRoIGQ9Ik03MzguNTkzLDEyNi4xODl2OTEuODMzSDcyMi43MXYtMzcuOTUyaC0zNi4wMjNsLTUuNzU0LTEwLjE5djQ4LjE0Mkg2NjUuMDV2LTkxLjgzM2gxNS44ODN2MzkuODI2aDQxLjc3OHYtMzkuODI2SDczOC41OTMmIzEwOyYjOTsmIzk7eiIvPiYjeGE7CTxwYXRoIGQ9Ik03ODMuNTkzLDE3MS44NzJoLTExLjM5NWwtMjQuOTc0LTQ1LjY4M2gxOC4xODRsMjEuNDA3LDM5LjU5MmwyMS40MDYtMzkuNTkyaDE4LjE4NWwtMzEuNjUsNTguMjE2djMzLjYxOGgtMTUuODgydi0zNy4zNjYmIzEwOyYjOTsmIzk7TDc4My41OTMsMTcxLjg3MnoiLz4mI3hhOwk8cGF0aCBkPSJNODc5LjkyNSwyMDAuMTAyaC0zMS42NWwtNS4xNzktOS4yNTRsLTguNjMyLDI3LjE3NWgtMTYuNjg4bDI5LjgwOS05MS44MzNoMjQuOTc1bDI5LjgwOSw5MS44MzNoLTE2LjY4OEw4NzkuOTI1LDIwMC4xMDJ6JiMxMDsmIzk7JiM5OyBNODQ0LjcwNywxODUuNTc3aDMwLjYxNGwtMTUuMTkyLTQ4LjI1OUw4NDQuNzA3LDE4NS41Nzd6Ii8+JiN4YTsJPHBhdGggZD0iTTkxMi4xNDksMjI0LjU4M3YtMTcuOTIxaDE3LjQ5NHYxNy45MjFIOTEyLjE0OXoiLz4mI3hhOwk8cGF0aCBkPSJNOTQ2LjkwNywxMjYuMTg5aDI3LjczNmwzMC4xNTQsODEuMTc0di04MS4xNzRoMTUuNjUydjkxLjgzM2gtMjcuNzM3bC0zMC4xNTMtODEuMTc0djgxLjE3NGgtMTUuNjUyVjEyNi4xODl6Ii8+JiN4YTsJPHBhdGggZD0iTTEwNDYuNTc0LDE4MC4zMDZjLTAuMDc3LDAuNjI2LTAuMTE1LDEuMjMtMC4xMTUsMS44MTVjMCwwLjU4NiwwLDEuMTkyLDAsMS44MTZjMCwzLjkwNiwwLjUzNiw3LjIwNCwxLjYxMSw5Ljg5OCYjMTA7JiM5OyYjOTtjMS4wNzMsMi42OTQsMi41MzIsNC45MDEsNC4zNzMsNi42MThjMS44NDIsMS43MTgsMy45MzIsMi45NjgsNi4yNzIsMy43NDhjMi4zNCwwLjc4Miw0Ljc3NiwxLjE3MSw3LjMwOSwxLjE3MSYjMTA7JiM5OyYjOTtjMy42MDUsMCw2LjYxOC0wLjY2Myw5LjAzNC0xLjk5MWMyLjQxNy0xLjMyNyw0LjM5Mi0zLjI0LDUuOTI4LTUuNzRoMTUuNjUyYy0xLjE1MSwzLjUxNC0yLjc2Myw2LjYxOC00LjgzNCw5LjMxMiYjMTA7JiM5OyYjOTtjLTIuMDcxLDIuNjk0LTQuNDUxLDQuOTU4LTcuMTM2LDYuNzkzYy0yLjY4NywxLjgzNC01LjYyMSwzLjIwMS04LjgwNSw0LjFjLTMuMTg1LDAuODk3LTYuNDY1LDEuMzQ3LTkuODQsMS4zNDcmIzEwOyYjOTsmIzk7Yy00LjM3MywwLTguNTk0LTAuNzQzLTEyLjY2LTIuMjI2Yy00LjA2Ny0xLjQ4NC03LjY5My0zLjY4OS0xMC44NzYtNi42MThjLTMuMTg1LTIuOTI4LTUuNzM2LTYuNTk4LTcuNjUzLTExLjAxJiMxMDsmIzk7JiM5O2MtMS45MTktNC40MTEtMi44NzctOS41NDctMi44NzctMTUuNDAzYzAtNS43NzgsMC45NzgtMTAuODc0LDIuOTM1LTE1LjI4NmMxLjk1Ni00LjQxMSw0LjUwNy04LjEyMSw3LjY1My0xMS4xMjgmIzEwOyYjOTsmIzk7YzMuMTQ2LTMuMDA1LDYuNzEzLTUuMjcxLDEwLjcwMy02Ljc5M2MzLjk4OS0xLjUyMyw4LjA1Ny0yLjI4NCwxMi4yLTIuMjg0YzQuMjk2LDAsOC40MDEsMC44NCwxMi4zMTQsMi41MTgmIzEwOyYjOTsmIzk7YzMuOTEzLDEuNjgsNy4zNDYsNC4xMiwxMC4zMDEsNy4zMjFjMi45NTIsMy4yMDMsNS4zMTIsNy4wODYsNy4wNzgsMTEuNjU1YzEuNzY0LDQuNTY4LDIuNjQ2LDkuNzQyLDIuNjQ2LDE1LjUydjQuNDUxaC00NC41NCYjMTA7JiM5OyYjOTtMMTA0Ni41NzQsMTgwLjMwNnogTTEwNjUuNDQ5LDE2Mi4wMzNjLTEuODQyLDAtMy43MjMsMC4yNzQtNS42NCwwLjgyYy0xLjkxOSwwLjU0Ny0zLjcwMywxLjQwNi01LjM1MiwyLjU3NyYjMTA7JiM5OyYjOTtjLTEuNjUxLDEuMTcxLTMuMTI3LDIuNzE0LTQuNDMyLDQuNjI3Yy0xLjMwNSwxLjkxNC0yLjI2NCw0LjIzNy0yLjg3Nyw2Ljk2OWgzNS4yMThjLTAuNjE1LTQuNTI4LTIuNDc1LTguMTU5LTUuNTgyLTEwLjg5NCYjMTA7JiM5OyYjOTtDMTA3My42NzgsMTYzLjQsMTA2OS44OTcsMTYyLjAzMywxMDY1LjQ0OSwxNjIuMDMzeiIvPiYjeGE7CTxwYXRoIGQ9Ik0xMTM4LjA3LDE2My42NzNoLTExLjE2NHY1NC4zNWgtMTUuMTkydi01NC4zNWgtMTIuNjU5di0xNC4wNTZoMTIuNjU5di0yMy40MjdoMTUuMTkydjIzLjQyN2gxNS43NjhMMTEzOC4wNywxNjMuNjczeiIvPiYjeGE7CTxwYXRoIGQ9Ik0xMTQ1LjU1MSwxNDkuNjE3aDE0LjczMWwxMS4xNjMsNTYuNDU4bDkuNjY4LTU2LjQ1OGgyMy4wMTlsOS42NjcsNTYuNDU4bDExLjE2NC01Ni40NThoMTQuNzMxbC0xNC41MDEsNjguNDA2aC0yMy4wMTkmIzEwOyYjOTsmIzk7bC05LjU1My01Ni45MjdsLTkuNTUyLDU2LjkyN2gtMjMuMDE5TDExNDUuNTUxLDE0OS42MTd6Ii8+JiN4YTsJPHBhdGggZD0iTTEzMTEuMTY2LDE4NC4wNTRjMCw1Ljg1Ni0wLjk3OSwxMC45NzItMi45MzYsMTUuMzQ1Yy0xLjk1Niw0LjM3NC00LjU0Niw4LjAyMy03Ljc2OSwxMC45NTImIzEwOyYjOTsmIzk7Yy0zLjIyMywyLjkyOS02Ljg2Nyw1LjEzNC0xMC45MzQsNi42MThjLTQuMDY3LDEuNDgyLTguMTcxLDIuMjI2LTEyLjMxNCwyLjIyNnMtOC4yNDktMC43NDMtMTIuMzE0LTIuMjI2JiMxMDsmIzk7JiM5O2MtNC4wNjgtMS40ODQtNy43MTEtMy42ODktMTAuOTM0LTYuNjE4Yy0zLjIyMy0yLjkyOC01LjgzMi02LjU3OC03LjgyNi0xMC45NTJjLTEuOTk2LTQuMzczLTIuOTkyLTkuNDg4LTIuOTkyLTE1LjM0NSYjMTA7JiM5OyYjOTtjMC01Ljc3OCwwLjk5Ni0xMC44OTQsMi45OTItMTUuMzQ1YzEuOTk0LTQuNDUxLDQuNjA0LTguMTc5LDcuODI2LTExLjE4N2MzLjIyMy0zLjAwNSw2Ljg2NS01LjI3MSwxMC45MzQtNi43OTMmIzEwOyYjOTsmIzk7YzQuMDY1LTEuNTIzLDguMTcxLTIuMjg0LDEyLjMxNC0yLjI4NHM4LjI0NywwLjc2MSwxMi4zMTQsMi4yODRjNC4wNjYsMS41MjIsNy43MTEsMy43ODksMTAuOTM0LDYuNzkzJiMxMDsmIzk7JiM5O2MzLjIyMywzLjAwNyw1LjgxMiw2LjczNSw3Ljc2OSwxMS4xODdDMTMxMC4xODgsMTczLjE2MSwxMzExLjE2NiwxNzguMjc2LDEzMTEuMTY2LDE4NC4wNTR6IE0xMjk1LjM5OCwxODQuMDU0JiMxMDsmIzk7JiM5O2MwLTMuMjgtMC40NDItNi4yNDctMS4zMjQtOC45MDJjLTAuODgzLTIuNjU0LTIuMTI5LTQuOTItMy43NC02Ljc5NHMtMy41My0zLjMxOC01Ljc1NC00LjMzNCYjMTA7JiM5OyYjOTtjLTIuMjI3LTEuMDE0LTQuNjgyLTEuNTIyLTcuMzY2LTEuNTIyYy0yLjY4NywwLTUuMTYxLDAuNTA5LTcuNDI0LDEuNTIyYy0yLjI2NCwxLjAxNi00LjIsMi40Ni01LjgxMiw0LjMzNCYjMTA7JiM5OyYjOTtzLTIuODU5LDQuMTQtMy43NCw2Ljc5NGMtMC44ODMsMi42NTYtMS4zMjQsNS42MjMtMS4zMjQsOC45MDJjMCw2LjYzOCwxLjY2OSwxMS44MTIsNS4wMDcsMTUuNTImIzEwOyYjOTsmIzk7YzMuMzM4LDMuNzEsNy43NjksNS41NjQsMTMuMjkzLDUuNTY0czkuOTM2LTEuODU0LDEzLjIzNS01LjU2NEMxMjkzLjc0NywxOTUuODY2LDEyOTUuMzk4LDE5MC42OTIsMTI5NS4zOTgsMTg0LjA1NHoiLz4mI3hhOwk8cGF0aCBkPSJNMTMyMS41MjEsMjE4LjAyM3YtNjguNDA2aDE0Ljk2MnYxMC4zMDhjMC42MTMtMS4zMjcsMS41MTUtMi42NTQsMi43MDUtMy45ODJjMS4xODgtMS4zMjcsMi42ODUtMi41MzcsNC40ODgtMy42MzEmIzEwOyYjOTsmIzk7YzEuODAyLTEuMDkzLDMuOTUtMS45NzEsNi40NDUtMi42MzVjMi40OTItMC42NjMsNS4zMTItMC45OTYsOC40NTktMC45OTZ2MTYuMzk5Yy00LjQ1MSwwLTguMDk2LDAuNDY5LTEwLjkzNCwxLjQwNiYjMTA7JiM5OyYjOTtjLTIuODQsMC45MzctNS4wNjQsMi4yMDctNi42NzYsMy44MDdjLTEuNjExLDEuNjAyLTIuNzI1LDMuNTE0LTMuMzM3LDUuNzRjLTAuNjE1LDIuMjI2LTAuOTIxLDQuNjI3LTAuOTIxLDcuMjA0djM0Ljc4OUgxMzIxLjUyMXoiLz4mI3hhOwk8cGF0aCBkPSJNMTM5Ni4wOTksMTgyLjg4M2gxMS44NTRsMTkuNDUsMzUuMTRoLTE3LjAzM2wtMTcuMzc5LTMxLjM5MmwtMTAuNTg4LDEyLjUzNHYxOC44NThoLTE1LjE5MnYtOTUuNTgyaDE1LjE5MnY1NS4wNTMmIzEwOyYjOTsmIzk7bDIzLjQ3OS0yNy44NzhoMTguNDE0TDEzOTYuMDk5LDE4Mi44ODN6Ii8+JiN4YTs8L2c+JiN4YTs8Zz4mI3hhOwk8cGF0aCBkPSJNNjAwLjA0NCwyODMuNTY2Yy01LjA3Ny0xLjE4OC04Ljk1OC0zLjQ0NC0xMS42NDItNi43NzFjLTIuNjg1LTMuMzI2LTQuMDI2LTcuMzk1LTQuMDI2LTEyLjIwNiYjMTA7JiM5OyYjOTtjMC0yLjc5MSwwLjQ4MS01LjM3NCwxLjQ0NC03Ljc1YzAuOTYyLTIuMzc1LDIuMzYzLTQuNDI0LDQuMjAyLTYuMTQ3YzEuODM4LTEuNzIyLDQuMTE0LTMuMDczLDYuODI4LTQuMDU0JiMxMDsmIzk7JiM5O2MyLjcxMy0wLjk3OSw1Ljg1LTEuNDcsOS40MS0xLjQ3aDI0LjY4NWwtMy41ODksMTAuODY5aC0yMC45MmMtMy4yMSwwLTUuNjc2LDAuNzEyLTcuMzk3LDIuMTM4JiMxMDsmIzk7JiM5O2MtMS43MjIsMS40MjYtMi41ODIsMy4zMjctMi41ODIsNS43MDJjMCwyLjEzOCwwLjY4NSwzLjk3OSwyLjA1Nyw1LjUyM2MxLjM3LDEuNTQ1LDMuODA4LDIuNzMyLDcuMzA5LDMuNTYzbDEwLjY3OSwyLjU4MyYjMTA7JiM5OyYjOTtjNS4xOTMsMS4yNDgsOS4wNDUsMy41MDYsMTEuNTU1LDYuNzcxYzIuNTA4LDMuMjY3LDMuNzY0LDcuNDI1LDMuNzY0LDEyLjQ3MmMwLDYuMjk3LTEuOTU2LDExLjI0MS01Ljg2NSwxNC44MzQmIzEwOyYjOTsmIzk7Yy0zLjkxLDMuNTkzLTkuNjI5LDUuMzktMTcuMTU3LDUuMzloLTI2LjE3M2wzLjU4OS0xMC44NjloMjEuODg0YzMuOTA5LDAsNi44MjgtMC44MTUsOC43NTMtMi40NDkmIzEwOyYjOTsmIzk7YzEuOTI2LTEuNjMzLDIuODg5LTMuNzI3LDIuODg5LTYuMjgxYzAtMi4wNzgtMC42NDMtMy45MzQtMS45MjYtNS41NjhjLTEuMjg0LTEuNjMzLTMuNjQ4LTIuODY0LTcuMDktMy42OTdMNjAwLjA0NCwyODMuNTY2eiIvPiYjeGE7CTxwYXRoIGQ9Ik02ODcuMTQxLDI4Ni4xNDloLTMwLjExMmwtNC4zNzctNy43NXYyNS45MjVoMzcuMTE1djEwLjY5aC00OS4xOTR2LTY5Ljg0Nmg0OC4zMTl2MTAuNjloLTM2LjIzOXYxOS42aDM0LjQ4OVYyODYuMTQ5eiIvPiYjeGE7CTxwYXRoIGQ9Ik03MTAuMTYyLDI4NS44ODN2MjkuMTMyaC0xMi4wOHYtNjkuODQ2aDI3LjIyM2MzLjI2OCwwLDYuMjg4LDAuNTc5LDkuMDYsMS43MzdjMi43NzEsMS4xNTgsNS4xNjUsMi43OTIsNy4xNzgsNC44OTkmIzEwOyYjOTsmIzk7YzIuMDEzLDIuMTA5LDMuNTc0LDQuNjE5LDQuNjgzLDcuNTI4YzEuMTA4LDIuOTExLDEuNjYzLDYuMTE4LDEuNjYzLDkuNjIyYzAsMy4xNDgtMC40NTMsNi4wMTMtMS4zNTcsOC41OTcmIzEwOyYjOTsmIzk7Yy0wLjkwNSwyLjU4NC0yLjE4OCw0Ljg1NS0zLjg1Miw2LjgxNWMtMS42NjMsMS45Ni0zLjY0NywzLjU2My01Ljk1Miw0LjgxMWMtMi4zMDYsMS4yNDctNC44NTgsMi4wOC03LjY1OSwyLjQ5NWwxOS42OTUsMjMuMzQxJiMxMDsmIzk7JiM5O2gtMTQuNzkzTDcxMC4xNjIsMjg1Ljg4M3ogTTcyNC4wOCwyODEuOTYzYzMuNjc3LDAsNi41MDYtMS4yMzIsOC40OTEtMy42OTdjMS45ODMtMi40NjQsMi45NzYtNS41NjgsMi45NzYtOS4zMSYjMTA7JiM5OyYjOTtjMC0zLjc0Mi0wLjk5My02LjgzLTIuOTc2LTkuMjY2Yy0xLjk4NS0yLjQzNS00LjgxNC0zLjY1Mi04LjQ5MS0zLjY1MmgtMTMuOTE4djI1LjkyNUg3MjQuMDh6Ii8+JiN4YTsJPHBhdGggZD0iTTc4MS40MTYsMzA1LjY2bDE5LjQzMi02MC40OTFoMTIuNjkzbC0yMi42NzIsNjkuODQ2aC0xOC45OTRsLTIyLjY3Mi02OS44NDZoMTIuNjkyTDc4MS40MTYsMzA1LjY2eiIvPiYjeGE7CTxwYXRoIGQ9Ik04MzIuNjIyLDI0NS4xNjl2NjkuODQ2aC0xMi4wNzl2LTY5Ljg0Nkg4MzIuNjIyeiIvPiYjeGE7CTxwYXRoIGQ9Ik04NDEuODEyLDI4MC4wOTJjMC01LjI4NSwwLjgzMi0xMC4xNDEsMi40OTUtMTQuNTY2YzEuNjYzLTQuNDI0LDMuOTgyLTguMjI2LDYuOTU5LTExLjQwMyYjMTA7JiM5OyYjOTtjMi45NzYtMy4xNzcsNi41MjEtNS42NDIsMTAuNjM1LTcuMzk1YzQuMTE0LTEuNzUxLDguNTkzLTIuNjI4LDEzLjQzNy0yLjYyOGMzLjk2OCwwLDcuNjE2LDAuNjEsMTAuOTQyLDEuODI2JiMxMDsmIzk7JiM5O2MzLjMyNiwxLjIxOSw2LjI4NywyLjg5Niw4Ljg4NSw1LjAzNGMyLjU5NiwyLjEzOCw0LjgyOCw0LjY0Nyw2LjY5Niw3LjUyN2MxLjg2NywyLjg4MiwzLjMyNiw1Ljk4NCw0LjM3Nyw5LjMxMWgtMTIuNDMxJiMxMDsmIzk7JiM5O2MtMC41MjQtMS42NjItMS4zMjctMy4yODEtMi40MDYtNC44NTVjLTEuMDgxLTEuNTczLTIuNDA3LTIuOTQtMy45ODMtNC4wOTljLTEuNTc1LTEuMTU4LTMuMzctMi4wOTQtNS4zODMtMi44MDYmIzEwOyYjOTsmIzk7Yy0yLjAxNC0wLjcxMy00LjI0Ni0xLjA2OS02LjY5Ny0xLjA2OWMtMy4wOTQsMC01LjkzOCwwLjYwOS04LjUzNCwxLjgyNmMtMi41OTgsMS4yMTgtNC44NDUsMi45NC02Ljc0LDUuMTY3JiMxMDsmIzk7JiM5O2MtMS44OTcsMi4yMjgtMy4zNyw0Ljg4Ni00LjQyMSw3Ljk3NGMtMS4wNSwzLjA4OS0xLjU3NSw2LjQ3NS0xLjU3NSwxMC4xNTZjMCwzLjY4NCwwLjUyNSw3LjA2OCwxLjU3NSwxMC4xNTYmIzEwOyYjOTsmIzk7YzEuMDUxLDMuMDg5LDIuNTIzLDUuNzQ2LDQuNDIxLDcuOTc0YzEuODk2LDIuMjI3LDQuMTQzLDMuOTUsNi43NCw1LjE2N2MyLjU5NiwxLjIxOCw1LjQ0LDEuODI2LDguNTM0LDEuODI2JiMxMDsmIzk7JiM5O2M0LjMxOCwwLDguMTU1LTAuOTM2LDExLjUxMS0yLjgwN2MzLjM1NS0xLjg3LDUuNzkxLTQuNjc3LDcuMzEtOC40MTloMTIuNDNjLTEuMDUsMy42MjQtMi42MTIsNi44MTUtNC42ODMsOS41NzcmIzEwOyYjOTsmIzk7Yy0yLjA3MiwyLjc2Mi00LjQ5NCw1LjA2NC03LjI2Niw2LjkwNWMtMi43NzIsMS44NC01LjgwOCwzLjIzNi05LjEwNCw0LjE4N2MtMy4yOTgsMC45NDktNi42OTYsMS40MjYtMTAuMTk4LDEuNDI2JiMxMDsmIzk7JiM5O2MtNC44NDQsMC05LjMyMi0wLjg3Ny0xMy40MzctMi42MjhjLTQuMTEzLTEuNzUzLTcuNjU5LTQuMjE3LTEwLjYzNS03LjM5NWMtMi45NzctMy4xNzctNS4yOTYtNi45NzktNi45NTktMTEuNDAzJiMxMDsmIzk7JiM5O0M4NDIuNjQ1LDI5MC4yMzQsODQxLjgxMiwyODUuMzc5LDg0MS44MTIsMjgwLjA5MnoiLz4mI3hhOwk8cGF0aCBkPSJNOTYxLjQ3MiwyODYuMTQ5SDkzMS4zNmwtNC4zNzctNy43NXYyNS45MjVoMzcuMTE1djEwLjY5aC00OS4xOTV2LTY5Ljg0Nmg0OC4zMTl2MTAuNjloLTM2LjIzOXYxOS42aDM0LjQ4OFYyODYuMTQ5eiIvPiYjeGE7PC9nPiYjeGE7PGc+JiN4YTsJPHBhdGggZD0iTTE0MzEuMTMyLDk4LjM1aC0xMC42NDd2LTQuMjYzaDI2LjM1NHY0LjI2M2gtMTAuNjQ4djI4LjcyM2gtNS4wNTlWOTguMzV6Ii8+JiN4YTsJPHBhdGggZD0iTTE0NTIuMjA3LDk0LjA4N2g1LjgyNGw0LjI2OCwxMy40NjRsMS40NzksNS4xMzJoMC4yMDJsMS40MzgtNS4xMzJsNC4zMDktMTMuNDY0aDUuODI0djMyLjk4NWgtNC42MTJ2LTE0Ljg3NiYjMTA7JiM5OyYjOTtjMC0zLjM0NiwwLjU0MS05LjU5OCwwLjc4LTEyLjYwNmgtMC4xNTFsLTIuMDMzLDcuMDU5bC00LjE3LDExLjY3OWgtMy4xNzNsLTQuMTA3LTExLjY3OWwtMi4wMjctNy4wNTloLTAuMTE5JiMxMDsmIzk7JiM5O2MwLjMyMSwzLjAwOSwwLjc4LDkuMjYxLDAuNzgsMTIuNjA2djE0Ljg3NmgtNC41MTJWOTQuMDg3eiIvPiYjeGE7PC9nPiYjeGE7PGc+JiN4YTs8L2c+JiN4YTs8Zz4mI3hhOzwvZz4mI3hhOzxnPiYjeGE7PC9nPiYjeGE7PGc+JiN4YTs8L2c+JiN4YTs8Zz4mI3hhOzwvZz4mI3hhOzxnPiYjeGE7PC9nPiYjeGE7PGc+JiN4YTs8L2c+JiN4YTs8Zz4mI3hhOzwvZz4mI3hhOzxnPiYjeGE7PC9nPiYjeGE7PGc+JiN4YTs8L2c+JiN4YTs8Zz4mI3hhOzwvZz4mI3hhOzxnPiYjeGE7PC9nPiYjeGE7PGc+JiN4YTs8L2c+JiN4YTs8Zz4mI3hhOzwvZz4mI3hhOzxnPiYjeGE7PC9nPiYjeGE7PC9zdmc+;rounded=0;sketch=1;curveFitting=1;jiggle=2;" vertex="1" parent="PHoNQdwAoVbEZFHkZa52-261">
          <mxGeometry width="210.64" height="66" as="geometry" />
        </mxCell>
        <mxCell id="PHoNQdwAoVbEZFHkZa52-263" value="Rust (AthenaEngine) Web Server" style="text;html=1;strokeColor=none;fillColor=none;align=center;verticalAlign=middle;whiteSpace=wrap;rounded=0;" vertex="1" parent="PHoNQdwAoVbEZFHkZa52-261">
          <mxGeometry y="50" width="210" height="30" as="geometry" />
        </mxCell>
        <mxCell id="PHoNQdwAoVbEZFHkZa52-116" value="" style="endArrow=none;html=1;rounded=0;entryX=1;entryY=0.5;entryDx=0;entryDy=0;exitX=0;exitY=0.5;exitDx=0;exitDy=0;" edge="1" parent="PHoNQdwAoVbEZFHkZa52-49" source="PHoNQdwAoVbEZFHkZa52-83" target="PHoNQdwAoVbEZFHkZa52-254">
          <mxGeometry width="50" height="50" relative="1" as="geometry">
            <mxPoint x="840" y="750" as="sourcePoint" />
            <mxPoint x="890" y="700" as="targetPoint" />
          </mxGeometry>
        </mxCell>
        <mxCell id="PHoNQdwAoVbEZFHkZa52-192" value="" style="group" vertex="1" connectable="0" parent="PHoNQdwAoVbEZFHkZa52-49">
          <mxGeometry x="1880" y="1160" width="150" height="160" as="geometry" />
        </mxCell>
        <mxCell id="PHoNQdwAoVbEZFHkZa52-46" value="" style="shape=image;verticalLabelPosition=bottom;labelBackgroundColor=default;verticalAlign=top;aspect=fixed;imageAspect=0;image=data:image/svg+xml,PHN2ZyB4bWxucz0iaHR0cDovL3d3dy53My5vcmcvMjAwMC9zdmciIHZpZXdCb3g9IjAgMCA1MTIgNTEyIiByb2xlPSJpbWciIGFyaWEtbGFiZWw9IkRvY2tlciI+PHJlY3QgZmlsbD0iI2ZmZmZmZiIgcng9IjE1JSIgaGVpZ2h0PSI1MTIiIHdpZHRoPSI1MTIiLz48cGF0aCBkPSJNMjk2IDIyNmg0Mm0tOTIgMGg0Mm0tOTEgMGg0Mm0tOTEgMGg0MW0tOTEgMGg0Mm04LTQ2aDQxbTggMGg0Mm03IDBoNDJtLTQyLTQ2aDQyIiBzdHJva2Utd2lkdGg9IjM4IiBzdHJva2U9IiMwNjZkYTUiLz48cGF0aCBkPSJtNDcyIDIyOHMtMTgtMTctNTUtMTFjLTQtMjktMzUtNDYtMzUtNDZzLTI5IDM1LTggNzRjLTYgMy0xNiA3LTMxIDdINjhjLTUgMTktNSAxNDUgMTMzIDE0NSA5OSAwIDE3My00NiAyMDgtMTMwIDUyIDQgNjMtMzkgNjMtMzkiIGZpbGw9IiMwNjZkYTUiLz48L3N2Zz4=;" vertex="1" parent="PHoNQdwAoVbEZFHkZa52-192">
          <mxGeometry width="150" height="150" as="geometry" />
        </mxCell>
        <mxCell id="PHoNQdwAoVbEZFHkZa52-189" value="Docker" style="text;html=1;strokeColor=none;fillColor=none;align=center;verticalAlign=middle;whiteSpace=wrap;rounded=0;" vertex="1" parent="PHoNQdwAoVbEZFHkZa52-192">
          <mxGeometry x="10" y="130" width="130" height="30" as="geometry" />
        </mxCell>
        <mxCell id="PHoNQdwAoVbEZFHkZa52-254" value="Docker Container" style="swimlane;whiteSpace=wrap;html=1;" vertex="1" parent="PHoNQdwAoVbEZFHkZa52-49">
          <mxGeometry x="40" y="1320" width="1050" height="130" as="geometry" />
        </mxCell>
        <mxCell id="PHoNQdwAoVbEZFHkZa52-255" value="" style="group" vertex="1" connectable="0" parent="PHoNQdwAoVbEZFHkZa52-254">
          <mxGeometry x="319.68" y="35" width="410" height="75" as="geometry" />
        </mxCell>
        <mxCell id="PHoNQdwAoVbEZFHkZa52-256" value="" style="shape=image;verticalLabelPosition=bottom;labelBackgroundColor=default;verticalAlign=top;aspect=fixed;imageAspect=0;image=data:image/svg+xml,PHN2ZyB4bWxuczp4bGluaz0iaHR0cDovL3d3dy53My5vcmcvMTk5OS94bGluayIgeG1sbnM9Imh0dHA6Ly93d3cudzMub3JnLzIwMDAvc3ZnIiB4bWw6c3BhY2U9InByZXNlcnZlIiBzdHlsZT0iZW5hYmxlLWJhY2tncm91bmQ6bmV3IDAgMCA1MDAgNTAwOyIgdmlld0JveD0iMCAwIDUwMCA1MDAiIHk9IjBweCIgeD0iMHB4IiBpZD0i66CI7J207Ja0XzEiIHZlcnNpb249IjEuMSI+JiN4YTs8c3R5bGUgdHlwZT0idGV4dC9jc3MiPiYjeGE7CS5zdDB7ZmlsbDojRkVGRUZFO30mI3hhOwkuc3Qxe2ZpbGw6I0Y5QkZBODt9JiN4YTsJLnN0MntmaWxsOiNEMTU0MEM7fSYjeGE7CS5zdDN7ZmlsbDojRTc2ODEzO30mI3hhOwkuc3Q0e2ZpbGw6I0NCNEUwQTt9JiN4YTsJLnN0NXtmaWxsOiNFQzZEMTU7fSYjeGE7CS5zdDZ7ZmlsbDojQ0U1MTBCO30mI3hhOwkuc3Q3e2ZpbGw6I0U5NkIxNDt9JiN4YTsJLnN0OHtmaWxsOiNFRjcwMTY7fSYjeGE7CS5zdDl7ZmlsbDojRjE3MTE2O30mI3hhOwkuc3QxMHtmaWxsOiNGNjc2MTg7fSYjeGE7CS5zdDExe2ZpbGw6I0I3M0MwNDt9JiN4YTsJLnN0MTJ7ZmlsbDojRjQ3NDE3O30mI3hhOwkuc3QxM3tmaWxsOiNCNDM5MDM7fSYjeGE7CS5zdDE0e2ZpbGw6I0VCNkQxNTt9JiN4YTsJLnN0MTV7ZmlsbDojQzA0NDA3O30mI3hhOwkuc3QxNntmaWxsOiNGODc5MTk7fSYjeGE7CS5zdDE3e2ZpbGw6I0M0NDgwODt9JiN4YTsJLnN0MTh7ZmlsbDojRjQ3NTE3O30mI3hhOwkuc3QxOXtmaWxsOiNENDU3MEQ7fSYjeGE7CS5zdDIwe2ZpbGw6I0Q5NUMwRjt9JiN4YTsJLnN0MjF7ZmlsbDojQkEzRjA1O30mI3hhOwkuc3QyMntmaWxsOiNERDVGMTA7fSYjeGE7CS5zdDIze2ZpbGw6I0U2NjgxMzt9JiN4YTsJLnN0MjR7ZmlsbDojQkQ0MTA2O30mI3hhOwkuc3QyNXtmaWxsOiNERjYxMTE7fSYjeGE7CS5zdDI2e2ZpbGw6I0U0NjUxMjt9JiN4YTsJLnN0Mjd7ZmlsbDojRTE2MzExO30mI3hhOwkuc3QyOHtmaWxsOiNENzU5MEU7fSYjeGE7CS5zdDI5e2ZpbGw6I0YxNzIxNjt9JiN4YTsJLnN0MzB7ZmlsbDojRUU3MDE2O30mI3hhOwkuc3QzMXtmaWxsOiNCMTM3MDM7fSYjeGE7CS5zdDMye2ZpbGw6I0M3NEIwOTt9JiN4YTsJLnN0MzN7ZmlsbDojQzk0RDBBO30mI3hhOwkuc3QzNHtmaWxsOiNENDU2MEQ7fSYjeGE7CS5zdDM1e2ZpbGw6I0U1NjYxMjt9JiN4YTsJLnN0MzZ7ZmlsbDojREM1RTBGO30mI3hhOwkuc3QzN3tmaWxsOiNENzVBMEU7fSYjeGE7CS5zdDM4e2ZpbGw6I0UyNjQxMTt9JiN4YTsJLnN0Mzl7ZmlsbDojQ0I0RjBCO30mI3hhOwkuc3Q0MHtmaWxsOiNFNDY2MTI7fSYjeGE7CS5zdDQxe2ZpbGw6I0JCNDAwNTt9JiN4YTsJLnN0NDJ7ZmlsbDojQjkzRTA1O30mI3hhOwkuc3Q0M3tmaWxsOiNCRTQzMDY7fSYjeGE7CS5zdDQ0e2ZpbGw6I0MyNDYwNzt9JiN4YTsJLnN0NDV7ZmlsbDojRTM2NTEyO30mI3hhOwkuc3Q0NntmaWxsOiNENTU3MEQ7fSYjeGE7CS5zdDQ3e2ZpbGw6I0Q4NUIwRTt9JiN4YTsJLnN0NDh7ZmlsbDojREE1RDBGO30mI3hhOwkuc3Q0OXtmaWxsOiNDMDQ1MDc7fSYjeGE7PC9zdHlsZT4mI3hhOzxnPiYjeGE7CTxnPiYjeGE7CQk8cGF0aCBkPSJNMzEuNTE1LDI1Ny4wODNjMC04NC43NDksMC4wMTEtMTY5LjQ5OC0wLjA2LTI1NC4yNDdjLTAuMDAyLTIuMzIsMC4zMjEtMi45NTUsMi44NDQtMi45NTQmIzEwOyYjOTsmIzk7JiM5O2MxNDMuNzQyLDAuMDgxLDI4Ny40ODQsMC4wODMsNDMxLjIyNi0wLjAwNWMyLjY4LTAuMDAyLDMuMDIzLDAuNzA0LDMuMDIyLDMuMTM0Yy0wLjA2NCwxNjQuNjU4LTAuMDY0LDMyOS4zMTctMC4wMDEsNDkzLjk3NSYjMTA7JiM5OyYjOTsmIzk7YzAuMDAxLDIuNDIyLTAuMzMxLDMuMTM5LTMuMDE4LDMuMTM3Yy0xNDMuNjI0LTAuMDg5LTI4Ny4yNDgtMC4wODgtNDMwLjg3Mi0wLjAwNWMtMi43NiwwLjAwMi0zLjIwNS0wLjczNC0zLjIwMy0zLjMwNiYjMTA7JiM5OyYjOTsmIzk7YzAuMDc2LTc5LjQzNywwLjA2Mi0xNTguODc0LDAuMDYyLTIzOC4zMTJjMS44NjMtMC4yODgsMi4zNzUsMS4yODYsMy4wNjEsMi4zOTZjMTQuMDgxLDIyLjc4MywyOC4yNTYsNDUuNTA3LDQyLjQxNCw2OC4yNDEmIzEwOyYjOTsmIzk7JiM5O2MxNi4zNDEsMjYuMjQsMzIuNjEzLDUyLjUyMyw0OC45OCw3OC43NDhjNS41Niw4LjkwOCwxMS4wNSwxNy44NiwxNi42NzMsMjYuNzI4YzEuODcsMi45NDksMi4xMTgsMi45MTksMy44MjgtMC4wNDkmIzEwOyYjOTsmIzk7JiM5O2MxMS42NTYtMjAuMjQyLDIzLjI3My00MC41MDgsMzQuOTcyLTYwLjcyNmMyLjM0LTQuMDQ0LDMuNjYyLTQuMTEzLDUuOTc5LTAuMDgyYzIwLjYzOSwzNS45MDEsNDEuNDcsNzEuNjkxLDYyLjA2LDEwNy42MTkmIzEwOyYjOTsmIzk7JiM5O2MyLjU4MSw0LjUwNCw1LjI0NSw4Ljk2LDcuNzk5LDEzLjQ4YzEuNjYzLDIuOTQzLDIuMTYyLDIuOTU0LDMuODk2LTAuMDM0YzguODIxLTE1LjIwNSwxNy41NjctMzAuNDU0LDI2LjM4LTQ1LjY2MyYjMTA7JiM5OyYjOTsmIzk7YzExLjk0Ny0yMC42MTgsMjMuODAyLTQxLjI5MSwzNS43NDgtNjEuOTFjNi44Ni0xMS44NDEsMTMuNjYxLTIzLjcxNywyMC41MTMtMzUuNTYzYzAuODU1LTEuNDc5LDEuMzg4LTMuNzc1LDMuMjgzLTMuODU0JiMxMDsmIzk7JiM5OyYjOTtjMi4xODUtMC4wOTEsMi43MDQsMi4zMjcsMy42MjYsMy45MTNjOC4yNDMsMTQuMTc3LDE2LjQwNiwyOC40MDEsMjQuNTgxLDQyLjYxN2MyLjEzNSwzLjcxMywyLjMxMywzLjcwNiw0LjY1Mi0wLjAxNSYjMTA7JiM5OyYjOTsmIzk7YzI2LjI0LTQxLjc1Niw1Mi44NjMtODMuMjY5LDc5LjEwOC0xMjUuMDIxYzIuMzg0LTMuNzkzLDQuOTI4LTcuNDg1LDcuMDk1LTExLjQwNWMtMC4zMTQtMy4wNTctMi40MjQtNS4yNDYtMy43OTMtNy43NzgmIzEwOyYjOTsmIzk7JiM5O2MtMi43MjktNS4wNDYtNS41ODEtMTAuMDI2LTguNTc5LTE0LjkyMmMtOC4yNTYtMTQuODQ2LTE2LjkwNy0yOS40NjMtMjUuNDM1LTQ0LjE1MWMtMC44My0xLjQzLTEuNjcxLTIuODQ5LTIuMzgtNC4zNDMmIzEwOyYjOTsmIzk7JiM5O2MtMS44MTgtMi43NC0xLjAyOS00LjkwMywxLjMxNi02LjkzNGMxLjczNy0xLjUwNCwzLjM5My0zLjE0Miw0LjYzNy01LjEyMWMyLjYyOS0zLjM0Miw0LjczMi02Ljk4Nyw2LjMxOC0xMC45MzQmIzEwOyYjOTsmIzk7JiM5O2MyLjE0MS00LjkxMywzLjQ1Mi0xMC4wNDUsNC4xMjctMTUuMzUxYzAuNzgyLTYuMDM2LDAuMzMtMTIuMDA3LTAuOTA4LTE3LjkzM2MtMy43NDctMTkuNjc4LTIxLjI1Ni0zNy40ODctNDAuMzktNDEuMDUmIzEwOyYjOTsmIzk7JiM5O2MtNi4yNjktMS41MDctMTIuNjE2LTEuNjA0LTE4Ljk5MS0xLjA5MmMtMi42NjMsMC4zOTgtNS4zODQsMC41OTgtNy45MjcsMS41NTVjLTIuNDM1LDAuOTE3LTMuODg1LDAuMTc1LTUuMTM1LTIuMDg1JiMxMDsmIzk7JiM5OyYjOTtjLTQuMDktNy4zOTYtOC41NjMtMTQuNTczLTEyLjY5My0yMS45NWMtMS41MDUtMi42ODktMS43NTctMi42NjMtMy4zNjgtMC4xMDhjLTEuNjksMi42ODItMy4xNTMsNS40OTktNC43NTcsOC4yMzImIzEwOyYjOTsmIzk7JiM5O2MtMi40NjgsNC4yMTctNC44NzcsOC40NjgtNy4yOSwxMi43MTdjLTIuMDk4LDMuNzgtNC40NzIsNy40MDEtNi40NjQsMTEuMjQyYy0zLjU0NCw1Ljk1MS02LjkwNSwxMi4wMDctMTAuNDAxLDE3Ljk4NiYjMTA7JiM5OyYjOTsmIzk7Yy0xLjk4Niw0LjAwOS00LjQ1NSw3Ljc0LTYuNjY5LDExLjYxOGMtMS44NzcsMy4yODctMy4yNzYsMy4yODItNS4yLTAuMDljLTcuNTEyLTEzLjE2Ni0xNS4zMi0yNi4xNjEtMjIuNzItMzkuMzkxJiMxMDsmIzk7JiM5OyYjOTtjLTguMzEyLTE0LjMxMS0xNi40OTQtMjguNjk3LTI0Ljg5Ny00Mi45NTNjLTcuMzk2LTEzLjM2My0xNS4zMDQtMjYuNDMyLTIyLjkwMS0zOS42OGMtMS4zMzUtMi4zMjktMi4yMDYtMi4yNjktMy40OTEsMC4wNDImIzEwOyYjOTsmIzk7JiM5O2MtMS42NTQsMi45NzUtMy4zMzMsNS45NDEtNS4wNTUsOC44ODFjLTIuNzg1LDQuNzU4LTUuNTYxLDkuNTE5LTguMjM2LDE0LjMzOWMtMi40ODMsMy45NTgtNC42MTUsOC4xMjEtNy4wMjcsMTIuMTImIzEwOyYjOTsmIzk7JiM5O2MtMi4xODQsMy43NDEtNC42MDQsNy4zNDYtNi40NDgsMTEuMjgxYy0yLjU3Niw0LjA5NC00LjkzMSw4LjMxNy03LjMxNywxMi41MjJjLTIuNDI5LDMuNzc4LTQuMzEsNy44NzYtNi43OCwxMS42MyYjMTA7JiM5OyYjOTsmIzk7Yy0yLjU0Nyw0LjUxNC01LjA4Miw5LjAzNS03Ljc4MiwxMy40NjFjLTIuMzgzLDQuNDI5LTUuMTE2LDguNjYxLTcuMzg0LDEzLjE1NGMtMi40NCwzLjk4My00Ljc4OCw4LjAyMS03LjEwNCwxMi4wNzgmIzEwOyYjOTsmIzk7JiM5O2MtMi44OTQsNC43MDgtNS41OTMsOS41MjctOC4yNDksMTQuMzcxYy0yLjg4Nyw0LjkyOS01LjgzMiw5LjgyNC04LjYxOCwxNC44MTJjLTEuMzcxLDIuMzMxLTIuNjM0LDQuNzI2LTQuMDU5LDcuMDI1JiMxMDsmIzk7JiM5OyYjOTtjLTEuNjI3LDIuNjI3LTIuODEyLDIuNjE1LTQuNDg0LTAuMjY3Yy0zLjAxLTUuMTg3LTUuOTMyLTEwLjQyNi04Ljk0Ni0xNS42MTJjLTUuNjczLTkuNzYxLTExLjI0OS0xOS41NzktMTYuOTQ3LTI5LjMyNiYjMTA7JiM5OyYjOTsmIzk7Yy0xLjg0Ni0zLjE1Ny0yLjI0NS0zLjEzOC00LjAwMywwLjA1MWMtMi42MTIsNC43MzktNS40MTIsOS4zNjgtOC4xMDIsMTQuMDYxYy0yLjA0NSwzLjg0MS00LjI3OCw3LjU3NC02LjQ0MSwxMS4zNDgmIzEwOyYjOTsmIzk7JiM5O2MtMS45ODksMy4yNTgtMy45MDQsNi41NTgtNS42ODcsOS45MzVjLTIuMTg5LDMuNTMtNC4xMjIsNy4yMTEtNi4zMjIsMTAuNzM1Yy0yLjkxMiw1LjQ4NS02LjM1LDEwLjY2OS05LjE5OSwxNi4xODgmIzEwOyYjOTsmIzk7JiM5O2MtMy41MDUsNi4xNjMtNy4xNDYsMTIuMjQ3LTEwLjY2MSwxOC40MDVjLTIuNzkzLDQuNTgzLTUuMjEsOS4zODEtNy45NjgsMTMuOTg1Yy0yLjg2MSw0LjkxOS01Ljk0NCw5LjcwOS04LjQ5NCwxNC44MDYmIzEwOyYjOTsmIzk7JiM5O2MtMi41NzEsNC4zMDUtNS4wNTgsOC42Ni03LjU3NSwxMi45OTdjLTIuNDE5LDQuMjAzLTQuODM4LDguNDA2LTcuMzAzLDEyLjU4MmMtMy4wODQsNS40MzMtNS44NzYsMTEuMDM4LTkuNTMyLDE2LjEzNSYjMTA7JiM5OyYjOTsmIzk7QzMyLjEyNywyNTcuMzMxLDMxLjgxNCwyNTcuMzEsMzEuNTE1LDI1Ny4wODN6IiBjbGFzcz0ic3QwIi8+JiN4YTsJCTxwYXRoIGQ9Ik00NjcuMDk1LDI1Ny44MjZjLTMuNTY2LDcuMDQ4LTguMTUyLDEzLjQ3OS0xMi4zNTIsMjAuMTMzYy0yNC45LDM5LjQ1OS00OS45NCw3OC44MjgtNzQuOTQsMTE4LjIyMyYjMTA7JiM5OyYjOTsmIzk7Yy0wLjY3MywxLjA2MS0xLjQzMSwyLjA2OC0yLjQwMywzLjQ2NmMtMTAuMDg3LTE3LjQ4NS0xOS45NDQtMzQuNTczLTMwLjExMS01Mi4xOThjLTI5LjQyOSw1MC45NjUtNTguNTA0LDEwMS4zMTctODcuODQ2LDE1Mi4xMyYjMTA7JiM5OyYjOTsmIzk7Yy0zLjQ3Mi00LjQ2NC01LjY0Ni05LjEzMS04LjE5My0xMy41MjljLTE5Ljg5Ni0zNC4zNjUtMzkuNjg5LTY4Ljc5LTU5LjUxNy0xMDMuMTk0Yy0xLjg4My0zLjI2Ni0zLjgwNi02LjUwOS01LjY3NC05Ljc4NCYjMTA7JiM5OyYjOTsmIzk7Yy0xLjExNy0xLjk1Ny0xLjkxMy0yLjM2NC0zLjI1NC0wLjAwNWMtOS4yLDE2LjE4NC0xOC41MDIsMzIuMzEtMjcuNzksNDguNDQzYy0zLjA1Niw1LjMwOS02LjIxLDEwLjU2MS05LjIzMSwxNS44ODkmIzEwOyYjOTsmIzk7JiM5O2MtMC45OTksMS43NjEtMS41MjUsMS42MjQtMi41NDMtMC4wMjFjLTE3LjYxNi0yOC40NS0zNS4yNjYtNTYuODc4LTUyLjkzNC04NS4yOTZjLTE0Ljk5My0yNC4xMTUtMzAuMDItNDguMjA4LTQ1LjAyNi03Mi4zMTUmIzEwOyYjOTsmIzk7JiM5O2MtMy42MTEtNS44MDEtNy4xNzYtMTEuNjMtMTAuODE5LTE3LjQxMWMtMC44Ni0xLjM2NC0xLjM4My0zLjAyLTIuOTQ3LTMuODU5YzAtMC4yMzYsMC0wLjQ3MiwwLTAuNzA4JiMxMDsmIzk7JiM5OyYjOTtjMi4wMDgtMS4zNDgsNC4yOS0wLjk2Niw2LjQ5MS0wLjk3OGMzLjYzMi0wLjAyLDcuMjY2LTAuMDc5LDEwLjg4OCwwLjA0MmMwLjM4NCwwLjAyLDAuNzY4LDAuMDk1LDEuMTM2LDAuMjA5JiMxMDsmIzk7JiM5OyYjOTtjMS4wNjUsMC4zNzQsMS42NjcsMS4yMzksMi4yNDksMi4xNDNjMTYuNzMyLDI1Ljk5NCwzMy4zMzksNTIuMDY4LDUwLjEwMiw3OC4wNDJjMTMuNTAxLDIwLjkxOCwyNi44MDMsNDEuOTYzLDQwLjM4OCw2Mi44MjYmIzEwOyYjOTsmIzk7JiM5O2MwLjQ5NSwwLjc2LDAuODA3LDEuNzM4LDIuMDMsMi4xMDhjMy40MjktNS4wMjksNi4yMDktMTAuNDg2LDkuMjk5LTE1Ljc1NWM1Ljk2OS0xMC4xNzcsMTEuOC0yMC40MzUsMTcuNzI4LTMwLjYzNiYjMTA7JiM5OyYjOTsmIzk7YzEuMjQ0LTIuMTQsMS4xMTctMy43OTUtMC4xMDgtNS44NjFjLTE2Ljk3My0yOC42MTktMzMuNjM5LTU3LjQyLTUwLjU1My04Ni4wNzRjLTAuODQtMS40MjQtMS42MjgtMi44NzctMi4zNDItNC4zNjYmIzEwOyYjOTsmIzk7JiM5O2MtMC40My0wLjg5Ny0wLjcyMy0xLjgxMywwLjU0OC0yLjM0NGMyLjM4LTAuNjA1LDQuODAyLTAuMjIsNy4yMDItMC4zNTFjNC41NjMsMC4xMTQsOS4xMzItMC4yMDIsMTMuNjg1LDAuMTc4JiMxMDsmIzk7JiM5OyYjOTtjMi4zMTUsMC42NTMsMy4xMjYsMi43MzUsNC4xNzksNC41MzhjMTMuNjE0LDIzLjMxNCwyNy4yMzYsNDYuNjI0LDQxLjA2NCw3MC4yNzJjMy42NDEtNS45Myw2LjkwNS0xMS44MzUsMTAuMjE1LTE3LjcwNiYjMTA7JiM5OyYjOTsmIzk7YzEwLjI0OC0xOC4xNzgsMjAuNTk5LTM2LjI5OCwzMC44MzUtNTQuNDgzYzAuNTg0LTEuMDM4LDEuMTk4LTIuMDQ1LDIuNDE4LTIuNDY4YzEuNTU2LTAuNDMsMy4xNDgtMC4yNjIsNC43MjctMC4zMjYmIzEwOyYjOTsmIzk7JiM5O2M0Ljc2OCwwLjE0Myw5LjU0NC0wLjI4NywxNC4yOTgsMC4yMzljMi40ODcsMS4xNzcsMS4wMiwyLjc2MSwwLjI4NCw0LjA4MWMtNC4xMzksNy40MTgtOC40MjksMTQuNzUtMTIuNjcsMjIuMTEmIzEwOyYjOTsmIzk7JiM5O2MtMTIuMzY4LDIxLjQ2Ny0yNC43MjEsNDIuOTQzLTM3LjExNSw2NC4zOTVjLTEuMzQxLDIuMzIxLTEuNDQxLDQuMTIyLTAuMDcxLDYuNDk5YzE5LjIwNSwzMy4zMjIsMzguNDQ5LDY2LjYyMSw1Ny43NDEsOTkuODkzJiMxMDsmIzk7JiM5OyYjOTtjMC45MzYsMS42MTQsMS41NzIsMy40MjcsMy4xMjcsNS4wMTFjMy4wNDYtNC40MzMsNS41MjktOS4wNzYsOC4xNTItMTMuNjI0YzIxLjc0OS0zNy43MDksNDMuNDM1LTc1LjQ1NSw2NS4zNTEtMTEzLjA2OCYjMTA7JiM5OyYjOTsmIzk7YzEuNjQ5LTIuODMsMS45Ny01LjA5LDAuMTk1LTguMTJjLTEyLjE2Ny0yMC43NjYtMjQuMzc3LTQxLjUwNy0zNi4zNTgtNjIuMzgxYy0wLjgzMy0xLjQ1MS0yLjc1OS0zLjEzNC0wLjA3OS00Ljc2MiYjMTA7JiM5OyYjOTsmIzk7YzYuMjA0LTAuNDksMTIuNDA3LTAuMzI3LDE4LjYwNi0wLjEwOWMyLjMzLDAuNjI0LDMuMTYxLDIuNzA3LDQuMjA4LDQuNTA2YzguMjQzLDE0LjE1NywxNi4zNDEsMjguMzk5LDI0LjU4Miw0Mi41NTgmIzEwOyYjOTsmIzk7JiM5O2MwLjY5LDEuMTg2LDEuMTI1LDMuMTQ2LDIuNTI0LDMuMTU3YzEuNTA0LDAuMDEyLDEuNjc2LTIuMDQzLDIuMzQyLTMuMjI5YzcuOTA3LTE0LjA3NiwxNS43MTEtMjguMjA4LDIzLjQzNy00Mi4zODMmIzEwOyYjOTsmIzk7JiM5O2MwLjkyNS0xLjY5OCwxLjU2NC0zLjc2OSwzLjcwNi00LjU0NmM3LjExLTAuMzY2LDE0LjIxNi0wLjM2MiwyMS4zMTUtMC4wMmMyLjUwMywxLjAzOSwwLjg5NCwyLjU1MywwLjI2MywzLjcwMiYjMTA7JiM5OyYjOTsmIzk7Yy0zLjU3Niw2LjUxNy03LjI0NywxMi45ODEtMTAuOTE4LDE5LjQ0NWMtOC41MDgsMTQuOTc5LTE2Ljg0NiwzMC4wNTYtMjUuNTc1LDQ0LjkwN2MtMS45MTYsMy4yNi0xLjg1LDUuODE5LDAuMTMzLDkuMDg1JiMxMDsmIzk7JiM5OyYjOTtjNS42MzEsOS4yNzQsMTAuOTA0LDE4Ljc2NiwxNi4zNjQsMjguMjE1YzE2Ljk3LTI3LjMyMSwzNC4xOTYtNTQuNTQ5LDUxLjM0OS04MS44MjRjNC4yMDktNi42OTMsOC4zOTYtMTMuNCwxMi41NjctMjAuMTE3JiMxMDsmIzk7JiM5OyYjOTtjMC44NjEtMS4zODcsMS41NDMtMi45NzUsMy4zNy0zLjQ0MmM2LjIyNi0wLjI4NywxMi40NDktMC4zMDcsMTguNjcyLTAuMjY2QzQ2NC43OTEsMjU2LjcxOSw0NjYuMDk0LDI1Ni44MTMsNDY3LjA5NSwyNTcuODI2eiIgY2xhc3M9InN0MSIvPiYjeGE7CQk8cGF0aCBkPSJNNDkuOTMxLDI1Ny41NzdjLTYuMTM5LDAuMDcxLTEyLjI3NywwLjE0My0xOC40MTYsMC4yMTRjMC0wLjIzNiwwLTAuNDcyLDAtMC43MDhsMC4yNjEtMC4xOTRsMC4yOCwwLjE2NSYjMTA7JiM5OyYjOTsmIzk7YzEuNzI3LTEuMzI5LDMuNzY4LTEuMTE4LDUuNzI2LTEuMDQ4YzMuODI4LDAuMTM5LDcuNjk2LTAuNTQ0LDExLjQ4NSwwLjUwMkM0OS43MTYsMjU2LjcyMyw0OS45MzcsMjU3LjA4LDQ5LjkzMSwyNTcuNTc3eiIgY2xhc3M9InN0MiIvPiYjeGE7CQk8cGF0aCBkPSJNMjkwLjAzOCw4Ny43ODRjNy41NTcsMTIuOTQ0LDE1LjExNCwyNS44ODksMjIuNjc1LDM4LjgzMWMwLjU4MSwwLjk5NSwxLjE5NiwxLjk3LDIuMDcyLDMuNDA5JiMxMDsmIzk7JiM5OyYjOTtjMy4wNC01LjA4OCw1Ljg4Mi05Ljg0Myw4LjcyMy0xNC41OTljMC43NC0wLjU4NSwxLjM2Ni0wLjIwMSwxLjc3NiwwLjM3NGMyLjM2MSwzLjMxNCw1LjI2MSw2LjA1Myw4LjQ2NSw4LjU1MyYjMTA7JiM5OyYjOTsmIzk7YzEuNzk2LDEuNDAyLDEuODcsMy42MjMsMS42MjgsNS43NzZjLTEuODE5LDQuODQ3LTQuODc4LDkuMDI1LTcuMzMyLDEzLjUzMmMtMC4zMzcsMC42MTktMC45NDMsMS4wMzItMS42NjMsMS4yMDImIzEwOyYjOTsmIzk7JiM5O2MtMS4xNiwwLjExOC0yLjMwMi0wLjMwNi0yLjc2MS0xLjIzOGMtMi4zLTQuNjcyLTcuMTI2LTYuNjg4LTEwLjQ5Mi0xMC4yMjZjLTYuMzU3LTYuNjgyLTEzLjExNS0xMi45OS0xOC45MTQtMjAuMTkzJiMxMDsmIzk7JiM5OyYjOTtjLTIuMzg1LTIuOTYzLTUuNDg4LTUuMTMtOC4yMzctNy42ODljLTUuMDc1LTQuNzIzLTkuNDg3LTEwLjEwOS0xNC42ODItMTQuNzJjLTAuODktMC43OS0xLjY1My0xLjY1NS0yLjg3NS0xLjg5NyYjMTA7JiM5OyYjOTsmIzk7Yy0xLjIxNi0wLjYzNi0xLjg3MS0xLjc3MS0yLjUxMy0yLjg5NGMtNi41NDYtMTEuNDYtMTMuMDk0LTIyLjkxNy0xOS44NTYtMzQuMjUyYy0wLjY2My0xLjExMi0xLjQwNC0yLjIwNi0xLjE0Mi0zLjYxNCYjMTA7JiM5OyYjOTsmIzk7YzEuMTMyLTEuOTkxLDIuMzM5LTAuODY3LDMuNDE1LDBjNS43MjIsNC42MTEsMTAuOTg5LDkuNjc1LDE2LjA2OSwxNS4wMTNjNC43NTIsNC45OTQsOS43OTQsOS43NiwxNC42NzksMTQuNjQmIzEwOyYjOTsmIzk7JiM5O0MyODIuNTkyLDgxLjMwNSwyODcuMDg4LDgzLjY5NiwyOTAuMDM4LDg3Ljc4NHoiIGNsYXNzPSJzdDMiLz4mI3hhOwkJPHBhdGggZD0iTTEwNC41NTYsMTMxLjAxMmMyLjE1OS0zLjc2OCw0LjMxOS03LjUzNiw2LjQ3OC0xMS4zMDNjMi4wNzQtMC40MzYsMy4yNDgsMC45MzksNC40OTMsMi4yMDkmIzEwOyYjOTsmIzk7JiM5O2M4LjM4NSw4LjU1NSwxNi4yOTcsMTcuNTg5LDI0LjgxNCwyNS45NjdjMy41NjUsMy41MDYsNy4yNDQsNy4xMTEsMTAuOTk4LDEwLjUyNWM0LjM4NywzLjk5LDkuMTMsNy43NTUsMTIuMzYzLDEyLjkmIzEwOyYjOTsmIzk7JiM5O2M0LjU2NCw5LjQyNCwxMC4xNDEsMTguMjkxLDE1LjEzLDI3LjQ4MmMxLjEyMSwyLjA2NCwyLjI4Niw0LjEwOSwzLjQ5Miw2LjEzYzAuNzA2LDEuMTgyLDEuNTg1LDIuMzk4LDAuOTk5LDMuOTQxJiMxMDsmIzk7JiM5OyYjOTtjLTEuNzE3LDEuMzUyLTIuNzQxLDAuMTA5LTMuODU2LTAuOTg5Yy02LjkxOS02LjgxMi0xMy42NDMtMTMuODIzLTIwLjc4NC0yMC40MWMtMi42NzctMi40Ny00Ljk4OS01LjMwOS03LjM0Mi04LjA1NiYjMTA7JiM5OyYjOTsmIzk7Yy0zLjA5MS0zLjYwOC03LjI1OS01Ljg0OC0xMC41MjEtOS4xNzVjLTIuMzk0LTIuMDU4LTMuNDMyLTUuMDExLTQuOTU5LTcuNjI5Yy00Ljc5OC04LjIyMi05LjgyNy0xNi4zMTItMTQuMTgzLTI0LjUwNiYjMTA7JiM5OyYjOTsmIzk7Yy0xLjMwMiwyLjAwNi0xLjQxNCw0Ljk2NC00LjQwNSw1LjkxNUMxMTEuOTQsMTQwLjc0OSwxMDcuMTk5LDEzNi45MDYsMTA0LjU1NiwxMzEuMDEyeiIgY2xhc3M9InN0NCIvPiYjeGE7CQk8cGF0aCBkPSJNNDI2LjU0OCwxODYuMjU0YzkuMzQ4LDE2LjI2MiwxOC42OTcsMzIuNTI0LDI4LjA0NSw0OC43ODZjLTEuNTk1LDEuNDcyLTIuNzc1LDAuMTU0LTQuMDM1LTAuNjAzJiMxMDsmIzk7JiM5OyYjOTtjLTUuNTAyLTMuMzEtOS41NzgtOC4xNzYtMTQuMDI1LTEyLjY2OGMtNC4yMDktNC4yNTEtOC4yODEtOC41ODgtMTEuOTkyLTEzLjI4OGMtMS44Mi0yLjMwNS00LjgzMi0yLjY4NC03LjQ1Ni0zLjYyMiYjMTA7JiM5OyYjOTsmIzk7Yy0yLjk1LTIuODI2LTQuMzk4LTYuNjM3LTYuMzg1LTEwLjA1OGMtNy44MTItMTMuNDQ5LTE1LjUxMS0yNi45NjMtMjMuNDMzLTQwLjM0OGMtMC43NzMtMS4zMDYtMS42NjItMi42MDctMS40MzItNC4yNjUmIzEwOyYjOTsmIzk7JiM5O2MxLjQxOS0yLjI4NiwzLjAyNy0xLjAyLDMuOTQ1LDAuMTk1YzIuOTc4LDMuOTQyLDYuOTYzLDYuOTczLDEwLjQzNywxMC4yNzhjNi40MjcsNi4xMTMsMTIuMTA3LDEzLjA1MywxOS4xOTksMTguNDU1JiMxMDsmIzk7JiM5OyYjOTtDNDIyLjEzNCwxODEuMTg2LDQyMy4wNTUsMTg0Ljk5OCw0MjYuNTQ4LDE4Ni4yNTR6IiBjbGFzcz0ic3Q1Ii8+JiN4YTsJCTxwYXRoIGQ9Ik0xNjMuNDQ1LDE3MS40NGMtMC42NTMtMC40OTEtMS41ODctMC44NDEtMS45MTQtMS40OTVjLTIuMTY2LTQuMzM1LTYuNTg3LTYuNDgyLTkuNjc5LTkuOTQzJiMxMDsmIzk7JiM5OyYjOTtjLTIuNTU3LTIuODYzLTUuMDIyLTYuODktNy44OTItOC4yNDhjLTUuNjAzLTIuNjUtOC40MTItNy43MDQtMTIuMzEyLTExLjU1M2MtNS42NDItNS41NjgtMTEuMDEtMTEuNTMzLTE2LjQ1NS0xNy4zNjcmIzEwOyYjOTsmIzk7JiM5O2MtMS4yNTMtMS4zNDItMi42MTEtMi4zMDItNC4xNi0zLjEyN2MzLjQ1NC02LjE0MSw2LjkwOC0xMi4yODIsMTAuNjg3LTE5YzEwLjE2NSwxNy42MzUsMjAuMDQ3LDM0Ljc3OCwzMC4xNDIsNTIuMjkxJiMxMDsmIzk7JiM5OyYjOTtjMi4wODItMy4zNTIsMy45MTItNi4yOTcsNS43NDItOS4yNDNjMC41MS0wLjQ2NCwxLjE3LTAuNTMsMS41NDktMC4wMzNjMi4zNDIsMy4wNzUsNi40NDQsNC4xNDcsOC40NTksNy42NSYjMTA7JiM5OyYjOTsmIzk7YzEuMTEzLDEuOTM1LDMuMzY1LDIuODIyLDQuOTgzLDQuMzI0Yy0xLjIxMSw1Ljk2NC00Ljk5LDEwLjU4LTguMTcyLDE1LjUwN0MxNjQuMjUzLDE3MS40NzIsMTYzLjc5OSwxNzEuNDYyLDE2My40NDUsMTcxLjQ0eiIgY2xhc3M9InN0NiIvPiYjeGE7CQk8cGF0aCBkPSJNMjkwLjAzOCw4Ny43ODRjLTEuNDk3LTAuNzQ2LTMuNTU1LTAuNzg5LTMuODAxLTMuMTA2Yy0wLjAzMS0wLjI4Ny0wLjM2OC0wLjYzNy0wLjY1NC0wLjc4OSYjMTA7JiM5OyYjOTsmIzk7Yy04LjYzNC00LjU3OS0xMy45NTctMTIuODEtMjAuOTA1LTE5LjIzMWMtNS42NTUtNS4yMjYtMTAuODkzLTEwLjkzMy0xNi44NTctMTUuODU4Yy0wLjY4Ni0wLjU2Ni0xLjI3NS0yLjA2Ny0yLjQ3NC0wLjU1OCYjMTA7JiM5OyYjOTsmIzk7Yy0yLjM0Ni0wLjc3MS0yLjgxMy0zLjExLTMuOTAyLTQuODY4Yy0wLjgzOS0xLjM1NC0xLjY1MS0yLjA4Mi0zLjIzOC0xLjQ1M2MtMi41MTctMi4zMjQtNC42MjUtNC45NzktNi42NjgtNy43MjkmIzEwOyYjOTsmIzk7JiM5O2MtMS44OTItMi41NDgtNC4zLTQuNjM4LTcuMzAzLTUuOWMyLjcyOC00Ljc1OCw1LjQ1Ny05LjUxNyw4LjE4NS0xNC4yNzVjMS41ODItMC41ODMsMi41MzksMC40LDMuMTcsMS41MzMmIzEwOyYjOTsmIzk7JiM5O2MxLjkwOCwzLjQzLDQuOTY5LDUuNTc3LDguMTM0LDcuNjNjNC40NDEsMi44ODEsNi44ODMsNy43NDUsMTAuOTEsMTEuMDA0YzMuODYxLDMuMTI1LDYuNDU2LDcuNDk5LDEwLjUxOCwxMC4zOTgmIzEwOyYjOTsmIzk7JiM5O0MyNzMuNjY0LDU4Ljg1OSwyODIuMDY2LDczLjE5NywyOTAuMDM4LDg3Ljc4NHoiIGNsYXNzPSJzdDciLz4mI3hhOwkJPHBhdGggZD0iTTQyNi41NDgsMTg2LjI1NGMtMS4zODQsMC41NTgtMi41MTcsMC4yMzUtMy4zMTYtMS4wMjdjLTQuMTI3LTYuNTEyLTEwLjYxNC0xMC42NjEtMTUuOTIyLTE1Ljk5JiMxMDsmIzk7JiM5OyYjOTtjLTEuNTQzLTEuNTQ4LTIuMzk1LTQuMDk2LTQuMTcyLTUuMDQxYy01LjA0My0yLjY4LTYuOS04LjgwNS0xMi4zNDgtMTAuODk3Yy0wLjcxNy0wLjI3NS0wLjY5My0xLjE2OC0xLjAzOS0xLjc1MSYjMTA7JiM5OyYjOTsmIzk7Yy0wLjc4NC0xLjMxOS0xLjcwNy0yLjU5NC0zLjQ5NS0xLjI0OGMtMS42MzMsMC4wMDItMi4wODYtMS4zNDItMi43MjEtMi40MzVjLTYuODEyLTExLjczNC0xMy41MTctMjMuNTMxLTIwLjM2OC0zNS4yNDImIzEwOyYjOTsmIzk7JiM5O2MtMC43NzItMS4zMi0xLjU4NS0yLjY0My0xLjU4Ny00LjI2YzAuNjc4LTIuNzE5LDIuNDg1LTIuNSwzLjgxNy0wLjk0MWMyLjIwNSwyLjU4LDUuMzk5LDQuMDc1LDcuMTUyLDcuMTg0JiMxMDsmIzk7JiM5OyYjOTtjMS4xMjgsMi4wMDEsMy4wMiwzLjU3OSw1LjA3NCw0Ljc5N2MwLjcwNywwLjQxOSwxLjU5LDAuNzI4LDEuOTg3LDEuNDI1YzQuNTQ0LDcuOTg1LDEzLjcxNCwxMS42NDgsMTguMjczLDE5LjYxMSYjMTA7JiM5OyYjOTsmIzk7YzAuODY0LDEuNTEsMi4yNDgsMi4zNTcsMy45NTgsMi42NjVjMS43NTYsMC43NTYsMi40NjIsMi40MTYsMy4zNCwzLjkyYzMuMDY3LDUuMjUsNS45MzEsMTAuNjE2LDkuMDA2LDE1Ljg2MiYjMTA7JiM5OyYjOTsmIzk7YzEuOTE4LDMuMjcxLDEuOTQsMy4yNjIsNC42MjQsMC41MTdjMC40MTYtMC40MjUsMC44NTktMC43ODksMS40NjQtMC45MDRjMC4xMTgsMC4wMDMsMC4yOC0wLjAzOSwwLjM0NSwwLjAyMiYjMTA7JiM5OyYjOTsmIzk7YzQuMTg2LDMuOTQ4LDkuMTI3LDcuMTc0LDExLjkxNCwxMi40NTljLTEuMjE4LDIuNDQ2LTMuMTM5LDQuMzg5LTUuMTQ1LDYuMDgzQzQyNS4zODQsMTgyLjc1NCw0MjUuMDYxLDE4NC4yMzMsNDI2LjU0OCwxODYuMjU0eiIgY2xhc3M9InN0OCIvPiYjeGE7CQk8cGF0aCBkPSJNNDAxLjk5MywxNDMuNzI3Yy0zLjc5OSwwLjgxNi00Ljg1Ny0yLjYxMS02LjI5NC00LjY0NGMtMy4xNjMtNC40NzUtNy4yMjktNy44MDYtMTEuNTU0LTEwLjk1NiYjMTA7JiM5OyYjOTsmIzk7Yy0wLjQ3MS0wLjM0My0xLjE3Ny0wLjYzMy0xLjMzNC0xLjA5N2MtMi4yMjYtNi41NjEtOS44NTctOC4yNjctMTIuODA4LTE0LjM5NWMtMC45MDMtMS44NzUtMy44NjgtMy4wNTMtNS41MjMtNS4wNzQmIzEwOyYjOTsmIzk7JiM5O2MtMS4wMzktMS4yNjgtMi4wODQtMC41MzMtMi4zNDksMS4wMzFjLTIuNjI2LTAuNTk5LTIuNjctMy4yOTEtMy45NzktNC45NTRjLTAuOTMzLTEuMTg1LTEuNjcxLTIuNTM2LTIuMzM0LTMuODg1JiMxMDsmIzk7JiM5OyYjOTtjLTAuNjU5LTEuMzQxLTEuNjQxLTEuNDA2LTIuODQ1LTEuMTkzYy00LjAyNC00LjI3NC05LjI4NS03LjI2LTEyLjY3OC0xMi4xOWMyLjA4OC00LjQ0Miw0LjY1OS04LjYwNyw3LjI4MS0xMi43NDMmIzEwOyYjOTsmIzk7JiM5O2MxLjkyMi0xLjExOCwzLjU2Ni0wLjM5Nyw0LjUxMSwxLjIzNWM0LjQsNy41OTksMTEuNTU1LDEyLjUxNywxNy43MTMsMTguMzkyYzEuMzU4LDEuMjk2LDIuNzU2LDIuMzc5LDMuNjU1LDQuMTM3JiMxMDsmIzk7JiM5OyYjOTtjMS4wMDcsMS45NjgsMi40MjQsMy43MTksNC40NzQsNC44NTVjMS40NywwLjgxNCwyLjQwMiwyLjIyMSwzLjMyOSwzLjU4OWM3LjEyMywxMS40NDQsMTMuNDE4LDIzLjM2NywyMC4yNCwzNC45ODYmIzEwOyYjOTsmIzk7JiM5O0M0MDIuMDEzLDE0MS42OTYsNDAyLjc1NCwxNDIuNjA0LDQwMS45OTMsMTQzLjcyN3oiIGNsYXNzPSJzdDkiLz4mI3hhOwkJPHBhdGggZD0iTTQxNy41MTUsMjA0LjYwMWMyLjczOC0wLjE0MSw1LjE0MSwwLjg1NCw3LjA3MSwyLjY0YzEuNzAyLDEuNTc0LDMuMTA5LDMuNDc4LDQuNTY5LDUuMjk5JiMxMDsmIzk7JiM5OyYjOTtjNC4yNTgsNS4zMDksOS41MjcsOS42NTMsMTQuMDI1LDE0LjY5OWMyLjQ1NSwyLjc1NSw1LjQ5Miw0LjUxLDguMjE1LDYuNzc5YzAuOTg2LDAuODIyLDEuOTU1LDEuMjI5LDMuMTk3LDEuMDIyJiMxMDsmIzk7JiM5OyYjOTtjNC4xMzUsNy4wNiw4LjI3OCwxNC4xMTYsMTIuMzg3LDIxLjE5MWMwLjI2MSwwLjQ0OSwwLjY1OSwxLjAyNSwwLjExNiwxLjU5NWMtNy43OTQtMC4wMTctMTUuNTg3LTAuMDM0LTIzLjM4MS0wLjA1MSYjMTA7JiM5OyYjOTsmIzk7Yy0xLjM1NywxLjIwNS0zLjAzNSwxLjE1My00LjY3OSwxLjE1N2MtMTIsMC4wMjQtMjQsMC4wMzEtMzUuOTk5LTAuMDA5Yy0xLjYxNy0wLjAwNS0zLjMzNiwwLjE5Ny00LjY1OC0xLjEyNCYjMTA7JiM5OyYjOTsmIzk7Yy03Ljc4OS0wLjAwNS0xNS41NzktMC4wMDktMjMuMzY4LTAuMDE0Yy0xLjM1NiwxLjE5Ny0zLjAzMSwxLjE0NC00LjY3MSwxLjE0NmMtMTYuNDMyLDAuMDIyLTMyLjg2NCwwLjAxNi00OS4yOTYsMC4wMTEmIzEwOyYjOTsmIzk7JiM5O2MtMS42NjcsMC0zLjI4My0wLjE1OS00Ljc0NC0xLjA1M2MtNi44ODktMC4wMDMtMTMuNzc5LTAuMDA2LTIwLjY2OC0wLjAwOWMtMS4zNzMsMS4xOTMtMy4wNjQsMS4wNDEtNC42ODgsMS4wNDUmIzEwOyYjOTsmIzk7JiM5O2MtMTIuNDIzLDAuMDI5LTI0Ljg0NywwLjAyOS0zNy4yNzEsMGMtMS42MjUtMC4wMDQtMy4zMTUsMC4xNDItNC42ODYtMS4wNTNjLTUuMjA2LTAuMDk0LTEwLjQxMi0wLjE4Ny0xNS42MTgtMC4yODEmIzEwOyYjOTsmIzk7JiM5O2MtMC4xMTYtMC40NjEsMC4wMzgtMC43OTcsMC40NjQtMS4wMTJjMC41NzctMC4yOTgsMS4yMDItMC40MDIsMS44MzctMC40OGM1LjE5LTAuMjEyLDEwLjM4Mi0wLjAzMywxNS41NzQtMC4xMDImIzEwOyYjOTsmIzk7JiM5O2M2LjU1NC0wLjAzNCwxMy4xMDYtMC4xMiwxOS42NTgsMC4wMzljNy43NzYtMC4xNTgsMTUuNTUyLTAuMTEsMjMuMzI4LTAuMDIyYzcuNzgtMC4xNCwxNS41NTktMC4wNTksMjMuMzM4LTAuMDAzJiMxMDsmIzk7JiM5OyYjOTtjNi4zODEtMC4wNzgsMTIuNzYzLTAuMTI0LDE5LjE0NCwwLjAyNmM1LjkxOS0wLjE1NiwxMS44MzktMC4wODUsMTcuNzU5LTAuMDI2YzguMDA3LTAuMTE5LDE2LjAxNC0wLjA3NiwyNC4wMi0wLjAwNSYjMTA7JiM5OyYjOTsmIzk7YzcuMDc4LTAuMDY1LDE0LjE1Ni0wLjEzNiwyMS4yMzQsMC4wMzNjNi4xMjEtMC4xMDksMTIuMjQzLTAuMTU0LDE4LjM2MywwLjAwMWM1LjkyOS0wLjA5OSwxMS44NTktMC4xMzksMTcuNzgyLDAuMDMxJiMxMDsmIzk7JiM5OyYjOTtjNS4zNTYtMC4wNiwxMC43MjksMC4yNTQsMTYuNDE2LTAuNjc3Yy01LjAzNy00LjQxLTguMjI0LTEwLjUzMy0xNC4zMzktMTMuNjk5Yy0xLjI5OS0wLjY3My0yLjczMS0wLjYzMy00LjE0My0wLjYzMiYjMTA7JiM5OyYjOTsmIzk7Yy00LjQ2NywwLjAwMy04LjkzNS0wLjAzOC0xMy40MDgsMC4wNTFjLTUuMjM2LDAuMTA4LTEwLjQ2NywwLjEyMi0xNS42OTgsMC4wMWMtNi43MzgsMC4xMjctMTMuNDc0LDAuMTQ3LTIwLjIxLTAuMDI3JiMxMDsmIzk7JiM5OyYjOTtjLTIuMzA4LTAuMTY3LTQuODQ2LDAuODMzLTYuNzY4LTEuMzEyYzEuMjQ3LTIuMDU2LDMuMzIzLTEuMzc2LDUuMDczLTEuMzgzYzE1Ljk5NC0wLjA2MywzMS45ODgtMC4wMzQsNDcuOTgzLTAuMDM3JiMxMDsmIzk7JiM5OyYjOTtjNC44MDEtMC4wMDEsNC44NC0wLjAyOCwyLjQ2NC00LjE0N2MtNC44MTktOC4zNTQtOS43MDUtMTYuNjY5LTE0LjQyMy0yNS4wNzlDNDE4LjAzNiwyMDcuNzUsNDE2LjgxMiwyMDYuNDM3LDQxNy41MTUsMjA0LjYwMXoiIGNsYXNzPSJzdDciLz4mI3hhOwkJPHBhdGggZD0iTTM4MS4xODUsODcuNzA0YzYuOTkxLTEuNDEzLDEzLjg4Ny0wLjgwMSwyMC43MjcsMC45NzljMS40NDgsMy4xNjcsNS4wMDIsNC4wNDIsNy4wOTYsNi42MTUmIzEwOyYjOTsmIzk7JiM5O2MzLjYyMyw0LjQ1MSw3LjQ5Myw4Ljc1NywxMS43MTUsMTIuNjMyYzQuMjEyLDMuODY1LDguMTIsOC4wMjksMTIuMzQ4LDExLjg3YzMuMjk2LDIuOTk1LDYuNDksNi4xMTEsOS4wOTMsOS43NjQmIzEwOyYjOTsmIzk7JiM5O2MxLjY5MSw2LjM3NCwyLjE4MiwxMi44MDMsMC45MDMsMTkuMzE2Yy0xLjAyNS0yLjEwOC0yLjUzMy0zLjcyOS00LjQwNy01LjE4NmMtMi4wMDUtMS41NTgtMy43MjEtMy40NzUtNS4xMDctNS42OTgmIzEwOyYjOTsmIzk7JiM5O2MtMi4yMTUtMy41NTUtNi4zMjEtNS4wMDYtOS4xOTYtNy44NTZjLTAuOTk5LTAuNTY3LTEuMzM4LTEuNTk2LTEuNzk2LTIuNTQ3Yy00Ljk5MS0xMC4zNzktMTIuNjUyLTE3LjcwNC0yMy45MDctMjAuOTM1JiMxMDsmIzk7JiM5OyYjOTtjLTAuOTg2LTAuMjgzLTIuMTMyLTAuMzktMi42MDQtMS41NjVjMC40MTctMS44MjYtMC42MDQtMy4xMTItMS42NTYtNC4zODhjLTMuMTAyLTMuNzY0LTYuODk3LTYuOTItOS42MzYtMTEuMDAyJiMxMDsmIzk7JiM5OyYjOTtDMzgzLjkwNyw4OC40MzMsMzgyLjA2NCw4OC45MjgsMzgxLjE4NSw4Ny43MDR6IiBjbGFzcz0ic3QxMCIvPiYjeGE7CQk8cGF0aCBkPSJNNDguNjk0LDIyOC4wNjljMi40Ny00LjI4NSw0Ljk0LTguNTY5LDcuNDEtMTIuODU0YzEuNzMyLTAuOTcsMywwLjI1MSw0LjAxOSwxLjE4MyYjMTA7JiM5OyYjOTsmIzk7YzMuNDg0LDMuMTg2LDcuMDQxLDYuMzE3LDkuOTk5LDEwLjAzM2MtMC43MjUsMy4wNzYtMi4zNjcsNS43MzQtMy44Miw4LjQ5MWMtMC42NTksMS4yNS0yLjA3OCwyLjI3NS0xLjUxNCwzLjk5JiMxMDsmIzk7JiM5OyYjOTtjNC41MjEsMC41OTQsOS4wNjItMC4xOTQsMTMuNTU4LDAuNDMyYzUuMTgxLDEuODgxLDguNDYzLDYuMTk3LDEyLjI5NSw5Ljc2N2MxLjYxMSwxLjUsMy4wODIsMy4yMjUsNC41MDEsNC45NDImIzEwOyYjOTsmIzk7JiM5O2MwLjk0MywxLjE0MSwyLjIzLDIuNDYzLDAuMDMyLDMuNzJjLTYuMjMzLDAuNTM0LTEyLjQ2NywwLjM4LTE4LjY5NiwwLjEwMmMtMC41NjctMC4xNzEtMS4yMjMtMC40MDUtMS4zNzYtMC45NzkmIzEwOyYjOTsmIzk7JiM5O2MtMS41OTctNS45OTQtNi42OTYtOC43NTUtMTEuMTI0LTEyLjEzNGMtMC41Ni0wLjQyOC0xLjEyLTAuODUyLTEuNjMzLTEuMzM2Yy0zLjgzMS0zLjYxNC03LjA2Ny03LjgxLTExLjExOS0xMS4yMiYjMTA7JiM5OyYjOTsmIzk7QzQ5Ljk5NywyMzEuMTcyLDQ5LjAxMywyMjkuNzY5LDQ4LjY5NCwyMjguMDY5eiIgY2xhc3M9InN0MTEiLz4mI3hhOwkJPHBhdGggZD0iTTM4MS4xODUsODcuNzA0YzIuNjcyLTAuMzEyLDMuOTY1LDEuMDUyLDUuNTE3LDMuMjMxYzIuNzg3LDMuOTE0LDYuNDU4LDcuMTg5LDkuNiwxMC44NjcmIzEwOyYjOTsmIzk7JiM5O2MwLjYxOSwwLjcyNCwyLjY1LDIuMjM1LTAuMTksMy4wNDhjLTAuOTA5LDAuOTI5LTIuMTQsMS4wNzQtMy4yMzIsMC44MjdjLTQuMTk4LTAuOTUxLTguMjY5LDAuMjE5LTEyLjM4OSwwLjUzMyYjMTA7JiM5OyYjOTsmIzk7Yy0xLjUxNC0zLjMyLTUuNTIyLTQuMDU5LTcuMjg5LTcuMjQxYy0yLjgxOC01LjA3Ni03LjYyNC04LjI1OC0xMS45MzYtMTEuOTMyYy0zLjg4Mi0zLjMwOC03LjIyNy03LjE3OC05LjczNC0xMS42OTYmIzEwOyYjOTsmIzk7JiM5O2MtMC44NTQtMS41NC0yLjQ3NC0xLjUxNi0zLjk1Ni0xLjcxM2MyLjI2NS00LjA1NCw0LjUzLTguMTA5LDcuMDI0LTEyLjU3M2M1LjIzMyw5LjEwMSwxMC4yMDksMTcuNTkzLDE0Ljk5MSwyNi4xOTQmIzEwOyYjOTsmIzk7JiM5O2MxLjEyMSwyLjAxNywyLjIzMSwyLjU4Miw0LjM4MSwxLjgxQzM3Ni4yOCw4OC4yMjksMzc4LjY3Myw4Ny41NzMsMzgxLjE4NSw4Ny43MDR6IiBjbGFzcz0ic3QxMiIvPiYjeGE7CQk8cGF0aCBkPSJNNDguNjk0LDIyOC4wNjljMi43NDMsMy45NjcsNi45OTEsNi40NjQsOS45MDUsMTAuMzE0YzMuNTcsNC43MTcsOC45MDIsNy41NDMsMTMuMjE1LDExLjQ5NSYjMTA7JiM5OyYjOTsmIzk7YzIuMjA5LDIuMDI0LDMuOTA3LDMuOTgzLDMuNjA2LDcuMTI3Yy0wLjczOSwwLjk1NS0xLjgxOSwxLjAzNC0yLjg3OCwxLjAzYy00LjgyNC0wLjAxNS05LjY1MiwwLjI0Ni0xNC40NjctMC4xNDQmIzEwOyYjOTsmIzk7JiM5O2MtMy4zODQtMS43MDktNC4zNTktNS41NjktNy4xMDEtNy45NTVjLTIuNTIyLTIuMTk1LTQuNzMyLTQuNzUyLTcuNjgtNi40MzZjLTEuMDkxLTAuNjIzLTEuODYtMS4zODQtMS44NjktMi43MTImIzEwOyYjOTsmIzk7JiM5O0M0My41NjgsMjM2LjM4OSw0Ni4wMjUsMjMyLjE2OSw0OC42OTQsMjI4LjA2OXoiIGNsYXNzPSJzdDEzIi8+JiN4YTsJCTxwYXRoIGQ9Ik0zMzQuNjA4LDEzMC4xODVjMC4xNDQtMi44MzYtMC41ODEtNC43MTItMy4zNjQtNi41MzdjLTIuMDgzLTEuMzY1LTQuNTQyLTMuMjk5LTUuNzcxLTUuOTY2JiMxMDsmIzk7JiM5OyYjOTtjLTAuNDIxLTAuOTEzLTAuNjQxLTIuMDkyLTEuOTY0LTIuMjU2YzMuNDIxLTUuOTMxLDYuODQyLTExLjg2MiwxMC4yNjMtMTcuNzkzYzIuMzMxLTAuNDEzLDMuNzExLDEuMzI4LDUuMDgzLDIuNTg1JiMxMDsmIzk7JiM5OyYjOTtjMy4xNjUsMi44OTgsNS40MzgsNi41NCw3LjU3MywxMC4yNWMtMi4yNTUsNy4wNDgtNy4wMTksMTIuNzQ0LTEwLjM4MiwxOS4xOTdDMzM1Ljc4NywxMzAuMTYyLDMzNS4yOTgsMTMwLjU5OCwzMzQuNjA4LDEzMC4xODV6IiBjbGFzcz0ic3QxNCIvPiYjeGE7CQk8cGF0aCBkPSJNNzIuNzUxLDE4Ni4yNTRjMy41MjctNi4xMzksNy4wNTQtMTIuMjc5LDEwLjU4MS0xOC40MThjMC42NzctMC41OTMsMS4zNzMtMC4zNzUsMS44ODMsMC4xNDYmIzEwOyYjOTsmIzk7JiM5O2MzLjUxMywzLjU5Niw3LjExNyw3LjEwOSwxMC4yNTMsMTEuMDUzYzAuNTA5LDAuNjQxLDAuODkxLDEuMzgzLDAuOTU5LDIuMjM4Yy0yLjYzMSw2LjE4OS01LjU3OCwxMi4xOTUtMTAuMTU1LDE3LjI0MSYjMTA7JiM5OyYjOTsmIzk7Yy0zLjc2OC0yLjUtNy41NC01LjAzNS05Ljk2Ni04Ljk4M0M3NS4zOTYsMTg4LjA1MSw3My44NDMsMTg3LjQ0LDcyLjc1MSwxODYuMjU0eiIgY2xhc3M9InN0MTUiLz4mI3hhOwkJPHBhdGggZD0iTTQ0Mi4xNjUsMTI5LjU2NGMtMi42NDEtMS00LjE2NC0zLjQzNi01Ljg1OS01LjMzN2MtMi43MjItMy4wNTMtNS45NDItNS41My04LjY5MS04LjUyNiYjMTA7JiM5OyYjOTsmIzk7Yy0zLjEzOC0zLjQyLTYuNzI1LTYuNDIzLTkuOTY1LTkuNzU1Yy0zLjg1NS0zLjk2NC03LjU3OS04LjA1OS0xMS4yODMtMTIuMTY2Yy0wLjYtMC42NjYtMS4yMTktMS4xMDYtMi4wMjUtMS4yMzYmIzEwOyYjOTsmIzk7JiM5O2MtMi4zMTItMC4zNzItMi42NTEtMS45MjYtMi40MjktMy44NjFDNDIzLjI1Nyw5NC41MDIsNDM2LjY1MywxMDguMTUsNDQyLjE2NSwxMjkuNTY0eiIgY2xhc3M9InN0MTYiLz4mI3hhOwkJPHBhdGggZD0iTTI2NS4xNTUsNDQuNTgyYy0xLjYzNSwwLjIzMi0yLjY5OC0wLjc1NS0zLjU0My0xLjg4Yy00LjI2MS01LjY3Ny0xMC4zMDUtOS42NjItMTQuNDQtMTUuNTA4JiMxMDsmIzk7JiM5OyYjOTtjLTIuMTE4LTIuOTk0LTUuNzIxLTQuNjc4LTguNzE3LTYuNjkzYy0yLjY4LTEuODAyLTIuNTkyLTUuNzQ4LTYuMDMzLTYuNDg1YzIuNDE3LTQuMjgyLDQuODM0LTguNTY1LDcuNTg5LTEzLjQ0NSYjMTA7JiM5OyYjOTsmIzk7QzI0OC42MTYsMTUuNjMyLDI1Ni44ODYsMzAuMTA3LDI2NS4xNTUsNDQuNTgyeiIgY2xhc3M9InN0NSIvPiYjeGE7CQk8cGF0aCBkPSJNOTUuOTM2LDE4MS4xODRjLTMuNjMzLTQuOTg2LTcuODktOS4zODMtMTIuNjA0LTEzLjM0OGMzLjExOC01LjQyOSw2LjIzNi0xMC44NTgsOS4zNTQtMTYuMjg3JiMxMDsmIzk7JiM5OyYjOTtjMS4yMzktMS4wNDIsMi40NDEtMC42OCwzLjQ2LDAuMjYzYzQuMDQ2LDMuNzQ4LDcuMDY3LDguMjU4LDkuNTcsMTMuMTQyYy0xLjgyOCw1LjYxMS01LjI4MSwxMC4zNzItOC4xMzMsMTUuNDQ3JiMxMDsmIzk7JiM5OyYjOTtDOTcuMjcsMTgwLjk1OCw5Ni44MjYsMTgxLjY0OCw5NS45MzYsMTgxLjE4NHoiIGNsYXNzPSJzdDE3Ii8+JiN4YTsJCTxwYXRoIGQ9Ik0xNzIuNDcyLDE1NS43OTZjLTIuNzA0LTAuMjc0LTQuNC0yLjIxNi01Ljc4NS00LjEyMWMtMi40NTQtMy4zNzYtNi4zMjYtNC45OC05LjA4Mi03LjkxNyYjMTA7JiM5OyYjOTsmIzk7YzIuNjU0LTUuMDc1LDUuMzM3LTEwLjEzNCw4LjU1OS0xNC44ODJjMC42NDEtMC41NzYsMS4zOTQtMC40NjYsMS44OTcsMC4wMjdjNC4yNzEsNC4xODQsOS41OCw3LjIyNiwxMy4yNjMsMTIuMDU2JiMxMDsmIzk7JiM5OyYjOTtjLTAuMjU0LDMuOTY1LTMuMDI4LDYuNzM5LTQuODIzLDkuOTU0QzE3NS40ODQsMTUyLjczMywxNzQuOTk3LDE1NS4xNTgsMTcyLjQ3MiwxNTUuNzk2eiIgY2xhc3M9InN0MiIvPiYjeGE7CQk8cGF0aCBkPSJNNDI0LjQ5NywxMjkuNjAzYzMuNjE5LDIuMDk5LDcuNDM3LDQuMjI0LDkuNzEyLDcuNjkxYzEuNzgxLDIuNzE0LDMuODI3LDUuMTAyLDYuMzQxLDYuNzk1JiMxMDsmIzk7JiM5OyYjOTtjMS45OSwxLjM0LDIuNjU5LDIuNjcxLDIuNTE4LDQuNzljLTAuMzgzLDUuNDQyLTEuNjk4LDEwLjYyNC00LjMxMywxNS40NDJjLTIuMzItMC40MjItMi43MDEtMi43NS00LjA2Ny00LjEwNiYjMTA7JiM5OyYjOTsmIzk7Yy0yLjQwMy0yLjM4NS00LjUzNi01LjA1Ni03LjM5OS02Ljk2OGMtMS4xNTctMC43NzMtMi4zNDEtMS42MjItMi41NTItMy4yMDNjMC4xNTYtNS45NDUsMC44MDItMTEuOTAxLTAuNjY0LTE3Ljc4NiYjMTA7JiM5OyYjOTsmIzk7QzQyMy44NDYsMTMxLjM0OSw0MjMuODAxLDEzMC4zOTksNDI0LjQ5NywxMjkuNjAzeiIgY2xhc3M9InN0MTgiLz4mI3hhOwkJPHBhdGggZD0iTTE4MS4wNjYsMTQwLjk1MWMtNC4xMDQtMy40ODItOC4yMTctNi45NTUtMTIuMzA2LTEwLjQ1NmMtMC43OTItMC42NzgtMS4zOTgtMS42MS0yLjU5Ni0xLjYxOSYjMTA7JiM5OyYjOTsmIzk7YzIuNzM4LTQuNzQ3LDUuNDc2LTkuNDk1LDguMjE0LTE0LjI0MmMxLjU4LTEuMDc1LDIuODI1LTAuNDc0LDQuMDQzLDAuNzE0YzIuMDkzLDIuMDQxLDQuMzg5LDMuOSw1LjgyMyw2LjUxOSYjMTA7JiM5OyYjOTsmIzk7YzEuMiwyLjE5MSwzLjA2OSwzLjc0OSw0LjkwNyw1LjM0NWMwLjM1NSwxLjExMi0wLjAzNCwyLjEwMS0wLjU4LDMuMDI0Yy0xLjczNiwyLjkzOS0zLjQ3LDUuODc5LTUuMTY4LDguODQxJiMxMDsmIzk7JiM5OyYjOTtDMTgyLjksMTM5Ljk1MywxODIuMzY5LDE0MC45ODQsMTgxLjA2NiwxNDAuOTUxeiIgY2xhc3M9InN0MTkiLz4mI3hhOwkJPHBhdGggZD0iTTE4MS41MywxMDIuMzM4YzIuNDgyLTQuMzU5LDQuOTYzLTguNzE4LDcuNDQ1LTEzLjA3OGMyLjIxNywwLjAyMywzLjc2NCwxLjY0Nyw0Ljk2MiwyLjk2MSYjMTA7JiM5OyYjOTsmIzk7YzIuODMzLDMuMTA5LDUuODc5LDUuOTgzLDguODI5LDguOTYzYzAuNDE1LDAuNDE5LDAuNjE3LDAuOTg3LDAuNzEyLDEuNThjLTIuMTc1LDUuNDg0LTQuNDUsMTAuOTEtOS4wMDYsMTQuOTY0JiMxMDsmIzk7JiM5OyYjOTtjLTEuNDM2LTAuNjkxLTIuMzk1LTEuODY2LTMuMjIxLTMuMTc5Yy0xLjc2Ny0yLjgxLTMuNzQ0LTUuMzMxLTYuNzQ3LTcuMDZDMTgyLjczMywxMDYuNDcxLDE4MS4wMzQsMTA0LjkwNiwxODEuNTMsMTAyLjMzOHoiIGNsYXNzPSJzdDIwIi8+JiN4YTsJCTxwYXRoIGQ9Ik02OS43NjksMjI2LjY1N2MtNC4xNDgtMy4xMzctNy4wOTQtNy41ODYtMTEuNDYxLTEwLjQ5Yy0wLjY5NS0wLjQ2Mi0xLjM1Mi0wLjkwNS0yLjIwNS0wLjk1MSYjMTA7JiM5OyYjOTsmIzk7YzIuODQ0LTQuOTU5LDUuNjg4LTkuOTE3LDguNTMyLTE0Ljg3NmMyLjA2OC0wLjM4LDMuNzk5LDAuNzEzLDQuOTk2LDEuOTY1YzIuNTg4LDIuNzA3LDUuMzUsNS4xODQsOC4yMDMsNy41ODcmIzEwOyYjOTsmIzk7JiM5O2MwLjUzNSwwLjQ1LDAuODU0LDEuMTEsMC45ODIsMS44MjdDNzYuODI5LDIxNy4zMTgsNzQuMjg2LDIyMi41ODYsNjkuNzY5LDIyNi42NTd6IiBjbGFzcz0ic3QyMSIvPiYjeGE7CQk8cGF0aCBkPSJNMjAzLjAwMiwxMDIuODc2Yy00LjU1LTQuNjY4LTguODU0LTkuNTktMTQuMDI4LTEzLjYxNWMyLjU5Ny00LjUwMSw1LjE5NS05LjAwMiw3Ljc5Mi0xMy41MDImIzEwOyYjOTsmIzk7JiM5O2MzLjI3MSwwLjM1LDUuOTU2LDEuNzU1LDcuMzE1LDQuODI2YzEuMTUsMi42LDIuNTg3LDQuNjA3LDUuNTM0LDUuMjk0YzEuMTYyLDAuMjcxLDEuOTc3LDEuMjAzLDIuMjMyLDIuNDcyJiMxMDsmIzk7JiM5OyYjOTtjLTEuMzIsNS4zMzUtNC44NzQsOS40NzItNy41ODEsMTQuMDYyQzIwNC4wMjgsMTAyLjgxNywyMDMuNDg3LDEwMi44ODcsMjAzLjAwMiwxMDIuODc2eiIgY2xhc3M9InN0MjIiLz4mI3hhOwkJPHBhdGggZD0iTTIyNC4yMzgsMjguMjkyYzQuMDU4LTAuNjY5LDUuOTcsMi43Myw3LjY5OCw1LjAzN2MyLjA3NSwyLjc3MSw0LjgyOCw1LjA1LDYuMzc0LDguMjE5JiMxMDsmIzk7JiM5OyYjOTtjLTAuNzA1LDUuMDYxLTMuMzkxLDkuMDU3LTYuODAzLDEyLjY2NmMtMS4xNTcsMC4zMjMtMi4yMDMtMC4wNzUtMi44NjYtMC45MjRjLTMuNTQyLTQuNTQxLTcuNjUzLTguNTc2LTExLjM3OC0xMi45NTImIzEwOyYjOTsmIzk7JiM5O0MyMTkuNTg4LDM2LjMyMiwyMjEuOTEzLDMyLjMwNywyMjQuMjM4LDI4LjI5MnoiIGNsYXNzPSJzdDIzIi8+JiN4YTsJCTxwYXRoIGQ9Ik03OC4yOSwyMTEuODMxYy00LjUyMS0zLjg2Ny04LjEwNy04Ljg0NS0xMy42NTQtMTEuNDkyYzIuNzA1LTQuNjk1LDUuNDEtOS4zOSw4LjExNS0xNC4wODUmIzEwOyYjOTsmIzk7JiM5O2MxLjExMS0wLjA4NywyLjQ1LDAuMTE1LDIuODczLDAuOTg2YzIuMzM3LDQuODEsNy4zOTksNi45ODUsMTAuNDM0LDExLjA4NEM4NC41NDYsMjAzLjQ0Niw4Mi44MTUsMjA4LjQ0Miw3OC4yOSwyMTEuODMxeiIgY2xhc3M9InN0MjQiLz4mI3hhOwkJPHBhdGggZD0iTTIxMS4zODUsODguNDI5Yy00LjMxNy0yLjIyNy03LjQ5NS01LjQzOC05LjgzNy05Ljc5OGMtMC42NC0xLjE5MS0zLjMwNC0xLjYyNy00Ljc4MS0yLjg3MyYjMTA7JiM5OyYjOTsmIzk7YzIuMTk5LTMuODEyLDQuMzk4LTcuNjIzLDYuNTk2LTExLjQzNWMxLjAwMS0wLjY1OSwyLjEzNi0wLjczMSwyLjkxMywwLjExNGMzLjkzLDQuMjc1LDguODE2LDcuNjYsMTEuODg5LDEyLjczNSYjMTA7JiM5OyYjOTsmIzk7QzIxNi44NzksODEuNTA5LDIxNS4yOTQsODUuNjcsMjExLjM4NSw4OC40Mjl6IiBjbGFzcz0ic3QyNSIvPiYjeGE7CQk8cGF0aCBkPSJNMjE3LjI2Myw0MC4zMzdjNC4zOCwyLjYzMiw3LjMyNCw2LjY4NCwxMC4zOTYsMTAuNTk1YzEuMDE3LDEuMjk1LDEuODQ2LDIuNzM5LDMuNzE2LDIuOTAxJiMxMDsmIzk7JiM5OyYjOTtjLTAuNDg2LDQuNzA4LTMuMTI4LDguMjQ0LTYuMjU3LDExLjUxN2MtNi4xMzMtMy4xMzktMTEuMjczLTcuMzI1LTE0LjM1My0xMy42NzRDMjEyLjYzOCw0Ny43MjgsMjE0Ljg1OSw0My45OCwyMTcuMjYzLDQwLjMzN3oiIGNsYXNzPSJzdDI2Ii8+JiN4YTsJCTxwYXRoIGQ9Ik0yMTAuNzY2LDUxLjY3NmM0LjA1Myw1LjE1Myw4Ljk0NSw5LjQyNSwxNC4wOSwxMy40MzJjLTAuOTEsNC44NTItMy4wMzIsOS4wMDItNy4wMDQsMTIuMDc4JiMxMDsmIzk7JiM5OyYjOTtjLTMuNzA3LTMuNzgxLTcuNDUyLTcuNTI1LTExLjA5Ny0xMS4zNjVjLTAuOTc5LTEuMDMyLTIuMDM5LTEuNS0zLjM5MS0xLjQ5N0MyMDUuNzcsNjAuMDcyLDIwNy44OTgsNTUuNjU3LDIxMC43NjYsNTEuNjc2eiIgY2xhc3M9InN0MjciLz4mI3hhOwkJPHBhdGggZD0iTTE4MS41MywxMDIuMzM4YzEuMTExLDIuNTQzLDIuNjM4LDQuNTkyLDUuNDM5LDUuNTg0YzEuNDU5LDAuNTE3LDIuMTU3LDIuMDY0LDMuMDA3LDMuMzMzJiMxMDsmIzk7JiM5OyYjOTtjMS40NjksMi4xOTMsMy4wMTQsNC4zMzYsNC41MjcsNi41Yy0wLjU0MSw0LjA2NS0yLjE5OCw3LjQ3OC01LjcyNCw5Ljc5OGMtMS44OTUtMC44MzEtMy4zOTctMS44MTQtNC40MTUtMy45MzImIzEwOyYjOTsmIzk7JiM5O2MtMS41NzEtMy4yNjgtNC40ODktNS42MjctNy4wMTktOC4yMThjLTAuODk3LTAuOTE5LTEuOTY1LTAuNTc3LTIuOTY2LTAuNzdDMTc2LjU3LDExMC40MjMsMTc4LjgxOSwxMDYuMjQ2LDE4MS41MywxMDIuMzM4eiIgY2xhc3M9InN0MjgiLz4mI3hhOwkJPHBhdGggZD0iTTQyNS40MjIsMTUwLjgzNGM1LjQxOSwzLjUzMiw5Ljc3NSw4LjExNSwxMy4zMzMsMTMuNDg4Yy0xLjM3OCwzLjk2LTMuNDU3LDcuNTEtNi4yMjMsMTAuNjU5JiMxMDsmIzk7JiM5OyYjOTtjLTQuMTA2LTQuMDQ4LTguMjExLTguMDk3LTEyLjMxNy0xMi4xNDVDNDIxLjE5MiwxNTguNTA2LDQyMi44NDEsMTU0LjQ2OCw0MjUuNDIyLDE1MC44MzR6IiBjbGFzcz0ic3QyOSIvPiYjeGE7CQk8cGF0aCBkPSJNMzQ1Ljk3NiwxMTAuNDg5Yy00LjA0OC00LjMwNS02LjM1Ni0xMC4yNjEtMTIuMjA1LTEyLjg1NWMxLjkyOS0zLjg5Niw0LjA1OC03LjY3Nyw2LjUyNC0xMS4yNjImIzEwOyYjOTsmIzk7JiM5O2M0LjQyNywzLjc4MSw5LjQ5NSw2Ljg3OSwxMi43MjYsMTEuOTM1YzAuMTQ2LDQuMTMyLTMuMTQ4LDYuNjg3LTQuNjU5LDEwLjA2MUMzNDcuOTM5LDEwOS4zMTEsMzQ3LjUwNCwxMTAuNjE5LDM0NS45NzYsMTEwLjQ4OXoiIGNsYXNzPSJzdDMwIi8+JiN4YTsJCTxwYXRoIGQ9Ik00MS40MjUsMjQwLjc4OWMxLjg3MiwyLjMwMyw0Ljc1OCwzLjI0LDYuODc4LDUuMzgxYzMuMzA4LDMuMzQyLDYuOTQ2LDYuMjkxLDguNzA2LDEwLjgzNiYjMTA7JiM5OyYjOTsmIzk7Yy0yLjMzLDEuNzY1LTQuNywxLjE2NS03LjA3NywwLjExN2MtNS45NTgtMC4wMjMtMTEuOTE2LTAuMDQ2LTE3Ljg3NS0wLjA2OUMzNC44OSwyNTEuNDY2LDM4LjAxOSwyNDYuMDQ4LDQxLjQyNSwyNDAuNzg5eiIgY2xhc3M9InN0MzEiLz4mI3hhOwkJPHBhdGggZD0iTTEwNS4xODEsMTY1LjAzMmMtMy4yMTEtMy45MjQtNS4yMDctOC43MzEtOS4wMjEtMTIuMjM2Yy0xLjA3LTAuOTgzLTIuMTI5LTEuMzUtMy40NzQtMS4yNDcmIzEwOyYjOTsmIzk7JiM5O2MxLjk4NC0zLjU4OSwzLjcxNC03LjMyNiw2LjE4NS0xMC42MzJjMS40MTMtMC45MzUsMi42OTgtMC4xNjQsMy40MDYsMC43OTZjMi4zNDUsMy4xNzgsNS44MjIsNS4wMjIsOC41ODUsNy42ODcmIzEwOyYjOTsmIzk7JiM5O2MwLjg0NywwLjgxNywxLjcxMiwxLjYxMiwxLjk1MiwyLjg0M0MxMTEuMzM0LDE1Ny4xMzksMTA5LjM1NiwxNjEuNzQyLDEwNS4xODEsMTY1LjAzMnoiIGNsYXNzPSJzdDMyIi8+JiN4YTsJCTxwYXRoIGQ9Ik0xMTIuMzcxLDE1Mi41MDRjLTEuNTI1LTIuMjI5LTMuMzc4LTQuMDg3LTUuODIxLTUuMzI0Yy0xLjUwMy0wLjc2MS0yLjYyNy0xLjk3Ny0zLjQ3MS0zLjQwNSYjMTA7JiM5OyYjOTsmIzk7Yy0wLjk2OS0xLjY0LTIuMzcxLTIuNTQ2LTQuMjA4LTIuODU5YzEuNjM4LTMuNDQ5LDMuNTQtNi43NDYsNS42ODUtOS45MDVjMy43MjcsNC44MzIsOC4yOTksOC44MzIsMTIuNzUxLDEyLjk0OSYjMTA7JiM5OyYjOTsmIzk7QzExNy4yNTMsMTQ3LjcyOSwxMTUuNTE0LDE1MC41MjIsMTEyLjM3MSwxNTIuNTA0eiIgY2xhc3M9InN0MzMiLz4mI3hhOwkJPHBhdGggZD0iTTI0OC45ODYsMjU3Ljg3MmMxNS41NDgsMC4wMDMsMzEuMDk2LDAuMDA2LDQ2LjY0NSwwLjAwOGMzLjE2OSw2Ljg1Miw3LjM1NSwxMy4xMzQsMTEuMTE2LDE5LjY0OSYjMTA7JiM5OyYjOTsmIzk7YzkuMzYzLDE2LjIyLDE4Ljg1NCwzMi4zNjYsMjguMzc4LDQ4LjQ5MmMxLjA1NiwxLjc4OCwwLjQ3MiwzLjA2Mi0wLjM3OSw0LjUzMmMtNy4zMiwxMi42NC0xNC42MjksMjUuMjg2LTIxLjkzMSwzNy45MzcmIzEwOyYjOTsmIzk7JiM5O2MtMTIuMDcxLDIwLjkxNS0yNC4xMzIsNDEuODM2LTM2LjIwMSw2Mi43NTFjLTUuNjQ1LDkuNzgzLTExLjMwMSwxOS41NjEtMTcuMjc0LDI5Ljg5OGMtMi40NDktNC4xMjEtNC43MjYtNy44NTktNi45MTQtMTEuNjQ4JiMxMDsmIzk7JiM5OyYjOTtjLTE4LjQ5Ny0zMi4wMzUtMzYuOTYtNjQuMDktNTUuNTA5LTk2LjA5NmMtMS4xMy0xLjk1LTAuODctMy4zMjQsMC4xODMtNS4xNDRjMTcuMjgxLTI5Ljg3NSwzNC40OTUtNTkuNzg4LDUxLjcxNi04OS42OTcmIzEwOyYjOTsmIzk7JiM5O0MyNDguOTI5LDI1OC4zNiwyNDguOTMyLDI1OC4xMDEsMjQ4Ljk4NiwyNTcuODcyeiIgY2xhc3M9InN0MCIvPiYjeGE7CQk8cGF0aCBkPSJNMTE4LjYyNiwyNTcuODE0YzguODIzLDE1LjAzNywxNy42MzgsMzAuMDc5LDI2LjQ3LDQ1LjExYzkuMjUsMTUuNzQzLDE4LjQ1LDMxLjUxNiwyNy44NDEsNDcuMTc1JiMxMDsmIzk7JiM5OyYjOTtjMS41MTYsMi41MjcsMC44MTcsNC4xNS0wLjQ2Myw2LjM0MWMtOS4wOTEsMTUuNTYyLTE4LjA0NywzMS4yMDMtMjcuMDQ2LDQ2LjgxOWMtMC4xNzYsMC4zMDYtMC4zNTQsMC42MTEtMC43ODIsMS4zNTEmIzEwOyYjOTsmIzk7JiM5O2MtNC45MjUtNy42NTQtOS41NTYtMTQuODQ1LTE0LjE4Mi0yMi4wNGMtMjMuODkxLTM3LjE2Mi00Ny43ODktNzQuMzE5LTcxLjY1OS0xMTEuNDk1Yy0yLjc5OC00LjM1OC01LjQzOC04LjgxOC04LjE1MS0xMy4yMyYjMTA7JiM5OyYjOTsmIzk7YzEuMDc0LTAuNzMyLDIuMjg3LTAuMzc2LDMuNDMxLTAuMzc5YzEwLjExLTAuMDMxLDIwLjIyLTAuMTA1LDMwLjMyOSwwLjAwN2M5Ljg1OSwwLjEwOSwxOS42OC0xLjE4OSwyOS41NDMtMC42NzUmIzEwOyYjOTsmIzk7JiM5O0MxMTUuNTYxLDI1Ni44ODIsMTE3LjI5MSwyNTYuNDYsMTE4LjYyNiwyNTcuODE0eiIgY2xhc3M9InN0MCIvPiYjeGE7CQk8cGF0aCBkPSJNMzk4LjM3OCwyNTcuNzk5YzE1LjExMi0wLjAwOCwzMC4yMjQtMC4wMTYsNDUuMzM2LTAuMDI0Yy0yLjQyLDUuNjUtNi4xNDEsMTAuNTM4LTkuMzY2LDE1LjcwMSYjMTA7JiM5OyYjOTsmIzk7Yy0xOC4yMDcsMjkuMTU3LTM2LjU1NCw1OC4yMjctNTQuODU3LDg3LjMyNGMtMC41NjIsMC44OTMtMS4xNzMsMS43NTUtMi4wMzgsMy4wNDZjLTQuNTIzLTcuODE2LTguOS0xNS4zODItMTMuMjgtMjIuOTQ2JiMxMDsmIzk7JiM5OyYjOTtjLTEuNzY5LTMuMDU2LTMuNTUxLTYuMTA1LTUuMzEtOS4xNjdjLTAuNzIxLTEuMjU1LTEuMTY3LTIuNDM2LTAuMzA1LTMuOTQ5YzEzLjExMi0yMy4wMTQsMjYuMTcyLTQ2LjA1OCwzOS4yNDctNjkuMDkzJiMxMDsmIzk7JiM5OyYjOTtDMzk3Ljk3OSwyNTguMzgzLDM5OC4xODYsMjU4LjA5NSwzOTguMzc4LDI1Ny43OTl6IiBjbGFzcz0ic3QwIi8+JiN4YTsJCTxwYXRoIGQ9Ik0yMjguMzc4LDI1Ny44MzdjLTguOTUsMTUuOTE1LTE3Ljg5MSwzMS44MzYtMjYuODU1LDQ3Ljc0NGMtNC40NTMsNy45MDMtOC45NDUsMTUuNzg1LTEzLjQyOSwyMy42NzEmIzEwOyYjOTsmIzk7JiM5O2MtMC43NTEsMS4zMi0xLjU1MywyLjYxLTIuNTY3LDQuMzA5Yy0xNC44NjctMjUuNDU5LTI5LjUzMS01MC41NjktNDQuMTk1LTc1LjY3OGMxLjE3OC0xLjM1NSwyLjc5Ny0xLjA3Miw0LjI4OS0xLjA3NCYjMTA7JiM5OyYjOTsmIzk7YzI2LjE0OC0wLjAzLDUyLjI5NS0wLjAyOCw3OC40NDMtMC4wMDFDMjI1LjU2LDI1Ni44MDksMjI3LjE3MSwyNTYuNTM2LDIyOC4zNzgsMjU3LjgzN3oiIGNsYXNzPSJzdDAiLz4mI3hhOwkJPHBhdGggZD0iTTMxNi4yOTgsMjU3Ljg5YzE0LjI2NS0wLjA2NCwyOC41My0wLjE0Myw0Mi43OTUtMC4xODZjNS4zMDUtMC4wMTYsMTAuNjExLDAuMDUyLDE1LjkxNiwwLjA4MSYjMTA7JiM5OyYjOTsmIzk7Yy0zLjM1OSw3LjY0NS03Ljg0MiwxNC42OS0xMS43ODEsMjIuMDI1Yy00Ljk0OSw5LjIxNi0xMC4wNzUsMTguMzM2LTE1LjEzOCwyNy40OTFjLTAuMzg1LDAuNjk2LTAuNTExLDEuNzY0LTEuNDA4LDEuODkmIzEwOyYjOTsmIzk7JiM5O2MtMS4yMjcsMC4xNzMtMS4zNTgtMS4wOTctMS43OTQtMS44NUMzMzUuMzQ2LDI5MC44NjQsMzI1LjgyNCwyNzQuMzc2LDMxNi4yOTgsMjU3Ljg5eiIgY2xhc3M9InN0MCIvPiYjeGE7CQk8cGF0aCBkPSJNMjI4LjM3OCwyNTcuODM3Yy0yMy41OTMtMC4wNC00Ny4xODUtMC4wOTItNzAuNzc4LTAuMTEyYy01LjQyMy0wLjAwNS0xMC44NDUsMC4xMDItMTYuMjY4LDAuMTU3JiMxMDsmIzk7JiM5OyYjOTtjLTQuOTY4LTAuMDk1LTkuOTM2LTAuMTktMTQuOTA1LTAuMjg1Yy0wLjA4Ny0wLjQ3NCwwLjA4Ny0wLjgxNSwwLjUyLTEuMDI2YzIuMjc2LTAuOTEsNC42NzQtMC4yOTEsNy4wMDMtMC41NzQmIzEwOyYjOTsmIzk7JiM5O2M3LjE3Ni0wLjAxMSwxNC4zNTEtMC4xMjEsMjEuNTI2LDAuMDQxYzcuNTMxLTAuMTM2LDE1LjA2Mi0wLjE0NiwyMi41OTItMC4wMDNjNy4wNy0wLjEyNiwxNC4xMzktMC4xNDUsMjEuMjA5LDAuMDEzJiMxMDsmIzk7JiM5OyYjOTtjNC45OTktMC4xMzYsOS45OTgtMC4xNDIsMTQuOTk4LTAuMDAyYzQuOTM0LTAuMTg0LDkuODY5LTAuMDkzLDE0LjgwMi0wLjA2OGMxLjUwNiwwLjAwNywzLjA5NC0wLjEyMSw0LjI4OCwxLjEzOSYjMTA7JiM5OyYjOTsmIzk7Yy0wLjAwMywwLjE1OS0wLjAwMiwwLjMxNywwLjAwMiwwLjQ3NkMyMzEuNzA1LDI1Ny42NzMsMjMwLjA0MSwyNTcuNzU1LDIyOC4zNzgsMjU3LjgzN3oiIGNsYXNzPSJzdDI1Ii8+JiN4YTsJCTxwYXRoIGQ9Ik0xMjYuNDI2LDI1Ny4xMmMtMC4wMDMsMC4xNTktMC4wMDMsMC4zMTgsMC4wMDEsMC40NzdjLTIuNjAxLDAuMDcyLTUuMjAxLDAuMTQ0LTcuODAyLDAuMjE3JiMxMDsmIzk7JiM5OyYjOTtjLTIyLjY1OCwwLjAxLTQ1LjMxNSwwLjAyMS02Ny45NzMsMC4wMzFjLTAuMjQxLTAuMDg5LTAuNDgxLTAuMTc5LTAuNzIyLTAuMjY4Yy0wLjAwMS0wLjE1Mi0wLjAwMS0wLjMwMywwLTAuNDU0JiMxMDsmIzk7JiM5OyYjOTtjMi4zNTktMC4wMzgsNC43MTgtMC4wNzcsNy4wNzctMC4xMTZjNi4xMzcsMCwxMi4yNzUsMCwxOC40MTIsMGM2Ljg0NSwwLDEzLjY5LDAuMDAxLDIwLjUzNCwwLjAwMiYjMTA7JiM5OyYjOTsmIzk7YzIuMzItMS42NDksNC45OC0wLjkyMSw3LjUwNC0xLjAyMWMyLjY4OC0wLjEwNyw1LjM4NC0wLjA2NSw4LjA3NSwwLjA1OWMzLjY0OS0wLjE5Myw3LjI5OS0wLjA4MiwxMC45NDgtMC4wNTcmIzEwOyYjOTsmIzk7JiM5O0MxMjMuODc5LDI1NS45OTgsMTI1LjM0MiwyNTUuOTQzLDEyNi40MjYsMjU3LjEyeiIgY2xhc3M9InN0MzQiLz4mI3hhOwkJPHBhdGggZD0iTTE4OC43NzksMTI3LjU1M2MyLjIzNC0zLjA3Niw0LjAzMi02LjQwNiw1LjcyNC05Ljc5OGMzLjA1OC00LjgzMSw2LjAwOC05LjcyNSw4LjQ5OS0xNC44OCYjMTA7JiM5OyYjOTsmIzk7YzMuMTI3LTQuNjIyLDUuODg4LTkuNDU3LDguMzgzLTE0LjQ0NmMyLjQyNC0zLjU5Myw0LjY1MS03LjMsNi40NjYtMTEuMjQzYzIuNjgxLTMuODI2LDQuODk2LTcuOTIxLDcuMDA0LTEyLjA3OCYjMTA7JiM5OyYjOTsmIzk7YzIuNDYxLTMuNTkyLDQuNjE2LTcuMzYsNi41Mi0xMS4yNzVjMi42NTYtMy45MDEsNC45NTgtOC4wMDEsNi45MzQtMTIuMjg2YzEuMTE5LTEuMzg3LDEuOTg3LTIuMzI2LDMuMTA2LDAuMTkmIzEwOyYjOTsmIzk7JiM5O2MxLjAyMSwyLjI5NywyLjYsNC4zNDYsMy45MzMsNi41MDVjMS41NTIsNC4wMzYsNC4xNDUsNy40OTEsNi4yODYsMTEuMTk2YzUuNjI0LDkuNzMxLDExLjMzMSwxOS40MTQsMTcuMDA1LDI5LjExNyYjMTA7JiM5OyYjOTsmIzk7YzMuODE3LDMuOCw1LjY1OCw4Ljg1OSw4LjQ0MSwxMy4zMTVjMy43MzMsNS45NzcsNi45MTcsMTIuMjc3LDEwLjU4MiwxOC4yOTdjNS4zMzUsOS41NTgsMTEuMDYzLDE4Ljg5MywxNi4yODQsMjguNTE5JiMxMDsmIzk7JiM5OyYjOTtjMC41NjksMi4xNTktMS4wNTMsMy41NzktMS43NzksNS4zMDNjLTIuMTU5LDMuODEzLTQuNDYyLDcuNTQ1LTYuNDg5LDExLjQzNWMtMy4xMTUsNS4zODMtNi4xNTksMTAuODA2LTkuMTc5LDE2LjI0MyYjMTA7JiM5OyYjOTsmIzk7Yy0yLjU0Miw0LjEyMy00LjgxOCw4LjQtNy4yNTgsMTIuNTgyYy0yLjE5Nyw0LjEzOC00LjYwNiw4LjE1Ni02Ljg3MiwxMi4yNTRjLTMuMDA2LDUuNjYzLTYuNDIsMTEuMDk2LTkuNDI2LDE2Ljc2JiMxMDsmIzk7JiM5OyYjOTtjLTMuMDcyLDUuMDE0LTUuNjgxLDEwLjI5MS04LjcyMiwxNS4zM2MtMC40NTUsMC43MDYtMS4wMzIsMS4yNTctMS44NTIsMS41MThjLTUuODU3LDAuNTYzLTExLjcyNSwwLjIzNy0xNy41ODUsMC4yMzkmIzEwOyYjOTsmIzk7JiM5O2MtMTAuOTExLDAuMDA0LTIxLjgyNCwwLjE5MS0zMi43MjgtMC4wOTdjLTEuNzkxLTAuMzA0LTIuODA3LTEuNTY2LTMuNjQyLTMuMDI4Yy00LjkzNi04LjY1LTkuNjctMTcuNDEzLTE0LjYyMi0yNi4wNTQmIzEwOyYjOTsmIzk7JiM5O2MtMC40MTItMC43MTktMC43NzYtMS40NTYtMC40OS0yLjMyNmMtNi4yMjMtMTEuMTc3LTEyLjQ0NC0yMi4zNTQtMTguNjcxLTMzLjUyOGMtMC42NzUtMS4yMTEtMS43MTUtMi4zLTEuMTg2LTMuODc1JiMxMDsmIzk7JiM5OyYjOTtjMy40MTctNC45OCw2LjE5OC0xMC4zMjUsOS4wMjctMTUuNjQ0YzMuMTk2LTQuNzU3LDYuMDE4LTkuNzMsOC41OTQtMTQuODQ1QzE4My45MDMsMTM2LjYzOCwxODYuNTQsMTMyLjIxMSwxODguNzc5LDEyNy41NTN6IiBjbGFzcz0ic3QwIi8+JiN4YTsJCTxwYXRoIGQ9Ik0zNDUuOTc2LDExMC40ODljMi42MjgtMy44OTksNC45Ni03Ljk2OSw3LjA0Ni0xMi4xODJjMS4wOTktMS42NzIsMS44ODItMi4yNTQsMy4wOTMsMC4xMjQmIzEwOyYjOTsmIzk7JiM5O2MxLjc4MiwzLjUwMSwzLjk5LDYuNzg2LDYuMDE2LDEwLjE2M2M0LjczNCw5LjU3MiwxMC42ODksMTguNDQ4LDE1Ljg0NywyNy43NzljMi42MTEsNC43MjQsNS41MDksOS4yOSw4LjI3NywxMy45MjcmIzEwOyYjOTsmIzk7JiM5O2MyLjM0Nyw1Ljc3Myw2LjA2NCwxMC43NzUsOS4xMjcsMTYuMTQzYzcuMjg3LDEyLjc3MSwxNC43NDQsMjUuNDQ1LDIyLjEzMywzOC4xNTdjNi4xNDUsMTAuNzY0LDEyLjI5LDIxLjUyOCwxOC40MzQsMzIuMjkzJiMxMDsmIzk7JiM5OyYjOTtjMC4zOTQsMC42OTEsMC43NzQsMS4zOTEsMS40MzYsMi41ODNjLTIwLjE2LDAtMzkuODU2LDAtNTkuNTUyLDBjLTIuMzA3LTAuODI1LTIuNjE0LTMuMTk2LTMuNzU2LTQuOTEmIzEwOyYjOTsmIzk7JiM5O2MtMS4zNzEtMi4wNTktMi42MDUtNC4yMDctMy44NS02LjM0NmMtMi40MzEtNS43MTQtNi42ODEtMTAuMzc0LTkuMjc3LTE1Ljk5MmMtMC40MTgtMS40LTEuMzExLTIuNTUzLTIuMDA0LTMuODExJiMxMDsmIzk7JiM5OyYjOTtjLTAuMTcyLTAuMjc5LTAuMzIyLTAuNTY4LTAuNDY3LTAuODYxYy0zLjA4My01LjY3OS02LjY3My0xMS4wNjEtOS43NzctMTYuNzI3Yy01LjA4NC04LjgwMS0xMC4wNC0xNy42NzQtMTUuMjgxLTI2LjM4NCYjMTA7JiM5OyYjOTsmIzk7Yy0yLjQ0Ny00LjgyOS01LjQzNi05LjM1LTcuOTkxLTE0LjExOWMtMS4yMDItMi4yNDQtMS41NjQtNC4xOSwwLjg5NS01Ljc4N2MzLjAyNi00LjYzMiw1LjgwNS05LjQwNyw4LjI4NC0xNC4zNTUmIzEwOyYjOTsmIzk7JiM5O0MzMzguNzI4LDEyMy44MSwzNDIuNDAyLDExNy4xNzgsMzQ1Ljk3NiwxMTAuNDg5eiIgY2xhc3M9InN0MCIvPiYjeGE7CQk8cGF0aCBkPSJNMzI2LjMyNCwxNDQuNTM5Yy0xLjQ0NSwyLjE2NC0xLjE1NCw0LjA0LDAuMjczLDYuMjhjMi43NTMsNC4zMjMsNS4wOTIsOC45MDksNy42MDMsMTMuMzg2JiMxMDsmIzk7JiM5OyYjOTtjLTEuMjc2LDEuMTI0LTIuMjMsMC4yMjItMy4wMS0wLjYyNGMtNS43MzYtNi4yMjItMTIuOTc2LTExLjAyMy0xOC4xOTktMTcuNTY4Yy01LjM4Ni02Ljc0OS0xMi41MzEtMTEuNTUtMTcuOTEyLTE4LjE5JiMxMDsmIzk7JiM5OyYjOTtjLTIuMjg4LTIuODIzLTUuMDU1LTUuMjU5LTguMDM0LTcuNGMtNi40MjItMTAuNDU4LTEyLjYxNi0yMS4wNDctMTguNDA2LTMxLjg3YzAuNzgzLTAuMzc2LDEuNDU0LTAuNTQxLDIuMjAzLDAuMjQyJiMxMDsmIzk7JiM5OyYjOTtjNS4zMDksNS41NSwxMC4yODUsMTEuNTAyLDE2LjExMSwxNi40NDljNS4zMDksNC41MDksOS44OSw5LjU3MiwxNC4zNzcsMTQuNzg3YzQuNDEzLDUuMTI4LDkuMTYsMTAuMTI3LDE0LjI2NCwxNC4zMTYmIzEwOyYjOTsmIzk7JiM5O0MzMTkuNDc2LDEzNy41MzQsMzIyLjExNSwxNDEuODU1LDMyNi4zMjQsMTQ0LjUzOXoiIGNsYXNzPSJzdDM1Ii8+JiN4YTsJCTxwYXRoIGQ9Ik0xMTIuMzcxLDE1Mi41MDRjMS45My0yLjY4MywzLjU5LTUuNTIyLDQuOTM1LTguNTQzYzEuNDMyLTIuMjc2LDIuODY1LTQuNTUyLDQuNDYtNy4wODYmIzEwOyYjOTsmIzk7JiM5O2M2LjU2OSwxMS4xNjksMTMuMDMyLDIyLjE1NywxOS40OTQsMzMuMTQ1YzEuMjMyLDEuMzg0LDAuMjkxLDIuNjUtMC4zMDQsMy44NWMtMC45MzIsMS44NzctMi4xNDcsMy42MDMtMy4wNzUsNS40ODYmIzEwOyYjOTsmIzk7JiM5O2MtMS4wOSwxLjY2OC0yLjEyOCwzLjM2OS0yLjk5LDUuMTcyYy0xLjYxOSwyLjQ3My0yLjg5Nyw1LjE0NC00LjQyOSw3LjY2N2MtMi43MzYsNC45NzQtNS43NDksOS43ODctOC40NiwxNC43NzUmIzEwOyYjOTsmIzk7JiM5O2MtMi43NTYsNC40NzItNS4wOTYsOS4xODEtNy43NzQsMTMuN2MtMi42OTksNC44MjMtNS42MDMsOS41MjgtOC4wODUsMTQuNDc5Yy0xLjc5Myw0LjMzMi01LjEyNCw1LjM3OC05LjYwNSw1LjM3NyYjMTA7JiM5OyYjOTsmIzk7Yy0xMC41NDYtMC4wMDMtMjEuMDU1LTEuMTQ1LTMxLjYwMy0wLjgzYy0wLjc0OSwwLjAyMi0xLjY3MywwLjM4NC0yLjIxMi0wLjU2NGMyLjM0OS00LjE1OSw0LjY5Ny04LjMxOCw3LjA0Ni0xMi40NzcmIzEwOyYjOTsmIzk7JiM5O2MzLjE0NS00Ljc2Niw2LjAxMy05LjY5Miw4LjUyLTE0LjgyNWMzLjE1Ny00LjE3Niw1LjEwNi05LjA0OCw3Ljc2OS0xMy41MDhjMy41ODUtNS41NDUsNi44NTUtMTEuMjcsOS44NzgtMTcuMTM5JiMxMDsmIzk7JiM5OyYjOTtjMy40NDctNS4xNzUsNi4zMzktMTAuNjY3LDkuMjQ1LTE2LjE1MkMxMDcuODgzLDE2MS4wMzIsMTEwLjMwOSwxNTYuODcyLDExMi4zNzEsMTUyLjUwNHoiIGNsYXNzPSJzdDAiLz4mI3hhOwkJPHBhdGggZD0iTTEzNy4xMzQsMTc5LjE3OWMxLjA1Mi0zLjE5OSwzLjg5Mi01LjU5Miw0LjEyNy05LjE1OWMxLjE2OS0wLjgzNywxLjczMiwwLjM5MSwyLjI3NSwwLjg2OCYjMTA7JiM5OyYjOTsmIzk7YzUuNzEyLDUuMDE1LDEwLjc5NSwxMC42NSwxNi4wMjgsMTYuMTUzYzYuMTM5LDYuNDU2LDEyLjc1MywxMi40NjMsMTkuMjE4LDE4LjYwNWMxLjMzMywxLjI2NiwxLjc5NiwzLjg3LDQuNTIsMy4xOTcmIzEwOyYjOTsmIzk7JiM5O2M1LjgyMiwxMC4yMDksMTEuNjQ1LDIwLjQxOCwxNy40NjcsMzAuNjI3YzUuODIzLDAuNTk4LDExLjY2MywwLjExNSwxNy40ODcsMC4yNjRjMi43NjksMi4zOCw1LjgzNiw0LjU0OCw4LjI2Myw3LjE3MiYjMTA7JiM5OyYjOTsmIzk7YzIuNTM1LDIuNzQsNC45NjUsNS41NjksNy43NjEsOC4wNjNjMC42MzEsMC41NjIsMS4yMDMsMS4xODgsMC40OTEsMi4wOWMtMC40NjksMC4wMTktMC45MzgsMC4wMzctMS40MDcsMC4wNTYmIzEwOyYjOTsmIzk7JiM5O2MtNi4zNzctMC4wMzQtMTIuNzUzLTAuMDY4LTE5LjEzLTAuMTAxYy0xLjEyNi01LjU3Ni01Ljg1OC04LjI3Mi05LjYyOS0xMS41N2MtNC42NzgtNC4wOTEtOS4zMDItOC4xNC0xMy40MjEtMTIuODQ5JiMxMDsmIzk7JiM5OyYjOTtjLTMuNTI1LTQuMDI5LTcuODc0LTcuMzU0LTExLjU2My0xMS4yNTRjLTUuMzExLTUuNjE2LTEwLjk0Mi0xMC44NjctMTYuNTYxLTE2LjE1NWMtMS41NzgtMS40ODUtMi40MDQtMy43NjktNC44MTYtNC4zNTEmIzEwOyYjOTsmIzk7JiM5O2MtMi4wMTQtMS44Ny0zLjEyNy00LjM0OC00LjM0OC02LjcyMWMtMC42NDktMS4yNjItMS4zNjgtMS43NjUtMi43MDgtMS4zMmMtMy41OTEtMi4xODgtNS44MTEtNS44MDUtOC43OTUtOC42MzEmIzEwOyYjOTsmIzk7JiM5O0MxNDAuNjU0LDE4Mi41MTQsMTM3Ljc4NywxODEuOTU1LDEzNy4xMzQsMTc5LjE3OXoiIGNsYXNzPSJzdDMzIi8+JiN4YTsJCTxwYXRoIGQ9Ik00MjUuNDIyLDE1MC44MzRjLTEuMjkyLDQuMTkzLTIuOTMzLDguMjM1LTUuMjA3LDEyLjAwMmMtMy45ODUsNS4xMzYtMy45NzgsNS4xMzItNy4zMzctMC41OTgmIzEwOyYjOTsmIzk7JiM5O2MtMy42Mi02LjE3NS03LjI1Ni0xMi4zNDEtMTAuODg1LTE4LjUxMWMtNy4xNjctMTIuNTA2LTE0LjMzNS0yNS4wMTEtMjEuNTAyLTM3LjUxN2MyLjg2Ni0yLjYyLDYuNDQtMS42NTYsOS43NTItMS44MjYmIzEwOyYjOTsmIzk7JiM5O2MxLjk0My0wLjEsMy45MTIsMC4yOTQsNS44NjksMC40NjZjOS45MzcsMi42NDMsMTguMzI2LDcuNTk0LDIzLjk2NCwxNi40NDhjMS42NzksMi42MzcsMi45NTgsNS41MjksNC40MjEsOC4zMDUmIzEwOyYjOTsmIzk7JiM5O0M0MjYuMzgzLDEzNi42MTEsNDI2LjkwMiwxNDMuNjc5LDQyNS40MjIsMTUwLjgzNHoiIGNsYXNzPSJzdDAiLz4mI3hhOwkJPHBhdGggZD0iTTM3MS4wMjEsMjI3Ljk0N2MyLjI3MSwzLjg0Myw0LjU0MSw3LjY4Nyw2LjgxMiwxMS41M2MyLjAwOCwxLjI5OCw0LjI3NywwLjI0Niw2LjM3OCwwLjcwOCYjMTA7JiM5OyYjOTsmIzk7YzYuMjI2LDMuMzMzLDEwLjc3Miw4LjU3OCwxNS40NjIsMTMuNjQ4YzAuODU4LDAuOTI4LDEuODYyLDIuMDYxLDAuMTMxLDMuMTkzYy03LjA5MSwwLjAxLTE0LjE4MiwwLjAxOS0yMS4yNzMsMC4wMjkmIzEwOyYjOTsmIzk7JiM5O2MtMi45NjYtMS45MjItNS43NzctMy45NDEtNy42NzItNy4xMDFjLTEuNTUtMi41ODYtNC4yMzktNC4wNDgtNi43Ny01LjU0MWMtMi41NjMtMS41MTEtNS4wMDctMy4xNC02LjY5LTUuNjQmIzEwOyYjOTsmIzk7JiM5O2MtMS4xMS0xLjY1LTIuNzc1LTIuMDU3LTQuNTIzLTIuNDA1Yy0xLjM2MS0wLjY1My0yLjA1Ny0xLjkwOS0yLjc0OS0zLjEzM2MtOC4yMjktMTQuNTUxLTE2LjQxNS0yOS4xMjYtMjQuNjYtNDMuNjY4JiMxMDsmIzk7JiM5OyYjOTtjLTAuNTc5LTEuMDIxLTEuMTk1LTIuMDQyLTEuMTQ2LTMuMjg5YzAuNzA4LTEuOCwxLjkyOS0xLjM1OSwzLjE1Mi0wLjY3OWMwLjczLDAuNDA2LDEuMzIyLDEuMDIxLDEuNzY2LDEuNzE1JiMxMDsmIzk7JiM5OyYjOTtjMy40MDksNS4zMzYsOC45MSw4LjYwNiwxMy4wMzMsMTMuMjNjNy4yOCw4LjE2MywxNS44OTIsMTQuOTk0LDIzLjE0MSwyMy4xODFDMzY3LjAxMywyMjUuNTM0LDM2OS4yODUsMjI2LjM2NiwzNzEuMDIxLDIyNy45NDd6IiBjbGFzcz0ic3QyNSIvPiYjeGE7CQk8cGF0aCBkPSJNMjUzLjc3NywyMzcuOTA4YzIuODA3LTQuOTY3LDUuNjEzLTkuOTM0LDguNDE5LTE0LjkwMWMyLjM3OC0xLjA1OSwzLjk0NiwwLjQ1Nyw1LjU3MywxLjc2MiYjMTA7JiM5OyYjOTsmIzk7YzIuOTk3LDIuNDAzLDUuNDIzLDUuMzk0LDguMjI5LDcuOTkzYzEuMDM5LDIuMzkzLTEuMzYyLDMuNzQyLTEuNzE0LDUuNzAxYzEuNDYzLDEuNTg3LDMuNzQ4LDAuMDkxLDUuMjYxLDEuNDI0JiMxMDsmIzk7JiM5OyYjOTtjMC43NzQsMS4wMzEsMS45MDEsMS42NTYsMi44MzQsMi40NzZjNC4wMDEsMy41MTQsOC4wODIsNi45OTQsMTEuMTg5LDExLjM4MWMwLjYyOSwwLjg4OCwxLjIxNiwyLjAzMSwwLjY3NCwzLjI3OCYjMTA7JiM5OyYjOTsmIzk7Yy03Ljc4NS0wLjAwMS0xNS41NjktMC4wMDMtMjMuMzU0LTAuMDA0Yy0zLjUxMS02LjA0LTguNTM3LTEwLjY5LTEzLjc5Ni0xNS4xNDRDMjU1Ljc3OSwyNDAuNzYsMjU0LjMxMywyMzkuNzAzLDI1My43NzcsMjM3LjkwOHoiIGNsYXNzPSJzdDIiLz4mI3hhOwkJPHBhdGggZD0iTTM1Mi45MjcsMjM1Ljg2OGMyLjEtMC4yMywzLjczNSwwLjEsNS4wMiwyLjIyMmMxLjg2NSwzLjA4LDUuMTMxLDQuNjIzLDguMTM3LDYuNDcxJiMxMDsmIzk7JiM5OyYjOTtjNS4xMTQsMy4xNDMsOC4wMzMsOC41ODUsMTIuNDQ2LDEyLjQ5NWMtOC4wMzEtMC4wMTEtMTYuMDYxLTAuMDIyLTI0LjA5MS0wLjAzNGMtMy4wNDctMi4zNTktNC44NzItNS44NjgtNy45OC04LjI0JiMxMDsmIzk7JiM5OyYjOTtjLTEuOTIxLTEuNDY2LTMuNjA3LTMuMjE0LTUuNzQxLTQuNDc5Yy0xLjY1Ny0wLjk4My0zLjUzMi0yLjI5OS0xLjU2Mi00LjY4YzMuMTcxLTAuOTYyLDYuNDMtMC4yNjgsOS42MzktMC41MDYmIzEwOyYjOTsmIzk7JiM5O2MxLjM1NC0wLjEsMi43NzIsMC4zODgsNC4wMy0wLjQxM0MzNTMuMTc4LDIzNy43NjcsMzUyLjE1MiwyMzYuNzc3LDM1Mi45MjcsMjM1Ljg2OHoiIGNsYXNzPSJzdDM2Ii8+JiN4YTsJCTxwYXRoIGQ9Ik0yOTQuMjQyLDI1Ny4wMjFjLTEuNjE2LTIuNjMtMS43OTEtNi4zNjUtNS44OTYtNy4wOTdjLTAuODUyLTAuMTUyLTEuNTM2LTEuNjc2LTIuMTQ5LTIuNjYxJiMxMDsmIzk7JiM5OyYjOTtjLTEuMjUyLTIuMDExLTIuNDA4LTQuMDUtNS4wOTctNC40MThjLTEuNTE2LTAuMjA4LTEuNzMyLTEuMzc5LTEuNzE0LTIuNjQ1YzAuODExLTEuMDkzLDIuMDI1LTEuMDgzLDMuMTg0LTEuMDgxJiMxMDsmIzk7JiM5OyYjOTtjNi4wODEsMC4wMDksMTIuMTYzLTAuMTg3LDE4LjIzNSwwLjA5OGM0LjgxLDIuMjg0LDcuOTExLDYuNTE5LDExLjM3OCwxMC4yODFjMi4wODIsMi4yNTksNC42NTYsNC4yNzMsNS40MjUsNy41MjImIzEwOyYjOTsmIzk7JiM5O0MzMDkuODIsMjU3LjAyMSwzMDIuMDMxLDI1Ny4wMjEsMjk0LjI0MiwyNTcuMDIxeiIgY2xhc3M9InN0MzQiLz4mI3hhOwkJPHBhdGggZD0iTTI1My43NzcsMjM3LjkwOGM1LjY0Myw0LjY2MiwxMS4yMTYsOS4zOTUsMTUuNjg2LDE1LjI2M2MwLjg2NSwxLjEzNSwxLjUzNCwyLjM0OCwxLjQyNSwzLjg0NiYjMTA7JiM5OyYjOTsmIzk7Yy02LjYxNiwwLjAwMS0xMy4yMzIsMC4wMDItMTkuODQ4LDAuMDAzYy0yLjA4MS0xLjEzOC0zLjc0NC0yLjc0OS01LjI3NC00LjUzOWMtMS45NjYtMi4yOTktMy45MTUtNC41OTYtNi4yMDktNi42MTYmIzEwOyYjOTsmIzk7JiM5O2MtMi43MjQtMi40LTIuOTQxLTQuMzk2LTEuMTA2LTYuMTNjNC4wNzMsMC4wMDksOC4xNDEsMC4wMzcsMTIuMjA4LTAuMDI2YzAuODIzLTAuMDEzLDEuODg3LDAuNTU2LDIuNDY5LTAuNTk5JiMxMDsmIzk7JiM5OyYjOTtDMjUzLjEwNiwyMzguNTgxLDI1My4xNjUsMjM4LjA5NSwyNTMuNzc3LDIzNy45MDh6IiBjbGFzcz0ic3Q2Ii8+JiN4YTsJCTxwYXRoIGQ9Ik0zMTcuNjA5LDI1Ny4wMjJjLTMuNTk3LTQuMTA3LTcuMi04LjIxLTEwLjc4OS0xMi4zMjRjLTEuNDQ2LTEuNjU4LTMuOTM4LTIuMi00Ljc3NS00LjUwMSYjMTA7JiM5OyYjOTsmIzk7YzAuNzA0LTAuOTcxLDEuNzY3LTEuMDY2LDIuODE0LTEuMDYzYzUuMTA2LDAuMDEyLDEwLjIxNi0wLjI2NSwxNS4zMTQsMC4xNTFjNi4yMzMsMi41MTUsMTAuNjcsNy4yOSwxNC45OTgsMTIuMTUxJiMxMDsmIzk7JiM5OyYjOTtjMS4zNDYsMS41MTIsMi45MjQsMy4xOTgsMS41ODQsNS41ODNDMzMwLjM3MywyNTcuMDE5LDMyMy45OTEsMjU3LjAyMSwzMTcuNjA5LDI1Ny4wMjJ6IiBjbGFzcz0ic3QzNyIvPiYjeGE7CQk8cGF0aCBkPSJNMzk5LjgwMywyNTcuMDI2Yy0wLjU0OC0zLjk2NS00LjAwOS01LjczLTYuMjUzLTguNDQxYy0yLjcxOS0zLjI4Ni02Ljg2Ni00LjkwMS05LjMzOS04LjQmIzEwOyYjOTsmIzk7JiM5O2M2Ljg0NCwwLDEzLjY4OC0wLjAwMSwyMC41MzEtMC4wMDJjNC4wNzUsMy4xNTgsNy42MDIsNi45MTQsMTEuMzIyLDEwLjQ1NWMxLjc1MSwxLjY2NywzLjU3NywzLjU0NSwyLjEzNiw2LjM4OCYjMTA7JiM5OyYjOTsmIzk7QzQxMi4wNjcsMjU3LjAyNiw0MDUuOTM1LDI1Ny4wMjYsMzk5LjgwMywyNTcuMDI2eiIgY2xhc3M9InN0MzgiLz4mI3hhOwkJPHBhdGggZD0iTTQyMS4wMjksMjQwLjE4YzQuOTQ1LTAuMDMxLDkuODktMC4wMzgsMTQuODM0LTAuMWMzLjE0OS0wLjA0LDUuMTI3LDIuMDk2LDcuMTI0LDMuOTY4JiMxMDsmIzk7JiM5OyYjOTtjMy4zMTUsMy4xMDcsNi4zODksNi40NzEsOS42MDIsOS42OWMwLjc3MiwwLjc3MywxLjcwMywxLjY1LDEuMzI1LDIuNjY5Yy0wLjQ2LDEuMjQxLTEuODYyLDAuNjQtMi44MzgsMC42NDgmIzEwOyYjOTsmIzk7JiM5O2MtNC44MjcsMC4wNDMtOS42NTUtMC4wMDctMTQuNDgzLTAuMDI0Yy0zLjQ4NS0xLjc2NS00Ljg2MS01LjYxNy03LjkwNC03LjkxMmMtMi4zMTgtMS43NDgtNC41MzEtMy43MjMtNi42OTYtNS43MDQmIzEwOyYjOTsmIzk7JiM5O0M0MjEuMDQ3LDI0Mi41NDgsNDE5Ljg5OCwyNDEuNjg5LDQyMS4wMjksMjQwLjE4eiIgY2xhc3M9InN0MyIvPiYjeGE7CQk8cGF0aCBkPSJNMjM3LjYwMSwyNDAuMTk3YzAuMDIzLDIuNDUzLDEuNDE1LDQuMjAxLDMuMTQ4LDUuNjQ1YzMuOTMzLDMuMjc2LDYuODIyLDcuNDkxLDEwLjI5MiwxMS4xNzkmIzEwOyYjOTsmIzk7JiM5O2MtNS40MjMsMC4wMTItMTAuODQ2LDAuMDI1LTE2LjI2OCwwLjAzOGMtMC4yOS0yLjAyOS0yLjMzOC0yLjYyMy0zLjU0MS0zLjU4MmMtMy43MTQtMi45NTctNS40NTgtNy45MzQtMTAuMjYtOS43MjcmIzEwOyYjOTsmIzk7JiM5O2MtMS40NTUtMC41NDMtMS43OTQtMi4wNTctMS43ODctMy41NDlDMjI1LjMyMywyMzkuNDM3LDIzMS40NjIsMjM5LjQ0MiwyMzcuNjAxLDI0MC4xOTd6IiBjbGFzcz0ic3QzOSIvPiYjeGE7CQk8cGF0aCBkPSJNNDIxLjAyOSwyNDAuMThjLTAuMjQ0LDEuNDQzLDAuODQ4LDEuOTk5LDEuNzQ0LDIuNzQ2YzUuMDgyLDQuMjM0LDEwLjIyLDguNDE4LDEzLjgyLDE0LjEwNSYjMTA7JiM5OyYjOTsmIzk7Yy02LjEzMi0wLjAwMi0xMi4yNjMtMC4wMDMtMTguMzk0LTAuMDA0Yy0wLjA1OC0yLjc1OC0xLjI3MS00Ljk0My0zLjQ3MS02LjUxOGMtMy4zNTQtMi40LTUuMzU1LTYuMzIxLTkuMjU3LTguMTE0JiMxMDsmIzk7JiM5OyYjOTtjLTAuODIyLTAuMzc4LTAuNzA3LTEuMzk3LTAuNzI5LTIuMjEzQzQxMC4xNzEsMjQwLjE4Miw0MTUuNiwyNDAuMTgxLDQyMS4wMjksMjQwLjE4eiIgY2xhc3M9InN0NDAiLz4mI3hhOwkJPHBhdGggZD0iTTMzNi43NTUsMjU3LjAxOGMtMC4yMTYtMi41NzgtMS4yMDktNC42NjgtMy41MjItNi4wNjhjLTAuNzgtMC40NzItMS41NzEtMS4xNTktMS45OTYtMS45NDMmIzEwOyYjOTsmIzk7JiM5O2MtMS45NC0zLjU3OS00Ljc5MS01LjkxLTguNzM4LTYuOTM4Yy0wLjg4My0wLjIzLTEuMjU4LTAuOTg2LTEuMzI4LTEuODc2YzAuNTMzLTAuNzMyLDEuMzEzLTAuOTg0LDIuMTU1LTEuMDE0JiMxMDsmIzk7JiM5OyYjOTtjNC40NjQtMC4xNTksOC45MjktMC4xNTksMTMuMzkzLDBjMC44NDIsMC4wMywxLjYyMiwwLjI4LDIuMTU3LDEuMDExYy0wLjE1NSwxLjk2NywxLjE4LDIuNzc1LDIuNjE3LDMuNzA5JiMxMDsmIzk7JiM5OyYjOTtjNS4yNjIsMy40Miw5Ljk3Myw3LjQyNiwxMi45NDYsMTMuMTIzQzM0OC41NDQsMjU3LjAyMSwzNDIuNjUsMjU3LjAyLDMzNi43NTUsMjU3LjAxOHoiIGNsYXNzPSJzdDIwIi8+JiN4YTsJCTxwYXRoIGQ9Ik02Mi43MjMsMjM5LjEzM2MxLjkxMiwwLjg2MiwzLjkzMiwwLjQwNSw1Ljg5NiwwLjQxN2M5LjYwOSwwLjA1NiwxOS4yMjQtMC4xNTEsMjguODI1LDAuMTIzJiMxMDsmIzk7JiM5OyYjOTtjMy42MTYsMC4xMDMsNi4wMjQtMC43ODUsNy4zMTUtNC4yMzVjMC4yMzctMC42MzMsMC43Ny0xLjE1NiwxLjE2Ni0xLjcyOWMzLjkzLTIuMzkzLDUuOTg3LDAuOTU5LDguMDAzLDMuMDM3JiMxMDsmIzk7JiM5OyYjOTtjMi44MDksMi44OTYsNS42MzIsNS42NTEsOS4xODUsNy41ODhjMS4wNTgsMC41NzcsMS45NjgsMS4zMjMsMi41OTEsMi4zNDRjMS43MzksMi44NDQsMy45MDcsNS4yODcsNi41MDUsNy4zNzkmIzEwOyYjOTsmIzk7JiM5O2MwLjkwNiwwLjczLDEuODAxLDEuNTk3LDEuMjc5LDIuOTk4Yy0yLjM1NCwwLjAyMS00LjcwOCwwLjA0Mi03LjA2MiwwLjA2NGMtNC45NjMtMC4wMzctOS45MjUtMC4wNzQtMTQuODg4LTAuMTEyJiMxMDsmIzk7JiM5OyYjOTtjLTMuNDA0LTMuMjMyLTYuNjc1LTYuNjAxLTkuOTMtOS45NzhjLTMuOTM1LTQuMDgzLTguMjk1LTYuNzEtMTQuMjYxLTYuMDY2Yy0yLjc3MSwwLjI5OS01LjYzNywwLjMxNC04LjMzNi0wLjc3OSYjMTA7JiM5OyYjOTsmIzk7Yy00LjQwNS0wLjAzMS04LjgxLTAuMDM2LTEzLjIxNC0wLjExMkM2NC43MTYsMjQwLjA1NSw2My40MSwyNDAuNTM4LDYyLjcyMywyMzkuMTMzeiIgY2xhc3M9InN0NDEiLz4mI3hhOwkJPHBhdGggZD0iTTc5LjAxMSwyNDAuMTg1YzQuNTY1LTAuMDMyLDkuMTMtMC4wNDQsMTMuNjk0LTAuMTA0YzMuMTI5LTAuMDQxLDUuMTU4LDIuMzY4LDcuMTM5LDMuOTc1JiMxMDsmIzk7JiM5OyYjOTtjNC4wNzcsMy4zMDcsNy40MzYsNy41MDMsMTEuMDQ5LDExLjM3MmMwLjM2MywwLjM4OSwwLjQzNywxLjA0NywwLjY0NSwxLjU4Yy01LjE5NCwwLTEwLjM4OSwwLTE1LjU4MywwJiMxMDsmIzk7JiM5OyYjOTtjLTEuNDUyLTMuNTg2LTQuNTk1LTUuODktNy4xMjgtOC40ODZDODUuODcsMjQ1LjQ5NCw4Mi44NTIsMjQyLjI4NSw3OS4wMTEsMjQwLjE4NXoiIGNsYXNzPSJzdDQyIi8+JiN4YTsJCTxwYXRoIGQ9Ik0xNTguMzg5LDIwMC40MTVjMS45ODQsMC4xMjUsMy40ODYsMC42NzEsNC4zMTEsMi44NTljMS4zNDgsMy41NzQsNS4xMjgsNC45ODIsNy42ODYsNy40NjQmIzEwOyYjOTsmIzk7JiM5O2MxLjgwNiwxLjc1MiwzLjU1NCwzLjYyMiw1LjM3NCw1LjM5YzQuOTY0LDQuODI0LDEwLjMzNyw5LjMxMSwxNC43NTcsMTQuNTkzYzYuMjQ5LDcuNDY3LDE0LjEyNywxMy4wNjUsMjEuMDE0LDE5Ljc3MSYjMTA7JiM5OyYjOTsmIzk7YzEuODIzLDEuNzc1LDQuMDk4LDMuMzk3LDIuNzA1LDYuNTJjLTQuOTYtMC4wMDEtOS45Mi0wLjAwMS0xNC44OC0wLjAwMmMtMy4yODQtMy4xNjktNS42MjQtNy4xNjEtOS4wODUtMTAuMiYjMTA7JiM5OyYjOTsmIzk7Yy00LjA3My0zLjU3NS04LjMyNy02LjI1OC0xNC4xMS01LjgzNGMtNC41NDcsMC4zMzQtOS4xMzQtMC4wMy0xMy43MDcsMC4xNjJjLTcuMDM1LDAuMDYzLTE0LjA2NCwwLjEyMS0yMS4wOTMtMC4wMjcmIzEwOyYjOTsmIzk7JiM5O2MtNC4zMzgsMC4xNTItOC42NzksMC4xNTItMTMuMDEyLTAuMDA5Yy0xLjQzNi0wLjA1My0zLjUwMywwLjMwNi0zLjQxNi0yLjI3YzEuMTU4LTAuODg0LDIuNDk4LTAuNDUzLDMuNzU2LTAuNDUyJiMxMDsmIzk7JiM5OyYjOTtjMTUuMzM3LDAuMDEyLDMwLjY3NC0wLjAwMiw0Ni4wMTItMC4wMDZjMy42NTMtMC4wMDEsMy43MjgtMC4wOCwxLjg3LTMuNDM4Yy01LjI1NC05LjQ5Ni0xMC41NjYtMTguOTYtMTUuODMxLTI4LjQ1JiMxMDsmIzk7JiM5OyYjOTtDMTU5LjY5MSwyMDQuNTk4LDE1Ny45NzEsMjAyLjg5OSwxNTguMzg5LDIwMC40MTV6IiBjbGFzcz0ic3QzMiIvPiYjeGE7CQk8cGF0aCBkPSJNMTI1LjUwMiwyMzguNjYzYy0wLjQ3OSwyLjIzMSwxLjI4OCwxLjM3NCwyLjEyMiwxLjM5NmM0LjU1MiwwLjExNyw5LjEwNywwLjEwNiwxMy42NjEsMC4xMzkmIzEwOyYjOTsmIzk7JiM5O2MzLjA1OSwyLjEsNi41MjksMy42OTUsOC4xNjIsNy40MzdjMC42MjEsMS40MjQsMi4zNjUsMS44NTcsMy41MTQsMi44MzZjMS45OTksMS43MDMsMy44MTgsMy41NDQsMi40ODksNi41NDQmIzEwOyYjOTsmIzk7JiM5O2MtNy4zMiwwLjAxNC0xNC42NCwwLjAyOS0yMS45NjEsMC4wNDNjLTQuNjI0LTQuMDAxLTcuMjkzLTkuOTEtMTIuNzk5LTEzLjA2MmMtMy42NDktMi4wODktNi40MzktNS4yNzktOS4yMDYtOC4yNzQmIzEwOyYjOTsmIzk7JiM5O2MtMS43OTctMS45NDUtMy40ODYtMS45NzQtNS41NTktMi4wMTJjMi41NDMtNC41MDQsNS4wODctOS4wMDgsNy42My0xMy41MTNjMS44NzctMC4zOTIsMy4zODMsMC44MTIsNC4xOTQsMS45NSYjMTA7JiM5OyYjOTsmIzk7YzMuMDc2LDQuMzE1LDcuNjc5LDYuOTg1LDExLjEyNiwxMC44NjVDMTI4Ljk5NSwyMzUuNjM3LDEyNy44ODUsMjM3LjUzLDEyNS41MDIsMjM4LjY2M3oiIGNsYXNzPSJzdDQzIi8+JiN4YTsJCTxwYXRoIGQ9Ik0xNTUuNDQ5LDI1Ny4wMTNjLTAuMTU2LTMuMTkyLTEuOTY2LTUuMDEzLTQuNDY3LTYuOTY1Yy0zLjYwMi0yLjgxMi02LjUtNi41MjQtOS42OTktOS44NTImIzEwOyYjOTsmIzk7JiM5O2M3LjMxOS0wLjAwMSwxNC42MzgtMC4wMDMsMjEuOTU3LTAuMDA0YzYuMzY1LDIuMTAxLDkuNDA5LDguMDI3LDEzLjk1OSwxMi4yMWMxLjIyOSwxLjEzLDIuMzkxLDIuNzI3LDAuOTEzLDQuNjEmIzEwOyYjOTsmIzk7JiM5O0MxNzAuNTU4LDI1Ny4wMTMsMTYzLjAwNCwyNTcuMDEzLDE1NS40NDksMjU3LjAxM3oiIGNsYXNzPSJzdDQ0Ii8+JiN4YTsJCTxwYXRoIGQ9Ik0xNzguMTEzLDI1Ny4wMTJjMC4wMDgtMS4xNzYsMC4wNjEtMi4zMTItMC44NzItMy4yOTRjLTMuMjk1LTMuNDY2LTYuNjEzLTYuOTE2LTkuNzUzLTEwLjUyJiMxMDsmIzk7JiM5OyYjOTtjLTEuMjE3LTEuMzk2LTQuMTExLTAuMjQyLTQuMjQ3LTMuMDA3YzUuNzUxLTAuMDM1LDExLjUwNiwwLjAzMiwxNy4yNTItMC4xNDZjMy4xMzYtMC4wOTcsNS40NTYsMi4wMTgsNy4zODEsMy41MiYjMTA7JiM5OyYjOTsmIzk7YzQuNjQsMy42MTcsOS4xOSw3LjY2OCwxMS40ODEsMTMuNDQ5QzE5Mi4yNzUsMjU3LjAxMiwxODUuMTk0LDI1Ny4wMTIsMTc4LjExMywyNTcuMDEyeiIgY2xhc3M9InN0MTciLz4mI3hhOwkJPHBhdGggZD0iTTI4Ny4wNDUsMTIwLjQyNGM0Ljk4OSwxLjIxMiw3LjExLDUuODU0LDEwLjYxOSw4LjgzOWMzLjQwNCwyLjg5NSw1Ljc0Niw2Ljk0Niw5Ljk5LDguOTM5JiMxMDsmIzk7JiM5OyYjOTtjMi4wMTksMC45NDgsMi44OTEsMy4yNDMsNC4yMTgsNC44MzhjNC4wNyw0Ljg5Niw4LjU2MSw5LjIxNCwxMy40NzgsMTMuMjFjMi4yMjYsMS44MDksNC4wMjgsNC4xNTMsNS45NDYsNi4zMjImIzEwOyYjOTsmIzk7JiM5O2MwLjgwNywwLjkxMywxLjUyNywxLjgwOCwyLjkwMywxLjYzNGM1LjA1Nyw4Ljc2NiwxMC4xMTQsMTcuNTMxLDE1LjE3LDI2LjI5N2MtMC45MTMsMC45MDgtMi4xMzQsMC45MTItMi44ODcsMC4xOCYjMTA7JiM5OyYjOTsmIzk7Yy0yLjc1MS0yLjY3Ny02LjA0My00LjY3OC04LjQ3NC03LjgxNGMtMy43NTEtNC44MzgtNy44My05LjQ0NC0xMi44ODktMTMuMDgzYy0zLjA0NS0yLjE5MS01Ljg1NC00Ljc1My03Ljk3MS03LjkwMiYjMTA7JiM5OyYjOTsmIzk7Yy0yLjkwNC00LjMxOS02LjgxMS03LjcyOS0xMC4yMjMtMTEuNTg1Yy0wLjkwNi0xLjAyNC0yLjIyLTEuMjY3LTMuNTA5LTEuNDgyQzI5Ny43NjksMTM5LjQ2MSwyOTIuMDIsMTMwLjE2NSwyODcuMDQ1LDEyMC40MjR6IiBjbGFzcz0ic3Q0NSIvPiYjeGE7CQk8cGF0aCBkPSJNMzAzLjQxNiwxNDguODE1YzEuMzI0LTEuNDg5LDIuNjMzLTAuODc5LDMuNTg5LDAuMjk0YzMuNjA5LDQuNDI1LDguMDc2LDguMDE2LDExLjI4OSwxMi45MTUmIzEwOyYjOTsmIzk7JiM5O2MyLjA5OCwzLjE5OSw0Ljk3Myw2LjU3NCw5LjExMSw3Ljc0MmMxLjc1NCwwLjQ5NSwxLjg3OSwyLjAzOCwyLjU5NiwzLjA4MWMyLjg1NCw0LjE1NCw4LjI5OCw2LjA2LDkuNzczLDExLjM1OCYjMTA7JiM5OyYjOTsmIzk7YzMuODgzLDEuMDU1LDQuOTI1LDYuNDQxLDkuNTk1LDYuMjk4YzMuMjgzLDUuNjY2LDYuNTY3LDExLjMzMyw5Ljg1LDE2Ljk5OWMtMS41MzMsMS41MjUtMi44MDUsMC44OTItNC4yOTgtMC4yNTMmIzEwOyYjOTsmIzk7JiM5O2MtMy4zNy0yLjU4NC01LjIwOS02Ljc2OS04LjkyLTguODU4Yy01LjQ2NS0zLjA3Ni05LjA3OS04LjE2NS0xMi44ODQtMTIuNjY0Yy00LjAyNC00Ljc1OS05LjU2My03LjkyNi0xMi44NDktMTMuMjcyJiMxMDsmIzk7JiM5OyYjOTtjLTEuMDIxLTEuNjYyLTIuNjg3LTEuMDgxLTQuMTQyLTEuMjU3Yy0xLjA5Mi0wLjM2OS0xLjc4NC0xLjAzMS0xLjY2Ny0yLjI4MWMwLjY2NS0wLjk4MiwwLjY0NC0xLjgxOC0wLjE0Ny0yLjg0MSYjMTA7JiM5OyYjOTsmIzk7Yy0xLjIzOS0xLjYwMy0yLjYxMy0zLjAxMS00LjI2OS00LjE2NWMtMy4yODUtMi4yOS01LjY4NC01LjUwMS04LjUzNS04LjI0MUMzMDEuODk5LDE1MS45NTUsMzAzLjU5MSwxNTAuNzUyLDMwMy40MTYsMTQ4LjgxNXoiIGNsYXNzPSJzdDI3Ii8+JiN4YTsJCTxwYXRoIGQ9Ik0yODUuODY0LDE4MS4yOTRjMi45MzMtNS41MDgsNS43ODQtMTEuMDYyLDkuMjA4LTE2LjI5MmMxLjQyNi0wLjk0OSwyLjU4MiwwLjA2NCwzLjUwNCwwLjc3NSYjMTA7JiM5OyYjOTsmIzk7YzMuMzQ1LDIuNTc5LDYuNDM2LDUuNDcxLDkuNTk1LDguMjc4YzAuNDQ3LDAuMzk3LDAuNjQxLDAuOTc1LDAuNjksMS41ODNjLTIuMjA4LDUuNDg2LTQuMzk5LDEwLjk4NC04Ljc0NCwxNS4yNDkmIzEwOyYjOTsmIzk7JiM5O2MtMS40OCwwLjE2NC0zLjAxMS0wLjE5MS0zLjk3Mi0xLjEzQzI5Mi45NDksMTg2LjYzOCwyODguOTA0LDE4NC41NzcsMjg1Ljg2NCwxODEuMjk0eiIgY2xhc3M9InN0MjIiLz4mI3hhOwkJPHBhdGggZD0iTTI3NS45NDMsMjMzLjAyN2MtMy42NTctMC45ODktNC45MTQtNC43MzgtNy43MjMtNi43OGMtMS45MTYtMS4zOTMtMy42MjYtMi44NjMtNi4wMjMtMy4yNCYjMTA7JiM5OyYjOTsmIzk7YzMuMjAyLTUuNjM5LDYuNDAzLTExLjI3OCw5LjYwNS0xNi45MThjMS4xNzYtMC44NTEsMi4xMzktMC4wMywyLjc1OCwwLjY3NGMzLjMzNSwzLjc5Myw4LjE5OCw2LjI0NSwxMC4wMzksMTEuMzU0JiMxMDsmIzk7JiM5OyYjOTtDMjgyLjcwMSwyMjMuNjU5LDI4MC42MjMsMjI5LjA5OSwyNzUuOTQzLDIzMy4wMjd6IiBjbGFzcz0ic3Q0NiIvPiYjeGE7CQk8cGF0aCBkPSJNMjg0LjM3MiwyMTguMTNjLTEuOTM1LTAuMTk0LTEuMjg5LTIuMzY4LTIuMzQyLTMuMTIxYy0zLjctMi42NDktNS45NTMtNi45NDctMTAuMjI5LTguOTE5JiMxMDsmIzk7JiM5OyYjOTtjMi4yNTQtNC4wMjgsNC41MDctOC4wNTYsNi43NjEtMTIuMDgzYzEuNDA3LTEuNzg0LDMuMDA1LTEuMjA1LDQuMjMtMC4wMDFjMy4zMTksMy4yNjIsNy4wMDUsNi4xNzcsOS43MzUsMTAuMDE2JiMxMDsmIzk7JiM5OyYjOTtDMjkxLjE3MSwyMDkuNTEsMjg4LjcxNSwyMTQuMzY2LDI4NC4zNzIsMjE4LjEzeiIgY2xhc3M9InN0NDciLz4mI3hhOwkJPHBhdGggZD0iTTI5Mi4zNDgsMjA0LjAyNmMtMy4zNDktMi40MDQtNi4wMzktNS41MDYtOC45MTYtOC40MTJjLTEuMzMzLTEuMzQ2LTIuNjkxLTIuNzU4LTQuODY5LTEuNjA4JiMxMDsmIzk7JiM5OyYjOTtjMi40MzQtNC4yMzcsNC44NjgtOC40NzUsNy4zMDItMTIuNzEyYzMuMjg4LDEuNzE2LDYuNTY5LDMuNDUzLDguOTA5LDYuNDY1YzEuMzM0LDEuNzE4LDMuNDY4LDEuODU1LDUuMjE0LDIuNzU2JiMxMDsmIzk7JiM5OyYjOTtjMC42MjUsMC43NjIsMC4zODYsMS41NjQtMC4wMDgsMi4yODFjLTEuODQ2LDMuMzU5LTMuNzQyLDYuNjkxLTUuNjg5LDkuOTkyQzI5My44NjksMjAzLjUwMSwyOTMuMywyMDQuMDkzLDI5Mi4zNDgsMjA0LjAyNnoiIGNsYXNzPSJzdDQ4Ii8+JiN4YTsJCTxwYXRoIGQ9Ik0zMDguNDQsMTc1LjY1NmMtNC4yODktMy43NjEtNy45NC04LjMyMy0xMy4zNjgtMTAuNjU0YzIuMTQ2LTMuNzc3LDQuMjkxLTcuNTU1LDYuNDM3LTExLjMzMyYjMTA7JiM5OyYjOTsmIzk7YzAuODM4LTAuMDIxLDEuODMyLTAuMDUyLDIuMjUyLDAuNzE0YzIuNjk0LDQuOTE1LDguNDYzLDYuNjg2LDExLjQ0NCwxMS4zMjRjMS4yMzQsMS45MiwxLjM0NiwyLjE5LTAuNDA3LDIuODM1JiMxMDsmIzk7JiM5OyYjOTtjLTEuNjI2LDAuMzA1LTEuODk2LDEuODM4LTIuNzIyLDIuOTAxQzMxMC45NDEsMTcyLjkwMywzMTAuODAzLDE3NS4yNTksMzA4LjQ0LDE3NS42NTZ6IiBjbGFzcz0ic3QyNyIvPiYjeGE7CQk8cGF0aCBkPSJNMjM3LjYwMSwyNDAuMTk3Yy02LjEzOSwwLjAwMS0xMi4yNzcsMC4wMDEtMTguNDE2LDAuMDAzYy01LjAyOC0wLjAzNC0xMC4wNTYtMC4wNS0xNS4wODMtMC4xMTcmIzEwOyYjOTsmIzk7JiM5O2MtMS4xMy0wLjAxNS0yLjM2NCwwLjM1Ni0zLjMzMi0wLjYxM2MxNi42NTYsMC4wMzQsMzMuMzEyLDAuMDc0LDQ5Ljk2OCwwLjA4MmMwLjc5NiwwLDEuNTkzLTAuMjg3LDIuMzg5LTAuNDQxJiMxMDsmIzk7JiM5OyYjOTtjLTAuNjY1LDEuNDE4LTEuOTcsMC45NC0zLjA0OCwwLjk2MUMyNDUuOTIsMjQwLjE1MiwyNDEuNzYxLDI0MC4xNjEsMjM3LjYwMSwyNDAuMTk3eiIgY2xhc3M9InN0MiIvPiYjeGE7CQk8cGF0aCBkPSJNMzE1Ljk5MywxNzAuNzQ0YzIuNTk0LTEuMTg4LDQuNTkxLTAuNzMsNS41NzgsMi4xNDljMC42NCwxLjg2NywyLjQsMi42MzQsMy43NTgsMy41ODcmIzEwOyYjOTsmIzk7JiM5O2M0LjcwOCwzLjMwMiw3LjE2LDguODE0LDExLjk0NCwxMS45M2MxLjg3NiwxLjIyMiwyLjE5NiwzLjM4MSwzLjU2Niw0LjkzOGMxLjYzMSwxLjg1NCwzLjg3MiwyLjI1Miw1LjU2MiwzLjg2OCYjMTA7JiM5OyYjOTsmIzk7YzMuMzM2LDMuMTksNi4wNzcsNi45MTMsOS41MDcsOS45OTRjMS4xODQsMS4wNjMsMi4yMzQsMC4wMjYsMy4zMTIsMC4yOTJjMC4yMTUsMC4xNDIsMC4zLDAuMzQsMC4yNTcsMC41OTQmIzEwOyYjOTsmIzk7JiM5O2MtMC4wMDksMS41NzMsMS4zNjcsMi4zOTcsMS45NywzLjYzOWMzLjIzOCw1LjM3Nyw2Ljc4NiwxMC41Nyw5LjU3NSwxNi4yMTJjLTIuNzc1LTAuNjg4LTQuOTI1LTIuMDM4LTYuODgtNC4zNDYmIzEwOyYjOTsmIzk7JiM5O2MtMy4zNjgtMy45NzYtNy41NTItNy4yNTMtMTAuOTg5LTExLjE3OGMtMy4xNDYtMy41OTItNy4xODctNi4xMjQtMTAuMzIxLTkuODNjLTIuMzk5LTIuODM3LTQuNzM5LTYuMTQtOC41LTguMDUmIzEwOyYjOTsmIzk7JiM5O2MtMi4zMzEtMS4xODQtMy42MjItNC4zMjQtNS41NTItNi40MjhjLTEuMDItMS4xMTItMS42NTEtMy41MzYtNC4wNDctMS45MDljLTAuMTEzLDAuMDMxLTAuMjk3LDAuMTIyLTAuMzI5LDAuMDg0JiMxMDsmIzk7JiM5OyYjOTtDMzIwLjUzNiwxODEuNjg1LDMxNy4yNDQsMTc2Ljc2NiwzMTUuOTkzLDE3MC43NDR6IiBjbGFzcz0ic3QyNyIvPiYjeGE7CQk8cGF0aCBkPSJNMzYxLjQ0NiwyMTEuNzM1Yy0xLjAzMi0xLjAxLTMuMDQxLTEuNDkxLTEuOTctMy42MzlDMzYwLjQwMywyMDkuMTYyLDM2MS4yNjQsMjEwLjI2NSwzNjEuNDQ2LDIxMS43MzV6IiBjbGFzcz0ic3QyNyIvPiYjeGE7CQk8cGF0aCBkPSJNMTIxLjMzOSwyMDYuNzQzYzIuODM1LTQuOTYsNS42Ny05LjkyLDguNTA0LTE0Ljg4YzEuNzQtMC41NDEsMi42OTksMC44NTMsMy41MjUsMS43OSYjMTA7JiM5OyYjOTsmIzk7YzMuMTEsMy41MjYsNi45NjEsNi4yODIsMTAuMDA2LDkuODU3YzAuNDU2LDAuNTM2LDAuOTY1LDEuMDQzLDEuMDUzLDEuNzk3Yy0xLjg1OCw1LjY1NS00LjMzNiwxMC45NjQtOC41NzIsMTUuMjg4JiMxMDsmIzk7JiM5OyYjOTtjLTAuNDc5LDAuMDQ3LTEuMDIxLDAuMDU1LTEuMzQ1LTAuMjg1QzEzMC4xNjQsMjE1Ljc0NCwxMjQuNzI4LDIxMi4yMzYsMTIxLjMzOSwyMDYuNzQzeiIgY2xhc3M9InN0MTciLz4mI3hhOwkJPHBhdGggZD0iTTEyMS4zMzksMjA2Ljc0M2MzLjc1OCwzLjU5Niw3LjUxOSw3LjE4OCwxMS4yNywxMC43OWMxLjAxLDAuOTcsMS44MTEsMi4xNzYsMy4xNTYsMi43NjImIzEwOyYjOTsmIzk7JiM5O2MtMS40OTcsNC43NDktMi44MzMsOS41OS03LjIwMiwxMi43MTFjLTQuMDI4LTIuNDg1LTcuNjM4LTUuNDg1LTEwLjUxNS05LjIzN2MtMS4yNDUtMS42MjMtMy4xMzgtMi4yMTMtNC40OTMtMy41NzMmIzEwOyYjOTsmIzk7JiM5O0MxMTYuMTQ5LDIxNS43MTEsMTE4Ljc0NCwyMTEuMjI3LDEyMS4zMzksMjA2Ljc0M3oiIGNsYXNzPSJzdDQ5Ii8+JiN4YTsJCTxwYXRoIGQ9Ik0xNDQuMTE2LDIwNS4xNzNjLTQuMjA1LTQuMDIzLTguNDA1LTguMDUxLTEyLjYyMy0xMi4wNmMtMC40OTctMC40NzMtMS4wOTgtMC44MzYtMS42NS0xLjI1MSYjMTA7JiM5OyYjOTsmIzk7YzEuNDg2LTIuNTc0LDIuOTcyLTUuMTQ3LDQuNDU4LTcuNzIxYzEuMDY4LTAuMzI5LDEuODg5LDAuMjg4LDIuNTA5LDAuOTIzYzMuNzM5LDMuODMyLDguMDQ2LDcuMDU2LDExLjY4NSwxMC45ODgmIzEwOyYjOTsmIzk7JiM5O2MwLjQxLDAuNDQzLDAuNTIyLDEuMDM2LDAuNTU5LDEuNjM0QzE0OC4xMzEsMjAwLjY1OCwxNDcuMzI4LDIwMy43MTIsMTQ0LjExNiwyMDUuMTczeiIgY2xhc3M9InN0MzIiLz4mI3hhOwkJPHBhdGggZD0iTTE0OC40MDQsMTk3LjY2N2MtMC44NDktMi4yODUtMi44NzgtNC4wMDgtNC41NzEtNS4wMzdjLTMuNzc0LTIuMjk0LTUuNjc1LTYuNDY4LTkuNTMyLTguNDg5JiMxMDsmIzk7JiM5OyYjOTtjMC45NDQtMS42NTQsMS44ODktMy4zMDgsMi44MzMtNC45NjJjNS41NzksMy41NjcsMTAuMDY4LDguMjczLDE0LjA4MiwxMy40NzZDMTUxLjgsMTk1LjE3OSwxNTAuNjA3LDE5Ni43MDYsMTQ4LjQwNCwxOTcuNjY3eiIgY2xhc3M9InN0MzIiLz4mI3hhOwkJPHBhdGggZD0iTTE0OC40MDQsMTk3LjY2N2MxLjI4Ni0xLjQ3NSwyLjE5Ni0zLjE2MSwyLjgxMi01LjAxMmMwLjQ1LTAuNjE4LDAuOS0xLjIzNywxLjUwMy0yLjA2NCYjMTA7JiM5OyYjOTsmIzk7YzEuOTI2LDMuMzM3LDMuNzk4LDYuNTgxLDUuNjcsOS44MjVjNy4yMzIsMTIuODgsMTQuNDY0LDI1Ljc2LDIxLjcwMiwzOC42NWMtMS4yNjcsMC43OTMtMi4zNDMsMC40OTYtMy4zNTksMC40OTcmIzEwOyYjOTsmIzk7JiM5O2MtMTUuOTIsMC4wMTgtMzEuODQxLDAuMDI1LTQ3Ljc2MS0wLjAzMmMtMS4xNjQtMC4wMDQtMi42NDgsMC43MjItMy40NjktMC44NjdjMS4yMTEtMS43ODIsMi40MTYtMy41NjgsMy4wNjEtNS42NTcmIzEwOyYjOTsmIzk7JiM5O2MyLjkzMS0zLjkzNiw0LjcyNy04LjUxNiw3LjIwMi0xMi43MTFjMy4xMTMtNC44NTksNS45MTItOS44OTEsOC4zNTEtMTUuMTIyQzE0NS45OTgsMjAyLjkyOSwxNDcuMjg3LDIwMC4zNDcsMTQ4LjQwNCwxOTcuNjY3eiIgY2xhc3M9InN0MCIvPiYjeGE7CQk8cGF0aCBkPSJNMzE1Ljk5MywxNzAuNzQ0YzIuOTEzLDUuMTU0LDUuODI2LDEwLjMwOCw4LjczOSwxNS40NjJjOS4xOTksMTYuNjY3LDE4LjQ2MiwzMy4yOTgsMjguMTk1LDQ5LjY2MiYjMTA7JiM5OyYjOTsmIzk7YzAuMTU4LDEuMTA1LDAuNjA4LDIuMDYyLDEuNDM5LDIuODI0Yy0wLjUwOCwxLjk3NS0yLjEwOSwwLjk2OS0zLjEzLDAuOTczYy0xNi45OTUsMC4wNzUtMzMuOTksMC4wNTMtNTAuOTg2LDAuMDUzJiMxMDsmIzk7JiM5OyYjOTtjLTguMDI2LDAtMTYuMDUxLDAuMDM3LTI0LjA3Ni0wLjA0MmMtMS4xMzItMC4wMTEtMi42NzgsMC44MjUtMy4zNjktMC45NjFjMS4yNTItMS43ODIsMi4zOTUtMy42MjUsMy4xMzktNS42ODcmIzEwOyYjOTsmIzk7JiM5O2MzLjE0NS00Ljc3Niw1LjkxNS05Ljc2NCw4LjQyOS0xNC44OTdjMi45NzUtNC41MjIsNS42NTQtOS4yMTIsNy45NzYtMTQuMTA0YzIuODc2LTQuMzE3LDUuNDQzLTguODA5LDcuNjM5LTEzLjUxMSYjMTA7JiM5OyYjOTsmIzk7YzMuMjc5LTQuNjksNS43Ni05LjgzNSw4LjQ1NC0xNC44NTljMS40MTYtMi4zNTQsMi45MDMtNC42Nyw0LjIyMy03LjA3N2MwLjgwNi0xLjQ3LDEuNDA5LTAuOTU1LDIuMTM0LTAuMDM3JiMxMDsmIzk7JiM5OyYjOTtDMzE0LjkyNywxNjkuNDIyLDMxNS4zMzcsMTcwLjE1LDMxNS45OTMsMTcwLjc0NHoiIGNsYXNzPSJzdDAiLz4mI3hhOwkJPHBhdGggZD0iTTI3Mi44MDUsMjM4LjcxNWMwLjc2OSwxLjM4LDIuMDk4LDAuODEzLDMuMTc4LDAuODE1YzI1LjExMywwLjAzOCw1MC4yMjYsMC4wNDUsNzUuMzM5LDAuMDA0JiMxMDsmIzk7JiM5OyYjOTtjMS4wMTctMC4wMDIsMi40MDUsMC43NTMsMy4wNDQtMC44NDJjMC45OTMsMi41MDEtMS4yMDQsMS4zMTItMS43OSwxLjMzMWMtNC41NjMsMC4xNTItOS4xMzIsMC4xMzItMTMuNjk5LDAuMTY2JiMxMDsmIzk7JiM5OyYjOTtjLTUuOTAxLDAuMDAxLTExLjgwMywwLjAwMi0xNy43MDQsMC4wMDNjLTYuMzc1LDAuMDAxLTEyLjc1MSwwLjAwMi0xOS4xMjYsMC4wMDNjLTcuNTUzLDAuMDAyLTE1LjEwNiwwLjAwMi0yMi42NTksMC4wMDQmIzEwOyYjOTsmIzk7JiM5O2MtMS44MzYtMC4wMzUtMy42NzItMC4wNDQtNS41MDYtMC4xMThDMjczLjA2NCwyNDAuMDQ5LDI3Mi4xMDQsMjQwLjAwMSwyNzIuODA1LDIzOC43MTV6IiBjbGFzcz0ic3QyNSIvPiYjeGE7CTwvZz4mI3hhOzwvZz4mI3hhOzxnPiYjeGE7PC9nPiYjeGE7PGc+JiN4YTs8L2c+JiN4YTs8Zz4mI3hhOzwvZz4mI3hhOzxnPiYjeGE7PC9nPiYjeGE7PGc+JiN4YTs8L2c+JiN4YTs8Zz4mI3hhOzwvZz4mI3hhOzwvc3ZnPg==;" vertex="1" parent="PHoNQdwAoVbEZFHkZa52-255">
          <mxGeometry width="75" height="75" as="geometry" />
        </mxCell>
        <mxCell id="PHoNQdwAoVbEZFHkZa52-257" value="&lt;div&gt;Percona Monitoring and Management Server&lt;/div&gt;" style="text;html=1;strokeColor=none;fillColor=none;align=left;verticalAlign=middle;whiteSpace=wrap;rounded=0;" vertex="1" parent="PHoNQdwAoVbEZFHkZa52-255">
          <mxGeometry x="80" y="22.5" width="330" height="30" as="geometry" />
        </mxCell>
        <mxCell id="PHoNQdwAoVbEZFHkZa52-264" value="" style="endArrow=none;html=1;rounded=0;entryX=1;entryY=0.5;entryDx=0;entryDy=0;exitX=0;exitY=0.5;exitDx=0;exitDy=0;" edge="1" parent="PHoNQdwAoVbEZFHkZa52-49" source="PHoNQdwAoVbEZFHkZa52-83" target="PHoNQdwAoVbEZFHkZa52-109">
          <mxGeometry width="50" height="50" relative="1" as="geometry">
            <mxPoint x="710" y="1095" as="sourcePoint" />
            <mxPoint x="760" y="1045" as="targetPoint" />
          </mxGeometry>
        </mxCell>
        <mxCell id="PHoNQdwAoVbEZFHkZa52-97" value="Main Database" style="swimlane;horizontal=0;whiteSpace=wrap;html=1;" vertex="1" parent="PHoNQdwAoVbEZFHkZa52-117">
          <mxGeometry x="40" y="1760" width="2030" height="200" as="geometry" />
        </mxCell>
        <mxCell id="PHoNQdwAoVbEZFHkZa52-98" value="" style="group" vertex="1" connectable="0" parent="PHoNQdwAoVbEZFHkZa52-97">
          <mxGeometry x="903.36" y="50" width="213.29" height="100" as="geometry" />
        </mxCell>
        <mxCell id="PHoNQdwAoVbEZFHkZa52-99" value="" style="shape=image;verticalLabelPosition=bottom;labelBackgroundColor=default;verticalAlign=top;aspect=fixed;imageAspect=0;image=data:image/svg+xml,PHN2ZyB4bWxuczp4bGluaz0iaHR0cDovL3d3dy53My5vcmcvMTk5OS94bGluayIgeG1sbnM9Imh0dHA6Ly93d3cudzMub3JnLzIwMDAvc3ZnIiBwcmVzZXJ2ZUFzcGVjdFJhdGlvPSJ4TWlkWU1pZCIgdmVyc2lvbj0iMS4xIiB2aWV3Qm94PSIwIDQuNzY4MzcxNTgyMDMxMjVlLTcgNTExLjUyMzcxMjE1ODIwMzEgMTUwLjk2MDYxNzA2NTQyOTciIGhlaWdodD0iMjM1Ljg3NTk2NDE2NDczMzkiIHdpZHRoPSI3OTkuMjU1ODAwMjQ3MTkyNCI+JiN4YTsgICAgPGc+JiN4YTsgICAgICAgIDxwYXRoIGZpbGwtcnVsZT0ibm9uemVybyIgZmlsbD0iI0E1NzI0MiIgZD0iTTM5MS4zODI1MSw3Ny43NTc0NDE5IEMzOTcuODIzODQ5LDc3Ljc1NzQ0MTkgNDAzLjA1MTQzMiw4MC41MDc0ODg4IDQwNy4wNjUwMDcsODYuMDA3NDY4NiBMNDA3LjA2NTAwNyw3OC43OTc5OTAzIEw0MTIuMDQ0NjgxLDc4Ljc5Nzk5MDMgTDQxMi4wNDQ2ODEsMTE4LjI2NDM1NCBMNDA3LjA2NTAwNywxMTguMjY0MzU0IEw0MDcuMDY1MDA3LDExMS41MDA4MjEgQzQwMi41NTU4NjcsMTE2LjkwMTczOCAzOTcuNDAyNzQ1LDExOS42MDIyMDMgMzkxLjYwNTM4OCwxMTkuNjAyMjAzIEMzODUuODA4MTU3LDExOS42MDIyMDMgMzgwLjkwMjY5MiwxMTcuNTQ1ODg1IDM3Ni44ODkxMTcsMTEzLjQzMzI2MSBDMzcyLjkyNTIyNiwxMDkuMjcxMDkzIDM3MC45NDMyMTcsMTA0LjM0MDg5OSAzNzAuOTQzMjE3LDk4LjY0MjY1NTIgQzM3MC45NDMyMTcsOTIuODk0OTE3OSAzNzIuOTUwMDA0LDg3Ljk4OTUwMjggMzc2Ljk2MzQ1Miw4My45MjYzODQ2IEMzODAuOTc3MDI2LDc5LjgxMzc5ODMgMzg1Ljc4MzM3OSw3Ny43NTc0NDE5IDM5MS4zODI1MSw3Ny43NTc0NDE5IFogTTMwMS40OTY3NjUsNzcuNzU3NDQxOSBDMzA3LjkzODIzLDc3Ljc1NzQ0MTkgMzEzLjE2NTY4Nyw4MC41MDc0ODg4IDMxNy4xNzkyNjIsODYuMDA3NDY4NiBMMzE3LjE3OTI2Miw3OC43OTc5OTAzIEwzMjIuMTU5MDYyLDc4Ljc5Nzk5MDMgTDMyMi4xNTkwNjIsMTE4LjI2NDM1NCBMMzE3LjE3OTI2MiwxMTguMjY0MzU0IEwzMTcuMTc5MjYyLDExMS41MDA4MjEgQzMxMi42NzAyNDgsMTE2LjkwMTczOCAzMDcuNTE3LDExOS42MDIyMDMgMzAxLjcxOTc2OSwxMTkuNjAyMjAzIEMyOTUuOTIyNDEyLDExOS42MDIyMDMgMjkxLjAxNjk0NywxMTcuNTQ1ODg1IDI4Ny4wMDM0OTksMTEzLjQzMzI2MSBDMjgzLjAzOTQ4MSwxMDkuMjcxMDkzIDI4MS4wNTc0NzIsMTA0LjM0MDg5OSAyODEuMDU3NDcyLDk4LjY0MjY1NTIgQzI4MS4wNTc0NzIsOTIuODk0OTE3OSAyODMuMDY0MjU5LDg3Ljk4OTUwMjggMjg3LjA3NzgzMyw4My45MjYzODQ2IEMyOTEuMDkxMjgxLDc5LjgxMzc5ODMgMjk1Ljg5NzYzNCw3Ny43NTc0NDE5IDMwMS40OTY3NjUsNzcuNzU3NDQxOSBaIE00MzQuNDY4OTk4LDY0Ljg5OTI4ODkgQzQ0Mi4wNTAxMzgsNjQuODk5Mjg4OSA0NDcuNTk5NTg2LDY1LjQ2OTE2MzggNDUxLjExNzcyMSw2Ni42MDg3NDk0IEM0NTQuNjg1Mjg3LDY3LjY5ODg5MjIgNDU3Ljc1NzI4Nyw2OS40NTc5MDkzIDQ2MC4zMzM5NzQsNzEuODg1ODAwNyBDNDYyLjkxMDUzNSw3NC4yNjQyMzY2IDQ2NC44OTI1NDQsNzcuMTg3NjY4MSA0NjYuMjc5ODc0LDgwLjY1NjA5NTIgQzQ2Ny42NjczMzEsODQuMTI0NjIzNCA0NjguMzYwOTk2LDg4LjE4NzY5MSA0NjguMzYwOTk2LDkyLjg0NTMzNjEgQzQ2OC4zNjA5OTYsOTcuNDUzNDg3OCA0NjcuMjcwODc5LDEwMS44MTM4NTcgNDY1LjA5MDc3LDEwNS45MjY0NjggQzQ2Mi45NjAwOTIsMTA5Ljk4OTU2MSA0NjAuMDM2NjM1LDExMy4wNjE2MzcgNDU2LjMyMDQsMTE1LjE0MjcyMSBDNDUyLjY1MzcyMSwxMTcuMjIzODE4IDQ0Ny4zNTE5MywxMTguMjY0MzU0IDQ0MC40MTUwMjUsMTE4LjI2NDM1NCBMNDIzLjM5NDYyOCwxMTguMjY0MzU0IEw0MjMuMzk0NjI4LDY0Ljg5OTI4ODkgTDQzNC40Njg5OTgsNjQuODk5Mjg4OSBaIE0zNjEuMzQ3NTYsNzguNzk3OTkwMyBMMzYxLjM0NzU2LDExOC4yNjQzNTQgTDM1Ni4yMTkwOSwxMTguMjY0MzU0IEwzNTYuMjE5MDksNzguNzk3OTkwMyBMMzYxLjM0NzU2LDc4Ljc5Nzk5MDMgWiBNMjIxLjYyNTU3Miw2NC44OTkyODg5IEwyNDMuMzI4MzAzLDEwOC42NzY0NzcgTDI2NC44ODI0OTIsNjQuODk5Mjg4OSBMMjY1LjcwMDA0OSw2NC44OTkyODg5IEwyNzMuMzU1NTIzLDExOC4yNjQzNTQgTDI2OC4wNzg1MSwxMTguMjY0MzU0IEwyNjIuODc1NzA1LDgwLjA2MTUwNTIgTDI0My45OTczMTcsMTE4LjI2NDM1NCBMMjQyLjY1OTQxNiwxMTguMjY0MzU0IEwyMjMuNTU4MDI0LDc5Ljc2NDIwMzggTDIxOC4zNTUzNDUsMTE4LjI2NDM1NCBMMjEzLjIyNjg3NSwxMTguMjY0MzU0IEwyMjAuODA4MDE1LDY0Ljg5OTI4ODkgTDIyMS42MjU1NzIsNjQuODk5Mjg4OSBaIE0zNDQuMzYwMzc1LDc3Ljc1NzQ0MTkgQzM0NS45OTU0ODgsNzcuNzU3NDQxOSAzNDcuNjMwNjAxLDc4LjIwMzQzODIgMzQ5LjI2NTcxNCw3OS4wOTUyNzkgTDM0Ni41OTAwNCw4My40MDYxMTY3IEMzNDUuODQ2ODE5LDgyLjk2MDIwOSAzNDUuMDc4ODE5LDgyLjczNzIyOTggMzQ0LjI4NjA0LDgyLjczNzE5MTkgQzM0Mi43NDk5MTQsODIuNzM3MjI5OCAzNDEuMjg4MjQ5LDgzLjUzMDAyMDcgMzM5LjkwMDc5Miw4NS4xMTU1NzczIEMzMzguNTYzMDE4LDg2LjcwMTIwOTYgMzM3LjU3MjAxNCw4OC43NTc1MTU0IDMzNi45Mjc5MDUsOTEuMjg0NTE5OSBDMzM2LjI4MzY3LDkzLjc2MjAzMSAzMzUuOTYxNjc5LDk4LjI5NTgzNTIgMzM1Ljk2MTY3OSwxMDQuODg1OTIgTDMzNS45NjE2NzksMTE4LjI2NDM1NCBMMzMwLjc1ODg3NCwxMTguMjY0MzU0IEwzMzAuNzU4ODc0LDc4Ljc5Nzk5MDMgTDMzNS45NjE2NzksNzguNzk3OTkwMyBMMzM1Ljk2MTY3OSw4NC41MjA5NzQ2IEMzMzcuMzQ5MDA5LDgyLjE5MjE4MzcgMzM4LjY4NjkxLDgwLjQ4MjcyMzEgMzM5Ljk3NTEyNyw3OS4zOTI1ODAzIEMzNDEuMzEzMDI3LDc4LjMwMjUzODYgMzQyLjc3NDY5Miw3Ny43NTc0NDE5IDM0NC4zNjAzNzUsNzcuNzU3NDQxOSBaIE00OTAuMDQzODUsNjQuODk5Mjg4OSBDNDk1LjY0Mjk4MSw2NC44OTkyODg5IDQ5OS44Nzk0MzQsNjYuMDM4OTg4MiA1MDIuNzUzMzM0LDY4LjMxODIwOTkgQzUwNS42NzY3OTEsNzAuNTQ4MDAxNSA1MDcuMTM4NDU2LDczLjc2ODczNDQgNTA3LjEzODQ1Niw3Ny45ODA0MDg1IEM1MDcuMTM4NDU2LDgwLjMwOTMwMDUgNTA2LjU0MzkwNCw4Mi40NjQ3MDY3IDUwNS4zNTQ2NzMsODQuNDQ2NjUyNCBDNTA0LjIxNDk5OSw4Ni4zNzkxMyA1MDIuNTMwMzI5LDg3LjkzOTk0NjIgNTAwLjMwMDY2NCw4OS4xMjkxMDEgQzUwMy45NjczNDMsOTAuMzE4MzMxNiA1MDYuNzQyMTMsOTIuMTAyMTI3IDUwOC42MjUwMjYsOTQuNDgwNDc0NCBDNTEwLjU1NzM1Miw5Ni44NTg4OTc3IDUxMS41MjM3MDQsOTkuNjgzMjI4OCA1MTEuNTIzNzA0LDEwMi45NTM0OCBDNTExLjUyMzcwNCwxMDcuMzYzNDMxIDUwOS45MTMyNDMsMTExLjAzMDExIDUwNi42OTI1NzMsMTEzLjk1MzUyOCBDNTAzLjQ3MTc3NywxMTYuODI3NDE2IDQ5OS4zMDk2NiwxMTguMjY0MzU0IDQ5NC4yMDYwOTQsMTE4LjI2NDM1NCBMNDc5LjQ4OTY5NywxMTguMjY0MzU0IEw0NzkuNDg5Njk3LDY0Ljg5OTI4ODkgTDQ5MC4wNDM4NSw2NC44OTkyODg5IFogTTM5MS42Nzk3MjMsODIuNjYyODY5NyBDMzg3LjMxOTM3OSw4Mi42NjI4Njk3IDM4My42Mjc5MjIsODQuMjczMjY3NyAzODAuNjA1MzUyLDg3LjQ5Mzk2MjYgQzM3Ny41ODI5MDksOTAuNjY1MTc2OSAzNzYuMDcxNTYxLDk0LjQzMDk1NTggMzc2LjA3MTU2MSw5OC43OTEzMTIyIEMzNzYuMDcxNTYxLDEwMy4xNTE3MDYgMzc3LjYwNzY4NywxMDYuOTQyMjUxIDM4MC42Nzk2ODcsMTEwLjE2Mjk3MSBDMzgzLjc1MTgxNCwxMTMuMzM0MTYgMzg3LjQxODQ5MiwxMTQuOTE5NzQyIDM5MS42Nzk3MjMsMTE0LjkxOTc0MiBDMzk1Ljk5MDUxLDExNC45MTk3NDIgMzk5LjY4MTk2NywxMTMuMzgzNzE3IDQwMi43NTQwOTMsMTEwLjMxMTYxNiBDNDA1LjgyNjIyLDEwNy4yMzk1NTIgNDA3LjM2MjIyLDEwMy4zNzQ2NzMgNDA3LjM2MjIyLDk4LjcxNjk3NzQgQzQwNy4zNjIyMiw5NC4yMDc5ODkzIDQwNS44NTA5OTgsOTAuNDE3NDMyMSA0MDIuODI4NDI4LDg3LjM0NTMxODMgQzM5OS44MDU4NTgsODQuMjIzNzIzOCAzOTYuMDg5NjIzLDgyLjY2Mjg2OTcgMzkxLjY3OTcyMyw4Mi42NjI4Njk3IFogTTMwMS43OTQxMDQsODIuNjYyODY5NyBDMjk3LjQzMzYzNCw4Mi42NjI4Njk3IDI5My43NDIxNzcsODQuMjczMjY3NyAyOTAuNzE5NzM0LDg3LjQ5Mzk2MjYgQzI4Ny42OTcxNjQsOTAuNjY1MTc2OSAyODYuMTg1OTQyLDk0LjQzMDk1NTggMjg2LjE4NTk0Miw5OC43OTEzMTIyIEMyODYuMTg1OTQyLDEwMy4xNTE3MDYgMjg3LjcyMTk0MiwxMDYuOTQyMjUxIDI5MC43OTQwNjksMTEwLjE2Mjk3MSBDMjkzLjg2NjA2OSwxMTMuMzM0MTYgMjk3LjUzMjc0NywxMTQuOTE5NzQyIDMwMS43OTQxMDQsMTE0LjkxOTc0MiBDMzA2LjEwNDg5MSwxMTQuOTE5NzQyIDMwOS43OTYzNDgsMTEzLjM4MzcxNyAzMTIuODY4NDc0LDExMC4zMTE2MTYgQzMxNS45NDA0NzQsMTA3LjIzOTU1MiAzMTcuNDc2NjAxLDEwMy4zNzQ2NzMgMzE3LjQ3NjYwMSw5OC43MTY5Nzc0IEMzMTcuNDc2NjAxLDk0LjIwNzk4OTMgMzE1Ljk2NTI1Myw5MC40MTc0MzIxIDMxMi45NDI4MDksODcuMzQ1MzE4MyBDMzA5LjkyMDIzOSw4NC4yMjM3MjM4IDMwNi4yMDQwMDQsODIuNjYyODY5NyAzMDEuNzk0MTA0LDgyLjY2Mjg2OTcgWiBNNDMyLjMxMzU0Miw3MC4xMDIwMDUzIEw0MjguNTIyOTcyLDcwLjEwMjAwNTMgTDQyOC41MjI5NzIsMTEzLjIxMDI4MSBMNDM0LjY5MjAwMywxMTMuMjEwMjgxIEM0NDEuMTMzNDY4LDExMy4yMTAyODEgNDQ1Ljc5MTAyNSwxMTIuODg4MjE0IDQ0OC42NjUwNTIsMTEyLjI0NDA2OCBDNDUxLjU4ODM4MiwxMTEuNTk5OTIxIDQ1NC4xNDAxNjUsMTEwLjMzNjQwNiA0NTYuMzIwNCwxMDguNDUzNTExIEM0NTguNTAwNjM1LDEwNi41MjEwODQgNDYwLjE2MDUyNiwxMDQuMTkyMjQyIDQ2MS4zMDAyLDEwMS40NjY5OTkgQzQ2Mi40Mzk3NDgsOTguNzQxNzgwOSA0NjMuMDA5NjQ4LDk1LjYyMDE0ODUgNDYzLjAwOTY0OCw5Mi4xMDIwODkxIEM0NjMuMDA5NjQ4LDg4LjU4NDA5MjggNDYyLjM0MDYzNSw4NS4zMzg1OTQzIDQ2MS4wMDI4NjEsODIuMzY1NTY4NCBDNDU5LjcxNDUxNyw3OS4zOTI2MzA5IDQ1Ny44NTY0LDc2LjkzOTkxMDcgNDU1LjQyODUwOCw3NS4wMDc0MzMxIEM0NTMuMDAwNjE3LDczLjA3NTA0MzkgNDUwLjEyNjcxNyw3MS43ODY3NTA4IDQ0Ni44MDY5MzQsNzEuMTQyNTUzNiBDNDQzLjUzNjU4Miw3MC40NDg5MDExIDQzOC43MDU0NTEsNzAuMTAyMDA1MyA0MzIuMzEzNTQyLDcwLjEwMjAwNTMgWiBNNDg3LjczOTg1LDkyLjU0ODAzNDcgTDQ4NC43NjY4MzcsOTIuNTQ4MDM0NyBMNDg0Ljc2NjgzNywxMTMuMDYxNjM3IEw0OTEuMzgxNzUxLDExMy4wNjE2MzcgQzQ5NS4xOTY5NzIsMTEzLjA2MTYzNyA0OTcuOTk2NTM4LDExMi42OTAwMTQgNDk5Ljc4MDMyMSwxMTEuOTQ2NzY3IEM1MDEuNjEzNjYsMTExLjE1Mzk3NiA1MDMuMTAwMjMsMTA5Ljk2NDc4MyA1MDQuMjM5OTA0LDEwOC4zNzkxNzYgQzUwNS4zNzk0NTEsMTA2Ljc0NDA1IDUwNS45NDkzNTIsMTA1LjA4NDE0NiA1MDUuOTQ5MzUyLDEwMy4zOTk0MzkgQzUwNS45NDkzNTIsMTAxLjcxNDc1NiA1MDUuNjI3MjM0LDEwMC4yMjgyNzUgNTA0Ljk4MzEyNSw5OC45Mzk5NTY1IEM1MDQuMzM4ODksOTcuNjUxNjg4NyA1MDMuMzcyNjY0LDk2LjUxMjAzOTkgNTAyLjA4NDQ0Nyw5NS41MjEwMjI4IEM1MDAuODQ1NjYsOTQuNTMwMDU2MyA0OTkuMzM0NDM4LDkzLjc4NjgwOTMgNDk3LjU1MDY1NSw5My4yOTEyODE3IEM0OTUuODE2NDI5LDkyLjc5NTgxNzUgNDkyLjU0NjA3Nyw5Mi41NDgwMzQ3IDQ4Ny43Mzk4NSw5Mi41NDgwMzQ3IFogTTQ5MC45MzU3NDIsNzAuMTAyMDA1MyBMNDg0Ljc2NjgzNyw3MC4xMDIwMDUzIEw0ODQuNzY2ODM3LDg3LjE5NjY2MTMgTDQ4Ny44MTQwNTksODcuMTk2NjYxMyBDNDkyLjQ3MTc0Miw4Ny4xOTY2NjEzIDQ5NS45NDAxOTQsODYuNDUzNDUyMiA0OTguMjE5NTQyLDg0Ljk2NjkzMjkgQzUwMC40OTg3NjQsODMuNDgwNDc2OCA1MDEuNjM4NDM4LDgxLjE1MTYzNTMgNTAxLjYzODQzOCw3Ny45ODA0MDg1IEM1MDEuNjM4NDM4LDcyLjcyODE4NiA0OTguMDcwODczLDcwLjEwMjAwNTMgNDkwLjkzNTc0Miw3MC4xMDIwMDUzIFogTTM1OC43NDYwOTUsNjMuNTYxNDM5MiBDMzU5LjkzNTMyNSw2My41NjE0MzkyIDM2MC45MjYzMyw2My45ODI2Njk4IDM2MS43MTkxMDgsNjQuODI0OTU0IEMzNjIuNTYxNDQzLDY1LjYxNzgwODIgMzYyLjk4MjY3Myw2Ni42MDg4IDM2Mi45ODI2NzMsNjcuNzk3OTQyMSBDMzYyLjk4MjY3Myw2OC45Mzc2NDE1IDM2Mi41NjE0NDMsNjkuOTI4NjMzMyAzNjEuNzE5MTA4LDcwLjc3MDkzMDEgQzM2MC45MjYzMyw3MS41NjM3NzE2IDM1OS45MzUzMjUsNzEuOTYwMTIyOCAzNTguNzQ2MDk1LDcxLjk2MDEyMjggQzM1Ny42MDY1NDcsNzEuOTYwMTIyOCAzNTYuNjE1NTQzLDcxLjUzODk5MzQgMzU1Ljc3MzIwOCw3MC42OTY2MDggQzM1NC45ODAzMDMsNjkuODU0MzExMSAzNTQuNTgzOTc3LDY4Ljg4ODA4NDkgMzU0LjU4Mzk3Nyw2Ny43OTc5NDIxIEMzNTQuNTgzOTc3LDY2LjY1ODM1NjUgMzU0Ljk4MDMwMyw2NS42NjczNjQ3IDM1NS43NzMyMDgsNjQuODI0OTU0IEMzNTYuNjE1NTQzLDYzLjk4MjY2OTggMzU3LjYwNjU0Nyw2My41NjE0MzkyIDM1OC43NDYwOTUsNjMuNTYxNDM5MiBaIj4mI3hhOyYjeGE7PC9wYXRoPiYjeGE7ICAgICAgICA8cGF0aCBmaWxsPSIjMDAyQjY0IiBkPSJNMjIyLjM0MDc0MSwwLjAwMzk3MTUyNDk4IEMyMTguODI3NDQ3LDAuMTE2MjMyMjY2IDIxOS45Mzg1MzgsMS4xMjg1Mzg0NCAyMTIuMzQ3MDQ0LDIuOTk2NzQ0MjcgQzIwNC42ODEwMjYsNC44ODMyOTM2IDE5NS4zMTY4NSw0LjMwNDgwOTQ1IDE4Ny4wNjE3MjgsNy43NjY5MjgxNyBDMTYyLjQxODcyNiwxOC4xMDE3NDMgMTU3LjQ3NDQzNyw1My40MjQ2NzM1IDEzNS4wNzE2MDUsNjYuMDc4MDM5MyBDMTE4LjMyNjA0NCw3NS41MzY3NjUyIDEwMS40MzEzMjEsNzYuMjkxMTc1MSA4Ni4yNDE5NzUzLDgxLjA1MDg3ODggQzc2LjI1OTg3MTYsODQuMTgxMDMxOSA2NS4zNDAzNjU0LDkwLjYwMDMyMzUgNTYuMjk2Mjk2Myw5OC4zOTQwODg3IEM0OS4yNzYyMDc0LDEwNC40NDU4MDIgNDkuMDkyOTExNCwxMDkuNzY2ODIyIDQxLjc1ODAyNDcsMTE3LjM1NzA1MiBDMzMuOTEyNDE0OCwxMjUuNDc1NzI4IDEwLjU3NjI3NjUsMTE3LjQ5NDI0MiAwLDEyOS45MjAwMTUgQzMuNDA3MDEyMzUsMTMzLjM2NDk1MyA0LjkwMDY3NDM3LDEzNC4zMjk4NjQgMTEuNjE0ODE0OCwxMzMuNDM2MDY0IEMxMC4yMjQ3NDExLDEzNi4wNzA3NjUgMi4wMzA1NDE0MywxMzguMjkxMTAxIDMuNjM0NTY3OSwxNDIuMTY2OTI4IEM1LjMyMjM0NzQ2LDE0Ni4yNDUxMjggMjUuMTMyNDg3MSwxNDkuMDA5NzAxIDQzLjE0MDc0MDcsMTM4LjEzNzI5OSBDNTEuNTI3NDI3MiwxMzMuMDczODcxIDU4LjIwNzQ1OTYsMTI1Ljc3NTY3MiA3MS4yNjkxMzU4LDEyNC4wMzM1OTUgQzg4LjE3MTQ1NjgsMTIxLjc4MDc5NSAxMDcuNjQyNjQsMTI1LjQ3ODU4NSAxMjcuMjA5ODc3LDEyOC4zMDAyNjIgQzEyNC4zMDg1NDMsMTM2Ljk1MTE2NSAxMTguNDgzNDUsMTQyLjcwNDIxMiAxMTMuODE3Mjg0LDE0OS41OTQwODkgQzExMi4zNzIzMDYsMTUxLjE1MDMxNiAxMTYuNzE5NTUzLDE1MS4zMjQ3NjIgMTIxLjY3OTAxMiwxNTAuMzg0MjEyIEMxMzAuNjAwNDU0LDE0OC4xNzgxODcgMTM3LjAyOTg2LDE0Ni40MDE5OSAxNDMuNzYyOTYzLDE0Mi40ODI5NzggQzE1Mi4wMzQ2MDcsMTM3LjY2NzY0OSAxNTMuMjg4MDcyLDEyNS4zMjIxNDEgMTYzLjQzNzAzNywxMjIuNjUwODc5IEMxNjkuMDkxNzkzLDEzMS4zNDIyMzcgMTg0LjQ3MTQyNiwxMzMuMzk1MzA2IDE5NC4wMTQ4MTUsMTI2LjQ0MzQ3MSBDMTg1LjY0MDc3LDEyNC4wNzMxMDEgMTgzLjMyNjM2NiwxMDYuMjQ4NTQ4IDE4Ni4xNTMwODYsOTguMzk0MDg4NyBDMTg4LjgzMDY1Nyw5MC45NTkzNDMgMTkxLjQ3NjM0NCw3OS4wNjY0MDQ3IDE5NC4xNzI4NCw2OS4yMzg1MzMxIEMxOTcuMDY3ODUyLDU4LjY4Mzc0NzkgMTk4LjEzNTg4NCw0NS4zODA0MDc3IDIwMS42Mzk1MDYsNDAuMDAzOTY1MiBDMjA2LjkxMDc2NywzMS45MTUwMDk5IDIxMi43MzUzMDUsMjkuMTM3MjM5MyAyMTcuNzkyMDU3LDI0LjU3NTk1MTQgQzIyMi44NDg3OTYsMjAuMDE0NjYzNSAyMjcuNDc3MzQsMTUuNTc0NjEyMSAyMjcuMzI1NDQ2LDUuMTM3NDQ3ODcgQzIyNy4yNzY1MjIsMS43NzU2OTM4IDIyNS41MzgzMjYsLTAuMDk4MjEzNTYxNCAyMjIuMzQwNzQxLDAuMDAzOTcxNTI0OTggTDIyMi4zNDA3NDEsMC4wMDM5NzE1MjQ5OCBaIj4mI3hhOyYjeGE7PC9wYXRoPiYjeGE7ICAgICAgICA8cGF0aCBmaWxsLXJ1bGU9Im5vbnplcm8iIGZpbGw9IiNDNDlBNkMiIGQ9Ik0yMTUuNDQ3MDcyLDYuMjA1OTYwMjcgQzIxNi4yOTE1NTYsOS4wODQ1MzgwNCAyMTcuNjEyNjQyLDEwLjQwNTYyNDUgMjIzLjMyNDI4NiwxMC45MzQwNTkgQzIyMi40ODk5MTYsMTguMTc1MzgyNSAyMTcuNjU5NDE3LDIyLjEzNjExMzQgMjEyLjI0MzU5NSwyNS45MzYyOTExIEMyMDcuNDc3NTcsMjkuMjc4ODI5NCAyMDIuMjU2NDM1LDMyLjQ5NzQ3NjMgMTk4LjkwMTI1NCwzNy43MTg2MTIxIEMxOTUuNDYzOTAxLDQzLjA2NzQzMTkgMTkzLjI4MTg5Niw2MS4zNzMwMTIxIDE4Ny45NTIwNCw3OS40NTEwMzY4IEMxODMuMzQ1MzA0LDk1LjA3MTQ2MTUgMTc2LjM4ODQyNSwxMTAuNTE2MTYzIDE2NC4yMzk0ODYsMTE3LjI4MzQxMiBDMTYyLjk3MDIzMiwxMTQuMDg4Nzg1IDE2NC40MDEzMDQsMTA4LjE5MjU2OCAxNjEuODc2NzAxLDEwNi4yNTQ1NTMgQzE2MC4yNDMzNTgsMTEwLjkxMzEyMSAxNTguMzk2MzY1LDExNS4zNTgwMzkgMTU2LjIzMzMyMywxMTkuNDg5NDM3IEMxNDkuMTA0NTE0LDEzMy4xMTQ5NTggMTM4LjU0OTcyOCwxNDMuMzE3MDMyIDEyMC45MTE2NDQsMTQ2LjQzMjAxNSBDMTI5LjI4MDYzMiwxMzUuMTA3MzMzIDEzNy4yODMwMDIsMTIzLjQxMjI0MiAxMzcuNDU2MTk4LDEwMy44OTMwMzIgQzEzMS41NjYzMDEsMTA1LjE2NzM0MyAxMzEuNjkxNDU3LDExOS4wNzk4MzcgMTI1LjYzOTc0MywxMjIuNzk5MTA2IEMxMjEuNzU5OTIxLDEyMy4yMjEzNDggMTE3LjgyOTUzMSwxMjMuMjE4ODIgMTEzLjg3Mzg1NywxMjIuOTgxMTUgQzk3LjYyODkxODUsMTIyLjAwNzcxOCA4MC45NjQyNjY3LDExNy4xMjUzODcgNjUuNzY3MzQ4MSwxMjIuMDAxMzk3IEM1NS40MTk4OTE0LDEyNS4zMjI0NDQgNDYuOTU3MzUzMSwxMzMuMTU2Njc2IDM4LjE5NTIsMTM2Ljk1Njg1NCBDMjcuODk3MDQ2OSwxNDEuNDIzMjY0IDIwLjA5ODIxMjMsMTQzLjI2MDE0MyA3LjI3NDE5MjU5LDE0MS40MjMyNjQgQzUuNjQ1OTA2MTcsMTM5LjIyOTg4MSAxNi42NTk1OTUxLDEzNi4zOTkzNDMgMTYuMDAwOTQ4MSwxMzEuNjM3MTExIEMxMC45ODIwODQsMTMxLjA4MjEyOCA4LjA2ODEwODY0LDEzMi4yOTgyODYgMy43MDUzNjI5NiwxMzAuMzE2MDI0IEM0LjE4NzAyMjIyLDEyOS40Mjg1NTggNC44OTQ5NzI4NCwxMjguNjg5MDAyIDUuNzg2MjMyMSwxMjguMDczMzM4IEMxMy43ODIyODE1LDEyMi41Mzg2ODEgMzYuNDk0ODU0MywxMjYuNzY2MTU4IDQyLjU3MzExNiwxMjAuNzk3ODgxIEM0Ni4zMjUyNTQzLDExNy4xMTY1MzggNDguNzg2NjQ2OSwxMTMuMjYzMjY0IDUxLjMzNTI2OTEsMTA5LjUxNzQ0NyBDNTMuODA2Nzc1MywxMDUuODgyODc5IDU2LjM2MTcxODUsMTAyLjM0OTQ0NyA2MC4yNTQxODI3LDk5LjE2NDkzMzEgQzYxLjY5MTU3NTMsOTcuOTg5MjI5NCA2My4yNTQxMjM1LDk2LjgyNzQzMTkgNjQuOTEyNzUwNiw5NS42OTM0NDY3IEM3MS41NDU5OTUxLDkxLjE1MzcxMzQgNzkuNzUxOTAxMiw4Ny4wMzYyMjIgODcuODI3NTk1MSw4NC4xOTgwOTg1IEM5OC44Mjg2NDIsODAuMzMwOTE4MyAxMDkuOTc2MzM2LDgwLjAxMjM0MDUgMTIxLjcwMTc2OCw3NS41MzIwMjQ1IEMxMjguOTQ1NjIsNzIuNzYzNDMxOSAxMzYuODIyODM1LDY5LjM0Mzc3NzUgMTQzLjI0MzY5NCw2NC41NTg3ODk5IEMxNDQuNzY4MzE2LDYzLjQyMTAxMjEgMTQ2LjIxMDc2NSw2Mi4yMDg2NDY3IDE0Ny41NDQ0OTQsNjAuOTA5MDUxNiBDMTY1Ljg3OTE1MSw0My4wMzU4MjY5IDE2OS41MTM3MTksMTEuNTA4MDA0NyAxOTguMTE4NzE2LDguNTcwMDA5NjUgQzIwMS41Nzc1Niw4LjIxNDc3MDE0IDIwNC40MDkzNjMsOC4zMjk4MTIxMiAyMDYuOTg3MDYyLDguMjUxNDMxODcgQzIwOS45NTc5MjYsOC4xNjI5MzgwNCAyMTIuNTg3NDU3LDcuODE3ODEyMTIgMjE1LjQ0NzA3Miw2LjIwNTk2MDI3IFogTTE4MC41NzUyNywxMDcuMTEyODkyIEMxODAuOTE2NjAzLDExMi41NzY3NTQgMTg0LjA4ODQ3NSwxMjMuNDE3MjQ4IDE4Ni44ODg2NzIsMTI2LjA1MTgzNiBDMTgxLjQwNDU4NCwxMjcuMzg1NTY0IDE3MS45NTcyMzUsMTI1LjE4MjA2OCAxNjkuNTMzNzY5LDEyMS4zMTM2MjMgQzE3MC43NzkwMDMsMTE1LjcyODM5OSAxNzcuMjU5MjgsMTEwLjYyMjMwNSAxODAuNTc1MjcsMTA3LjExMjg5MiBaIj4mI3hhOyYjeGE7PC9wYXRoPiYjeGE7ICAgICAgICA8cGF0aCBmaWxsPSIjMDAyQjY0IiBkPSJNMjE2Ljg0MDA0LDEyLjIyNTAzMjMgQzIxNS43NjI5NDQsMTQuNDg0MTUzMyAyMTMuNzAxMDM4LDE3LjM5Njg2NDQgMjEzLjcwMTAzOCwyMy4xNDc2OTg5IEMyMTMuNjkyMTg4LDI0LjEzNTAzNzIgMjEyLjk1MTM2OSwyNC44MTEzODI5IDIxMi45Mzg3MjcsMjMuMjg5Mjg5MSBDMjEyLjk5NDM1MSwxNy42Njg2NjY4IDIxNC40ODIzMTIsMTUuMjM4ODc5MiAyMTYuMDYyNTU5LDEyLjA0NTUxNjIgQzIxNi43OTcwNTgsMTAuNzM3MDcxOCAyMTcuMjM5NTI3LDExLjI3Njg4NDEgMjE2Ljg0MDA0LDEyLjIyNTAzMjMgWiBNMjE1Ljc1NTM1OSwxMS4zNzQyMjczIEMyMTQuNDg0ODQsMTMuNTI5Njg0MSAyMTEuNDI1NDgyLDE3LjQ2MTMzODQgMjEwLjkxOTgwMywyMy4xOTA2ODE2IEMyMTAuODI2MjUzLDI0LjE3Mjk2MzEgMjEwLjAyNzI4LDI0Ljc4MTA0MjEgMjEwLjE0ODY0MywyMy4yNjI3NDA5IEMyMTAuNjk5ODMzLDE3LjY2OTkzMSAyMTMuMTQ0NzkxLDE0LjE2OTM2ODEgMjE1LjAwMDYzMywxMS4xMjY0NDQ2IEMyMTUuODQyNTg4LDkuODg4Nzk1MjMgMjE2LjIzODI4MiwxMC40NjUyNjkzIDIxNS43NTUzNTksMTEuMzc0MjI3MyBaIE0yMTQuNzY2NzU2LDEwLjI0NjU2MzEgQzIxMy4zMTkyNSwxMi4yODY5Nzc5IDIwOC42MTAxMTQsMTcuMDA4NzU1NyAyMDcuNjI1MzA0LDIyLjY3NjE1MzMgQzIwNy40NDgzMTcsMjMuNjQ1NzkyOCAyMDYuNjAxMzA0LDI0LjE4Njg2OTMgMjA2Ljg1MDM1MSwyMi42ODM3Mzg0IEMyMDcuODY5Mjk1LDE3LjE1NTQwMjYgMjExLjkyODYzMywxMi44MTAzNTU3IDIxNC4wMzM1MjIsOS45MzY4MzQ3MyBDMjE0Ljk3NjYxMyw4Ljc3MjUwODgxIDIxNS4zMjE3MzksOS4zODA1ODc4MiAyMTQuNzY2NzU2LDEwLjI0NjU2MzEgWiBNMjEzLjg4NDM0Niw4Ljk4ODY4NjU5IEwyMTMuNDA4MTIxLDkuNDk1MjI2ODIgQzIxMS4zMDI1MywxMS43NTI2NTQgMjA2LjQxMTAwOSwxNy4yNTg2Njc2IDIwNC43ODA4NiwyMi4yOTgxNTgyIEMyMDQuNDY3MzM5LDIzLjIzMzY2NDQgMjAzLjU1MzMyNCwyMy42NTA4NDk1IDIwNC4wMTIyMjgsMjIuMTk3MDIyNCBDMjA1Ljc5NzI3NSwxNi44NjcxNjU2IDIxMC43MTM3MzksMTEuMTI2NDQ0NiAyMTMuMjAxNjgsOC41Nzc4MjIzOSBDMjE0LjMwMDI2Nyw3LjU1NzYxNDk4IDIxNC41NTU2MzUsOC4yMDg2NzY3MSAyMTMuODg0MzQ2LDguOTg4Njg2NTkgWiBNMTg4LjYwOTI0NSwyMC4zOTkzMzM1IEMxODkuNzAwMjQ4LDE1LjcxMjk1MzMgMTkzLjM0NDkyOSwxMy41Nzc3MjM2IDE5OS42MzY4NCwxNC4wOTg1NzMgQzIwMS4xNTUxNDIsMjEuMDkzMzc3OSAxOTIuNjU4NDcsMjMuOTE1MDY2OCAxODguNjA5MjQ1LDIwLjM5OTMzMzUgWiI+JiN4YTsmI3hhOzwvcGF0aD4mI3hhOyAgICA8L2c+JiN4YTs8L3N2Zz4=;" vertex="1" parent="PHoNQdwAoVbEZFHkZa52-98">
          <mxGeometry width="213.29" height="63" as="geometry" />
        </mxCell>
        <mxCell id="PHoNQdwAoVbEZFHkZa52-100" value="Main Database Server" style="text;html=1;strokeColor=none;fillColor=none;align=center;verticalAlign=middle;whiteSpace=wrap;rounded=0;" vertex="1" parent="PHoNQdwAoVbEZFHkZa52-98">
          <mxGeometry x="1.6399999999999864" y="70" width="210" height="30" as="geometry" />
        </mxCell>
        <mxCell id="PHoNQdwAoVbEZFHkZa52-123" value="" style="endArrow=none;html=1;rounded=0;entryX=0.5;entryY=0;entryDx=0;entryDy=0;exitX=0.5;exitY=1;exitDx=0;exitDy=0;" edge="1" parent="PHoNQdwAoVbEZFHkZa52-117" source="PHoNQdwAoVbEZFHkZa52-49" target="PHoNQdwAoVbEZFHkZa52-97">
          <mxGeometry width="50" height="50" relative="1" as="geometry">
            <mxPoint x="1410" y="1040" as="sourcePoint" />
            <mxPoint x="1460" y="990" as="targetPoint" />
          </mxGeometry>
        </mxCell>
        <mxCell id="PHoNQdwAoVbEZFHkZa52-124" value="" style="endArrow=none;html=1;rounded=0;entryX=1;entryY=0.5;entryDx=0;entryDy=0;exitX=0;exitY=0.5;exitDx=0;exitDy=0;exitPerimeter=0;" edge="1" parent="PHoNQdwAoVbEZFHkZa52-117" source="PHoNQdwAoVbEZFHkZa52-121" target="PHoNQdwAoVbEZFHkZa52-49">
          <mxGeometry width="50" height="50" relative="1" as="geometry">
            <mxPoint x="1410" y="1040" as="sourcePoint" />
            <mxPoint x="1460" y="990" as="targetPoint" />
          </mxGeometry>
        </mxCell>
        <mxCell id="PHoNQdwAoVbEZFHkZa52-265" value="" style="group" vertex="1" connectable="0" parent="PHoNQdwAoVbEZFHkZa52-117">
          <mxGeometry x="2440" y="885" width="230" height="295" as="geometry" />
        </mxCell>
        <mxCell id="PHoNQdwAoVbEZFHkZa52-121" value="" style="outlineConnect=0;dashed=0;verticalLabelPosition=bottom;verticalAlign=top;align=center;html=1;shape=mxgraph.aws3.router;fillColor=#F58534;gradientColor=none;" vertex="1" parent="PHoNQdwAoVbEZFHkZa52-265">
          <mxGeometry width="230" height="240" as="geometry" />
        </mxCell>
        <mxCell id="PHoNQdwAoVbEZFHkZa52-191" value="Router" style="text;html=1;strokeColor=none;fillColor=none;align=center;verticalAlign=middle;whiteSpace=wrap;rounded=0;" vertex="1" parent="PHoNQdwAoVbEZFHkZa52-265">
          <mxGeometry x="50" y="265" width="130" height="30" as="geometry" />
        </mxCell>
        <mxCell id="PHoNQdwAoVbEZFHkZa52-266" value="" style="endArrow=none;html=1;rounded=0;entryX=1;entryY=0.5;entryDx=0;entryDy=0;entryPerimeter=0;exitX=1;exitY=0.5;exitDx=0;exitDy=0;" edge="1" parent="PHoNQdwAoVbEZFHkZa52-117" source="PHoNQdwAoVbEZFHkZa52-117" target="PHoNQdwAoVbEZFHkZa52-121">
          <mxGeometry width="50" height="50" relative="1" as="geometry">
            <mxPoint x="2450" y="940" as="sourcePoint" />
            <mxPoint x="2500" y="890" as="targetPoint" />
          </mxGeometry>
        </mxCell>
        <mxCell id="PHoNQdwAoVbEZFHkZa52-194" value="Google Firebase" style="swimlane;whiteSpace=wrap;html=1;" vertex="1" parent="1">
          <mxGeometry x="1850" y="1220" width="320" height="480" as="geometry" />
        </mxCell>
        <mxCell id="PHoNQdwAoVbEZFHkZa52-198" value="" style="shape=image;verticalLabelPosition=bottom;labelBackgroundColor=default;verticalAlign=top;aspect=fixed;imageAspect=0;image=data:image/svg+xml,PHN2ZyB4bWxuczp4bGluaz0iaHR0cDovL3d3dy53My5vcmcvMTk5OS94bGluayIgeG1sbnM9Imh0dHA6Ly93d3cudzMub3JnLzIwMDAvc3ZnIiBwcmVzZXJ2ZUFzcGVjdFJhdGlvPSJ4TWlkWU1pZCIgdmVyc2lvbj0iMS4xIiB2aWV3Qm94PSIwIDAuMDAwMDU5NjA0NjQ0Nzc1MzkwNjI1IDI1NS4zOTU5MTk3OTk4MDQ3IDM1MC42MDY1MDYzNDc2NTYyNSIgaGVpZ2h0PSI3OTkuMTAzMTQ4MzcwNzI2NiIgd2lkdGg9IjU4Mi4wOTg5NjI1MDY2Nzc0Ij4mI3hhOyAgICA8ZGVmcz4mI3hhOyAgICAgICAgPHBhdGggaWQ9InBhdGgtMSIgZD0iTTEuMjUyNzM0MzcsMjgwLjczMTY0MSBMMi44NTgzNDUzMywyNzcuNjAwODU4IEwxMDIuMjExMTc3LDg5LjA4MzM1NDYgTDU4LjA2MTMyNjYsNS42MDgyMDMzIEM1NC4zOTIwMDExLC0xLjI4MzA0NTc4IDQ1LjA3NDEyNDUsMC40NzM2NzQzOTggNDMuODY5OTIwMyw4LjE4Nzg5MDg2IEwxLjI1MjczNDM3LDI4MC43MzE2NDEgWiI+JiN4YTsmI3hhOzwvcGF0aD4mI3hhOyAgICAgICAgPGZpbHRlciBpZD0iZmlsdGVyLTIiIGZpbHRlclVuaXRzPSJvYmplY3RCb3VuZGluZ0JveCIgaGVpZ2h0PSIyMDAlIiB3aWR0aD0iMjAwJSIgeT0iLTUwJSIgeD0iLTUwJSI+JiN4YTsgICAgICAgICAgICA8ZmVHYXVzc2lhbkJsdXIgcmVzdWx0PSJzaGFkb3dCbHVySW5uZXIxIiBpbj0iU291cmNlQWxwaGEiIHN0ZERldmlhdGlvbj0iMTcuNSI+JiN4YTsmI3hhOzwvZmVHYXVzc2lhbkJsdXI+JiN4YTsgICAgICAgICAgICA8ZmVPZmZzZXQgcmVzdWx0PSJzaGFkb3dPZmZzZXRJbm5lcjEiIGluPSJzaGFkb3dCbHVySW5uZXIxIiBkeT0iMCIgZHg9IjAiPiYjeGE7JiN4YTs8L2ZlT2Zmc2V0PiYjeGE7ICAgICAgICAgICAgPGZlQ29tcG9zaXRlIHJlc3VsdD0ic2hhZG93SW5uZXJJbm5lcjEiIGszPSIxIiBrMj0iLTEiIG9wZXJhdG9yPSJhcml0aG1ldGljIiBpbjI9IlNvdXJjZUFscGhhIiBpbj0ic2hhZG93T2Zmc2V0SW5uZXIxIj4mI3hhOyYjeGE7PC9mZUNvbXBvc2l0ZT4mI3hhOyAgICAgICAgICAgIDxmZUNvbG9yTWF0cml4IGluPSJzaGFkb3dJbm5lcklubmVyMSIgdHlwZT0ibWF0cml4IiB2YWx1ZXM9IjAgMCAwIDAgMCAgIDAgMCAwIDAgMCAgIDAgMCAwIDAgMCAgMCAwIDAgMC4wNiAwIj4mI3hhOyYjeGE7PC9mZUNvbG9yTWF0cml4PiYjeGE7ICAgICAgICA8L2ZpbHRlcj4mI3hhOyAgICAgICAgPHBhdGggaWQ9InBhdGgtMyIgZD0iTTEzNC40MTcxMDMsMTQ4Ljk3NDIzNSBMMTY2LjQ1NTcyMiwxMTYuMTYxNzM4IEwxMzQuNDE3MTA0LDU1LjE1NDY4NzQgQzEzMS4zNzQ4MjgsNDkuMzYzNTkxMSAxMjMuOTgzOTExLDQ4Ljc1NjgzNjIgMTIwLjk3MzgyOCw1NC41NjQ2NDgzIEwxMDMuMjY4NzUsODguNjczODI5NiBMMTAyLjczOTQyMyw5MC40MTc1NDczIEwxMzQuNDE3MTAzLDE0OC45NzQyMzUgWiI+JiN4YTsmI3hhOzwvcGF0aD4mI3hhOyAgICAgICAgPGZpbHRlciBpZD0iZmlsdGVyLTQiIGZpbHRlclVuaXRzPSJvYmplY3RCb3VuZGluZ0JveCIgaGVpZ2h0PSIyMDAlIiB3aWR0aD0iMjAwJSIgeT0iLTUwJSIgeD0iLTUwJSI+JiN4YTsgICAgICAgICAgICA8ZmVHYXVzc2lhbkJsdXIgcmVzdWx0PSJzaGFkb3dCbHVySW5uZXIxIiBpbj0iU291cmNlQWxwaGEiIHN0ZERldmlhdGlvbj0iMy41Ij4mI3hhOyYjeGE7PC9mZUdhdXNzaWFuQmx1cj4mI3hhOyAgICAgICAgICAgIDxmZU9mZnNldCByZXN1bHQ9InNoYWRvd09mZnNldElubmVyMSIgaW49InNoYWRvd0JsdXJJbm5lcjEiIGR5PSItOSIgZHg9IjEiPiYjeGE7JiN4YTs8L2ZlT2Zmc2V0PiYjeGE7ICAgICAgICAgICAgPGZlQ29tcG9zaXRlIHJlc3VsdD0ic2hhZG93SW5uZXJJbm5lcjEiIGszPSIxIiBrMj0iLTEiIG9wZXJhdG9yPSJhcml0aG1ldGljIiBpbjI9IlNvdXJjZUFscGhhIiBpbj0ic2hhZG93T2Zmc2V0SW5uZXIxIj4mI3hhOyYjeGE7PC9mZUNvbXBvc2l0ZT4mI3hhOyAgICAgICAgICAgIDxmZUNvbG9yTWF0cml4IGluPSJzaGFkb3dJbm5lcklubmVyMSIgdHlwZT0ibWF0cml4IiB2YWx1ZXM9IjAgMCAwIDAgMCAgIDAgMCAwIDAgMCAgIDAgMCAwIDAgMCAgMCAwIDAgMC4wOSAwIj4mI3hhOyYjeGE7PC9mZUNvbG9yTWF0cml4PiYjeGE7ICAgICAgICA8L2ZpbHRlcj4mI3hhOyAgICA8L2RlZnM+JiN4YTsJPGc+JiN4YTsJCTxwYXRoIGZpbGw9IiNGRkMyNEEiIGQ9Ik0wLDI4Mi45OTc2MiBMMi4xMjI1MDc0NiwyODAuMDI1NiBMMTAyLjUyNzM2Myw4OS41MTE5Mjg0IEwxMDIuNzM5NDIzLDg3LjQ5NTEzMjMgTDU4LjQ3ODgwNiw0LjM1ODE3NzExIEM1NC43NzA2MjY5LC0yLjYwNjA0MTc5IDQ0LjMzMTMwMzUsLTAuODQ1MjQ1NzcxIDQzLjExNDM0ODMsNi45NTA2NTQ3MyBMMCwyODIuOTk3NjIgWiI+JiN4YTsmI3hhOzwvcGF0aD4mI3hhOwkJPGc+JiN4YTsJCQk8dXNlIHhsaW5rOmhyZWY9IiNwYXRoLTEiIGZpbGwtcnVsZT0iZXZlbm9kZCIgZmlsbD0iI0ZGQTcxMiI+JiN4YTsmI3hhOzwvdXNlPiYjeGE7CQkJPHVzZSB4bGluazpocmVmPSIjcGF0aC0xIiBmaWx0ZXI9InVybCgjZmlsdGVyLTIpIiBmaWxsLW9wYWNpdHk9IjEiIGZpbGw9IiMwMDAwMDAiPiYjeGE7JiN4YTs8L3VzZT4mI3hhOwkJPC9nPiYjeGE7CQk8cGF0aCBmaWxsPSIjRjRCRDYyIiBkPSJNMTM1LjAwNDk3NSwxNTAuMzgwNzA0IEwxNjcuOTYwMTk5LDExNi42Mjk0NjEgTDEzNC45OTU0MjMsNTMuNjk5MzExNCBDMTMxLjg2NjEwOSw0Ny43NDI1MzUzIDEyMy4xMjg4MTcsNDcuNzI1MzQxMSAxMjAuMDMyNjE4LDUzLjY5OTMxMTIgTDEwMi40MjEwMTUsODcuMjg4MDg0OCBMMTAyLjQyMTAxNSw5MC4xNDg3NDQzIEwxMzUuMDA0OTc1LDE1MC4zODA3MDQgWiI+JiN4YTsmI3hhOzwvcGF0aD4mI3hhOwkJPGc+JiN4YTsJCQk8dXNlIHhsaW5rOmhyZWY9IiNwYXRoLTMiIGZpbGwtcnVsZT0iZXZlbm9kZCIgZmlsbD0iI0ZGQTUwRSI+JiN4YTsmI3hhOzwvdXNlPiYjeGE7CQkJPHVzZSB4bGluazpocmVmPSIjcGF0aC0zIiBmaWx0ZXI9InVybCgjZmlsdGVyLTQpIiBmaWxsLW9wYWNpdHk9IjEiIGZpbGw9IiMwMDAwMDAiPiYjeGE7JiN4YTs8L3VzZT4mI3hhOwkJPC9nPiYjeGE7CQk8cG9seWdvbiBwb2ludHM9IjAgMjgyLjk5NzYyIDAuOTYyMDk3MTY4IDI4Mi4wMzAzOTYgNC40NTc3MTE0NCAyODAuNjA5NTYgMTMyLjkzNTMyMyAxNTIuNjA5NTYgMTM0LjU2MzAyNSAxNDguMTc4NTk1IDEwMi41MTMxMjMgODcuMTA0ODU4NCIgZmlsbD0iI0Y2ODIwQyI+JiN4YTsmI3hhOzwvcG9seWdvbj4mI3hhOwkJPHBhdGggZmlsbD0iI0ZERTA2OCIgZD0iTTEzOS4xMjA5NzEsMzQ3LjU1MTI2OCBMMjU1LjM5NTkxNiwyODIuNzAzNjY2IEwyMjIuMTkxNjk4LDc4LjIwOTMzNzMgQzIyMS4xNTMwNTEsNzEuODExMjQ3OCAyMTMuMzAzNjU4LDY5LjI4MTgxNDkgMjA4LjcyNDMxNCw3My44Njk0MzY4IEwwLjAwMDI1NDcyNjM2OCwyODIuOTk3ODc1IEwxMTUuNjA4NDU0LDM0Ny41NDU1MzYgQzEyMi45MTQ2NDMsMzUxLjYyNDk3OSAxMzEuODEyODcyLDM1MS42MjY4OSAxMzkuMTIwOTcxLDM0Ny41NTEyNjgiPiYjeGE7JiN4YTs8L3BhdGg+JiN4YTsJCTxwYXRoIGZpbGw9IiNGQ0NBM0YiIGQ9Ik0yNTQuMzU0MDg0LDI4Mi4xNTk4MzcgTDIyMS40MDE5MzcsNzkuMjE3OTM2OSBDMjIwLjM3MTE3NSw3Mi44Njg0MTg4IDIxMy44NDM3OTIsNzAuMjQwOTU1MyAyMDkuMjk5MjEzLDc0Ljc5Mzc1IEwxLjI4OTQ1MzEyLDI4Mi42MDA3ODUgTDExNS42Mjc4MjUsMzQ2LjUwOTQ1OCBDMTIyLjg3ODU0OCwzNTAuNTU3OTMxIDEzMS43MDkyMjYsMzUwLjU1OTgyNyAxMzguOTYxODQ2LDM0Ni41MTUxNDYgTDI1NC4zNTQwODQsMjgyLjE1OTgzNyBaIj4mI3hhOyYjeGE7PC9wYXRoPiYjeGE7CQk8cGF0aCBmaWxsPSIjRUVBQjM3IiBkPSJNMTM5LjEyMDkwNywzNDUuNjQwODIgQzEzMS44MTI4MDgsMzQ5LjcxNjQ0MiAxMjIuOTE0NTc5LDM0OS43MTQ1MzEgMTE1LjYwODM5LDM0NS42MzUwODkgTDAuOTMxMzQ3NjgsMjgyLjAxNDU1MSBMMC4wMDAxOTEwNDQ3NzYsMjgyLjk5Nzg3NSBMMTE1LjYwODM5LDM0Ny41NDU1MzYgQzEyMi45MTQ1NzksMzUxLjYyNDk3OSAxMzEuODEyODA4LDM1MS42MjY4OSAxMzkuMTIwOTA3LDM0Ny41NTEyNjggTDI1NS4zOTU4NTMsMjgyLjcwMzY2NiBMMjU1LjExMTE5NiwyODAuOTUxNzg1IEwxMzkuMTIwOTA3LDM0NS42NDA4MiBaIj4mI3hhOyYjeGE7PC9wYXRoPiYjeGE7CTwvZz4mI3hhOzwvc3ZnPg==;" vertex="1" parent="PHoNQdwAoVbEZFHkZa52-194">
          <mxGeometry x="83.50999999999999" y="135" width="152.97" height="210" as="geometry" />
        </mxCell>
        <mxCell id="PHoNQdwAoVbEZFHkZa52-258" value="" style="group" vertex="1" connectable="0" parent="1">
          <mxGeometry x="-490.32000000000005" y="2366" width="210.64" height="80" as="geometry" />
        </mxCell>
        <mxCell id="PHoNQdwAoVbEZFHkZa52-259" value="" style="shape=image;verticalLabelPosition=bottom;labelBackgroundColor=none;verticalAlign=top;aspect=fixed;imageAspect=0;image=data:image/svg+xml,PHN2ZyB4bWxuczp4bGluaz0iaHR0cDovL3d3dy53My5vcmcvMTk5OS94bGluayIgeG1sbnM9Imh0dHA6Ly93d3cudzMub3JnLzIwMDAvc3ZnIiB4bWw6c3BhY2U9InByZXNlcnZlIiBzdHlsZT0iZW5hYmxlLWJhY2tncm91bmQ6bmV3IDAgMCAxNTAwIDQ3MDsiIHZpZXdCb3g9IjAgMCAxNTAwIDQ3MCIgeT0iMHB4IiB4PSIwcHgiIGlkPSLroIjsnbTslrRfMSIgdmVyc2lvbj0iMS4xIj4mI3hhOzxnPiYjeGE7CTxwYXRoIGQ9Ik0xOTgsMTE5djc2SDgzdi03NkgxOTggTTI0OCw2OUg2M2MtMTYuNTY5LDAtMzAsMTMuNDMxLTMwLDMwdjExNmMwLDE2LjU2OSwxMy40MzEsMzAsMzAsMzBoMTg1VjY5TDI0OCw2OXoiLz4mI3hhOzwvZz4mI3hhOzxnPiYjeGE7CTxyZWN0IGhlaWdodD0iMzAzIiB3aWR0aD0iNTIuNSIgeT0iNjkiIHg9IjMyLjUiLz4mI3hhOzwvZz4mI3hhOzxnPiYjeGE7CSYjeGE7CQk8cmVjdCBoZWlnaHQ9IjE3Ni45MzkiIHdpZHRoPSI1Mi41IiB0cmFuc2Zvcm09Im1hdHJpeCgwLjc5MTQgLTAuNjExMyAwLjYxMTMgMC43OTE0IC0xMzYuNjIxNiAxNzEuMjY0NykiIHk9IjE5Ny4zMzciIHg9IjE1Ni4zNzIiLz4mI3hhOzwvZz4mI3hhOzxnPiYjeGE7CTxyZWN0IGhlaWdodD0iNTIuNSIgd2lkdGg9Ijc5Ljg0OCIgeT0iMzE5LjU1NyIgeD0iMjE2LjE1MiIvPiYjeGE7PC9nPiYjeGE7PGc+JiN4YTsJPHJlY3QgaGVpZ2h0PSIzMDMiIHdpZHRoPSI1Mi41IiB5PSI2OSIgeD0iMjk1LjUiLz4mI3hhOzwvZz4mI3hhOzxnPiYjeGE7CTxwYXRoIGQ9Ik01MzguMDc4LDM0My41NDFsLTQyLjM1MywyOC44NzJjLTAuMjgzLDAuMTkzLTAuNjcsMC4xMi0wLjg2My0wLjE2M0wzMDYuNDEzLDk1LjgwOWMtMC4xOTMtMC4yODMtMC4xMi0wLjY3LDAuMTYzLTAuODYzJiMxMDsmIzk7JiM5O2wzNS45MjYtMjQuNDkxYzMuODMzLTIuNjEzLDkuMDU4LTEuNjI0LDExLjY3MSwyLjIwOWwxODQuMDY3LDI3MC4wMTRDNTM4LjQzNCwzNDIuOTYyLDUzOC4zNjEsMzQzLjM0OCw1MzguMDc4LDM0My41NDF6Ii8+JiN4YTs8L2c+JiN4YTs8Zz4mI3hhOwk8cmVjdCBoZWlnaHQ9IjMwMC4xMTQiIHdpZHRoPSI1MiIgeT0iNzIuNDQzIiB4PSI0OTQiLz4mI3hhOzwvZz4mI3hhOzxnPiYjeGE7CTxwYXRoIGQ9Ik02MDMuOTM4LDE3OS43MnYzOC4zMDNoLTE1Ljg4M3YtOTEuODMzaDM1Ljc5M2M0LjI5NiwwLDguMjY3LDAuNzYyLDExLjkxMiwyLjI4NGMzLjY0NCwxLjUyMyw2Ljc5MSwzLjY3MSw5LjQzOCw2LjQ0MiYjMTA7JiM5OyYjOTtjMi42NDcsMi43NzMsNC42OTksNi4wNzMsNi4xNTcsOS44OThjMS40NTcsMy44MjcsMi4xODcsOC4wNDQsMi4xODcsMTIuNjVjMCw0LjE0LTAuNTk1LDcuOTA3LTEuNzg0LDExLjMwNCYjMTA7JiM5OyYjOTtjLTEuMTksMy4zOTctMi44NzcsNi4zODQtNS4wNjQsOC45NjFjLTIuMTg3LDIuNTc3LTQuNzk2LDQuNjg1LTcuODI2LDYuMzI1Yy0zLjAzMiwxLjY0LTYuMzg3LDIuNzM0LTEwLjA3LDMuMjhsMjUuODk2LDMwLjY4OSYjMTA7JiM5OyYjOTtoLTE5LjQ1TDYwMy45MzgsMTc5LjcyeiBNNjIyLjIzNywxNzQuNTY2YzQuODM0LDAsOC41NTQtMS42MiwxMS4xNjQtNC44NjFjMi42MDgtMy4yNCwzLjkxMy03LjMyMSwzLjkxMy0xMi4yNDEmIzEwOyYjOTsmIzk7YzAtNC45MTktMS4zMDUtOC45NzktMy45MTMtMTIuMTgyYy0yLjYwOS0zLjIwMS02LjMzLTQuODAzLTExLjE2NC00LjgwM2gtMTguMjk5djM0LjA4Nkg2MjIuMjM3eiIvPiYjeGE7CTxwYXRoIGQ9Ik03MzguNTkzLDEyNi4xODl2OTEuODMzSDcyMi43MXYtMzcuOTUyaC0zNi4wMjNsLTUuNzU0LTEwLjE5djQ4LjE0Mkg2NjUuMDV2LTkxLjgzM2gxNS44ODN2MzkuODI2aDQxLjc3OHYtMzkuODI2SDczOC41OTMmIzEwOyYjOTsmIzk7eiIvPiYjeGE7CTxwYXRoIGQ9Ik03ODMuNTkzLDE3MS44NzJoLTExLjM5NWwtMjQuOTc0LTQ1LjY4M2gxOC4xODRsMjEuNDA3LDM5LjU5MmwyMS40MDYtMzkuNTkyaDE4LjE4NWwtMzEuNjUsNTguMjE2djMzLjYxOGgtMTUuODgydi0zNy4zNjYmIzEwOyYjOTsmIzk7TDc4My41OTMsMTcxLjg3MnoiLz4mI3hhOwk8cGF0aCBkPSJNODc5LjkyNSwyMDAuMTAyaC0zMS42NWwtNS4xNzktOS4yNTRsLTguNjMyLDI3LjE3NWgtMTYuNjg4bDI5LjgwOS05MS44MzNoMjQuOTc1bDI5LjgwOSw5MS44MzNoLTE2LjY4OEw4NzkuOTI1LDIwMC4xMDJ6JiMxMDsmIzk7JiM5OyBNODQ0LjcwNywxODUuNTc3aDMwLjYxNGwtMTUuMTkyLTQ4LjI1OUw4NDQuNzA3LDE4NS41Nzd6Ii8+JiN4YTsJPHBhdGggZD0iTTkxMi4xNDksMjI0LjU4M3YtMTcuOTIxaDE3LjQ5NHYxNy45MjFIOTEyLjE0OXoiLz4mI3hhOwk8cGF0aCBkPSJNOTQ2LjkwNywxMjYuMTg5aDI3LjczNmwzMC4xNTQsODEuMTc0di04MS4xNzRoMTUuNjUydjkxLjgzM2gtMjcuNzM3bC0zMC4xNTMtODEuMTc0djgxLjE3NGgtMTUuNjUyVjEyNi4xODl6Ii8+JiN4YTsJPHBhdGggZD0iTTEwNDYuNTc0LDE4MC4zMDZjLTAuMDc3LDAuNjI2LTAuMTE1LDEuMjMtMC4xMTUsMS44MTVjMCwwLjU4NiwwLDEuMTkyLDAsMS44MTZjMCwzLjkwNiwwLjUzNiw3LjIwNCwxLjYxMSw5Ljg5OCYjMTA7JiM5OyYjOTtjMS4wNzMsMi42OTQsMi41MzIsNC45MDEsNC4zNzMsNi42MThjMS44NDIsMS43MTgsMy45MzIsMi45NjgsNi4yNzIsMy43NDhjMi4zNCwwLjc4Miw0Ljc3NiwxLjE3MSw3LjMwOSwxLjE3MSYjMTA7JiM5OyYjOTtjMy42MDUsMCw2LjYxOC0wLjY2Myw5LjAzNC0xLjk5MWMyLjQxNy0xLjMyNyw0LjM5Mi0zLjI0LDUuOTI4LTUuNzRoMTUuNjUyYy0xLjE1MSwzLjUxNC0yLjc2Myw2LjYxOC00LjgzNCw5LjMxMiYjMTA7JiM5OyYjOTtjLTIuMDcxLDIuNjk0LTQuNDUxLDQuOTU4LTcuMTM2LDYuNzkzYy0yLjY4NywxLjgzNC01LjYyMSwzLjIwMS04LjgwNSw0LjFjLTMuMTg1LDAuODk3LTYuNDY1LDEuMzQ3LTkuODQsMS4zNDcmIzEwOyYjOTsmIzk7Yy00LjM3MywwLTguNTk0LTAuNzQzLTEyLjY2LTIuMjI2Yy00LjA2Ny0xLjQ4NC03LjY5My0zLjY4OS0xMC44NzYtNi42MThjLTMuMTg1LTIuOTI4LTUuNzM2LTYuNTk4LTcuNjUzLTExLjAxJiMxMDsmIzk7JiM5O2MtMS45MTktNC40MTEtMi44NzctOS41NDctMi44NzctMTUuNDAzYzAtNS43NzgsMC45NzgtMTAuODc0LDIuOTM1LTE1LjI4NmMxLjk1Ni00LjQxMSw0LjUwNy04LjEyMSw3LjY1My0xMS4xMjgmIzEwOyYjOTsmIzk7YzMuMTQ2LTMuMDA1LDYuNzEzLTUuMjcxLDEwLjcwMy02Ljc5M2MzLjk4OS0xLjUyMyw4LjA1Ny0yLjI4NCwxMi4yLTIuMjg0YzQuMjk2LDAsOC40MDEsMC44NCwxMi4zMTQsMi41MTgmIzEwOyYjOTsmIzk7YzMuOTEzLDEuNjgsNy4zNDYsNC4xMiwxMC4zMDEsNy4zMjFjMi45NTIsMy4yMDMsNS4zMTIsNy4wODYsNy4wNzgsMTEuNjU1YzEuNzY0LDQuNTY4LDIuNjQ2LDkuNzQyLDIuNjQ2LDE1LjUydjQuNDUxaC00NC41NCYjMTA7JiM5OyYjOTtMMTA0Ni41NzQsMTgwLjMwNnogTTEwNjUuNDQ5LDE2Mi4wMzNjLTEuODQyLDAtMy43MjMsMC4yNzQtNS42NCwwLjgyYy0xLjkxOSwwLjU0Ny0zLjcwMywxLjQwNi01LjM1MiwyLjU3NyYjMTA7JiM5OyYjOTtjLTEuNjUxLDEuMTcxLTMuMTI3LDIuNzE0LTQuNDMyLDQuNjI3Yy0xLjMwNSwxLjkxNC0yLjI2NCw0LjIzNy0yLjg3Nyw2Ljk2OWgzNS4yMThjLTAuNjE1LTQuNTI4LTIuNDc1LTguMTU5LTUuNTgyLTEwLjg5NCYjMTA7JiM5OyYjOTtDMTA3My42NzgsMTYzLjQsMTA2OS44OTcsMTYyLjAzMywxMDY1LjQ0OSwxNjIuMDMzeiIvPiYjeGE7CTxwYXRoIGQ9Ik0xMTM4LjA3LDE2My42NzNoLTExLjE2NHY1NC4zNWgtMTUuMTkydi01NC4zNWgtMTIuNjU5di0xNC4wNTZoMTIuNjU5di0yMy40MjdoMTUuMTkydjIzLjQyN2gxNS43NjhMMTEzOC4wNywxNjMuNjczeiIvPiYjeGE7CTxwYXRoIGQ9Ik0xMTQ1LjU1MSwxNDkuNjE3aDE0LjczMWwxMS4xNjMsNTYuNDU4bDkuNjY4LTU2LjQ1OGgyMy4wMTlsOS42NjcsNTYuNDU4bDExLjE2NC01Ni40NThoMTQuNzMxbC0xNC41MDEsNjguNDA2aC0yMy4wMTkmIzEwOyYjOTsmIzk7bC05LjU1My01Ni45MjdsLTkuNTUyLDU2LjkyN2gtMjMuMDE5TDExNDUuNTUxLDE0OS42MTd6Ii8+JiN4YTsJPHBhdGggZD0iTTEzMTEuMTY2LDE4NC4wNTRjMCw1Ljg1Ni0wLjk3OSwxMC45NzItMi45MzYsMTUuMzQ1Yy0xLjk1Niw0LjM3NC00LjU0Niw4LjAyMy03Ljc2OSwxMC45NTImIzEwOyYjOTsmIzk7Yy0zLjIyMywyLjkyOS02Ljg2Nyw1LjEzNC0xMC45MzQsNi42MThjLTQuMDY3LDEuNDgyLTguMTcxLDIuMjI2LTEyLjMxNCwyLjIyNnMtOC4yNDktMC43NDMtMTIuMzE0LTIuMjI2JiMxMDsmIzk7JiM5O2MtNC4wNjgtMS40ODQtNy43MTEtMy42ODktMTAuOTM0LTYuNjE4Yy0zLjIyMy0yLjkyOC01LjgzMi02LjU3OC03LjgyNi0xMC45NTJjLTEuOTk2LTQuMzczLTIuOTkyLTkuNDg4LTIuOTkyLTE1LjM0NSYjMTA7JiM5OyYjOTtjMC01Ljc3OCwwLjk5Ni0xMC44OTQsMi45OTItMTUuMzQ1YzEuOTk0LTQuNDUxLDQuNjA0LTguMTc5LDcuODI2LTExLjE4N2MzLjIyMy0zLjAwNSw2Ljg2NS01LjI3MSwxMC45MzQtNi43OTMmIzEwOyYjOTsmIzk7YzQuMDY1LTEuNTIzLDguMTcxLTIuMjg0LDEyLjMxNC0yLjI4NHM4LjI0NywwLjc2MSwxMi4zMTQsMi4yODRjNC4wNjYsMS41MjIsNy43MTEsMy43ODksMTAuOTM0LDYuNzkzJiMxMDsmIzk7JiM5O2MzLjIyMywzLjAwNyw1LjgxMiw2LjczNSw3Ljc2OSwxMS4xODdDMTMxMC4xODgsMTczLjE2MSwxMzExLjE2NiwxNzguMjc2LDEzMTEuMTY2LDE4NC4wNTR6IE0xMjk1LjM5OCwxODQuMDU0JiMxMDsmIzk7JiM5O2MwLTMuMjgtMC40NDItNi4yNDctMS4zMjQtOC45MDJjLTAuODgzLTIuNjU0LTIuMTI5LTQuOTItMy43NC02Ljc5NHMtMy41My0zLjMxOC01Ljc1NC00LjMzNCYjMTA7JiM5OyYjOTtjLTIuMjI3LTEuMDE0LTQuNjgyLTEuNTIyLTcuMzY2LTEuNTIyYy0yLjY4NywwLTUuMTYxLDAuNTA5LTcuNDI0LDEuNTIyYy0yLjI2NCwxLjAxNi00LjIsMi40Ni01LjgxMiw0LjMzNCYjMTA7JiM5OyYjOTtzLTIuODU5LDQuMTQtMy43NCw2Ljc5NGMtMC44ODMsMi42NTYtMS4zMjQsNS42MjMtMS4zMjQsOC45MDJjMCw2LjYzOCwxLjY2OSwxMS44MTIsNS4wMDcsMTUuNTImIzEwOyYjOTsmIzk7YzMuMzM4LDMuNzEsNy43NjksNS41NjQsMTMuMjkzLDUuNTY0czkuOTM2LTEuODU0LDEzLjIzNS01LjU2NEMxMjkzLjc0NywxOTUuODY2LDEyOTUuMzk4LDE5MC42OTIsMTI5NS4zOTgsMTg0LjA1NHoiLz4mI3hhOwk8cGF0aCBkPSJNMTMyMS41MjEsMjE4LjAyM3YtNjguNDA2aDE0Ljk2MnYxMC4zMDhjMC42MTMtMS4zMjcsMS41MTUtMi42NTQsMi43MDUtMy45ODJjMS4xODgtMS4zMjcsMi42ODUtMi41MzcsNC40ODgtMy42MzEmIzEwOyYjOTsmIzk7YzEuODAyLTEuMDkzLDMuOTUtMS45NzEsNi40NDUtMi42MzVjMi40OTItMC42NjMsNS4zMTItMC45OTYsOC40NTktMC45OTZ2MTYuMzk5Yy00LjQ1MSwwLTguMDk2LDAuNDY5LTEwLjkzNCwxLjQwNiYjMTA7JiM5OyYjOTtjLTIuODQsMC45MzctNS4wNjQsMi4yMDctNi42NzYsMy44MDdjLTEuNjExLDEuNjAyLTIuNzI1LDMuNTE0LTMuMzM3LDUuNzRjLTAuNjE1LDIuMjI2LTAuOTIxLDQuNjI3LTAuOTIxLDcuMjA0djM0Ljc4OUgxMzIxLjUyMXoiLz4mI3hhOwk8cGF0aCBkPSJNMTM5Ni4wOTksMTgyLjg4M2gxMS44NTRsMTkuNDUsMzUuMTRoLTE3LjAzM2wtMTcuMzc5LTMxLjM5MmwtMTAuNTg4LDEyLjUzNHYxOC44NThoLTE1LjE5MnYtOTUuNTgyaDE1LjE5MnY1NS4wNTMmIzEwOyYjOTsmIzk7bDIzLjQ3OS0yNy44NzhoMTguNDE0TDEzOTYuMDk5LDE4Mi44ODN6Ii8+JiN4YTs8L2c+JiN4YTs8Zz4mI3hhOwk8cGF0aCBkPSJNNjAwLjA0NCwyODMuNTY2Yy01LjA3Ny0xLjE4OC04Ljk1OC0zLjQ0NC0xMS42NDItNi43NzFjLTIuNjg1LTMuMzI2LTQuMDI2LTcuMzk1LTQuMDI2LTEyLjIwNiYjMTA7JiM5OyYjOTtjMC0yLjc5MSwwLjQ4MS01LjM3NCwxLjQ0NC03Ljc1YzAuOTYyLTIuMzc1LDIuMzYzLTQuNDI0LDQuMjAyLTYuMTQ3YzEuODM4LTEuNzIyLDQuMTE0LTMuMDczLDYuODI4LTQuMDU0JiMxMDsmIzk7JiM5O2MyLjcxMy0wLjk3OSw1Ljg1LTEuNDcsOS40MS0xLjQ3aDI0LjY4NWwtMy41ODksMTAuODY5aC0yMC45MmMtMy4yMSwwLTUuNjc2LDAuNzEyLTcuMzk3LDIuMTM4JiMxMDsmIzk7JiM5O2MtMS43MjIsMS40MjYtMi41ODIsMy4zMjctMi41ODIsNS43MDJjMCwyLjEzOCwwLjY4NSwzLjk3OSwyLjA1Nyw1LjUyM2MxLjM3LDEuNTQ1LDMuODA4LDIuNzMyLDcuMzA5LDMuNTYzbDEwLjY3OSwyLjU4MyYjMTA7JiM5OyYjOTtjNS4xOTMsMS4yNDgsOS4wNDUsMy41MDYsMTEuNTU1LDYuNzcxYzIuNTA4LDMuMjY3LDMuNzY0LDcuNDI1LDMuNzY0LDEyLjQ3MmMwLDYuMjk3LTEuOTU2LDExLjI0MS01Ljg2NSwxNC44MzQmIzEwOyYjOTsmIzk7Yy0zLjkxLDMuNTkzLTkuNjI5LDUuMzktMTcuMTU3LDUuMzloLTI2LjE3M2wzLjU4OS0xMC44NjloMjEuODg0YzMuOTA5LDAsNi44MjgtMC44MTUsOC43NTMtMi40NDkmIzEwOyYjOTsmIzk7YzEuOTI2LTEuNjMzLDIuODg5LTMuNzI3LDIuODg5LTYuMjgxYzAtMi4wNzgtMC42NDMtMy45MzQtMS45MjYtNS41NjhjLTEuMjg0LTEuNjMzLTMuNjQ4LTIuODY0LTcuMDktMy42OTdMNjAwLjA0NCwyODMuNTY2eiIvPiYjeGE7CTxwYXRoIGQ9Ik02ODcuMTQxLDI4Ni4xNDloLTMwLjExMmwtNC4zNzctNy43NXYyNS45MjVoMzcuMTE1djEwLjY5aC00OS4xOTR2LTY5Ljg0Nmg0OC4zMTl2MTAuNjloLTM2LjIzOXYxOS42aDM0LjQ4OVYyODYuMTQ5eiIvPiYjeGE7CTxwYXRoIGQ9Ik03MTAuMTYyLDI4NS44ODN2MjkuMTMyaC0xMi4wOHYtNjkuODQ2aDI3LjIyM2MzLjI2OCwwLDYuMjg4LDAuNTc5LDkuMDYsMS43MzdjMi43NzEsMS4xNTgsNS4xNjUsMi43OTIsNy4xNzgsNC44OTkmIzEwOyYjOTsmIzk7YzIuMDEzLDIuMTA5LDMuNTc0LDQuNjE5LDQuNjgzLDcuNTI4YzEuMTA4LDIuOTExLDEuNjYzLDYuMTE4LDEuNjYzLDkuNjIyYzAsMy4xNDgtMC40NTMsNi4wMTMtMS4zNTcsOC41OTcmIzEwOyYjOTsmIzk7Yy0wLjkwNSwyLjU4NC0yLjE4OCw0Ljg1NS0zLjg1Miw2LjgxNWMtMS42NjMsMS45Ni0zLjY0NywzLjU2My01Ljk1Miw0LjgxMWMtMi4zMDYsMS4yNDctNC44NTgsMi4wOC03LjY1OSwyLjQ5NWwxOS42OTUsMjMuMzQxJiMxMDsmIzk7JiM5O2gtMTQuNzkzTDcxMC4xNjIsMjg1Ljg4M3ogTTcyNC4wOCwyODEuOTYzYzMuNjc3LDAsNi41MDYtMS4yMzIsOC40OTEtMy42OTdjMS45ODMtMi40NjQsMi45NzYtNS41NjgsMi45NzYtOS4zMSYjMTA7JiM5OyYjOTtjMC0zLjc0Mi0wLjk5My02LjgzLTIuOTc2LTkuMjY2Yy0xLjk4NS0yLjQzNS00LjgxNC0zLjY1Mi04LjQ5MS0zLjY1MmgtMTMuOTE4djI1LjkyNUg3MjQuMDh6Ii8+JiN4YTsJPHBhdGggZD0iTTc4MS40MTYsMzA1LjY2bDE5LjQzMi02MC40OTFoMTIuNjkzbC0yMi42NzIsNjkuODQ2aC0xOC45OTRsLTIyLjY3Mi02OS44NDZoMTIuNjkyTDc4MS40MTYsMzA1LjY2eiIvPiYjeGE7CTxwYXRoIGQ9Ik04MzIuNjIyLDI0NS4xNjl2NjkuODQ2aC0xMi4wNzl2LTY5Ljg0Nkg4MzIuNjIyeiIvPiYjeGE7CTxwYXRoIGQ9Ik04NDEuODEyLDI4MC4wOTJjMC01LjI4NSwwLjgzMi0xMC4xNDEsMi40OTUtMTQuNTY2YzEuNjYzLTQuNDI0LDMuOTgyLTguMjI2LDYuOTU5LTExLjQwMyYjMTA7JiM5OyYjOTtjMi45NzYtMy4xNzcsNi41MjEtNS42NDIsMTAuNjM1LTcuMzk1YzQuMTE0LTEuNzUxLDguNTkzLTIuNjI4LDEzLjQzNy0yLjYyOGMzLjk2OCwwLDcuNjE2LDAuNjEsMTAuOTQyLDEuODI2JiMxMDsmIzk7JiM5O2MzLjMyNiwxLjIxOSw2LjI4NywyLjg5Niw4Ljg4NSw1LjAzNGMyLjU5NiwyLjEzOCw0LjgyOCw0LjY0Nyw2LjY5Niw3LjUyN2MxLjg2NywyLjg4MiwzLjMyNiw1Ljk4NCw0LjM3Nyw5LjMxMWgtMTIuNDMxJiMxMDsmIzk7JiM5O2MtMC41MjQtMS42NjItMS4zMjctMy4yODEtMi40MDYtNC44NTVjLTEuMDgxLTEuNTczLTIuNDA3LTIuOTQtMy45ODMtNC4wOTljLTEuNTc1LTEuMTU4LTMuMzctMi4wOTQtNS4zODMtMi44MDYmIzEwOyYjOTsmIzk7Yy0yLjAxNC0wLjcxMy00LjI0Ni0xLjA2OS02LjY5Ny0xLjA2OWMtMy4wOTQsMC01LjkzOCwwLjYwOS04LjUzNCwxLjgyNmMtMi41OTgsMS4yMTgtNC44NDUsMi45NC02Ljc0LDUuMTY3JiMxMDsmIzk7JiM5O2MtMS44OTcsMi4yMjgtMy4zNyw0Ljg4Ni00LjQyMSw3Ljk3NGMtMS4wNSwzLjA4OS0xLjU3NSw2LjQ3NS0xLjU3NSwxMC4xNTZjMCwzLjY4NCwwLjUyNSw3LjA2OCwxLjU3NSwxMC4xNTYmIzEwOyYjOTsmIzk7YzEuMDUxLDMuMDg5LDIuNTIzLDUuNzQ2LDQuNDIxLDcuOTc0YzEuODk2LDIuMjI3LDQuMTQzLDMuOTUsNi43NCw1LjE2N2MyLjU5NiwxLjIxOCw1LjQ0LDEuODI2LDguNTM0LDEuODI2JiMxMDsmIzk7JiM5O2M0LjMxOCwwLDguMTU1LTAuOTM2LDExLjUxMS0yLjgwN2MzLjM1NS0xLjg3LDUuNzkxLTQuNjc3LDcuMzEtOC40MTloMTIuNDNjLTEuMDUsMy42MjQtMi42MTIsNi44MTUtNC42ODMsOS41NzcmIzEwOyYjOTsmIzk7Yy0yLjA3MiwyLjc2Mi00LjQ5NCw1LjA2NC03LjI2Niw2LjkwNWMtMi43NzIsMS44NC01LjgwOCwzLjIzNi05LjEwNCw0LjE4N2MtMy4yOTgsMC45NDktNi42OTYsMS40MjYtMTAuMTk4LDEuNDI2JiMxMDsmIzk7JiM5O2MtNC44NDQsMC05LjMyMi0wLjg3Ny0xMy40MzctMi42MjhjLTQuMTEzLTEuNzUzLTcuNjU5LTQuMjE3LTEwLjYzNS03LjM5NWMtMi45NzctMy4xNzctNS4yOTYtNi45NzktNi45NTktMTEuNDAzJiMxMDsmIzk7JiM5O0M4NDIuNjQ1LDI5MC4yMzQsODQxLjgxMiwyODUuMzc5LDg0MS44MTIsMjgwLjA5MnoiLz4mI3hhOwk8cGF0aCBkPSJNOTYxLjQ3MiwyODYuMTQ5SDkzMS4zNmwtNC4zNzctNy43NXYyNS45MjVoMzcuMTE1djEwLjY5aC00OS4xOTV2LTY5Ljg0Nmg0OC4zMTl2MTAuNjloLTM2LjIzOXYxOS42aDM0LjQ4OFYyODYuMTQ5eiIvPiYjeGE7PC9nPiYjeGE7PGc+JiN4YTsJPHBhdGggZD0iTTE0MzEuMTMyLDk4LjM1aC0xMC42NDd2LTQuMjYzaDI2LjM1NHY0LjI2M2gtMTAuNjQ4djI4LjcyM2gtNS4wNTlWOTguMzV6Ii8+JiN4YTsJPHBhdGggZD0iTTE0NTIuMjA3LDk0LjA4N2g1LjgyNGw0LjI2OCwxMy40NjRsMS40NzksNS4xMzJoMC4yMDJsMS40MzgtNS4xMzJsNC4zMDktMTMuNDY0aDUuODI0djMyLjk4NWgtNC42MTJ2LTE0Ljg3NiYjMTA7JiM5OyYjOTtjMC0zLjM0NiwwLjU0MS05LjU5OCwwLjc4LTEyLjYwNmgtMC4xNTFsLTIuMDMzLDcuMDU5bC00LjE3LDExLjY3OWgtMy4xNzNsLTQuMTA3LTExLjY3OWwtMi4wMjctNy4wNTloLTAuMTE5JiMxMDsmIzk7JiM5O2MwLjMyMSwzLjAwOSwwLjc4LDkuMjYxLDAuNzgsMTIuNjA2djE0Ljg3NmgtNC41MTJWOTQuMDg3eiIvPiYjeGE7PC9nPiYjeGE7PGc+JiN4YTs8L2c+JiN4YTs8Zz4mI3hhOzwvZz4mI3hhOzxnPiYjeGE7PC9nPiYjeGE7PGc+JiN4YTs8L2c+JiN4YTs8Zz4mI3hhOzwvZz4mI3hhOzxnPiYjeGE7PC9nPiYjeGE7PGc+JiN4YTs8L2c+JiN4YTs8Zz4mI3hhOzwvZz4mI3hhOzxnPiYjeGE7PC9nPiYjeGE7PGc+JiN4YTs8L2c+JiN4YTs8Zz4mI3hhOzwvZz4mI3hhOzxnPiYjeGE7PC9nPiYjeGE7PGc+JiN4YTs8L2c+JiN4YTs8Zz4mI3hhOzwvZz4mI3hhOzxnPiYjeGE7PC9nPiYjeGE7PC9zdmc+;rounded=0;sketch=1;curveFitting=1;jiggle=2;" vertex="1" parent="PHoNQdwAoVbEZFHkZa52-258">
          <mxGeometry width="210.64" height="66" as="geometry" />
        </mxCell>
        <mxCell id="PHoNQdwAoVbEZFHkZa52-260" value="ChatGPT API Server" style="text;html=1;strokeColor=none;fillColor=none;align=center;verticalAlign=middle;whiteSpace=wrap;rounded=0;" vertex="1" parent="PHoNQdwAoVbEZFHkZa52-258">
          <mxGeometry y="50" width="210" height="30" as="geometry" />
        </mxCell>
      </root>
    </mxGraphModel>
  </diagram>
</mxfile>
